<?xml version="1.0" encoding="UTF-8"?>
<svg id="" data-name="" xmlns="http://www.w3.org/2000/svg" viewBox="0 0 1101.03 2912.41">
  <defs>
    <style>
      .ccl-1 {
        stroke-width: 12.67px;
      }

      .ccl-1, .ccl2 {
        stroke: #072334;
      }

      .ccl-1, .ccl2, .ccl3 {
        fill: none;
        stroke-miterlimit: 10;
      }

      .ccl4 {
        fill: #072334;
        stroke-width: 0px;
      }

      .ccl2 {
        stroke-linecap: square;
        stroke-width: 23.8px;
      }

      .ccl3 {
        stroke: #062334;
        stroke-width: 49.45px;
      }
    </style>
  </defs>
  <g>
    <ellipse class="ccl3" cx="559.48" cy="1002.8" rx="1.48" ry="1.55"/>
    <polyline class="ccl3" points="557.66 276.91 560.99 288.9 559.11 300.89 559.42 312.87 560.59 324.86 558.52 336.85 558.71 348.84 559.33 360.83 557.71 372.82 559.07 384.82 558.87 396.81 559.92 408.8 561 420.78 557.98 432.77 558.38 444.76 557.64 456.75 559.27 468.74 559.98 480.73 560.22 492.73 557.34 504.72 557.94 516.71 558.29 528.7 559.34 540.69 557.22 552.68 560.38 564.67 557.9 576.66 559.67 588.65 558.24 600.64 560.79 612.63 560.17 624.62 559.06 636.61 560.15 648.6 559.9 660.59 559.86 672.58 558.78 684.58 560.34 696.57 557.36 708.56 559.78 720.55 560.18 732.54 557.49 744.53 560.35 756.52 558.04 768.52 561.12 780.51 560.34 792.5 557.97 804.49 557.23 816.48 558.8 828.47 559.47 840.46 557.23 852.46 558.47 864.45 559.71 876.44 558.39 888.43 558.02 900.42 557.57 912.42 559.12 924.41 558.08 936.4 558.87 948.39 558.36 960.38 558.98 972.37 558.91 984.37 559.06 996.36 560.35 1008.35 558.66 1020.34 558.28 1032.34 560.7 1044.33 559.83 1056.32 559.23 1068.31 560 1080.3 560.39 1092.3 557.57 1104.29 559.96 1116.28 557.56 1128.27 558.15 1140.27 560.18 1152.26 559.56 1164.25 559.37 1176.25 561.14 1188.24 560.27 1200.23 560.82 1212.22 558.16 1224.22 557.94 1236.2 558.66 1248.19 559.35 1260.18 560.66 1272.17 560.83 1284.16 557.5 1296.15 558.93 1308.14 559.64 1320.13 559.9 1332.12 559.74 1344.11 558.19 1356.11 560.41 1368.1 558.44 1380.09 559.82 1392.08 559.15 1404.07 560.07 1416.06 557.33 1428.05 560.87 1440.04 558.36 1452.04 559.38 1464.03 558.02 1476.02 559.39 1488.02 559.16 1500.01 557.64 1512 559.79 1523.99 560.75 1535.99 557.75 1547.98 558.49 1559.98 560.76 1571.97 558.39 1583.96 557.68 1595.96 560.84 1607.95 558.47 1619.95 560.08 1631.94 557.35 1643.94 559.17 1655.93 559.53 1667.93 558.12 1679.92 557.2 1691.92 559.05 1703.91 557.97 1715.91 558.85 1727.91 559.17 1739.9 560.3 1751.9 560.01 1763.89 560.44 1775.88 561.11 1787.88 557.71 1799.87 558.68 1811.87 558.1 1823.86 558.7 1835.86 559.56 1847.86 560.23 1859.85 557.86 1871.85 557.5 1883.85 557.97 1895.85 557.57 1907.84 558.15 1919.84 559.89 1931.84 559.32 1943.84 560.7 1955.85 560 1967.85"/>
  </g>
  <g>
    <ellipse class="ccl3" cx="559.48" cy="1620.64" rx="1.48" ry="1.55"/>
    <polyline class="ccl3" points="557.66 894.74 560.99 906.73 559.11 918.72 559.42 930.71 560.59 942.69 558.52 954.68 558.71 966.67 559.33 978.66 557.71 990.66 559.07 1002.65 558.87 1014.64 559.92 1026.63 561 1038.62 557.98 1050.61 558.38 1062.6 557.64 1074.58 559.27 1086.57 559.98 1098.57 560.22 1110.56 557.34 1122.55 557.94 1134.54 558.29 1146.53 559.34 1158.52 557.22 1170.51 560.38 1182.5 557.9 1194.49 559.67 1206.48 558.24 1218.47 560.79 1230.47 560.17 1242.46 559.06 1254.44 560.15 1266.43 559.9 1278.43 559.86 1290.42 558.78 1302.41 560.34 1314.4 557.36 1326.39 559.78 1338.38 560.18 1350.37 557.49 1362.36 560.35 1374.36 558.04 1386.35 561.12 1398.34 560.34 1410.33 557.97 1422.32 557.23 1434.31 558.8 1446.3 559.47 1458.3 557.23 1470.29 558.47 1482.28 559.71 1494.27 558.39 1506.26 558.02 1518.25 557.57 1530.25 559.12 1542.24 558.08 1554.23 558.87 1566.22 558.36 1578.21 558.98 1590.21 558.91 1602.2 559.06 1614.19 560.35 1626.18 558.66 1638.17 558.28 1650.17 560.7 1662.16 559.83 1674.15 559.23 1686.14 560 1698.14 560.39 1710.13 557.57 1722.12 559.96 1734.11 557.56 1746.11 558.15 1758.1 560.18 1770.09 559.56 1782.08 559.37 1794.08 561.14 1806.07 560.27 1818.06 560.82 1830.06 558.16 1842.05 557.94 1854.04 558.66 1866.02 559.35 1878.01 560.66 1890 560.83 1901.99 557.5 1913.99 558.93 1925.98 559.64 1937.96 559.9 1949.95 559.74 1961.95 558.19 1973.94 560.41 1985.93 558.44 1997.92 559.82 2009.91 559.15 2021.9 560.07 2033.9 557.33 2045.89 560.87 2057.88 558.36 2069.87 559.38 2081.86 558.02 2093.86 559.39 2105.85 559.16 2117.84 557.64 2129.83 559.79 2141.83 560.75 2153.82 557.75 2165.81 558.49 2177.81 560.76 2189.8 558.39 2201.8 557.68 2213.79 560.84 2225.78 558.47 2237.78 560.08 2249.77 557.35 2261.77 559.17 2273.76 559.53 2285.76 558.12 2297.76 557.2 2309.75 559.05 2321.75 557.97 2333.74 558.85 2345.74 559.17 2357.73 560.3 2369.73 560.01 2381.72 560.44 2393.72 561.11 2405.71 557.71 2417.7 558.68 2429.7 558.1 2441.7 558.7 2453.69 559.56 2465.69 560.23 2477.69 557.86 2489.68 557.5 2501.68 557.97 2513.68 557.57 2525.68 558.15 2537.67 559.89 2549.67 559.32 2561.67 560.7 2573.68 560 2585.69"/>
  </g>
  <polyline class="ccl3" points="2.1 26.55 13.9 27.56 25.7 27.28 37.51 28.56 49.31 28.42 61.12 25.97 72.92 26.53 84.73 28.51 96.53 26.93 108.33 26.59 120.14 26.38 131.95 26.71 143.75 25.92 155.57 25.56 167.38 28.12 179.28 27.32 191.08 29.37 201.25 35.92 213.27 38.67 222.71 46.23 229.73 56.06 237.28 65.16 244.32 74.95 247.52 86.55 250.09 98.19 252.6 110.08 250.64 121.62 248.71 133.15 250.66 144.68 249.42 156.22 252.27 167.75 249.11 179.29 251.91 190.83 253.38 202.99 255.04 215.24 258.83 227.17 265.54 237.78 274.06 246.93 283.12 255.58 294.93 259.98 306.07 264.97 317.83 268.7 330.16 271.44 342.22 271.89 354.26 268.82 366.31 270.46 378.36 268.49 390.41 269.27 402.47 270.9 414.52 271.07 426.57 269.85 438.62 271.8 450.68 268.47 462.73 270.36 474.79 270.05 486.84 268.87 498.89 270.95 510.95 270.75 523 270.13 535.06 271.75 547.12 270.39 559.18 270.59"/>
  <polyline class="ccl3" points="1098.93 26.95 1087.13 25.95 1075.32 26.23 1063.52 24.94 1051.72 25.08 1039.91 27.53 1028.11 26.98 1016.3 25 1004.5 26.57 992.7 26.91 980.89 27.13 969.08 26.79 957.28 27.59 945.46 27.94 933.65 25.38 921.82 27.86 910.38 30.84 898.27 32.61 889.43 41.27 879.83 47.98 870.04 54.97 863.33 64.89 858.95 75.97 853.83 86.65 851.38 98.25 852.2 110.08 850.24 121.62 848.32 133.15 850.27 144.68 849.02 156.22 851.88 167.75 848.71 179.29 851.51 190.83 851.05 203.53 846.91 215.54 841.15 226.64 834.81 237.28 827.13 247.09 817.23 254.64 807.79 263.29 795.89 267.86 783.39 269.93 770.87 269.12 758.81 268.68 746.77 271.74 734.71 270.11 722.67 272.08 710.62 271.29 698.56 269.67 686.51 269.5 674.46 270.72 662.41 268.76 650.35 272.09 638.3 270.21 626.24 270.52 614.19 271.69 602.14 269.62 590.08 269.81 578.03 270.43 565.97 268.81 553.91 270.17 541.85 269.97"/>
  <path class="ccl2" d="M190.63,2861.58c0-4.93,4.27-10.56,6.56-14.86,4.05-7.6,8.34-15.07,12.61-22.54,3.53-6.18,7.84-11.71,11.65-17.71,3.59-5.66,7.06-10.83,11.58-15.77,4.27-4.66,9.36-9.41,13.07-14.48,4.6-6.26,7.74-13.89,11.67-20.55,4.11-6.98,8.71-13.78,13.02-20.64,4.73-7.53,8.37-15.73,13.71-22.84,5.74-7.64,10.66-15.85,16.39-23.5,4.69-6.26,9.41-11.6,13.02-18.55,2.52-4.85,5.99-8.91,8.66-13.65,2.69-4.77,4.79-9.68,7.8-14.28,3.61-5.52,7.22-10.85,8.74-17.24.59-2.47,1.29-4.17,2.94-6.21,3.93-4.85,9.46-8.07,13.85-12.46,3.18-3.18,5.64-5.82,9.38-8.36,3.23-2.19,7.58-6.06,11.55-6.88,2.62-.54,5.72,0,8.4-.03,4.78-.05,9.23-1.45,14.02-1.54,19.7-.37,39.27-1.39,59.01-1.39,17.5,0,35,0,52.51,0,5.82,0,12.78,1.14,18.47.05,1.95-.37,2.89-1.3,4.97-1.54,2.33-.27,54.08,1.54,56.44,1.54l-12.26-1.5c2.36,0,4.95-.3,7.28-.03,2.08.24,3.02,1.17,4.97,1.54,5.7,1.08,12.66-.05,18.47-.05,17.5,0,35,0,52.51,0,19.74,0,39.31,1.02,59.01,1.39,4.79.09,9.24,1.49,14.02,1.54,2.68.03,5.78-.51,8.4.03,3.97.82,8.32,4.68,11.55,6.88,3.74,2.54,6.2,5.18,9.38,8.36,4.39,4.39,9.92,7.61,13.85,12.46,1.65,2.04,2.36,3.74,2.94,6.21,1.52,6.39,5.13,11.72,8.74,17.24,3.01,4.6,5.11,9.51,7.8,14.28,2.67,4.74,6.14,8.8,8.66,13.65,3.61,6.95,8.33,12.29,13.02,18.55,5.73,7.65,10.65,15.86,16.39,23.5,5.34,7.11,8.98,15.31,13.71,22.84,4.31,6.86,8.91,13.66,13.02,20.64s7.07,14.29,11.67,20.55c3.72,5.06,8.81,9.82,13.07,14.48,4.52,4.93,7.99,10.11,11.58,15.77,3.8,6,8.11,11.53,11.65,17.71,4.28,7.47,8.57,14.94,12.61,22.54,2.29,4.3,2.69,12.16,2.7,17.09"/>
  <path class="ccl2" d="M267.77,2880.84c-1.49-9.43,6.73-16.62,11.65-23.91,6.38-9.44,12.63-18.92,19.3-28.16,8.16-11.31,15.4-22.95,22.44-34.98,4.66-7.96,8.79-16.01,14.41-23.26,6.79-8.76,12.23-19.37,18.07-28.81,4.53-7.32,8.25-15.08,12.64-22.49,6.26-10.57,13.36-20.98,21.08-30.45,2.86-3.51,5.15-7.27,8.27-10.57,4.14-4.38,8.44-8.78,12.4-13.32,6.05-6.94,14.58-11.37,23.72-13.25,2.93-.6,5.92-.14,8.89-.21,5.54-.12,10.81-1.67,16.39-1.6,6.86.09,13.71.03,20.57.03,18.33,0,10.99.01,29.32,0,4.69,0,8.59-.15,12.95-1.17,3.4-.8,90.09,3.08,93.05,1.17,0,0-4.69,0,0,0,18.33.01,10.99,0,29.32,0,6.86,0,13.71.05,20.57-.03,5.58-.07,10.85,1.48,16.39,1.6,2.97.07,5.96-.4,8.89.21,9.14,1.89,17.67,6.32,23.72,13.25,3.96,4.54,8.26,8.94,12.4,13.32,3.12,3.29,5.41,7.06,8.27,10.57,7.73,9.47,14.82,19.88,21.08,30.45,4.39,7.41,8.11,15.17,12.64,22.49,5.84,9.44,11.28,20.06,18.07,28.81,5.62,7.26,9.76,15.31,14.41,23.26,7.04,12.03,14.28,23.66,22.44,34.98,6.67,9.25,12.92,18.72,19.3,28.16,4.92,7.28,13.14,14.47,11.65,23.91"/>
  <path class="ccl2" d="M757.09,2891.63c1.27-9.14-8.07-31.99-12.96-39.08-5.98-8.67-10.47-17.25-14.44-27.06-4.5-11.1-9.37-22.8-15.13-33.31-2.42-4.41-5.87-8.05-8.16-12.57-4.63-9.14-8.3-18.64-13.47-27.54-2.55-4.39-5.56-8.32-8.47-12.44-2.04-2.88-3.19-5.99-6.03-8.37-5.37-4.51-8.21-11.15-14.19-15.68-1.93-1.46-4.41-3.31-6.58-4.47-2.72-1.45-6.17-1.53-9.47-2.2-3.04-.62-5.95-1.71-8.97-1.94-5.87-.43-12.01.06-17.9.06-7.62,0-15.24,0-22.87,0-7.62,0-92.32,0-99.94,0-5.9,0-12.03-.49-17.9-.06-3.02.22-5.93,1.32-8.97,1.94-3.3.67-6.74.74-9.47,2.2-2.17,1.16-4.65,3.01-6.58,4.47-5.98,4.52-8.82,11.16-14.19,15.68-2.84,2.38-3.99,5.49-6.03,8.37-2.91,4.11-5.92,8.05-8.47,12.44-5.17,8.9-8.84,18.4-13.47,27.54-2.29,4.52-5.74,8.16-8.16,12.57-5.76,10.51-10.63,22.21-15.13,33.31-3.97,9.8-8.46,18.38-14.44,27.06-4.89,7.1-18.8,34.09-17.53,43.23"/>
  <path class="ccl2" d="M441.39,2899.53c-.37-10.08,2.68-29.36,7.63-37.9,1.6-2.75,3.83-5.52,5.22-8.41,1.31-2.73,1.82-5.79,3.08-8.56,3.64-7.98,7.78-15,10.15-23.52,2.98-10.73,9.44-18.44,14.57-28,2.64-4.92,4.57-10.63,7.56-15.3,2.29-3.57,5.68-4.8,9.5-6.08,6.99-2.35,105.98-1.74,113.81-1.74l-15.7-.8c7.82,0,16.53.19,23.52,2.54,3.82,1.29,7.21,2.52,9.5,6.08,2.99,4.66,4.92,10.38,7.56,15.3,5.14,9.56,11.6,17.28,14.57,28,2.37,8.53,6.51,15.55,10.15,23.52,1.27,2.77,1.77,5.83,3.08,8.56,1.39,2.89,3.62,5.66,5.22,8.41,4.96,8.54,7.97,28.36,7.6,38.44"/>
  <polyline class="ccl-1" points="557.95 2814.44 564.21 2814.8 570.46 2814.28 576.71 2814.62 582.93 2815.36 588.96 2816.04 594.97 2816.97 600.11 2819.32 605.49 2821.26 610.08 2824.58 614.76 2827.62 619.42 2830.01 622.87 2833.43 624.63 2834.74 624.07 2836.38 620.35 2838.84 615.68 2842.83 612.09 2846.33 608.33 2850.14 604.25 2853.63 597.91 2856.73 591.41 2859.04 584.94 2859.92 578.53 2861.13 572.03 2861.81 565.5 2862.04 558.98 2862.04 567.44 2861.89 560.92 2861.55 554.4 2861.65 547.94 2860.62 541.37 2860.6 535.03 2858.92 528.31 2857.11 522.58 2853.07 517.95 2850.31 514.09 2846.56 510.74 2842.82 505.72 2839.33 502.24 2836.48 501.51 2834.68 503.52 2833.37 507.04 2830.05 511.91 2828.07 516.26 2824.43 521.04 2821.43 526.33 2819.36 531.4 2816.79 537.48 2816.12 543.45 2814.73 549.71 2814.58 555.97 2815.03 562.21 2815.24 568.47 2814.9"/>
  <polygon class="ccl4" points="553.85 2838.25 553.65 2840.52 553.89 2842.77 553.85 2845.07 554.29 2847.31 555.43 2849.36 556 2851.54 556.43 2853.83 557.89 2855.62 559.36 2857.33 561.17 2858.63 563.29 2859.25 565.35 2858.53 567.03 2857.15 568.93 2855.78 569.69 2853.61 570.45 2851.49 571.76 2849.54 571.49 2847.15 571.99 2844.96 572.76 2842.79 572.78 2840.52 572.47 2838.25 572.68 2836 572.5 2833.75 571.81 2831.58 571.89 2829.28 571.81 2826.96 570.64 2824.94 570.04 2822.73 568.31 2821.12 567.52 2818.87 565.31 2818.06 563.29 2817.68 561.18 2817.9 559.23 2819.05 557.84 2820.85 556.85 2822.88 555.81 2824.9 555.69 2827.22 555.08 2829.36 554.45 2831.52 553.73 2833.71 553.45 2835.97 553.85 2838.25"/>
</svg>