<?xml version="1.0" encoding="UTF-8"?>
<svg id="Layer_1" data-name="Layer 1" xmlns="http://www.w3.org/2000/svg" viewBox="0 0 110.25 84.84">
  <defs>
    <style>
      .headcls-1 {
        fill: #fee162;
      }

      .headcls-1, .headcls-2, .headcls-3, .headcls-4 {
        stroke-width: 0px;
      }

      .headcls-5 {
        fill: #dd1d48;
      }

      .headcls-5, .headcls-6, .headcls-7, .headcls-8, .headcls-9 {
        stroke: #101232;
        stroke-width: 1.13px;
      }

      .headcls-5, .headcls-7, .headcls-8 {
        stroke-miterlimit: 10;
      }

      .headcls-2, .headcls-8, .headcls-9 {
        fill: #101332;
      }

      .headcls-3 {
        fill: #12bdc6;
      }

      .headcls-6, .headcls-7 {
        fill: #dc1c48;
      }

      .headcls-6, .headcls-9 {
        stroke-miterlimit: 1;
      }

      .headcls-4 {
        fill: #072334;
      }
    </style>
  </defs>
  <g>
    <path class="headcls-7" d="M50.39,22.12c.33.54.37,1.33.12,2.13-.03.12-.09.36-.15.64-.08.41-.27,1.25-.35,1.38-.39.3-1.65.14-2.47.03-.46-.06-.86-.12-1.17-.12h0c-1.14,0-3.05,0-3.86,1.3-.23.36-.38.77-.53,1.17-.1.28-.2.54-.32.78-.15.3-.33.59-.51.87-.41.66-.84,1.34-.91,2.23,0,.1-.02.23-.03.36-.1.9-.23,2.12.3,2.73.51.6,1.53.64,2.34.68.28.02.54.03.73.06,1.14.19,2.4.31,3.74.37.88.04,1.48.25,1.81.65.41.49.5,1.31.3,2.75-.25,1.84-1.52,1.85-3.71,1.71l-.36-.02c-.74-.05-1.48-.17-2.2-.29-1.31-.22-2.66-.45-4.1-.24-1.35.2-1.83.99-2.37,1.92l-.4.68c-.33.56-.66,1.14-1.03,1.7-1.38,2.15-2.53,4.41-3.43,6.71-.14.37-.28.74-.41,1.1-.46,1.27-.9,2.48-1.7,3.59-1.67,2.32-3.11,4.83-4.54,7.88-.27.56-.43,1.22-.6,1.84-.26,1.05-.52,2.03-1.18,2.6-1.64,1.41-5.81,1.12-7.91.62-.2-1.92.9-3.62,1.96-5.26.45-.7.92-1.43,1.27-2.15,2.12-4.38,4.52-8.62,7.12-12.62.65-.99,1.07-2.02,1.48-3.03.23-.56.46-1.13.74-1.71.62-1.3,1.41-2.55,2.17-3.76.42-.66.85-1.35,1.26-2.05.9-1.54,1.61-3,2.25-4.6.32-.81.71-1.63,1.08-2.43.53-1.13,1.08-2.29,1.47-3.48.36-1.07.81-2.01,1.28-3.02.27-.57.55-1.16.81-1.76l.02-.04c.25-.6.5-1.14.89-1.65.96-1.25,1.84-1.31,3.51-1.16,1.38.12,3.08.28,4.67.36.25.02.52,0,.81-.01.86-.03,1.75-.07,2.15.57Z"/>
    <path class="headcls-8" d="M23.38,69.3c.66-.57.92-1.56,1.18-2.6.16-.63.33-1.28.6-1.84,1.43-3.05,2.87-5.56,4.54-7.88.8-1.11,1.24-2.32,1.7-3.59.13-.36.26-.73.41-1.1.9-2.3,2.05-4.56,3.43-6.71.36-.56.7-1.14,1.03-1.7l.4-.68c.55-.92,1.02-1.71,2.37-1.92,1.44-.21,2.79.02,4.1.24.72.12,1.47.24,2.2.29l.36.02c2.2.15,3.46.14,3.71-1.71.2-1.44.11-2.26-.3-2.75-.33-.4-.92-.61-1.81-.65-1.34-.06-2.6-.19-3.74-.37-.19-.03-.45-.04-.73-.06-.81-.03-1.83-.08-2.34-.68-.53-.61-.39-1.84-.3-2.73.01-.13.03-.25.03-.36.07-.9.5-1.57.91-2.23.17-.28.36-.56.51-.87.12-.24.22-.5.32-.78.15-.39.3-.81.53-1.17.81-1.29,2.72-1.29,3.86-1.3h0c.31,0,.71.06,1.17.12.83.11,2.08.28,2.47-.03.08-.13.26-.97.35-1.38.06-.28.12-.52.15-.64.25-.8.21-1.59-.12-2.13-.39-.64-1.28-.6-2.15-.57-.29.02-.55.03-.81.01-1.59-.08-3.3-.23-4.67-.36-1.67-.15-2.55-.08-3.51,1.16-.39.51-.64,1.05-.89,1.65l-.02.04c-.25.6-.54,1.19-.81,1.76-.47,1.01-.92,1.96-1.28,3.02-.39,1.19-.94,2.35-1.47,3.48-.37.79-.76,1.62-1.08,2.43-.64,1.6-1.35,3.07-2.25,4.6-.41.69-.84,1.38-1.26,2.05-.76,1.21-1.55,2.46-2.17,3.76-.28.57-.51,1.15-.74,1.71-.41,1-.83,2.04-1.48,3.03-2.6,4-4.99,8.24-7.12,12.62-.35.72-.82,1.45-1.27,2.15-1.06,1.64-2.16,3.34-1.96,5.26,2.1.5,6.27.79,7.91-.62ZM25.5,49.69c.98-1.5,1.41-3.08,2.19-4.69.97-2.04,2.3-3.89,3.44-5.84.87-1.5,1.58-2.93,2.23-4.55.78-1.97,1.88-3.88,2.55-5.88.57-1.71,1.4-3.17,2.1-4.82,0,0,0-.01,0-.01.27-.64.53-1.21.94-1.74,1.06-1.39,2.11-1.47,3.84-1.31,1.53.14,3.13.28,4.65.36,1.03.05,2.59-.34,3.26.73.44.72.4,1.68.16,2.44-.12.38-.39,2.01-.63,2.2-.74.58-2.94-.01-3.88,0-1.14,0-2.85.02-3.54,1.12-.36.57-.52,1.31-.83,1.92-.51,1.01-1.28,1.8-1.38,2.96-.06.71-.32,2.24.17,2.81.56.65,2.07.48,2.85.61,1.18.2,2.44.32,3.69.37,2.52.11,2.78,1.56,2.46,3.83-.34,2.42-2.38,2.14-4.47,2.01-2.09-.13-4.06-.85-6.23-.53-1.14.17-1.53.78-2.1,1.74-.48.8-.93,1.61-1.44,2.39-1.34,2.1-2.49,4.31-3.39,6.64-.65,1.69-1.1,3.3-2.15,4.77-1.78,2.47-3.21,5.04-4.51,7.82-.69,1.47-.69,3.56-1.87,4.58-1.8,1.54-6.32,1.21-8.5.64-.47-3.03,2.05-5.43,3.24-7.88,2.09-4.32,4.51-8.63,7.13-12.66Z"/>
    <path class="headcls-8" d="M23.63,69.59c1.18-1.02,1.18-3.11,1.87-4.58,1.3-2.78,2.73-5.35,4.51-7.82,1.05-1.47,1.5-3.09,2.15-4.77.9-2.33,2.05-4.55,3.39-6.64.51-.78.96-1.59,1.44-2.39.56-.95.95-1.57,2.1-1.74,2.17-.32,4.14.4,6.23.53,2.09.12,4.13.41,4.47-2.01.32-2.27.06-3.71-2.46-3.83-1.25-.06-2.51-.17-3.69-.37-.77-.12-2.28.05-2.85-.61-.49-.57-.23-2.1-.17-2.81.1-1.16.87-1.94,1.38-2.96.3-.61.47-1.34.83-1.92.69-1.1,2.4-1.12,3.54-1.12.94,0,3.13.59,3.88,0,.24-.19.51-1.81.63-2.2.24-.76.28-1.72-.16-2.44-.66-1.08-2.23-.68-3.26-.73-1.53-.08-3.12-.22-4.65-.36-1.74-.16-2.78-.07-3.84,1.31-.41.54-.67,1.1-.94,1.74,0,0,0,0,0,.01-.7,1.66-1.53,3.11-2.1,4.82-.66,2.01-1.76,3.92-2.55,5.88-.65,1.62-1.35,3.05-2.23,4.55-1.14,1.95-2.46,3.8-3.44,5.84-.78,1.62-1.21,3.19-2.19,4.69-2.62,4.02-5.04,8.34-7.13,12.66-1.19,2.45-3.71,4.85-3.24,7.88,2.18.57,6.7.91,8.5-.64ZM14.75,70.28c-.36-2.3.86-4.2,2.05-6.03.46-.71.9-1.39,1.23-2.07,2.13-4.41,4.54-8.68,7.16-12.7.6-.94.99-1.89,1.4-2.9.24-.57.47-1.16.76-1.75.65-1.35,1.44-2.61,2.21-3.84.42-.66.85-1.34,1.25-2.02.87-1.5,1.57-2.94,2.2-4.51.33-.83.72-1.66,1.1-2.47.52-1.1,1.06-2.25,1.44-3.39.37-1.1.85-2.12,1.32-3.11.26-.56.54-1.15.79-1.75h0c.27-.64.55-1.26.99-1.84,1.22-1.59,2.5-1.61,4.18-1.45,1.36.12,3.07.28,4.64.36.23.01.47,0,.73-.01.97-.04,2.19-.1,2.82.92.45.72.52,1.75.2,2.75-.03.11-.08.32-.13.57-.26,1.17-.39,1.62-.63,1.81-.64.5-1.91.33-3.03.18-.42-.06-.81-.11-1.07-.11h0c-1.05,0-2.64,0-3.22.95-.19.3-.32.65-.46,1.03-.11.28-.21.57-.35.85-.17.33-.36.64-.55.93-.38.61-.74,1.18-.8,1.89-.01.11-.02.24-.04.38-.07.63-.19,1.8.12,2.16.3.35,1.14.39,1.81.42.3.02.58.03.81.07,1.11.18,2.34.3,3.65.36,1.11.05,1.88.36,2.36.92.69.83.63,2.1.46,3.34-.37,2.62-2.56,2.48-4.51,2.35l-.36-.02c-.78-.05-1.54-.17-2.28-.3-1.31-.22-2.54-.43-3.87-.23-.95.14-1.27.6-1.83,1.56l-.4.68c-.33.57-.68,1.16-1.04,1.72-1.35,2.11-2.49,4.32-3.36,6.58-.14.37-.28.73-.41,1.08-.48,1.33-.94,2.58-1.79,3.77-1.65,2.29-3.07,4.76-4.47,7.77-.24.51-.38,1.09-.54,1.71-.29,1.12-.58,2.27-1.43,2.99-1.06.91-2.9,1.21-4.68,1.21-1.64,0-3.23-.25-4.15-.49l-.24-.06-.04-.24Z"/>
  </g>
  <g>
    <path class="headcls-8" d="M89.3,64.25c1.18,1.84,2.41,3.73,2.04,6.03l-.03.24-.24.06c-.92.24-2.51.49-4.15.49-1.79,0-3.62-.29-4.68-1.21-.85-.72-1.14-1.87-1.43-2.99-.16-.62-.3-1.21-.54-1.71-1.41-3.01-2.83-5.48-4.47-7.77-.86-1.19-1.31-2.44-1.79-3.77-.13-.36-.26-.72-.41-1.08-.87-2.25-2.01-4.47-3.36-6.58-.36-.56-.7-1.15-1.03-1.71l-.41-.69c-.56-.95-.88-1.41-1.83-1.56-1.32-.2-2.56.01-3.86.23-.74.12-1.51.25-2.29.3l-.36.02c-1.94.13-4.14.27-4.51-2.35-.17-1.24-.23-2.5.46-3.34.47-.57,1.25-.87,2.36-.92,1.31-.06,2.54-.18,3.65-.36.23-.04.51-.05.81-.07.67-.03,1.5-.07,1.81-.42.31-.36.19-1.53.12-2.16-.02-.14-.03-.26-.04-.37-.06-.71-.42-1.28-.8-1.89-.19-.3-.38-.6-.55-.94-.14-.28-.24-.57-.35-.86-.14-.38-.28-.73-.46-1.03-.59-.94-2.18-.94-3.22-.95h0c-.26,0-.65.06-1.07.11-1.12.15-2.39.32-3.03-.18-.24-.19-.37-.64-.63-1.81-.05-.25-.1-.47-.14-.57-.32-1.01-.24-2.03.2-2.75.63-1.01,1.84-.96,2.82-.92.26.01.51.02.73.01,1.57-.08,3.27-.23,4.64-.36,1.67-.15,2.95-.14,4.18,1.45.45.58.72,1.19.99,1.82v.02c.26.6.54,1.18.81,1.75.47.98.95,1.99,1.31,3.11.38,1.14.92,2.29,1.44,3.39.38.81.77,1.63,1.1,2.47.63,1.57,1.32,3,2.2,4.51.4.68.83,1.36,1.24,2.02.78,1.23,1.57,2.5,2.22,3.85.28.59.52,1.18.76,1.75.41,1.01.8,1.97,1.4,2.9,2.62,4.01,5.03,8.29,7.16,12.7.33.68.77,1.36,1.23,2.07ZM90.97,70.22c.47-3.03-2.05-5.43-3.24-7.88-2.09-4.32-4.51-8.63-7.13-12.66-.98-1.5-1.41-3.08-2.19-4.69-.97-2.04-2.3-3.89-3.44-5.84-.87-1.5-1.58-2.93-2.23-4.55-.78-1.97-1.88-3.88-2.55-5.88-.57-1.71-1.4-3.17-2.1-4.82,0,0,0-.01,0-.01-.27-.64-.53-1.21-.94-1.74-1.06-1.39-2.11-1.47-3.84-1.31-1.53.14-3.13.28-4.65.36-1.03.05-2.59-.34-3.26.73-.44.72-.4,1.68-.16,2.44.12.38.39,2.01.63,2.2.74.58,2.94-.01,3.88,0,1.14,0,2.85.02,3.54,1.12.36.57.52,1.31.83,1.92.51,1.01,1.28,1.8,1.38,2.96.06.71.32,2.24-.17,2.81-.56.65-2.07.48-2.85.61-1.18.2-2.44.32-3.69.37-2.52.11-2.78,1.56-2.46,3.83.34,2.42,2.38,2.14,4.47,2.01,2.09-.13,4.06-.85,6.23-.53,1.14.17,1.53.78,2.1,1.74.48.8.93,1.61,1.44,2.39,1.34,2.1,2.49,4.31,3.39,6.64.65,1.69,1.1,3.3,2.15,4.77,1.78,2.47,3.21,5.04,4.51,7.82.68,1.47.69,3.56,1.87,4.58,1.8,1.54,6.32,1.21,8.5.64Z"/>
    <path class="headcls-8" d="M87.73,62.34c1.19,2.45,3.71,4.85,3.24,7.88-2.18.57-6.7.91-8.5-.64-1.18-1.02-1.19-3.11-1.87-4.58-1.3-2.78-2.73-5.35-4.51-7.82-1.05-1.47-1.5-3.09-2.15-4.77-.9-2.33-2.05-4.55-3.39-6.64-.51-.78-.96-1.59-1.44-2.39-.56-.95-.95-1.57-2.1-1.74-2.17-.32-4.14.4-6.23.53-2.09.12-4.13.41-4.47-2.01-.32-2.27-.06-3.71,2.46-3.83,1.25-.06,2.51-.17,3.69-.37.77-.12,2.28.05,2.85-.61.49-.57.23-2.1.17-2.81-.1-1.16-.87-1.94-1.38-2.96-.3-.61-.47-1.34-.83-1.92-.69-1.1-2.4-1.12-3.54-1.12-.94,0-3.14.59-3.88,0-.24-.19-.51-1.81-.63-2.2-.24-.76-.28-1.72.16-2.44.66-1.08,2.23-.68,3.26-.73,1.53-.08,3.12-.22,4.65-.36,1.74-.16,2.78-.07,3.84,1.31.41.54.67,1.1.94,1.74l-.34.15c-.26-.61-.5-1.15-.9-1.66-.96-1.25-1.84-1.31-3.51-1.16-1.38.12-3.09.28-4.67.36-.25.02-.52,0-.81-.01-.86-.03-1.75-.07-2.15.57-.33.53-.37,1.33-.12,2.13.03.12.09.36.15.64.08.41.27,1.25.38,1.41.36.27,1.61.1,2.44,0,.46-.06.86-.12,1.17-.12h0c1.14,0,3.05,0,3.86,1.3.23.36.38.77.53,1.17.1.28.2.54.32.78.15.3.33.59.51.87.41.65.84,1.33.91,2.23,0,.1.02.22.03.36.1.9.23,2.12-.3,2.73-.51.6-1.53.64-2.34.68-.28.02-.54.03-.73.06-1.14.19-2.4.31-3.74.37-.88.04-1.48.25-1.81.65-.41.49-.5,1.31-.3,2.75.25,1.84,1.52,1.85,3.71,1.71l.36-.02c.74-.05,1.48-.17,2.2-.29.94-.16,1.9-.32,2.9-.32.39,0,.79.02,1.2.08,1.35.2,1.83.99,2.37,1.92l.41.69c.33.56.66,1.13,1.02,1.69,1.38,2.15,2.53,4.41,3.43,6.71.14.37.28.74.41,1.1.47,1.27.9,2.48,1.7,3.59,1.67,2.32,3.11,4.83,4.54,7.88.26.56.43,1.22.6,1.84.26,1.05.52,2.03,1.18,2.6,1.64,1.41,5.81,1.12,7.91.62.2-1.92-.9-3.62-1.96-5.26-.45-.7-.92-1.43-1.27-2.15-2.12-4.38-4.52-8.62-7.12-12.62-.65-.99-1.07-2.02-1.48-3.02-.23-.56-.46-1.14-.74-1.71-.63-1.3-1.41-2.56-2.17-3.77-.42-.66-.85-1.35-1.26-2.04-.9-1.54-1.61-3-2.25-4.6-.32-.82-.71-1.63-1.08-2.43-.53-1.13-1.08-2.29-1.47-3.48-.36-1.07-.81-2.02-1.28-3.02-.27-.57-.55-1.16-.81-1.78l.34-.16s0,0,0,.01c.7,1.66,1.53,3.11,2.1,4.82.66,2.01,1.76,3.92,2.55,5.88.65,1.62,1.35,3.05,2.23,4.55,1.13,1.95,2.46,3.8,3.44,5.84.78,1.62,1.21,3.19,2.19,4.69,2.62,4.02,5.04,8.34,7.13,12.66Z"/>
    <path class="headcls-5" d="M88.67,64.66c1.06,1.64,2.16,3.34,1.96,5.26-2.1.5-6.27.79-7.91-.62-.66-.57-.92-1.56-1.18-2.6-.16-.63-.33-1.28-.6-1.84-1.43-3.05-2.87-5.56-4.54-7.88-.8-1.11-1.23-2.32-1.7-3.59-.13-.36-.26-.73-.41-1.1-.9-2.3-2.05-4.56-3.43-6.71-.36-.55-.69-1.13-1.02-1.69l-.41-.69c-.55-.92-1.02-1.71-2.37-1.92-.41-.06-.81-.08-1.2-.08-1,0-1.96.16-2.9.32-.72.12-1.47.24-2.2.29l-.36.02c-2.2.15-3.46.14-3.71-1.71-.2-1.44-.11-2.26.3-2.75.33-.4.92-.61,1.81-.65,1.34-.06,2.6-.19,3.74-.37.19-.03.45-.04.73-.06.81-.03,1.83-.08,2.34-.68.53-.61.39-1.84.3-2.73-.01-.14-.03-.25-.03-.36-.07-.9-.5-1.57-.91-2.23-.17-.28-.36-.57-.51-.87-.12-.24-.22-.5-.32-.78-.15-.39-.3-.81-.53-1.17-.81-1.29-2.72-1.29-3.86-1.3h0c-.31,0-.71.06-1.17.12-.83.11-2.08.28-2.44,0-.11-.16-.3-1-.38-1.41-.06-.28-.12-.52-.15-.64-.25-.8-.21-1.6.12-2.13.39-.64,1.28-.6,2.15-.57.29.02.55.03.81.01,1.58-.08,3.3-.23,4.67-.36,1.67-.15,2.55-.08,3.51,1.16.39.51.64,1.05.9,1.66l.34-.15-.34.16c.26.61.54,1.2.81,1.78.47,1,.92,1.96,1.28,3.02.39,1.19.94,2.35,1.47,3.48.37.79.76,1.61,1.08,2.43.64,1.6,1.35,3.07,2.25,4.6.41.69.83,1.38,1.26,2.04.76,1.21,1.54,2.47,2.17,3.77.28.57.51,1.15.74,1.71.41,1,.83,2.03,1.48,3.02,2.6,4,4.99,8.24,7.12,12.62.35.72.82,1.45,1.27,2.15Z"/>
  </g>
  <g>
    <path class="headcls-6" d="M45.32,17.48h-1.16c-.14,0-.23,0-.35-.02-.1-.02-.2-.01-.28-.01-.03,0-.07,0-.11,0-.08-.01-.16-.03-.25-.05-.07-.01-.15-.03-.22-.04-.06,0-.12-.01-.18-.01-.03,0-.07,0-.08,0-.06-.02-.11-.03-.16-.04-.06-.02-.12-.03-.19-.06-.06-.03-.14-.08-.2-.13-.01-.01-.03-.06-.05-.08-.02-.03-.04-.07-.06-.1-.02-.03-.06-.09-.06-.11,0-.13-.01-.28,0-.42l.02-.07c.02-.08.01-.14.01-.2,0-.01.02-.05.03-.08.02-.04.03-.08.05-.13.02-.05.02-.09.02-.11l.05-.08c.05-.09.07-.17.08-.24l.02-.06s.03-.08.06-.13l.06-.11c.03-.08.08-.15.12-.23.1-.18.22-.38.26-.63,0-.02.04-.07.06-.11.03-.05.06-.1.08-.15.05-.1.09-.2.14-.3.05-.11.1-.23.16-.33.02-.03.03-.06.05-.09.05-.07.1-.16.15-.28.01-.03.03-.07.06-.11.03-.05.06-.1.08-.15.08-.15.15-.31.22-.47l.05-.1c.08-.19.17-.38.28-.59.02-.05.06-.12.08-.22.02-.07.02-.14.02-.2,0-.08.12-.23.19-.32.19-.24.39-.51.53-.81l.13-.28c.17-.38.36-.77.46-1.2.07-.3.19-.63.31-.94.03-.08.05-.16.08-.25.03-.09.05-.19.1-.28.02-.06.06-.11.08-.16.05-.08.09-.16.12-.24.1-.21.2-.43.3-.64.24-.5.48-1.01.64-1.56.05-.17.12-.34.21-.52.06-.15.13-.3.19-.46.08-.24.21-.47.34-.7l.1-.19c.05-.08.09-.16.14-.24.03-.05.05-.09.07-.14,0-.02.02-.04.02-.05.01-.02.03-.03.05-.05.04-.04.07-.08.12-.14.03-.02.08-.06.14-.11l.06-.07s.05-.05.08-.07c.06-.03.1-.06.13-.07.14-.05.28-.07.45-.11l.13-.03s.1,0,.17-.01l.07-.02s.07,0,.11-.01l.08-.02h.04c.11,0,.21-.02.32-.05.06-.01.13-.02.19-.02h0c.13,0,.24-.03.34-.05.05-.01.09-.02.14-.03.02,0,.04,0,.06,0,.07,0,.16.01.25,0h.06c.05-.02.1-.03.16-.03h1.01l.32-.02c.09,0,.18-.01.28-.01h2.28c.24,0,.43,0,.64.01.34.01.69.03,1.07,0h.1c1.09-.06,2.32-.13,2.96.67.22.27.36.63.34.88-.02.31.07.55.15.77.04.11.08.22.1.33,0,.05.01.11.02.16.01.13.03.26.07.38.01.04.02.07.03.09v.81c0,.06-.01.11-.03.17-.01.05-.02.09-.03.14-.02.01-.03.02-.04.03-.05,0-.1,0-.15.01-.07.02-.14.05-.2.09h-.02s-.08.04-.1.04c-.16.03-.38.02-.58,0-.12,0-.24-.01-.36-.01h-.52s-.09,0-.16-.02c-.08-.02-.19-.05-.32-.04-.59.01-1.18,0-1.76,0h-1.96c-.2,0-.39,0-.61.08-.15.05-.31.1-.48.12-.07,0-.17-.02-.28,0-.08.02-.14.05-.22.08-.05,0-.11.02-.25.07-.05.02-.1.04-.15.07-.31.16-.55.45-.69.65-.21.29-.33.61-.42.88-.03.11-.1.21-.15.3l-.04.06c-.08.13-.12.25-.16.37l-.03.1c-.07.2-.18.39-.29.6-.06.11-.11.21-.16.32-.03.06-.05.11-.07.17-.02.05-.04.1-.06.13l-.04.06c-.06.07-.12.17-.17.32-.02.06-.05.12-.07.18l-.06.17c-.05.12-.06.24-.07.33,0,.04,0,.08-.02.12-.01.06-.03.12-.06.17-.05.14-.1.29-.11.52,0,.1-.01.2,0,.3.02.15.08.25.14.35.1.19.24.39.5.5.2.08.41.08.59.07h.11c.12,0,.24,0,.37.01.14,0,.26,0,.41.02h1.26c.36,0,.72-.05,1.06-.09.17-.02.36-.04.54-.06.07,0,.14-.01.21,0,.07,0,.14.02.2.04.05.01.09.03.14.03.57.13,1.18.06,1.5,0l.23-.05c.21-.04.41-.08.61-.08.23-.01.45,0,.68,0h1.52c.11,0,.21,0,.32.02.1.02.19.02.31.01h.23s.08.03.14.03c.11.01.24,0,.35,0h.6s.04,0,.13.02c.1.02.19.02.31.01h.04s.05.01.05.01c.11.03.21.02.29.02l.04-.38.05.38s.08.06.12.08c.07.04.17.08.24.15.06.05.14.12.15.15-.01.24.02.44.09.63.1.25.21.51.32.77.12.28.25.6.34.97.03.13.06.25.1.38.04.12.07.25.1.38.02.07.03.14.04.2.02.11.03.22.06.36v.05s-.07.03-.1.05l-.06.03s-.05.03-.05.03c-.06.02-.12.04-.18.06-.08.03-.17.06-.23.06-.42.05-.87.04-1.32.06-.29.01-.58.03-.87.03-.45,0-.85-.02-1.27-.04-.23,0-.46-.02-.69-.02-.16,0-.33-.01-.5,0-2.11.08-4.37.15-6.63.1-.69-.01-1.39-.02-2.08-.03-.5,0-1.01-.01-1.52-.01h-.76c-.15,0-.29.02-.43.03-.08.01-.17.02-.26.03-.03,0-.07,0-.11,0h-.87c-.08,0-.17.01-.25.02s-.16.02-.25.01c-.17-.02-.33-.02-.51-.02Z"/>
    <path class="headcls-9" d="M43.46,12.09c.08-.19.17-.38.26-.57.02-.06.06-.11.07-.16s0-.11,0-.17c.02-.17.14-.34.25-.48.18-.24.38-.5.51-.77.21-.46.45-.91.56-1.4.08-.33.2-.67.32-.99.07-.19.11-.37.19-.55.06-.14.15-.26.21-.4.32-.72.72-1.4.93-2.15.1-.34.28-.66.4-1,.11-.3.28-.6.42-.88.06-.11.12-.21.18-.32.04-.07.06-.13.1-.19.03-.05.07-.08.11-.12.05-.05.07-.09.11-.13.04-.05.09-.06.13-.1.02-.03.04-.05.07-.07.05-.05.1-.09.15-.12.07-.05.13-.08.21-.11.16-.06.34-.09.5-.12.05-.01.1-.03.15-.03.05-.01.1,0,.14,0,.03,0,.03-.03.07-.04.03,0,.07.01.11,0s.04-.03.07-.04c.04,0,.1,0,.14,0,.17,0,.35-.07.52-.07.15,0,.29-.06.43-.07.1-.01.2.02.29,0,.1-.02.18-.03.29-.03h.31c.23,0,.46,0,.69,0,.21,0,.4-.02.6-.02.76,0,1.52,0,2.27,0,.57,0,1.12.06,1.69.02,1.17-.06,2.6-.17,3.39.81.25.31.45.76.42,1.16-.02.38.19.64.25,1,.03.16.03.34.08.5.02.07.05.11.05.2v.81c0,.17-.06.29-.07.45-.01.18.01.11-.14.17-.07.03-.13.1-.2.12-.05.01-.1-.01-.15,0-.06.01-.04.04-.08.06-.08.02-.17.07-.26.08-.31.05-.68,0-1,0h-.51c-.18,0-.3-.06-.48-.06-.89.01-1.78,0-2.68,0h-1.03c-.19,0-.34,0-.52.06-.16.05-.34.11-.51.14-.09.01-.19-.03-.28-.01-.06.02-.11.06-.17.07-.08.02-.11.01-.19.05-.06.03-.11.05-.16.07-.23.12-.41.33-.56.54-.18.25-.28.52-.37.78-.05.14-.12.26-.2.39-.01.02-.02.04-.03.06-.08.12-.11.25-.16.39-.13.33-.32.64-.47.96-.06.11-.08.24-.15.34-.07.11-.13.16-.17.29-.04.12-.09.24-.13.36-.05.15-.04.28-.07.41-.04.19-.15.38-.15.58,0,.09-.01.2,0,.29,0,.1.05.13.09.21.08.15.16.26.32.33.16.07.36.04.54.04.26,0,.51.03.77.03.42,0,.85,0,1.26,0,.52,0,1.04-.1,1.56-.14.09,0,.19-.01.28,0,.14.01.26.06.39.08.42.1.92.07,1.35,0,.29-.05.59-.12.89-.14.34-.01.68,0,1.03,0h1.19c.14,0,.25,0,.39.02.07.02.16.01.24.01.07,0,.14,0,.21,0,.08,0,.12.03.19.03.15.02.3,0,.45,0h.46c.08,0,.14.01.21.03.07.02.16,0,.23,0,.03,0,.07,0,.11,0,.04,0,.05.02.08.02.07.02.15.01.22,0h0c.07,0,.14,0,.21.04.05.02.08.06.14.08.11.06.23.12.32.2.15.14.29.26.28.47-.01.16,0,.32.06.47.1.25.21.51.32.76.15.35.28.68.37,1.04.06.26.14.51.2.77.04.17.06.35.1.51.02.07,0,.14,0,.2,0,.06.02.15,0,.2-.02.04-.11.09-.14.11-.05.03-.11.03-.16.06-.07.04-.12.08-.2.1-.15.04-.32.11-.46.13-.16.02-.3.03-.47.03-.59,0-1.18.06-1.78.06-.66,0-1.32-.05-1.98-.06-.16,0-.32-.01-.47,0-2.21.08-4.44.15-6.66.1-.69-.01-1.38-.02-2.07-.03-.51,0-1.01-.01-1.52-.01h-.76c-.23,0-.45.05-.67.06-.07,0-.15,0-.22,0h-.78c-.17,0-.36.04-.54.02-.16-.01-.32-.02-.48-.02h-1.15c-.15,0-.28,0-.42-.03-.12-.02-.24,0-.36-.01-.16-.02-.32-.06-.48-.08-.11-.02-.21,0-.32-.03-.14-.04-.26-.06-.39-.11-.1-.05-.19-.11-.28-.17-.1-.07-.14-.2-.2-.29-.05-.08-.11-.18-.12-.29,0-.15-.01-.31,0-.46,0-.05.02-.08.03-.14.01-.06,0-.11.01-.16,0-.1.06-.18.08-.28.02-.05.01-.09.03-.14,0-.03.05-.09.06-.11.04-.08.05-.16.07-.24.03-.1.09-.19.13-.28.12-.26.31-.48.37-.77.02-.13.12-.24.17-.36.11-.21.19-.44.3-.65.06-.11.13-.19.17-.32.04-.11.11-.2.17-.3.1-.18.17-.37.25-.55ZM43.43,17.44s.07,0,.11,0c.08,0,.17,0,.28.01.12.02.21.02.35.02h1.16c.17,0,.34,0,.51.02.08,0,.16,0,.25-.01s.17-.02.25-.02h.87s.07,0,.11,0c.09,0,.17-.02.26-.03.15-.02.29-.03.43-.03h.76c.51,0,1.01,0,1.52.01.69,0,1.39.02,2.08.03,2.26.05,4.51-.02,6.63-.1.17,0,.33,0,.5,0,.23,0,.46.02.69.02.43.02.83.05,1.27.04.29,0,.59-.02.87-.03.46-.02.91-.01,1.32-.06.06,0,.14-.03.23-.06.06-.02.12-.05.18-.06,0,0,.03-.01.05-.03l.06-.03s.07-.03.1-.05v-.05c-.02-.14-.04-.24-.06-.36-.01-.07-.02-.14-.04-.2-.03-.13-.06-.26-.1-.38-.03-.13-.07-.25-.1-.38-.09-.37-.23-.7-.34-.97-.11-.26-.22-.52-.32-.77-.07-.19-.1-.39-.09-.63-.01-.03-.09-.1-.15-.15-.07-.07-.17-.11-.24-.15-.05-.02-.08-.05-.12-.08l-.05-.38-.04.38c-.08,0-.17,0-.29-.02l-.05-.02h-.04c-.12.01-.21.01-.31,0-.09-.02-.11-.02-.13-.02h-.6c-.11,0-.24.01-.35,0-.05,0-.1-.02-.14-.03h-.23c-.12,0-.21,0-.31-.02-.11-.02-.2-.02-.32-.02h-1.52c-.23,0-.46,0-.68,0-.2,0-.39.05-.61.08l-.23.05c-.32.05-.93.12-1.5,0-.05,0-.1-.02-.14-.03-.07-.02-.13-.03-.2-.04-.07-.01-.14,0-.21,0-.18.02-.36.04-.54.06-.34.05-.7.08-1.06.08h-1.26c-.15-.02-.27,0-.41-.01-.12,0-.24-.01-.37-.01h-.11c-.17,0-.38.01-.59-.07-.26-.11-.41-.32-.5-.5-.06-.1-.12-.2-.14-.35-.01-.1,0-.2,0-.3,0-.23.06-.39.11-.52.02-.06.05-.12.06-.17.01-.04.01-.08.02-.12.01-.09.02-.2.07-.33l.06-.17c.02-.06.05-.12.07-.18.05-.15.12-.24.17-.32l.04-.06s.04-.08.06-.13c.02-.06.05-.11.07-.17.06-.11.11-.21.16-.32.11-.21.22-.4.29-.6l.03-.1c.04-.11.08-.24.16-.37l.04-.06c.06-.09.12-.2.15-.3.1-.28.21-.59.42-.88.15-.2.38-.49.69-.65.05-.03.1-.05.15-.07.14-.06.2-.07.25-.07.08-.03.14-.06.22-.08.11-.02.21-.01.28,0,.17-.02.33-.07.48-.12.23-.07.41-.07.61-.08h1.96c.59,0,1.18,0,1.76,0,.13,0,.24.02.32.04.07.02.13.02.16.02h.52c.11,0,.23,0,.36.01.2.01.42.02.58,0,.02,0,.07-.02.1-.03h.02c.06-.05.12-.08.2-.1.06-.01.11-.01.15-.01.01-.01.02-.02.04-.03.01-.05.02-.09.03-.14.02-.07.03-.12.03-.17v-.81s-.02-.05-.03-.09c-.04-.12-.06-.25-.07-.38-.01-.06-.02-.11-.02-.16-.02-.11-.06-.21-.1-.33-.08-.21-.17-.46-.15-.77.02-.26-.12-.61-.34-.88-.65-.8-1.88-.73-2.96-.68h-.1c-.37.03-.72.01-1.07,0-.21,0-.41-.01-.64-.02h-2.28c-.1,0-.19.01-.28.02-.11,0-.21.01-.32.01h-1.01c-.06,0-.11.02-.16.02h-.06c-.1.03-.19.02-.25.02-.02,0-.05,0-.06,0-.05,0-.09.02-.14.03-.1.02-.21.05-.34.05h0c-.06,0-.13.01-.19.02-.11.02-.21.04-.32.05h-.04l-.08.02s-.08.01-.11.01l-.07.02c-.07.02-.14.01-.17.01l-.13.03c-.17.03-.32.06-.45.11-.03.01-.07.03-.13.07-.03.02-.05.05-.08.07l-.06.07c-.06.06-.11.09-.14.11-.05.05-.08.1-.12.14-.02.02-.03.03-.05.05,0,.01-.02.03-.02.05-.02.05-.05.09-.07.14-.05.08-.09.16-.14.24l-.1.19c-.12.23-.25.47-.34.7-.06.16-.12.3-.19.46-.08.18-.16.35-.21.52-.16.55-.41,1.07-.64,1.56-.11.21-.21.42-.3.64-.03.08-.08.16-.12.24-.03.05-.06.11-.08.16-.05.09-.07.19-.1.28-.03.08-.05.16-.08.25-.12.32-.24.64-.31.94-.1.43-.28.82-.46,1.2l-.13.28c-.14.3-.34.57-.53.81-.07.09-.19.24-.19.32,0,.07,0,.13-.02.2-.02.1-.06.17-.08.22-.11.21-.19.4-.28.59l-.05.1c-.07.16-.14.32-.22.47-.03.05-.06.1-.08.15-.03.04-.05.08-.06.11-.05.12-.1.21-.15.28-.02.03-.03.06-.05.09-.06.11-.11.22-.16.33-.05.1-.08.2-.14.3-.03.05-.06.1-.08.15-.02.03-.06.08-.06.11-.05.25-.16.45-.26.63-.05.08-.09.15-.12.23l-.06.11s-.05.08-.06.13l-.02.06c-.01.06-.03.15-.08.24l-.05.08s0,.07-.02.11c-.01.05-.03.09-.05.13-.01.03-.03.07-.03.08,0,.06,0,.12-.01.2l-.02.07c-.02.15-.01.29,0,.42,0,.02.04.08.06.11.02.03.03.07.06.1.01.03.03.07.05.08.06.05.14.1.2.13.06.03.12.04.19.06.05.01.1.02.16.04.01,0,.05,0,.08,0,.06,0,.12,0,.18.01.07.01.15.03.22.04.08.02.17.03.25.05Z"/>
    <path class="headcls-9" d="M43.68,18.22s-.07,0-.11,0c-.08,0-.16,0-.24,0-.1-.01-.2-.03-.3-.05-.06-.01-.13-.03-.19-.03-.03,0-.06,0-.08,0-.08,0-.18,0-.29-.04l-.12-.03c-.11-.02-.21-.05-.32-.1-.14-.06-.25-.15-.34-.22-.15-.1-.23-.25-.27-.34l-.03-.06c-.07-.1-.16-.26-.17-.47,0-.16-.01-.35,0-.51,0-.06.02-.11.03-.16,0-.07,0-.11,0-.15.01-.11.05-.21.08-.28,0-.02.02-.05.02-.07,0-.06.01-.09.02-.13.02-.09.07-.16.1-.2,0,0,.01-.03.02-.06.01-.04.02-.08.03-.12.03-.09.06-.16.1-.24l.05-.08c.05-.1.1-.2.16-.29.08-.14.15-.26.17-.38.03-.16.1-.28.16-.37.02-.03.03-.06.05-.08.05-.08.08-.17.12-.26.06-.13.11-.26.19-.39.02-.05.05-.09.08-.14.03-.06.06-.09.07-.12.04-.11.1-.2.14-.26l.05-.08c.07-.14.13-.28.19-.42l.05-.11c.08-.19.17-.39.27-.58l.04-.08s0-.08,0-.12c.03-.26.17-.47.32-.67.19-.25.37-.47.46-.69l.14-.29c.16-.36.33-.69.41-1.04.08-.36.21-.7.33-1.03.03-.07.05-.14.07-.2.03-.13.07-.26.14-.38.03-.07.07-.15.11-.22.03-.06.06-.11.09-.17.1-.22.21-.44.32-.66.23-.49.46-.95.6-1.44.06-.23.15-.43.24-.63.06-.13.11-.26.16-.4.1-.29.25-.56.38-.81l.1-.19c.05-.09.1-.18.15-.28.01-.02.02-.04.03-.06.02-.04.04-.08.06-.12.06-.1.12-.16.17-.2.02-.02.03-.04.05-.06l.05-.06c.06-.06.12-.1.15-.12.02-.03.05-.05.08-.08.07-.07.14-.12.2-.17.08-.05.17-.1.29-.14.17-.06.36-.1.52-.13l.18-.04s.07-.01.1-.01c.03-.01.06-.02.09-.03l.07-.02h.04s.06-.02.06-.02c.08-.02.16-.01.21,0,.07,0,.14-.02.2-.03.11-.02.23-.04.34-.04h0s.1-.01.17-.03c.07-.02.15-.03.23-.04.07,0,.14,0,.2,0,.02,0,.05,0,.07,0,.14-.03.24-.05.34-.04h1c.1,0,.19-.01.28-.01.11-.01.21-.02.32-.02h2.27c.23,0,.45,0,.68.01.34.01.66.02.99,0h.1c1.21-.07,2.72-.15,3.61.96.27.33.55.88.51,1.43,0,.14.04.27.1.44.06.14.11.29.15.47.01.07.02.14.03.21,0,.08.02.17.04.25.03.08.07.18.07.33v.79c0,.15-.03.26-.05.35-.01.04-.02.08-.03.14-.01.13-.03.38-.32.48l-.06.03c-.06.04-.14.1-.25.12-.05.02-.1.02-.14.02l-.12.05c-.07.03-.16.06-.25.07-.24.04-.5.03-.74.02-.11,0-.21-.02-.31-.01h-.51c-.13,0-.24-.02-.33-.04-.06-.01-.11-.02-.15-.02-.59.01-1.18,0-1.78,0h-1.94c-.2,0-.29,0-.39.04-.23.07-.41.12-.57.15-.1.02-.19.01-.25,0-.03.01-.09.04-.16.06-.04.01-.08.02-.11.02l-.08.03-.08.03c-.13.07-.26.2-.42.42-.15.2-.24.45-.32.68-.06.18-.15.34-.23.47l-.03.06c-.04.06-.06.12-.09.21l-.05.12c-.1.25-.21.47-.33.69-.05.1-.11.2-.15.29-.02.03-.03.07-.05.11-.03.08-.07.18-.14.28l-.06.09c-.05.05-.06.07-.07.1-.02.07-.05.14-.07.21l-.06.15s-.02.09-.03.15c0,.07-.02.15-.03.22-.02.08-.05.17-.08.25-.03.1-.06.19-.06.25v.06c0,.06-.01.12,0,.18.02.01.03.03.05.07.07.12.1.14.12.15.05.02.16.02.25.01h.14c.14,0,.27,0,.41.01.12.01.25.03.36.02h1.26c.32,0,.63-.05.97-.08.19-.02.37-.05.56-.06.12-.01.23-.02.35,0,.11.01.22.04.33.07l.11.03c.32.07.76.07,1.2,0l.21-.04c.23-.05.47-.09.72-.1.24-.01.48,0,.72,0h1.5c.15,0,.29,0,.47.03h.37c.08,0,.17.02.22.03.1.01.18,0,.26,0,.06,0,.11,0,.16,0h.46c.09,0,.19.02.26.03.05.01.07,0,.1,0h.09c.07,0,.11,0,.15,0h.07s.11.05.11.05c-.03-.02-.01-.02.01-.02h.07c.12,0,.26,0,.39.08.04.02.07.05.11.07.14.07.3.15.43.28.18.17.42.4.41.77,0,.12,0,.22.04.3.1.25.2.5.3.75.14.3.28.68.39,1.1.03.12.06.24.09.36.04.14.08.28.11.41.02.09.03.17.05.26.01.08.02.16.05.24.03.11.03.2.02.27.01.14.02.29-.06.43-.07.11-.2.2-.29.25-.05.02-.08.04-.13.06l-.06.02c-.06.03-.14.08-.24.11-.05.01-.09.03-.14.05-.11.04-.24.08-.38.1-.17.02-.33.03-.51.03-.29,0-.58.02-.87.03-.32.02-.62.04-.94.03-.43,0-.85-.02-1.28-.04-.23,0-.46-.02-.68-.02-.15,0-.3-.01-.45,0-2.12.08-4.39.15-6.67.1-.69-.01-1.38-.02-2.07-.03-.5,0-1.01-.01-1.51-.01h-.76c-.11,0-.22.01-.33.03-.11.01-.21.03-.32.03-.06,0-.11,0-.17,0h-.85c-.06,0-.12,0-.19.01-.09.01-.18.02-.26.02-.04,0-.08,0-.12,0-.15-.01-.26-.02-.45-.02h-1.15c-.16,0-.32,0-.48-.03ZM43.72,11.52c-.09.19-.18.38-.26.57-.08.19-.16.37-.25.55-.06.11-.13.19-.17.3-.05.12-.11.2-.17.32-.11.21-.19.43-.3.65-.06.12-.15.23-.17.36-.06.28-.25.51-.37.77-.04.1-.1.18-.13.28-.02.08-.03.16-.07.24-.01.02-.06.08-.06.11-.02.05-.01.1-.03.14-.03.1-.08.18-.08.28-.01.06,0,.11-.01.16,0,.05-.02.09-.03.14-.01.15,0,.32,0,.46,0,.11.07.2.12.29.06.1.1.22.2.29.08.06.18.13.28.17.13.06.25.07.39.11.11.03.21.01.32.03.16.03.32.07.48.08.12.02.24-.01.36.01.14.02.27.03.42.03h1.15c.16,0,.32,0,.48.02.17.02.36-.02.54-.02h.78c.07,0,.15,0,.22,0,.23-.01.45-.06.67-.06h.76c.5,0,1.01,0,1.52.01.69,0,1.38.02,2.07.03,2.21.05,4.44-.02,6.66-.1.15,0,.31,0,.47,0,.66.02,1.32.06,1.98.06.6,0,1.19-.06,1.78-.06.17,0,.31-.01.47-.03.14-.02.31-.09.46-.13.08-.02.13-.06.2-.1.05-.03.11-.03.16-.06.03-.02.12-.07.14-.11.03-.05,0-.14,0-.2,0-.07.01-.14,0-.2-.05-.16-.06-.34-.1-.51-.06-.26-.14-.51-.2-.77-.09-.37-.21-.69-.37-1.04-.11-.25-.21-.51-.32-.76-.06-.16-.07-.31-.06-.47.01-.2-.14-.33-.28-.47-.09-.08-.21-.15-.32-.2-.05-.02-.09-.06-.14-.08-.07-.03-.14-.04-.21-.04h0c-.07,0-.15.01-.22,0-.03,0-.04-.02-.08-.02-.03,0-.07,0-.11,0-.07,0-.16.01-.23,0-.08-.02-.13-.03-.21-.03h-.46c-.14,0-.3.02-.45,0-.07,0-.11-.03-.19-.03-.07,0-.14,0-.21,0-.08,0-.16,0-.24-.01-.14-.02-.25-.02-.39-.02h-1.19c-.34,0-.69,0-1.03,0-.3.01-.6.08-.89.14-.42.07-.93.1-1.35,0-.13-.03-.25-.07-.39-.08-.1-.01-.19,0-.28,0-.52.05-1.04.14-1.56.14-.42,0-.84,0-1.26,0-.25,0-.51-.03-.77-.03-.18,0-.38.03-.54-.04-.15-.07-.24-.18-.32-.33-.05-.08-.08-.11-.09-.21-.01-.09,0-.2,0-.29,0-.2.11-.39.15-.58.03-.14.02-.26.07-.41.04-.12.09-.23.13-.36.05-.12.1-.18.17-.29.07-.1.1-.23.15-.34.16-.32.34-.63.47-.96.05-.14.08-.26.16-.39.01-.02.02-.04.03-.06.08-.12.15-.25.2-.39.08-.26.19-.54.37-.78.15-.2.33-.42.56-.54.06-.03.11-.05.16-.07.08-.03.11-.02.19-.05.06-.02.11-.06.17-.07.08-.02.19.02.28.01.17-.03.35-.09.51-.14.18-.06.33-.06.52-.06h1.03c.9,0,1.79,0,2.68,0,.17,0,.3.07.48.06h.51c.32,0,.69.05,1,0,.09-.01.17-.06.26-.08.04-.02.02-.05.08-.06.05,0,.1.02.15,0,.07-.02.14-.08.2-.12.15-.07.12,0,.14-.17.02-.16.07-.27.07-.45v-.81c0-.09-.03-.13-.05-.2-.05-.16-.05-.34-.08-.5-.06-.36-.28-.62-.25-1,.03-.39-.17-.85-.42-1.16-.79-.98-2.22-.87-3.39-.81-.57.03-1.12-.02-1.69-.02-.76,0-1.52,0-2.27,0-.2,0-.39.02-.6.02-.23,0-.46,0-.69,0h-.31c-.11,0-.19.02-.29.03-.09.02-.19-.01-.29,0-.15.01-.29.07-.43.07-.17,0-.35.06-.52.07-.04,0-.1-.01-.14,0-.03.01-.03.03-.07.04s-.07-.01-.11,0c-.03.01-.03.03-.07.04-.04.01-.09,0-.14,0-.05,0-.1.02-.15.03-.16.03-.34.06-.5.12-.08.03-.14.06-.21.11-.06.03-.1.08-.15.12-.03.02-.05.05-.07.07-.04.04-.09.06-.13.1-.04.04-.07.08-.11.13-.04.04-.08.08-.11.12-.04.06-.06.12-.1.19-.06.11-.12.21-.18.32-.15.28-.32.57-.42.88-.12.34-.3.66-.4,1-.21.75-.61,1.43-.93,2.15-.06.14-.15.26-.21.4-.08.18-.12.37-.19.55-.12.32-.24.65-.32.99-.11.49-.36.95-.56,1.4-.12.28-.33.53-.51.77-.11.14-.23.3-.25.48,0,.06,0,.11,0,.17s-.05.11-.07.16Z"/>
  </g>
  <g>
    <path class="headcls-2" d="M71.81,64.44c.34,1.79.76,4.01-.38,5.48-.58.74-1.44,1.14-2.57,1.2l-.45.03c-1.23.08-2.92.2-4.03-.39-1.66-.88-2.05-3.18-2.36-5.03-.09-.52-.17-1.03-.28-1.39-.92-3.34-2.57-7.39-4.44-8.74-1.07-.77-2.29-.85-3.71-.93-.48-.03-.97-.06-1.47-.11-.5.06-.99.08-1.47.11-1.42.08-2.64.16-3.71.93-1.87,1.35-3.52,5.4-4.44,8.74-.1.36-.19.86-.28,1.39-.31,1.84-.7,4.14-2.36,5.02-.69.36-1.6.46-2.49.46-.55,0-1.08-.03-1.54-.07l-.45-.03c-1.13-.06-1.99-.46-2.57-1.2-1.14-1.47-.72-3.69-.38-5.48l.1-.51c.51-2.83,1.4-5.28,2.73-7.5.03-.05.07-.11.1-.17.02-.09.04-.21.1-.36.06-.16.14-.3.21-.45.05-.08.08-.16.11-.24.73-2.12,1.77-4.27,2.92-6.03.94-1.43,1.94-2.37,3.08-2.87.96-.43,1.98-.53,2.95-.6,2.38-.17,4.64-.18,6.89-.02,1.32.09,2.64.01,4.03-.07.91-.05,1.85-.1,2.8-.11,1.19.01,2.53.08,3.76.7,2.45,1.25,3.97,3.99,4.37,4.8.24.47.47.94.7,1.4,1.88,3.72,3.66,7.23,4.43,11.52l.1.51ZM69.69,68.56c.53-.67.18-2.5-.05-3.7l-.1-.54c-.72-3.97-2.42-7.34-4.23-10.92-.24-.46-.47-.93-.71-1.4-.85-1.71-2.19-3.21-3.4-3.82-.81-.41-1.8-.46-2.76-.46-.88,0-1.79.05-2.68.1-1.4.08-2.85.16-4.31.06-2.15-.15-4.3-.14-6.59.02-.8.06-1.57.13-2.2.41-.74.33-1.44,1.01-2.13,2.07-1.04,1.59-2.02,3.61-2.68,5.54-.07.21-.17.39-.25.54-.03.06-.06.12-.09.17-.01.08-.02.14-.05.21-.08.3-.23.55-.33.72-1.21,2.01-1.99,4.16-2.46,6.75l-.1.54c-.23,1.21-.57,3.03-.05,3.7.06.08.25.33.95.36.15.01.3.02.47.03.8.05,2.29.15,2.85-.14.7-.37,1.01-2.22,1.22-3.44.1-.59.2-1.14.32-1.61.64-2.3,2.42-7.88,5.29-9.95,1.59-1.14,3.33-1.25,4.87-1.34.51-.03.99-.06,1.46-.12l.14-.02.14.02c.47.06.95.09,1.46.12,1.54.1,3.29.2,4.87,1.34,2.87,2.06,4.65,7.64,5.29,9.95.13.47.22,1.02.32,1.61.21,1.22.52,3.07,1.22,3.44.55.29,2.05.19,2.85.14.17-.01.33-.02.47-.03.7-.03.89-.28.95-.36Z"/>
    <path class="headcls-1" d="M69.65,64.85c.23,1.21.57,3.03.05,3.7-.06.08-.25.33-.95.36-.15.01-.3.02-.47.03-.8.05-2.29.15-2.85-.14-.7-.37-1.01-2.22-1.22-3.44-.1-.59-.19-1.14-.32-1.61-.64-2.3-2.42-7.88-5.29-9.95-1.58-1.14-3.33-1.25-4.87-1.34-.51-.03-.99-.06-1.46-.12l-.14-.02-.14.02c-.47.06-.95.09-1.46.12-1.54.1-3.28.2-4.87,1.34-2.87,2.06-4.65,7.64-5.29,9.95-.12.47-.22,1.02-.32,1.61-.21,1.22-.52,3.07-1.22,3.44-.55.29-2.05.19-2.85.14-.17-.01-.33-.02-.47-.03-.7-.03-.89-.28-.95-.36-.52-.67-.18-2.5.05-3.7l.1-.54c.47-2.59,1.25-4.74,2.46-6.75.1-.16.25-.42.33-.72.02-.07.03-.13.05-.21.03-.06.06-.12.09-.17.08-.15.17-.33.25-.54.66-1.93,1.64-3.94,2.68-5.54.69-1.06,1.39-1.74,2.13-2.07.63-.28,1.4-.36,2.2-.41,2.29-.16,4.44-.17,6.59-.02,1.46.1,2.91.02,4.31-.06.88-.05,1.8-.1,2.68-.1.95,0,1.94.05,2.76.46,1.21.61,2.55,2.11,3.4,3.82.24.47.47.94.71,1.4,1.8,3.57,3.51,6.95,4.23,10.92l.1.54Z"/>
    <path class="headcls-1" d="M57.85,66.75c.12.73.32,1.83.02,2.24-.03.04-.11.15-.39.21-1.47.32-1.98.08-2.11,0-.06-.04-.12-.1-.16-.26-.06-.32-.06-.74-.07-1.18,0-1.12,0-2.5-1.01-3.4-.51-.45-1-.54-1.43-.54-.13,0-.25,0-.37.01-.51-.03-1.14-.06-1.8.52-1.01.9-1.02,2.29-1.02,3.4,0,.45,0,.87-.06,1.18-.03.17-.1.23-.16.26-.12.08-.64.33-2.1,0-.29-.06-.37-.17-.39-.21-.29-.41-.1-1.51.03-2.24.03-.21.07-.42.1-.61.28-1.91,1.17-4.16,2.55-4.89.61-.32,2.07-.41,2.89-.39.78-.02,2.24.07,2.84.39.69.36,1.26,1.11,1.69,2,.43.9.72,1.93.86,2.89.03.19.06.39.1.61Z"/>
    <path class="headcls-2" d="M52.75,35.13h-.21c-.19,0-.37,0-.56,0-.3,0-.64-.05-.92-.09l-.14-.02c-.13-.02-.26-.03-.39-.05-.26-.03-.54-.06-.83-.12-.38-.08-.78-.2-1.25-.38-.22-.08-.49-.19-.76-.36-.18-.12-.29-.25-.36-.32h-.01s-.05-.03-.07-.05c-.08-.05-.16-.08-.24-.14-.24-.15-.43-.31-.61-.45-.07-.06-.15-.12-.22-.18l-.06-.03c-.26-.17-1.07-.69-.81-1.57.08-.28.25-.45.32-.52.15-.16.31-.32.48-.48.36-.33.8-.61,1.38-.91,2.29-1.14,4.45-1.3,6.44-1.3h.3c1.17,0,2.38,0,3.58.47.7.28,1.32.62,1.92.96l.13.07c.31.17.95.53.88,1.44,0,.17,0,.5-.23.83-.11.17-.24.3-.34.39l-.06.06c-.17.18-.35.3-.5.41-.05.03-.1.07-.15.11-.03.02-.05.05-.07.07-.1.1-.2.19-.32.27-.1.07-.2.14-.3.19-.04.03-.08.05-.12.07-.56.44-1.19.76-1.96,1.01-.25.08-.51.14-.77.2-.14.03-.28.07-.41.1-.43.12-.84.2-1.28.26-.26.04-.51.05-.76.05-.14,0-.27,0-.4,0-.11,0-.23,0-.34,0ZM52.34,33.04h.41c.12,0,.26,0,.39,0,.29,0,.58.01.81-.02.36-.05.68-.12,1.03-.21.15-.05.31-.08.47-.12.21-.05.42-.1.61-.16.54-.17.96-.39,1.34-.68.11-.08.24-.16.36-.23.05-.02.08-.05.12-.07.02-.02.04-.04.06-.06.08-.07.15-.15.24-.21.03-.03.07-.06.11-.08-.41-.23-.81-.43-1.23-.6-.83-.32-1.79-.32-2.81-.32h-.3c-2.01,0-3.71.18-5.51,1.08-.21.11-.39.21-.55.31.08.07.16.12.24.17.03.02.06.03.09.05.15.07.35.17.54.36.06.05.11.1.15.15h0c.07.04.19.08.3.13.37.14.67.23.95.29.2.05.41.07.61.09.16.02.31.03.46.06l.15.02c.21.03.44.07.59.06h.38Z"/>
    <path class="headcls-3" d="M57.05,30.59c.42.17.83.38,1.23.6-.03.03-.07.06-.11.08-.08.06-.16.14-.24.21-.02.02-.04.05-.06.06-.04.03-.08.05-.12.07-.12.07-.25.15-.36.23-.37.29-.79.5-1.34.68-.2.06-.41.11-.61.16-.16.03-.32.07-.47.12-.34.09-.66.16-1.03.21-.23.03-.52.03-.81.02-.13,0-.26,0-.39,0h-.78c-.15.01-.38-.03-.59-.06l-.15-.02c-.15-.02-.3-.04-.46-.06-.2-.02-.41-.05-.61-.09-.28-.06-.58-.15-.95-.29-.11-.05-.24-.09-.3-.13h0c-.04-.05-.09-.1-.15-.15-.19-.18-.39-.28-.54-.36-.03-.02-.06-.03-.09-.05-.07-.05-.15-.1-.24-.17.16-.1.34-.2.55-.31,1.79-.9,3.5-1.08,5.51-1.08h.3c1.01,0,1.98,0,2.81.32Z"/>
    <path class="headcls-2" d="M52.71,63.8c.43,0,.92.08,1.43.54,1.01.9,1.01,2.29,1.01,3.4,0,.45,0,.87.07,1.18.03.17.1.23.16.26.12.08.64.33,2.11,0,.28-.06.36-.17.39-.21.29-.41.1-1.51-.02-2.24-.04-.21-.07-.42-.1-.61-.14-.96-.43-1.99-.86-2.89-.43-.89-1-1.64-1.69-2-.6-.32-2.06-.41-2.84-.39-.81-.02-2.28.07-2.89.39-1.38.73-2.28,2.98-2.55,4.89-.03.19-.06.39-.1.61-.13.73-.32,1.83-.03,2.24.03.04.11.15.39.21,1.46.32,1.98.08,2.1,0,.06-.04.13-.1.16-.26.06-.32.06-.74.06-1.18,0-1.11,0-2.5,1.02-3.4.66-.59,1.29-.56,1.8-.52.12,0,.24-.01.37-.01ZM59.74,66.42c.2,1.17.46,2.62-.3,3.68-.36.5-.87.82-1.54.97-.61.14-1.18.2-1.68.2-.77,0-1.4-.16-1.89-.48-.52-.34-.86-.87-.99-1.5-.1-.5-.1-1.03-.1-1.54,0-.81,0-1.65-.38-1.98l-.52-.03-.54.03c-.37.33-.37,1.17-.37,1.97,0,.52,0,1.05-.1,1.54-.12.64-.47,1.16-.99,1.5-.8.52-2,.61-3.57.28-.66-.15-1.18-.47-1.54-.97-.76-1.06-.5-2.51-.3-3.68.03-.19.07-.38.09-.55.34-2.33,1.45-5.21,3.56-6.32,1.25-.65,3.52-.62,3.78-.61.21,0,2.49-.04,3.73.61,2.12,1.1,3.23,3.99,3.56,6.32.02.17.06.36.09.55Z"/>
  </g>
  <g>
    <g>
      <path class="headcls-4" d="M5.6,77.71v1.21s0,0,0,0c-.6-.5-1.21-.74-1.85-.74-.7,0-1.3.25-1.78.76-.49.5-.73,1.12-.73,1.85s.24,1.33.73,1.82c.49.49,1.08.74,1.79.74.36,0,.67-.06.93-.18.14-.06.29-.14.44-.24.15-.1.31-.22.47-.36,0,0,0,0,0,0v1.23s0,0,0,0c-.59.33-1.21.5-1.86.5-.98,0-1.82-.34-2.51-1.03-.69-.69-1.04-1.52-1.04-2.5,0-.87.29-1.65.87-2.34.71-.84,1.63-1.26,2.76-1.26.62,0,1.21.17,1.78.5,0,0,0,0,0,0Z"/>
      <path class="headcls-4" d="M3.74,84.52c-1.03,0-1.92-.36-2.64-1.08-.72-.72-1.09-1.61-1.09-2.63,0-.92.31-1.74.91-2.46.75-.88,1.72-1.32,2.9-1.32.65,0,1.28.18,1.88.53l.09.06v1.44s-.21.11-.21.11l-.1-.07c-.57-.47-1.15-.71-1.74-.71-.66,0-1.19.23-1.64.7-.46.47-.68,1.03-.68,1.72s.22,1.23.67,1.69c.45.46.99.69,1.65.69.33,0,.62-.05.85-.16.14-.06.28-.13.42-.23.14-.09.3-.21.46-.34l.09-.08.23.1v.13s0,1.35,0,1.35l-.11.06c-.61.34-1.27.52-1.95.52ZM3.82,77.4c-1.08,0-1.93.39-2.61,1.19-.54.65-.82,1.39-.82,2.21,0,.92.33,1.71.98,2.36.65.64,1.45.97,2.38.97.58,0,1.14-.14,1.68-.42v-.74c-.06.05-.13.09-.19.13-.16.11-.32.19-.47.26-.27.13-.61.19-1,.19-.75,0-1.4-.27-1.92-.8-.52-.53-.78-1.19-.78-1.95s.26-1.44.78-1.98c.52-.54,1.16-.82,1.92-.82.57,0,1.13.19,1.67.56v-.73c-.52-.28-1.05-.42-1.6-.42Z"/>
    </g>
    <g>
      <path class="headcls-4" d="M8.63,77.35v5.88s0,0,0,0h2.01s0,0,0,0v.96s0,0,0,0h-3.04s0,0,0,0v-6.85s0,0,0,0h1.03s0,0,0,0Z"/>
      <path class="headcls-4" d="M10.64,84.39h-3.23v-.2s0-7.04,0-7.04h.2s1.22,0,1.22,0v.2s0,5.69,0,5.69h2.01v.2s0,1.15,0,1.15h-.2ZM7.78,84.01h2.67v-.59h-2.01v-.2s0-5.69,0-5.69h-.65v6.48Z"/>
    </g>
    <g>
      <path class="headcls-4" d="M11.68,80.74c0-.97.35-1.79,1.06-2.49.7-.69,1.55-1.04,2.54-1.04s1.82.35,2.51,1.05c.7.7,1.05,1.54,1.05,2.52s-.35,1.82-1.06,2.51c-.71.69-1.56,1.04-2.56,1.04-.89,0-1.68-.31-2.39-.92-.78-.68-1.16-1.57-1.16-2.67ZM12.73,80.75c0,.76.25,1.38.76,1.87.51.49,1.09.73,1.75.73.72,0,1.33-.25,1.82-.75.49-.5.74-1.12.74-1.84s-.24-1.34-.73-1.84c-.49-.5-1.09-.75-1.8-.75s-1.32.25-1.81.75c-.49.49-.74,1.1-.74,1.82Z"/>
      <path class="headcls-4" d="M15.23,84.52c-.93,0-1.77-.33-2.51-.97-.82-.71-1.23-1.66-1.23-2.81,0-1.01.38-1.9,1.12-2.62.74-.73,1.64-1.09,2.67-1.09s1.92.37,2.65,1.1c.74.73,1.11,1.62,1.11,2.65s-.38,1.93-1.12,2.65c-.74.72-1.65,1.09-2.7,1.09ZM15.29,77.4c-.93,0-1.74.33-2.41.98-.67.65-1,1.44-1,2.35,0,1.05.36,1.88,1.1,2.52.67.58,1.43.87,2.26.87.94,0,1.76-.33,2.43-.98.67-.66,1-1.43,1-2.37s-.34-1.73-1-2.38c-.66-.66-1.46-.99-2.38-.99ZM15.25,83.55c-.71,0-1.35-.26-1.89-.79-.55-.52-.82-1.2-.82-2.01s.27-1.43.79-1.96c.53-.53,1.18-.8,1.94-.8s1.42.27,1.94.8c.52.53.79,1.19.79,1.97s-.27,1.43-.8,1.97c-.53.53-1.19.8-1.96.8ZM15.27,78.38c-.67,0-1.21.23-1.67.69-.46.46-.68,1.01-.68,1.69,0,.71.23,1.28.71,1.73.47.46,1,.68,1.62.68.67,0,1.22-.23,1.69-.69.46-.47.69-1.03.69-1.7s-.22-1.24-.68-1.71c-.45-.46-1-.69-1.67-.69Z"/>
    </g>
    <g>
      <path class="headcls-4" d="M21.87,77.34s0,0,0,0v4.13c0,.59.1,1.02.29,1.29.29.39.69.59,1.21.59s.93-.2,1.22-.59c.19-.26.29-.69.29-1.29v-4.13s0,0,0,0h1.03s0,0,0,0v4.41c0,.72-.23,1.32-.68,1.79-.51.52-1.13.78-1.87.78s-1.36-.26-1.86-.78c-.45-.47-.68-1.06-.68-1.79v-4.41s0,0,0,0h1.03Z"/>
      <path class="headcls-4" d="M23.38,84.52c-.79,0-1.46-.28-2-.84-.48-.5-.73-1.15-.73-1.92v-4.6h.2s1.22,0,1.22,0v.2s0,4.13,0,4.13c0,.55.09.94.25,1.18.25.34.6.51,1.06.51s.81-.17,1.06-.51c.17-.23.25-.63.25-1.18v-4.32h.2s1.22,0,1.22,0v.2s0,4.41,0,4.41c0,.77-.25,1.42-.73,1.92-.54.56-1.22.84-2,.84ZM21.03,77.53v4.23c0,.68.2,1.22.62,1.65.47.49,1.03.72,1.72.72s1.26-.24,1.73-.72c.42-.43.62-.98.62-1.65v-4.23h-.65v3.94c0,.65-.11,1.11-.33,1.41-.32.44-.78.67-1.37.67s-1.04-.23-1.37-.67c-.22-.31-.33-.77-.33-1.4v-3.94h-.65Z"/>
    </g>
    <g>
      <path class="headcls-4" d="M28.24,84.2v-6.85s0,0,0,0h1.43c.69,0,1.23.07,1.63.2.43.13.82.36,1.17.68.71.65,1.06,1.49,1.06,2.55s-.37,1.91-1.11,2.56c-.37.33-.76.55-1.16.68-.38.13-.92.19-1.61.19h-1.42s0,0,0,0ZM29.28,83.22s0,0,0,0h.46c.46,0,.85-.05,1.16-.15.31-.1.59-.27.84-.49.51-.46.76-1.07.76-1.82s-.25-1.36-.76-1.83c-.45-.42-1.12-.63-2-.63h-.46s0,0,0,0v4.9Z"/>
      <path class="headcls-4" d="M29.67,84.39h-1.61v-.2s0-7.04,0-7.04h.2s1.43,0,1.43,0c.71,0,1.28.07,1.7.21.45.14.87.38,1.24.72.75.68,1.12,1.58,1.12,2.69s-.39,2.02-1.17,2.7c-.39.34-.8.58-1.23.72-.4.13-.95.2-1.67.2ZM28.43,84.01h1.23c.67,0,1.19-.06,1.55-.18.38-.12.75-.34,1.1-.64.7-.62,1.04-1.41,1.04-2.42s-.33-1.79-1-2.41c-.33-.3-.7-.51-1.1-.64-.38-.13-.91-.2-1.58-.2h-1.25v6.48ZM29.75,83.42h-.65v-.2s0-5.09,0-5.09h.66c.93,0,1.64.22,2.13.67.54.5.82,1.17.82,1.97s-.28,1.46-.83,1.96c-.27.24-.57.42-.9.53-.33.1-.74.16-1.22.16ZM29.47,83.04h.28c.44,0,.81-.05,1.1-.14.28-.09.54-.25.76-.45.47-.43.7-.98.7-1.68s-.23-1.26-.69-1.69c-.41-.38-1.05-.58-1.87-.58h-.28v4.53Z"/>
    </g>
    <g>
      <path class="headcls-4" d="M42.44,78.31h-2.38s0,0,0,0v1.64s0,0,0,0h2.3s0,0,0,0v.96s0,0,0,0h-2.3s0,0,0,0v3.26s0,0,0,0h-1.03s0,0,0,0v-6.85s0,0,0,0h3.42s0,0,0,0v.96s0,0,0,0Z"/>
      <path class="headcls-4" d="M40.05,84.39h-1.22v-.2s0-7.04,0-7.04h.2s3.61,0,3.61,0v.2s0,1.15,0,1.15h-.2s-2.19,0-2.19,0v1.27h2.3v.2s0,1.15,0,1.15h-.2s-2.11,0-2.11,0v3.26h-.2ZM39.21,84.01h.65v-3.26h.2s2.11,0,2.11,0v-.59h-2.3v-.2s0-1.83,0-1.83h.2s2.19,0,2.19,0v-.59h-3.04v6.48Z"/>
    </g>
    <g>
      <path class="headcls-4" d="M44,80.74c0-.97.35-1.79,1.06-2.49.7-.69,1.55-1.04,2.54-1.04s1.82.35,2.51,1.05c.7.7,1.05,1.54,1.05,2.52s-.35,1.82-1.06,2.51c-.71.69-1.56,1.04-2.56,1.04-.89,0-1.68-.31-2.39-.92-.78-.68-1.16-1.57-1.16-2.67ZM45.04,80.75c0,.76.25,1.38.76,1.87.51.49,1.09.73,1.75.73.72,0,1.33-.25,1.82-.75.49-.5.74-1.12.74-1.84s-.24-1.34-.73-1.84c-.49-.5-1.09-.75-1.8-.75s-1.32.25-1.81.75c-.49.49-.74,1.1-.74,1.82Z"/>
      <path class="headcls-4" d="M47.55,84.52c-.93,0-1.77-.33-2.51-.97-.82-.71-1.23-1.66-1.23-2.81,0-1.01.38-1.9,1.12-2.62.74-.73,1.64-1.09,2.67-1.09s1.92.37,2.65,1.1c.74.73,1.11,1.62,1.11,2.65s-.38,1.93-1.12,2.65c-.74.72-1.65,1.09-2.7,1.09ZM47.6,77.4c-.93,0-1.74.33-2.41.98-.67.65-1,1.44-1,2.35,0,1.05.36,1.88,1.1,2.52.67.58,1.43.87,2.26.87.94,0,1.76-.33,2.43-.98.67-.66,1-1.43,1-2.37s-.34-1.73-1-2.38c-.66-.66-1.46-.99-2.38-.99ZM47.56,83.55c-.71,0-1.35-.26-1.89-.79-.55-.52-.82-1.2-.82-2.01s.27-1.43.79-1.96c.53-.53,1.18-.8,1.94-.8s1.42.27,1.94.8c.52.53.79,1.19.79,1.97s-.27,1.43-.8,1.97c-.53.53-1.19.8-1.96.8ZM47.59,78.38c-.67,0-1.21.23-1.67.69-.46.46-.68,1.01-.68,1.69,0,.71.23,1.28.71,1.73.47.46,1,.68,1.62.68.67,0,1.22-.23,1.69-.69.46-.47.69-1.03.69-1.7s-.22-1.24-.68-1.71c-.45-.46-1-.69-1.67-.69Z"/>
    </g>
    <g>
      <path class="headcls-4" d="M55.48,81.29l2.11,2.91s0,0,0,0h-1.25s0,0,0,0l-1.96-2.8s0,0,0,0h-.18v2.8s0,0,0,0h-1.03s0,0,0,0v-6.85s0,0,0,0h1.21c.91,0,1.56.17,1.96.51.44.38.67.88.67,1.5,0,.49-.14.9-.42,1.25-.28.35-.64.57-1.09.67,0,0,0,0,0,.01ZM54.19,80.49s0,0,0,0h.32c.98,0,1.47-.37,1.47-1.12,0-.7-.48-1.05-1.43-1.05h-.36s0,0,0,0v2.17Z"/>
      <path class="headcls-4" d="M57.59,84.39h-1.38l-.05-.12-1.78-2.54v2.66h-.2s-1.22,0-1.22,0v-.2s0-7.04,0-7.04h.2s1.21,0,1.21,0c.96,0,1.64.18,2.09.56.49.42.73.97.73,1.65,0,.53-.15.99-.46,1.37-.25.31-.56.53-.94.66l2.03,2.79-.11.21h-.12ZM56.43,84.01h.79l-1.96-2.69.07-.21.11-.03c.41-.09.73-.29.98-.6.25-.32.38-.69.38-1.13,0-.57-.2-1.01-.6-1.36-.36-.31-.98-.47-1.84-.47h-1.02v6.48h.65v-2.81h.47l.06.07,1.91,2.73ZM54.52,80.68h-.51v-.2s0-2.36,0-2.36h.56c1.34,0,1.62.67,1.62,1.24,0,.6-.29,1.31-1.66,1.31ZM54.38,80.3h.14c1.15,0,1.28-.53,1.28-.93,0-.37-.13-.86-1.24-.86h-.18v1.8Z"/>
    </g>
    <g>
      <path class="headcls-4" d="M63.09,78.31h-2.74s0,0,0,0v1.64s0,0,0,0h2.66s0,0,0,0v.96s0,0,0,0h-2.66s0,0,0,0v2.28s0,0,0,0h2.74s0,0,0,0v.96s0,0,0,0h-3.78s0,0,0,0v-6.85s0,0,0,0h3.78s0,0,0,0v.96s0,0,0,0Z"/>
      <path class="headcls-4" d="M63.09,84.39h-3.97v-.2s0-7.04,0-7.04h.2s3.97,0,3.97,0v.2s0,1.15,0,1.15h-.2s-2.55,0-2.55,0v1.27h2.66v.2s0,1.15,0,1.15h-.2s-2.47,0-2.47,0v1.91h2.75v.2s0,1.15,0,1.15h-.2ZM59.5,84.01h3.4v-.59h-2.75v-.2s0-2.47,0-2.47h.2s2.47,0,2.47,0v-.59h-2.66v-.2s0-1.83,0-1.83h.2s2.55,0,2.55,0v-.59h-3.4v6.48Z"/>
    </g>
    <g>
      <path class="headcls-4" d="M69.01,78.37l-.83.49s0,0,0,0c-.16-.27-.3-.45-.45-.53-.15-.09-.34-.14-.57-.14-.29,0-.53.08-.72.24-.19.16-.28.36-.28.6,0,.33.25.6.75.81l.68.28c.56.23.96.5,1.22.82.26.32.39.72.39,1.19,0,.63-.21,1.15-.63,1.56-.42.41-.95.62-1.58.62-.6,0-1.09-.18-1.48-.53-.38-.35-.62-.85-.71-1.48,0,0,0,0,0,0l1.04-.23s0,0,0,0c.05.4.13.68.25.83.21.3.52.44.93.44.32,0,.59-.11.8-.32.21-.22.32-.49.32-.82,0-.13-.02-.26-.06-.37s-.09-.21-.17-.31c-.08-.09-.18-.18-.3-.26-.12-.08-.27-.16-.44-.23l-.66-.28c-.94-.4-1.41-.98-1.41-1.74,0-.52.2-.95.59-1.29.39-.35.88-.52,1.47-.52.79,0,1.41.38,1.85,1.15,0,0,0,0,0,0Z"/>
      <path class="headcls-4" d="M66.99,84.52c-.64,0-1.18-.19-1.6-.58-.41-.38-.67-.92-.77-1.6l-.02-.16.16-.05,1.14-.25.15.12v.09c.05.43.14.63.21.71.18.25.44.37.78.37.27,0,.49-.09.67-.27.18-.18.26-.41.26-.69,0-.11-.02-.21-.05-.31-.03-.09-.07-.17-.14-.24-.07-.08-.16-.15-.26-.23-.12-.08-.25-.15-.42-.22l-.66-.27c-1.01-.43-1.53-1.07-1.53-1.92,0-.57.22-1.05.66-1.44.43-.38.96-.57,1.6-.57.86,0,1.54.42,2.01,1.25l.04.07-.04.16-.07.04-.9.53-.17-.04-.04-.09c-.16-.28-.29-.4-.37-.44-.12-.08-.28-.12-.48-.12-.24,0-.44.06-.59.2-.15.12-.22.27-.22.46,0,.09,0,.37.63.63l.68.28c.58.24,1.02.53,1.3.88.28.36.43.8.43,1.31,0,.68-.23,1.25-.69,1.7-.46.45-1.03.68-1.71.68ZM65.02,82.46c.1.51.31.91.63,1.2.35.32.79.48,1.35.48.58,0,1.05-.19,1.44-.57.39-.38.57-.85.57-1.43,0-.43-.11-.78-.35-1.07-.24-.3-.62-.55-1.14-.77l-.69-.28c-.57-.24-.86-.57-.86-.98,0-.3.12-.55.35-.75.22-.19.51-.29.84-.29.27,0,.5.06.68.17.13.08.27.22.41.44l.51-.3c-.4-.61-.92-.9-1.59-.9-.54,0-.98.16-1.34.48-.35.31-.53.69-.53,1.15,0,.69.42,1.2,1.29,1.57l.66.27c.18.08.34.16.47.25.14.09.26.19.35.3.09.11.16.24.21.37.04.13.07.27.07.43,0,.38-.13.7-.37.96-.25.25-.57.38-.94.38-.47,0-.84-.18-1.09-.52-.12-.15-.2-.39-.25-.72l-.67.15Z"/>
    </g>
    <g>
      <path class="headcls-4" d="M73.15,78.32v5.88s0,0,0,0h-1.03s0,0,0,0v-5.88s0,0,0,0h-1.57s0,0,0,0v-.96s0,0,0,0h4.18s0,0,0,0v.96s0,0,0,0h-1.56s0,0,0,0Z"/>
      <path class="headcls-4" d="M73.14,84.39h-1.22v-.2s0-5.69,0-5.69h-1.57v-.2s0-1.15,0-1.15h.2s4.37,0,4.37,0v.2s0,1.15,0,1.15h-.2s-1.38,0-1.38,0v5.88h-.2ZM72.3,84.01h.65v-5.88h.2s1.38,0,1.38,0v-.59h-3.8v.59h1.57v.2s0,5.69,0,5.69Z"/>
    </g>
    <g>
      <path class="headcls-4" d="M83.24,78.31h-2.38s0,0,0,0v1.64s0,0,0,0h2.3s0,0,0,0v.96s0,0,0,0h-2.3s0,0,0,0v3.26s0,0,0,0h-1.03s0,0,0,0v-6.85s0,0,0,0h3.42s0,0,0,0v.96s0,0,0,0Z"/>
      <path class="headcls-4" d="M80.85,84.39h-1.22v-.2s0-7.04,0-7.04h.2s3.61,0,3.61,0v.2s0,1.15,0,1.15h-.2s-2.19,0-2.19,0v1.27h2.3v.2s0,1.15,0,1.15h-.2s-2.11,0-2.11,0v3.26h-.2ZM80.01,84.01h.65v-3.26h.2s2.11,0,2.11,0v-.59h-2.3v-.2s0-1.83,0-1.83h.2s2.19,0,2.19,0v-.59h-3.04v6.48Z"/>
    </g>
    <g>
      <path class="headcls-4" d="M86.15,77.34s0,0,0,0v4.13c0,.59.1,1.02.29,1.29.29.39.69.59,1.21.59s.93-.2,1.22-.59c.19-.26.29-.69.29-1.29v-4.13s0,0,0,0h1.03s0,0,0,0v4.41c0,.72-.23,1.32-.68,1.79-.51.52-1.13.78-1.87.78s-1.36-.26-1.86-.78c-.45-.47-.68-1.06-.68-1.79v-4.41s0,0,0,0h1.03Z"/>
      <path class="headcls-4" d="M87.66,84.52c-.79,0-1.46-.28-2-.84-.48-.5-.73-1.15-.73-1.92v-4.6h.2s1.22,0,1.22,0v.2s0,4.13,0,4.13c0,.55.09.94.25,1.18.25.34.6.51,1.06.51s.81-.17,1.06-.51c.17-.23.25-.63.25-1.18v-4.32h.2s1.22,0,1.22,0v.2s0,4.41,0,4.41c0,.77-.24,1.42-.73,1.92-.54.56-1.22.84-2,.84ZM85.31,77.53v4.23c0,.68.2,1.22.62,1.65.47.49,1.03.72,1.72.72s1.26-.24,1.73-.72c.42-.43.62-.98.62-1.65v-4.23h-.65v3.94c0,.65-.11,1.1-.32,1.4-.32.44-.79.67-1.37.67s-1.04-.23-1.37-.67c-.22-.31-.33-.77-.33-1.4v-3.94h-.65Z"/>
    </g>
    <g>
      <path class="headcls-4" d="M92.53,84.2v-7.31s0,0,0,0l4.99,5.22s0,0,0,0v-4.75s0,0,0,0h1.03s0,0,0,0v7.26s0,0,0,0l-4.99-5.2s0,0,0,0v4.79s0,0,0,0h-1.03s0,0,0,0Z"/>
      <path class="headcls-4" d="M98.52,84.84l-.1-.09-4.67-4.87v4.51h-.2s-1.22,0-1.22,0v-.2s0-7.44,0-7.44l.25-.1,4.76,4.98v-4.48h.2s1.22,0,1.22,0v.2s0,7.39,0,7.39l-.24.1ZM93.63,79.18l.09.1,4.66,4.86v-6.61h-.65v4.69l-.24.1-.1-.09-4.67-4.88v6.66h.65v-4.73l.25-.1Z"/>
    </g>
    <g>
      <path class="headcls-4" d="M100.89,84.2v-6.85s0,0,0,0h1.43c.69,0,1.23.07,1.63.2.43.13.82.36,1.17.68.71.65,1.06,1.49,1.06,2.55s-.37,1.91-1.11,2.56c-.37.33-.76.55-1.16.68-.38.13-.92.19-1.61.19h-1.42s0,0,0,0ZM101.93,83.22s0,0,0,0h.46c.46,0,.85-.05,1.16-.15.31-.1.59-.27.84-.49.51-.46.76-1.07.76-1.82s-.25-1.36-.76-1.83c-.45-.42-1.12-.63-2-.63h-.46s0,0,0,0v4.9Z"/>
      <path class="headcls-4" d="M102.31,84.39h-1.61v-.2s0-7.04,0-7.04h.2s1.43,0,1.43,0c.71,0,1.28.07,1.7.21.45.14.87.38,1.24.72.75.68,1.12,1.58,1.12,2.69s-.39,2.02-1.17,2.7c-.39.34-.8.58-1.23.72-.4.13-.95.2-1.67.2ZM101.08,84.01h1.23c.67,0,1.19-.06,1.55-.18.38-.12.75-.34,1.1-.64.7-.62,1.04-1.41,1.04-2.42s-.33-1.79-1-2.41c-.33-.3-.7-.51-1.1-.64-.38-.13-.91-.2-1.58-.2h-1.25v6.48ZM102.39,83.42h-.65v-.2s0-5.09,0-5.09h.66c.93,0,1.64.22,2.13.67.54.5.82,1.17.82,1.97s-.28,1.46-.83,1.96c-.27.24-.57.42-.9.53-.33.1-.74.16-1.22.16ZM102.12,83.04h.28c.44,0,.81-.05,1.1-.14.28-.09.54-.25.77-.45.47-.43.7-.98.7-1.68s-.23-1.26-.69-1.69c-.41-.38-1.05-.58-1.87-.58h-.28v4.53Z"/>
    </g>
  </g>
  <g>
    <path class="headcls-4" d="M108.75,77.69h.54c.11,0,.36.03.36.3,0,.18-.11.24-.18.26h0c.14.05.15.18.15.26,0,.14,0,.18.04.23h-.25c-.04-.06-.03-.11-.04-.27-.01-.12-.14-.12-.17-.12h-.19v.39h-.25v-1.05ZM109,78.16h.23c.14,0,.16-.08.16-.13,0-.1-.06-.14-.17-.14h-.22v.27Z"/>
    <path class="headcls-4" d="M109.18,79.3c-.59,0-1.07-.48-1.07-1.07s.48-1.07,1.07-1.07,1.07.48,1.07,1.07-.48,1.07-1.07,1.07ZM109.18,77.44c-.44,0-.79.36-.79.79s.36.79.79.79.79-.36.79-.79-.36-.79-.79-.79Z"/>
  </g>
</svg>