<?xml version="1.0" encoding="UTF-8"?>
<svg id="Isolation_Mode" data-name="Isolation Mode" xmlns="http://www.w3.org/2000/svg" viewBox="0 0 52.33 37.68">
  <defs>
    <style>
      .menucls-1 {
        fill: #ffe161;
      }

      .menucls-1, .menucls-2, .menucls-3 {
        stroke-width: 0px;
      }

      .menucls-2 {
        fill: #002235;
      }

      .menucls-3 {
        fill: #dd1d47;
      }
    </style>
  </defs>
  <path class="menucls-2" d="M52.08,9.93l-6,9.37-9.13-5.85-10.79,6.91-10.79-6.91-9.13,5.85L.25,9.93,15.37.25l10.79,6.9L36.95.25l15.13,9.68ZM45.67,17.41l4.52-7.07L36.95,1.87l-10.79,6.9L15.37,1.87,2.13,10.34l4.53,7.07,8.71-5.58,10.79,6.9,10.79-6.9,8.72,5.58Z"/>
  <path class="menucls-2" d="M52.08,27l-6,9.37-9.13-5.85-10.79,6.91-10.79-6.91-9.13,5.85L.25,27l15.12-9.68,10.79,6.9,10.79-6.9,15.13,9.68ZM45.67,34.48l4.52-7.07-13.24-8.47-10.79,6.9-10.79-6.9L2.13,27.41l4.53,7.07,8.71-5.58,10.79,6.9,10.79-6.9,8.72,5.58Z"/>
  <path class="menucls-2" d="M50.19,10.34l-4.52,7.07-8.72-5.58-10.79,6.9-10.79-6.9-8.71,5.58-4.53-7.07L15.37,1.87l10.79,6.9,10.79-6.9,13.24,8.47ZM45.53,16.78l4.03-6.3-12.61-8.07-10.79,6.9L15.37,2.41,2.76,10.48l4.03,6.3,8.58-5.49,10.79,6.9,10.79-6.9,8.58,5.49Z"/>
  <path class="menucls-2" d="M50.19,27.41l-4.52,7.07-8.72-5.58-10.79,6.9-10.79-6.9-8.71,5.58-4.53-7.07,13.24-8.47,10.79,6.9,10.79-6.9,13.24,8.47ZM45.53,33.85l4.03-6.3-12.61-8.07-10.79,6.9-10.79-6.9L2.76,27.55l4.03,6.3,8.58-5.49,10.79,6.9,10.79-6.9,8.58,5.49Z"/>
  <path class="menucls-2" d="M49.56,10.48l-4.03,6.3-8.58-5.49-10.79,6.9-10.79-6.9-8.58,5.49-4.03-6.3L15.37,2.41l10.79,6.9,10.79-6.9,12.61,8.07ZM45.12,14.89l2.56-3.99-10.73-6.87-10.79,6.91-10.79-6.91-10.72,6.87,2.56,3.99,8.16-5.22,10.79,6.9,10.79-6.9,8.17,5.22Z"/>
  <path class="menucls-2" d="M49.56,27.55l-4.03,6.3-8.58-5.49-10.79,6.9-10.79-6.9-8.58,5.49-4.03-6.3,12.61-8.07,10.79,6.9,10.79-6.9,12.61,8.07ZM45.12,31.97l2.56-4-10.73-6.87-10.79,6.91-10.79-6.91-10.72,6.87,2.56,4,8.16-5.23,10.79,6.9,10.79-6.9,8.17,5.23Z"/>
  <polygon class="menucls-3" points="47.68 10.9 45.12 14.89 36.95 9.67 26.16 16.57 15.37 9.67 7.21 14.89 4.65 10.9 15.37 4.03 26.16 10.94 36.95 4.03 47.68 10.9"/>
  <polygon class="menucls-1" points="47.68 27.97 45.12 31.97 36.95 26.74 26.16 33.64 15.37 26.74 7.21 31.97 4.65 27.97 15.37 21.1 26.16 28.01 36.95 21.1 47.68 27.97"/>
</svg>