<svg id="Layer_1" data-name="Layer 1" xmlns="http://www.w3.org/2000/svg" viewBox="0 0 846.79 677">
  <defs>
    <style>
      .mtncls-1 {
        fill: none;
        stroke: #002235;
        stroke-miterlimit: 10;
        stroke-width: 50px;
      }
    </style>
  </defs>
  <polyline 
    stroke="black"
    stroke-width="4px"
    id="mountainSvgLeft" class="mtncls-1" points="3.14 30.28 20.92 28.04 38.7 28.1 56.47 30.64 74.25 27.41 92.03 29.25 109.8 25.96 127.58 26.15 145.36 26.74 163.14 28.38 180.92 29.1 198.7 29.38 216.48 30.22 234.26 27.39 252.04 28.7 269.83 26.62 287.61 26.63 305.4 27.59 323.37 32.18 341.57 34.3 358.25 41.88 374.02 51.16 387.57 63.45 401.09 76.09 411.69 91.45 418.19 108.96 421.65 127.2 422.79 145.61 422.82 163.27 421.99 180.92 424.19 198.58 422.13 216.24 424.77 233.89 424.55 251.55 424.59 269.21 424.76 286.86 422.72 304.52 422.29 322.18 422.15 339.83 421.56 357.49 424.88 375.15 421.04 392.8 424.39 410.46 422.5 428.12 422.69 445.78 424.72 463.43 422.91 481.1 423.02 498.76 420.64 516.42 422.23 534.09"/>
  <polyline 
    stroke="black"
    stroke-width="4px"
    id="mountainSvgRight" class="mtncls-1" points="842.36 29.35 824.59 26.15 806.81 26.44 789.03 29.7 771.25 27.67 753.47 25.26 735.7 28.01 717.92 28 700.14 29.69 682.36 28.09 664.58 31.2 646.8 29.54 629.02 30.36 611.24 26.55 593.46 30.7 575.68 31.04 557.89 26.07 540.1 30.35 522.19 32.57 503.25 32.2 487.92 43.18 470.16 49.34 455.17 60.67 443.84 75.68 434.8 91.96 428.33 109.29 424.61 127.32 420.33 145.61 424.34 163.74 422.88 181.87 421.69 199.99 423.42 218.12 423.19 236.25 421.18 254.37 422.02 272.5 423.52 290.63 425.53 308.76 425.57 326.89 420.07 345.02 425.63 363.15 420.43 381.28 423.12 399.41 423.65 417.54 423.37 435.67 425.53 453.8 425.24 471.92 419.99 490.05 425.66 508.18 424.09 526.31 422.65 544.44 421.19 562.58 420.89 580.71 423.3 598.84 422.34 616.97 421.2 635.11 420.25 653.25 424.43 671.38"/>
</svg>