<?xml version="1.0" encoding="UTF-8"?>
<svg id="Isolation_Mode" data-name="Isolation Mode" xmlns="http://www.w3.org/2000/svg" viewBox="0 0 137.58 118.31">
  <path class="cls-1" d="M135.49,55.6c-3.22-3.12-4.54-.19-9.02-.39-2.38-.11-2.38-.24-4.76-.1-6.43.37-6.43.35-12.83,1.03-2.32.25-2.32.29-4.61.74s-2.17.52-4.33,1.1q-2.31.62-4.59,1.36c-1.99.64-2.05.48-3.98,1.3-2.33,1-2.26,1.16-4.48,2.37-1.96,1.07-1.97,1.05-3.85,2.27s-1.98,1.18-3.78,2.61-1.97,1.35-3.61,3.03-1.71,1.75-3.15,3.69-1.2,2.07-2.41,4.12c-.59,1,.05,1.82-1.11,1.95-1.05.12-.48-.85-1.05-1.74-1.23-1.92-1.21-1.94-2.58-3.77s-1.28-1.88-2.8-3.55-1.62-1.61-3.32-3.12c-1.81-1.61-1.76-1.66-3.76-3.03s-1.99-1.52-4.23-2.58c-4.12-1.97-4.12-2-8.4-3.59-2.28-.85-2.34-.7-4.7-1.31-2.13-.56-2.14-.52-4.31-.94-4.31-.83-4.29-.97-8.64-1.6-2.29-.33-2.3-.33-4.62-.42-4.46-.17-4.46.04-8.92.07-4.87.03-6.81-3.78-9.71.13-4.08,5.5-.46,6.82-.5,13.67-.01,2.2.15,2.19.43,4.37s.26,2.11.66,4.21.4,2.18.96,4.33.39,2.09,1.11,4.07c.83,2.3,1.04,2.22,2.05,4.45.92,2.04.65,2.19,1.79,4.11s1.26,1.88,2.62,3.66,1.34,1.74,2.8,3.37c1.68,1.87,1.68,1.89,3.58,3.53,1.76,1.52,1.84,1.41,3.77,2.7s1.8,1.37,3.77,2.46c2.11,1.16,2.15,1.11,4.39,1.99,4.2,1.64,4.15,1.83,8.48,3.07,2.35.67,2.46.23,4.85.75,1.93.42,1.85.77,3.79,1.13,2.45.45,2.46.43,4.94.67,2.28.22,2.29.14,4.57.21s2.19-.04,4.38,0,2.1.06,4.21.08c3.7.04,3.7,0,7.4,0,.31,0,.31.08.62.09,2.38.1,2.38.19,4.76.14s2.26-.22,4.53-.44,2.25-.07,4.48-.34c2.02-.25,1.99-.46,4.01-.69,2.31-.26,2.35.06,4.64-.39s2.18-.79,4.42-1.4c1.96-.54,2.07-.17,4-.81,2.4-.79,2.35-.95,4.67-1.94,2.02-.86,2-.9,3.96-1.89s2.12-.92,4.05-2.17c2.11-1.37,2.1-1.41,4.05-3,1.71-1.39,1.76-1.36,3.31-2.93,1.71-1.73,1.73-1.73,3.17-3.69s1.42-2.01,2.67-4.13c1.07-1.81,1.04-1.83,1.91-3.74,1.01-2.22.9-2.27,1.7-4.58.69-1.98.74-1.96,1.26-3.99.57-2.22.64-2.21,1.03-4.48.37-2.11.34-2.12.55-4.26s.15-2.14.3-4.28-.35-2.32.22-4.48c1.23-4.68,2.46-5.93-.8-9.1ZM56.51,106.8c-1.92-.05-1.93,0-3.85-.17-1.8-.15-1.81-.1-3.58-.43-1.87-.35-1.8-.64-3.66-1.04-2.06-.44-2.15-.03-4.18-.59-3.65-1.01-3.62-1.15-7.16-2.49-1.63-.62-1.57-.76-3.09-1.59-1.6-.88-1.56-.93-3.08-1.94s-1.51-.86-2.83-1.98c-1.25-1.06-1.26-1.05-2.35-2.26-1.19-1.33-1.11-1.39-2.19-2.8-1.02-1.32-1.13-1.25-1.97-2.68s-.75-1.49-1.45-3.01c-.76-1.64-.78-1.63-1.4-3.33s-.69-1.61-1.14-3.3-.43-1.77-.78-3.55-.24-1.79-.48-3.58-.33-1.7-.39-3.41c-.05-1.2-1.04-2.03.09-2.41,3.2-1.09,3.39-.02,6.77.1,1.86.07,1.86.06,3.7.32,3.91.56,3.91.6,7.79,1.35,1.91.37,1.89.45,3.78.93s1.83.35,3.58.99c3.56,1.31,3.63,1.16,7.07,2.75,1.54.71,1.54.75,2.94,1.7s1.32,1.08,2.6,2.21,1.26,1.15,2.41,2.41,1.26,1.23,2.31,2.62,1.08,1.37,2,2.85c.84,1.35.87,1.34,1.49,2.81.67,1.58.42,1.67.96,3.3.6,1.8.74,1.75,1.25,3.57.46,1.67.56,1.65.86,3.36s.17,1.77.39,3.54c.06.46.07.46.04.92-.08,1.15-.23,1.14-.26,2.3-.04,1.32,1.04,1.65.23,2.7-.64.83-1.11-.09-2.16-.1-2.13,0-2.13.03-4.26-.03ZM124.28,72.19c-.16,1.79-.24,1.78-.53,3.55s-.15,1.76-.58,3.46-.56,1.7-1.13,3.39-.41,1.69-1.12,3.26-.8,1.54-1.67,3.03-.74,1.59-1.74,3.01c-.92,1.29-.95,1.29-2.07,2.42-1.21,1.23-1.25,1.2-2.58,2.31s-1.3,1.22-2.77,2.19-1.59.76-3.15,1.55c-1.71.86-1.71.88-3.47,1.65-1.66.73-1.63.79-3.36,1.36s-1.82.44-3.63.93-1.81.76-3.71,1.13c-1.78.35-1.81.17-3.62.38-2.12.25-2.13.19-4.25.45s-2.03.24-4.07.44c-1.87.18-1.86.26-3.74.33-1.14.04-1.48.79-2.22-.08-.91-1.06-.12-1.34-.2-2.74-.05-.87-.23-.87-.16-1.74.21-2.49.18-2.51.66-4.96.68-3.46.42-3.56,1.62-6.87s1.5-3.27,3.17-6.45c.78-1.47.9-1.4,1.87-2.75s.81-1.44,1.94-2.6,1.21-1.14,2.49-2.17c1.4-1.11,1.48-1.01,2.97-1.98,1.57-1.02,1.5-1.14,3.14-2.06,1.55-.87,1.49-1.03,3.14-1.67,3.51-1.35,3.56-1.27,7.17-2.33,1.82-.53,1.85-.45,3.71-.82s1.87-.37,3.76-.57q5.96-.63,11.94-1.04c1.28-.09,1.76-.95,2.56.05,1.86,2.32-.16,2.97-.43,5.93ZM32.03,38.89c1.51,1.67,1.45,1.73,3.14,3.22,3.35,2.97,3.46,2.84,6.96,5.63,1.68,1.34,1.63,1.41,3.42,2.61,2.01,1.35,1.98,1.41,4.12,2.56s2.09,1.03,4.25,1.9c2.29.93,2.29.94,4.66,1.64,2.49.74,2.44,1.02,5.01,1.4s2.55.22,5.09.22,2.5.06,4.95-.25c2.33-.3,2.32-.42,4.57-1.08,2.42-.71,2.45-.66,4.77-1.65,2.16-.93,2.07-1.12,4.19-2.15s2.29-.73,4.26-2.02c3.72-2.44,3.69-2.51,7.1-5.36s3.3-2.92,6.39-6.06c1.8-1.83,1.72-1.9,3.29-3.92,2.49-3.19,4.94-2.39,4.96-6.44s-2.41-3.3-4.87-6.51c-1.33-1.74-1.3-1.78-2.8-3.37-1.71-1.81-1.75-1.78-3.62-3.43-1.63-1.44-1.65-1.42-3.35-2.79s-1.67-1.28-3.3-2.61c-1.84-1.5-1.62-1.81-3.61-3.11s-2.18-1.02-4.31-2.11-2.01-1.18-4.17-2.06-2.26-.76-4.57-1.37-2.18-.78-4.44-1.16c-2.71-.45-2.72-.59-5.46-.63-2.4-.03-2.4.25-4.77.57s-2.31.25-4.56.81c-2.47.62-2.54.47-4.86,1.51-4.25,1.91-4.36,1.77-8.3,4.26s-3.8,2.65-7.39,5.55c-1.83,1.48-1.63,1.71-3.31,3.35-1.56,1.51-1.68,1.4-3.15,2.99s-1.39,1.7-2.86,3.32c-3.04,3.37-6.14,2.17-6.16,6.7s3.2,3.28,6.2,6.69c1.33,1.51,1.18,1.63,2.53,3.12ZM40.87,26.69c1.29-1.41,1.34-1.35,2.7-2.69s1.21-1.45,2.66-2.63c2.9-2.38,2.84-2.49,6-4.52s3.15-1.94,6.48-3.51c1.48-.7,1.51-.66,3.1-1.06,1.71-.43,1.72-.42,3.46-.66s1.67-.32,3.36-.32,1.64.05,3.24.32c1.79.3,1.8.31,3.55.76,1.64.43,1.63.48,3.19,1.13,1.65.69,1.58.83,3.17,1.65s1.74.65,3.28,1.65c1.45.94,1.31,1.12,2.65,2.2,1.65,1.34,1.73,1.25,3.38,2.59,1.53,1.23,1.55,1.2,3.03,2.49,1.36,1.18,1.34,1.2,2.59,2.5,1.14,1.19,2.06.86,2.05,2.5s-.88,1.41-2.07,2.62c-2.66,2.69-2.69,2.66-5.59,5.1s-2.79,2.49-5.89,4.55c-1.48.98-1.57.81-3.17,1.59-1.8.89-1.76.98-3.59,1.8-1.56.7-1.54.79-3.17,1.28s-1.58.45-3.2.66c-1.7.22-1.72.02-3.44.02s-1.68.28-3.32.04-1.64-.43-3.26-.9c-1.73-.5-1.72-.54-3.39-1.21s-1.7-.55-3.26-1.39-1.62-.79-3.1-1.79-1.5-1.1-2.96-2.26c-3.07-2.43-3.14-2.36-6.08-4.93-1.35-1.18-1.23-1.31-2.44-2.64-1.1-1.21-1.7-.9-2.13-2.47s1.08-1.26,2.19-2.47Z"/>
</svg>