<?xml version="1.0" encoding="UTF-8" standalone="no"?>
<svg
   id="Layer_2"
   data-name="Layer 2"
   viewBox="0 0 697.25 2268.36"
   version="1.1"
   sodipodi:docname="newTeamLine.svg"
   inkscape:version="1.3.2 (091e20e, 2023-11-25)"
   xmlns:inkscape="http://www.inkscape.org/namespaces/inkscape"
   xmlns:sodipodi="http://sodipodi.sourceforge.net/DTD/sodipodi-0.dtd"
   xmlns="http://www.w3.org/2000/svg"
   xmlns:svg="http://www.w3.org/2000/svg">
  <sodipodi:namedview
     id="namedview1"
     pagecolor="#505050"
     bordercolor="#eeeeee"
     borderopacity="1"
     inkscape:showpageshadow="0"
     inkscape:pageopacity="0"
     inkscape:pagecheckerboard="0"
     inkscape:deskcolor="#505050"
     inkscape:zoom="0.45892184"
     inkscape:cx="348.64324"
     inkscape:cy="1134.1801"
     inkscape:window-width="1392"
     inkscape:window-height="1212"
     inkscape:window-x="0"
     inkscape:window-y="0"
     inkscape:window-maximized="0"
     inkscape:current-layer="Layer_2" />
  <defs
     id="defs1">
    <style
       id="style1">
      .cls-1 {
        fill: none;
        stroke: #062334;
        stroke-miterlimit: 10;
        stroke-width: 50px;
      }
    </style>
  </defs>
  <g
     id="Layer_1-2"
     data-name="Layer 1">
    <path
       style="color:#000000;fill:#062334;stroke-miterlimit:10;-inkscape-stroke:none"
       d="m 367.76367,0.00195313 -49.86719,3.63671877 1.39649,19.1445311 2.86523,15.917969 -1.12304,13.80664 -2.75782,19.199219 0.59766,20.44336 1.25,18.900389 1.75195,15.16602 -2.6289,17.75 1.97461,17.96289 -2.18946,15.93164 -0.91406,21.43359 2.79883,18.34766 -0.0156,14.09961 -2.71093,18.38086 0.86914,20.14257 0.60937,15.98633 -2.01953,19.47461 3.32617,19.50781 0.42383,13.51758 -3.0332,17.11328 -0.58594,22.25977 3.39844,18.87891 0.79687,13.66601 -2.65234,17.02344 -0.15039,20.5918 1.23242,18.64257 1.07617,18.81836 3.31641,22.81055 9.43359,20.51367 12.76758,23.96094 23.58398,12.56641 19.84766,9.95898 25.48242,4.71289 18.23242,-2.0625 16.39454,2.28125 19.75781,-0.21289 15.8164,-0.44727 20.12696,2.7793 17.14648,-3.89062 17.19141,3.10351 18.76367,-3.52344 14.57227,1.35157 18.34375,1.13086 14.04101,0.55078 9.17969,4.34375 9.15039,8.23242 8.79883,12.19336 6.15039,9.49414 0.3164,13.6582 2.375,14.4961 -3.29492,16.37304 1.77735,19.82422 0.041,14.51758 -2.39844,17.96094 0.81055,14.31054 -4.56641,8.4043 -9.24804,11.29492 -8.13867,7.625 -9.96094,2.83985 -16.94922,1.41015 -17.61914,3.05078 -13.51172,0.37696 -19.37109,-4.11719 -22.31641,2.54883 -15.26953,1.70312 -18.35352,-2.36718 -20.10351,2.32812 -16.59766,0.26367 -18.60351,-0.38672 -16.40039,0.67188 -19.35352,-3.36133 -18.40625,2.3125 -18.41602,-3.03906 -19.66406,2.6543 -15.59375,-0.86133 -18.75,-1.52735 -21.59961,-0.41211 -17.02929,3.13672 -15.95899,-1.9375 -18.92383,-0.082 -18.62109,-1.32226 -21.94922,0.46679 -17.0293,3.81641 -14.11523,-1.15039 -19.41211,-2.20508 -21.6543,0.17578 -18.761716,2.91016 -20.919922,0.93554 -26.148437,9.20313 -18.117188,16.5957 -18.515624,18.625 L 5.8691406,834.50586 4.5410156,854.5918 2.125,872.60742 1.9609375,890.36328 0.00585938,910.16211 3.4589844,928.22656 2.8945313,943.05078 2.7304688,959.82812 1.1171875,979.79297 4.8925781,998.375 l 0.4453125,21.127 10.3535154,24.3144 14.931641,20.2793 19.730469,15.082 22.947265,11.1504 26.238281,3.4043 19.273438,-2.6543 17.55078,0.9024 16.1875,-1.2657 18.60547,4.1387 22.20508,-2.2832 16.75781,-1.5664 14.96094,0.3203 19.05859,3.3418 22.00195,-0.8769 16.09375,-1.9707 16.38282,2.2382 20.96484,0.6641 18.05469,-1.4004 16.82617,0.8633 20.10938,0.8144 20.05468,-1.8769 17.51367,-1.7793 15.41407,-0.4629 18.19922,2.3672 20.82617,-0.4551 16.39258,-1.1914 17.83007,2.3379 20.00196,-0.6992 18.0957,-0.1 18.05664,-0.336 18.60742,0.2754 17.26758,-0.7461 12.61719,1.2422 11.56836,5.586 11.50976,7.4609 7.27735,8.5449 3.67383,9.7422 0.0664,15.5313 1.62695,18.83 1.29688,13.7578 -3.94727,16.9688 0.71289,20.7246 0.18555,16.3711 -1.27734,17.541 -0.043,19.0899 0.84375,22.8691 5.91601,14.2246 -2.52734,10.6934 -3.73633,12.4238 -7.48437,8.9941 -8.26953,7.1582 -13.50782,3.086 -14.99804,4.4922 -13.86914,-1.2286 -18.70118,-1.1132 -19.53125,-1.0996 -18.76367,0.748 -18.87304,-0.3613 -18.16211,1.5586 -16.6875,-0.502 -18.77149,-0.8008 -20.61914,0.1582 -18.34765,2.6368 -14.15625,0.1621 -17.96875,-3.416 -22.20899,-0.3399 -19.5332,2.4551 -14.25977,1.1992 -18.54101,-3.709 -19.54883,2.0391 -18.61914,-1.8418 -20.57617,2.6758 -14.46094,1.2187 -16.75977,-3.0058 -20.73047,-0.8262 -19.37109,0.3281 -18.12891,0.832 -18.31836,0.061 -19.24804,0.8926 -16.94336,1.334 -25.914064,-1.6172 -22.072265,15.1582 -19.431641,11.2246 -16.248047,20.4238 -12.6152343,24.584 -0.1484375,25.8086 0.84375,17.1894 -0.2792968,17.1661 0.6875,18.2695 0.9667969,15.9336 -1.1054688,15.1855 -2.0527344,18.5117 0.4648438,20.0957 1.9765625,17.6504 1.1503906,23.2032 11.494141,22.248 13.167968,21.0234 21.820313,15.1114 21.289062,8.7011 24.464841,6.2227 20.10938,-2.2539 18.26562,1.9355 20.49024,-2.2382 16.00586,-1.1211 17.56836,1.3066 19.82812,-0.2285 15.7168,-0.7559 20.10156,3.9571 20.81836,-4.0508 14.32031,-0.094 17.33594,2.1895 21.37305,1.5176 20.10742,-2.4278 14.35742,-1.0683 18.57813,3.6445 19.56835,-1.8926 19.56446,1.8301 17.9414,-3.5879 17.3711,2.125 17.68554,-2.2031 18.58985,3.1992 20.11133,-2.9766 15.23242,0.3985 17.73437,1.7441 22.31446,1.6211 16.13672,-3.6406 16.86914,4.2031 15.70312,-1.7129 8.6543,4.7871 10.98437,7.7129 7.36524,10.0547 5.34961,11.1719 1.28906,12.0234 -2.07813,19.3067 3.0625,20.3867 0.37696,16.7969 -0.16016,18.7929 0.42383,18.1485 -1.02539,17.375 -1.54883,17.3086 -2.75977,15.4199 -4.20117,12.6504 -5.41015,7.8847 -11.03321,6.168 -13.41797,6.9414 -10.58398,2.4883 -15.32812,-2.6934 -21.70508,0.3243 -18.78125,2.2265 -15.15821,1.1074 -16.02148,-1.8261 -21.46875,-1.9512 -16.58398,2.6719 -16.87305,-3.5508 -21.27539,1.3906 -17.90039,0.8731 -17.0586,0.8964 -19.53515,-0.6171 -28.84375,4.9531 -16.29492,25.1738 -5.81055,18.8184 -3.80664,23.3984 2.21484,18.4121 -2.80078,19.2363 3.81055,18.6426 -1.90235,17.3145 2.25196,16.9902 -3.37696,16.2988 -0.45117,21.5547 1.13477,17.7891 -1.00391,18.6582 1.91992,19.1113 0.31055,16.0762 -1.2207,17.4805 -0.75586,19.6757 0.87304,18.2559 -0.61328,18.0039 0.59571,19.0273 49.97461,-1.5644 -0.54493,-17.3945 0.62891,-18.4161 -0.86914,-18.1445 0.64453,-16.7422 1.32031,-18.9199 -0.39062,-20.3242 -1.73828,-17.2891 0.95507,-17.7422 -1.18554,-18.6113 0.30859,-14.8437 4.16406,-20.1016 -2.56836,-19.3906 2.09766,-19.084 -3.63086,-17.7578 2.5,-17.1641 -2.16601,-17.9902 2.11523,-13 2.74805,-8.9024 0.62695,-0.9648 2.25586,-0.3887 16.58398,0.5235 19.0625,-1.002 18.21875,-0.8887 14.84375,-0.9687 19.2461,4.0488 19.53711,-3.1484 14.63086,1.3301 20.09961,2.2929 20.9414,-1.5312 17.33985,-2.0547 14.39453,-0.2149 20.76953,3.6465 26.59765,-6.2519 19.64258,-10.1582 21.94727,-12.2735 16.0293,-23.3535 7.55859,-22.7695 3.78125,-21.1211 1.81055,-20.25 1.19336,-20.1875 -0.45508,-19.4102 0.16015,-18.7675 -0.46484,-20.7422 -2.57617,-17.1524 1.96289,-18.2363 -2.77344,-25.8945 -11.06836,-23.1094 -14.97656,-20.4453 -19.91406,-13.9864 -24.86719,-13.7519 -22.5957,2.4648 -19.73243,-4.916 -20.48046,4.6192 -14.28711,-1.0371 -18.88672,-1.8575 -21.36719,-0.5605 -16.48828,2.4414 -18.00977,-3.0996 -18.91406,2.3574 -19.23047,-2.3535 -18.6582,3.7305 -17.01367,-1.5899 -17.03125,1.6465 -18.02344,-3.5352 -22.22266,1.6524 -16.49218,1.9922 -15.22852,-1.0821 -19.26172,-2.4316 -22.28125,0.1465 -15.78125,3.0703 -16.47851,-3.2441 -20.88477,1.0039 -16.77148,0.1933 -19.0293,-1.414 -20.57617,1.4394 -16.10938,1.7598 -18.33398,-1.9434 -16.46875,1.8457 -12.257815,-3.1172 -13.009766,-5.3183 -8.878906,-6.1485 -6.613281,-10.5566 -5.564453,-10.7734 -0.691407,-13.9161 -1.902343,-16.9902 -0.335938,-14.543 1.78711,-16.1289 1.416015,-19.455 -1.132812,-18.6856 -0.615235,-16.3516 0.283203,-17.4531 -0.857421,-17.4511 0.07227,-12.5118 4.904297,-9.5547 7.251953,-9.1171 12.908203,-7.4551 9.466797,-6.502 12.226564,0.7637 19.6582,-1.5469 17.36914,-0.8066 18.30469,-0.061 18.4707,-0.8476 17.22852,-0.291 15.86914,0.6328 19.83984,3.5547 22.13867,-1.8614 16.0254,-2.0859 17.98046,1.7793 17.05079,-1.7793 18.03906,3.6094 22.33984,-1.8789 17.06641,-2.1465 14.37109,0.2207 18.63086,3.543 22.44336,-0.2579 18.25391,-2.623 15.98047,-0.1211 17.82812,0.7598 19.89258,0.5976 18.4375,-1.582 17.72851,0.3398 17.83399,-0.7129 17.04883,0.961 17.90039,1.0664 22.71093,2.0117 22.60157,-6.7695 24.05273,-5.4942 20.79102,-18 16.61328,-19.9648 7.10351,-23.6172 6.59375,-27.9082 -8.66406,-20.8359 -0.47461,-12.8692 0.0371,-16.3496 1.30078,-17.8789 -0.21484,-19.0508 -0.50586,-14.6933 4.29297,-18.4512 -2.04297,-21.6621 -1.43359,-16.5918 -0.0937,-22.4883 -9.92579,-26.3184 -17.6621,-20.7343 -20.26954,-13.1387 -22.39453,-10.8145 -24.98047,-2.4589 -19.35351,0.8359 -17.99219,-0.2656 -18.56445,0.3437 -18.50391,0.1016 -16.59765,0.5801 -18.76954,-2.461 -20.20703,1.4688 -15.77343,0.3437 -18.40235,-2.3925 -21.18555,0.6367 -19.08789,1.9394 -16.52343,1.5449 -16.49219,-0.666 -19.77344,-1.0156 -18.54492,1.4395 -15.63477,-0.4961 -20.21679,-2.7618 -20.48633,2.5079 -14.59961,0.582 -17.53906,-3.0762 -21.64063,-0.4609 -19.84179,1.8535 -14.375,1.4785 -17.99415,-4.0019 -20.4121,1.5937 -19.03125,-0.9766 -17.324223,2.3848 -11.521485,-1.4941 -11.09375,-5.3907 -10.070312,-7.6972 -7.246094,-9.8418 -4.287109,-10.0664 -0.335938,-15.97073 -3.263672,-16.05859 1.1875,-14.67578 0.173829,-17.84375 0.755859,-19.81446 -3.166016,-16.55664 1.464844,-14.82031 0.154297,-16.88477 2.226562,-16.60351 1.109375,-16.77344 2.611329,-9.60937 8.367187,-8.41602 9.720703,-8.9043 9.533203,-3.35546 16.257811,-0.72657 17.85938,-2.76953 14.96679,-0.12109 17.1875,1.95312 22.48438,1.83008 19.57031,-4.38476 14.65039,-0.3125 17.98047,1.27734 17.67578,0.0781 20.64063,2.50391 19.57031,-3.60352 15,0.28711 17.84961,1.45313 20.98633,1.1582 16.9375,-2.28515 18.18359,3 18.19336,-2.28711 17.24609,2.99804 20.19922,-0.82812 17.97656,0.37305 20.00196,-0.31641 16.49804,-1.91016 18.2461,2.35157 21.31055,-2.37696 14.2832,-1.63086 17.22851,3.66211 23.06836,-0.64258 18.98047,-3.28711 19.61133,-1.63085 26.29883,-7.5 19.38086,-18.15625 14.33398,-17.50586 13.61328,-25.05469 -1.34961,-23.76953 2.22071,-16.61914 -0.0586,-20.08203 -1.32226,-14.75586 3.66406,-18.20704 -3.28516,-20.0625 -0.5625,-24.32421 -14.52929,-22.42579 -12.66211,-17.54687 -18.56836,-16.70508 -25.02149,-11.83789 -23.67968,-0.92969 -17.01368,-1.04882 -20.76953,-1.92774 -16.5957,3.11719 -18.14844,-3.27735 -18.19336,4.12891 -15.21289,-2.10156 -19.52343,0.55273 -15.58399,0.16797 -18.94531,-2.63672 -17.10547,1.93555 -11.17969,-2.06641 -12.95117,-6.5 -9.5957,-5.11328 -4.91407,-9.2207 -5.80664,-12.62695 -1.96289,-13.50977 -0.96484,-16.86133 -1.12695,-17.03711 0.10937,-15.06836 2.9082,-18.65625 -1.2832,-21.99218 -3.02148,-16.78321 0.35351,-13.40039 3.28711,-18.54492 -0.69531,-22.14453 -2.75391,-16.15039 1.67969,-16.1875 -0.75,-19.65235 -0.66992,-15.51757 2.54883,-17.2793 0.0234,-21.55859 -2.64062,-17.31446 0.60547,-14.22461 2.71094,-19.72851 -1.94532,-17.69727 2.65039,-17.89062 -2.36718,-20.49414 -1.10938,-16.759769 -0.44336,-15.216797 2.36328,-16.458984 1.77539,-21.835938 -3.55273,-19.740234 z"
       id="polyline1" />
  </g>
</svg>
