<svg id="Isolation_Mode" data-name="Isolation Mode" xmlns="http://www.w3.org/2000/svg" viewBox="0 0 843.54 511.14">
  <polyline class="cls-1" points="421.97 2.05 420.97 14.13 421.25 26.21 419.96 38.29 420.1 50.37 422.55 62.45 422 74.53 420.02 86.61 421.59 98.69 421.93 110.77 422.15 122.85 421.81 134.93 422.61 147.01 422.96 159.09 420.4 171.18 422.04 183.26 422.54 195.33 419.95 207.41 423.32 219.49 422.93 231.57 420.94 243.65 421.52 255.73 423.01 267.82 421.94 279.9 422 291.98 423.66 304.06 421.7 316.15 419.78 328.23 421.72 340.31 420.48 352.39 423.33 364.48 420.17 376.56 422.97 388.66 423.5 400.75 421.41 412.68 417.85 424.07 413.88 435.2 408.65 445.87 400.98 454.94 394.23 465.13 384.32 472.14 373.32 477.14 361.6 479.61 350.08 481.65 338.44 485.54 326.38 483.9 314.32 485.87 302.26 485.09 290.2 483.46 278.14 483.3 266.08 484.51 254.02 482.56 241.96 485.89 229.9 484 217.84 484.32 205.78 485.49 193.73 483.41 181.67 483.61 169.61 484.23 157.55 482.61 145.49 483.97 133.43 483.77 121.37 484.82 109.3 485.89 97.24 482.88 85.18 483.28 73.12 482.53 61.06 484.17 48.99 484.88 36.93 485.12 24.87 482.24 12.79 482.83 .72 483.19"/>
  <polyline class="cls-1" points="421.97 2.05 420.97 14.13 421.25 26.21 419.96 38.29 420.1 50.37 422.55 62.45 422 74.53 420.02 86.61 421.59 98.69 421.93 110.77 422.15 122.85 421.81 134.93 422.61 147.01 422.96 159.09 420.4 171.18 422.04 183.26 422.54 195.33 419.95 207.41 423.32 219.49 422.93 231.57 420.94 243.65 421.52 255.73 423.01 267.82 421.94 279.9 422 291.98 423.66 304.06 421.7 316.15 419.78 328.23 421.72 340.31 420.48 352.39 423.33 364.48 420.17 376.56 422.97 388.66 423.5 400.75 423.09 412.54 424.56 424.4 428.9 435.55 435.09 445.74 441.69 455.7 451.75 462.32 460.87 469.58 470.74 476 481.29 481.84 493.02 484.83 505.1 482.62 517.16 484.26 529.22 482.28 541.28 483.07 553.34 484.7 565.4 484.86 577.46 483.64 589.52 485.6 601.58 482.27 613.64 484.16 625.7 483.84 637.76 482.67 649.82 484.74 661.88 484.55 673.94 483.93 686 485.55 698.06 484.19 710.12 484.39 722.18 483.34 734.24 482.27 746.3 485.28 758.37 484.88 770.43 485.62 782.49 483.99 794.55 483.28 806.62 483.04 818.68 485.92 830.75 485.33 842.82 484.97"/>
</svg>