<?xml version="1.0" standalone="no"?>
<!DOCTYPE svg PUBLIC "-//W3C//DTD SVG 1.0//EN" "http://www.w3.org/TR/2001/REC-SVG-20010904/DTD/svg10.dtd">
<svg xmlns="http://www.w3.org/2000/svg" xmlns:xlink="http://www.w3.org/1999/xlink" id="body_10522916_9658" width="1058.5599365234375" height="1496.320068359375">
<defs>
    <style>
      .teamcls {
        fill: none;
        stroke: #062334;
        stroke-miterlimit: 10;
        stroke-width: 50px;
      }
    </style>
  </defs>
<g transform="matrix(0.65632238160460588 0 0 0.65632238160460588 300.55161827251356 3.8904534400644484)" >
        <g transform="matrix(1.3300000429153442 0 0 1.3300000429153442 -0 -0)" >
            <g transform="matrix(0.75 0 0 0.75 0 0)" >
                <g transform="matrix(0.22042354941368103 0 0 0.22042354941368103 173.15483319881969 0)" >
                        <path d="M342.82999999999998 1.8200000000000001L344.13 19.649999999999999L347.33999999999997 37.479999999999997L345.88999999999999 55.299999999999997L343.32999999999998 73.129999999999995L343.85000000000002 90.959999999999994L345.02999999999997 108.79000000000001L347.08999999999997 126.62L344.44999999999999 144.44L346.41000000000003 162.27000000000001L343.95999999999998 180.09999999999999L343.19999999999999 197.93000000000001L345.92000000000002 215.75999999999999L345.89999999999998 233.59L343.26999999999998 251.41999999999999L344.04000000000002 269.25L344.72000000000003 287.06999999999999L342.87 304.89999999999998L345.91000000000003 322.73000000000002L346.47000000000003 340.56L343.31 358.38999999999999L342.83999999999997 376.22000000000003L346.05000000000001 394.05000000000001L347.08999999999997 411.88L344.31 429.72000000000003L344.18000000000001 447.55000000000001L345.36000000000001 465.38999999999999L346.38 483.23000000000002L349.01999999999998 501.38999999999999L356.63999999999999 517.96000000000004L365.48000000000002 534.54999999999995L382.06999999999999 543.38999999999999L398.47000000000003 551.62L416.80000000000001 555.00999999999999L434.47000000000003 553.00999999999999L452.13999999999999 555.47000000000003L469.81 555.27999999999997L487.48000000000002 554.77999999999997L505.14999999999998 557.22000000000003L522.82000000000005 553.21000000000004L540.49000000000001 556.39999999999998L558.16999999999996 553.08000000000004L575.84000000000003 554.72000000000003L593.51999999999998 555.80999999999995L612.38 556.54999999999995L629.48000000000002 564.63999999999999L643.34000000000003 577.11000000000001L654.07000000000005 591.98000000000002L664.40999999999997 607.94000000000005L664.85000000000002 626.92999999999995L667.67999999999995 644.21000000000004L664.20000000000005 661.5L665.75 678.78999999999996L665.79999999999995 696.09000000000003L663.49000000000001 713.38L664.57000000000005 732.41999999999996L655.48000000000002 749.14999999999998L643.69000000000005 763.54999999999995L629.92999999999995 776.44000000000005L611.79999999999995 781.61000000000001L593.51999999999998 783.13L575.22000000000003 786.29999999999995L556.92999999999995 786.80999999999995L538.63 782.91999999999996L520.33000000000004 785.00999999999999L502.04000000000002 787.04999999999995L483.74000000000001 784.69000000000005L465.44 786.80999999999995L447.13999999999999 787.10000000000002L428.85000000000002 786.72000000000003L410.55000000000001 787.47000000000003L392.25 784.28999999999996L373.94999999999999 786.59000000000003L355.64999999999998 783.57000000000005L337.35000000000002 786.03999999999996L319.06 785.02999999999997L300.75999999999999 783.53999999999996L282.45999999999998 783.19000000000005L264.16000000000003 786.55999999999995L245.86000000000001 784.34000000000003L227.56 784.25999999999999L209.25999999999999 782.96000000000004L190.96000000000001 783.35000000000002L172.66 787.45000000000005L154.36000000000001 785.96000000000004L136.06 783.88L117.75 784.02999999999997L99.439999999999998 786.87L80.849999999999994 787.70000000000005L63.009999999999998 793.98000000000002L49.090000000000003 806.73000000000002L35.649999999999999 820.25L30.649999999999999 838.64999999999998L29.43 857.08000000000004L27.109999999999999 874.38999999999999L26.949999999999999 891.71000000000004L25.239999999999998 909.01999999999998L28.550000000000001 926.33000000000004L27.890000000000001 943.64999999999998L27.719999999999999 960.96000000000004L26.32 978.27999999999997L29.84 995.60000000000002L30.23 1014.15L37.549999999999997 1031.3399999999999L48.640000000000001 1046.4000000000001L63.539999999999999 1057.79L80.560000000000002 1066.0599999999999L99.439999999999998 1068.51L117.73999999999999 1065.99L136.03 1066.9300000000001L154.33000000000001 1065.5L172.63 1069.5699999999999L190.91999999999999 1067.6900000000001L209.22 1065.98L227.52000000000001 1066.3699999999999L245.81999999999999 1069.5799999999999L264.12 1068.8499999999999L282.41000000000003 1066.6099999999999L300.70999999999998 1069.1099999999999L319.00999999999999 1069.6900000000001L337.31 1068.27L355.61000000000001 1069.21L373.91000000000003 1069.95L392.19999999999999 1068.24L410.5 1066.3800000000001L428.80000000000001 1065.8299999999999L447.10000000000002 1068.21L465.39999999999998 1067.8099999999999L483.69999999999999 1066.48L502 1068.8800000000001L520.29999999999995 1068.24L538.60000000000002 1068.1400000000001L556.90999999999997 1067.8L575.21000000000004 1068.0699999999999L593.51999999999998 1067.28L612.32000000000005 1069.1300000000001L629.29999999999995 1077.3299999999999L645.19000000000005 1087.6300000000001L657.65999999999997 1102.27L664.46000000000004 1120.3L664.53999999999996 1139.3099999999999L666.07000000000005 1157.02L667.74000000000001 1174.73L663.62 1192.4400000000001L664.23000000000002 1210.1500000000001L664.42999999999995 1227.8599999999999L663.13999999999999 1245.5699999999999L663.10000000000002 1263.29L663.75999999999999 1281.1600000000001L671.04999999999995 1298.6900000000001L666.49000000000001 1317.99L661.07000000000005 1336.01L649.01999999999998 1350.49L634.49000000000001 1363.0699999999999L615.71000000000004 1367.3599999999999L596.90999999999997 1372.99L578.62 1371.3699999999999L560.32000000000005 1370.28L542.02999999999997 1369.25L523.73000000000002 1369.98L505.43000000000001 1369.6300000000001L487.13 1371.2L468.83999999999997 1370.6500000000001L450.54000000000002 1369.8699999999999L432.24000000000001 1370.01L413.94 1372.6400000000001L395.63999999999999 1372.8499999999999L377.33999999999997 1369.3699999999999L359.05000000000001 1369.0899999999999L340.75 1371.3900000000001L322.44999999999999 1372.9300000000001L304.16000000000003 1369.27L285.86000000000001 1371.1800000000001L267.56 1369.3699999999999L249.25999999999999 1371.75L230.96000000000001 1373.29L212.66 1370.01L194.36000000000001 1369.28L176.06 1369.5899999999999L157.75999999999999 1370.4300000000001L139.44999999999999 1370.49L121.14 1371.3399999999999L102.84 1372.78L83.769999999999996 1371.5899999999999L68 1382.4200000000001L51.829999999999998 1391.76L40.079999999999998 1406.53L31.32 1423.5999999999999L31.210000000000001 1442.76L32.060000000000002 1460.0799999999999L31.780000000000001 1477.3900000000001L32.43 1494.7L33.479999999999997 1512.01L32.219999999999999 1529.3299999999999L30.300000000000001 1546.6500000000001L30.699999999999999 1563.97L32.640000000000001 1581.29L33.560000000000002 1599.8499999999999L42.090000000000003 1616.3599999999999L51.979999999999997 1632.1500000000001L67.329999999999998 1642.78L84.480000000000004 1649.79L102.84 1654.46L121.13 1652.4100000000001L139.43000000000001 1654.3499999999999L157.72999999999999 1652.3499999999999L176.02000000000001 1651.0699999999999L194.31999999999999 1652.4300000000001L212.62 1652.22L230.91999999999999 1651.3399999999999L249.21000000000001 1654.9400000000001L267.50999999999999 1651.3800000000001L285.81 1651.26L304.11000000000001 1653.5699999999999L322.41000000000003 1654.8699999999999L340.70999999999998 1652.6600000000001L359 1651.3L377.30000000000001 1654.8900000000001L395.60000000000002 1653.1199999999999L413.88999999999999 1654.8299999999999L432.19 1651.1700000000001L450.49000000000001 1653.4100000000001L468.79000000000002 1651.1300000000001L487.08999999999997 1654.28L505.38999999999999 1651.5699999999999L523.69000000000005 1652.05L542 1653.8499999999999L560.29999999999995 1655.1800000000001L578.61000000000001 1651.05L596.90999999999997 1655.6099999999999L616.05999999999995 1653.52L632.82000000000005 1662.79L648.26999999999998 1673.6400000000001L659.44000000000005 1688.8900000000001L667.64999999999998 1706.03L669.67999999999995 1724.99L667.65999999999997 1743.76L670.48000000000002 1762.53L670.89999999999998 1781.3L670.74000000000001 1800.0799999999999L671.17999999999995 1818.8599999999999L670.07000000000005 1837.6400000000001L668.38999999999999 1856.4200000000001L665.12 1874.6900000000001L659.24000000000001 1892.4000000000001L648.51999999999998 1908.02L632.02999999999997 1917.24L615.5 1925.79L596.90999999999997 1930.1600000000001L578.86000000000001 1926.99L560.80999999999995 1927.26L542.75 1929.4000000000001L524.70000000000005 1930.72L506.63999999999999 1928.6600000000001L488.58999999999997 1927.02L470.52999999999997 1929.9300000000001L452.47000000000003 1926.1300000000001L434.41000000000003 1927.3099999999999L416.35000000000002 1928.1900000000001L398.29000000000002 1929.1400000000001L380.23000000000002 1928.5699999999999L364.68000000000001 1931.24L356.22000000000003 1944.3099999999999L351.94 1958.1700000000001L348.98000000000002 1976.3699999999999L351.17000000000002 1994.5699999999999L348.51999999999998 2012.77L352.24000000000001 2030.97L350.24000000000001 2049.1700000000001L352.64999999999998 2067.3600000000001L348.88 2085.5599999999999L348.5 2103.7600000000002L349.66000000000003 2121.96L348.68000000000001 2140.1599999999999L350.50999999999999 2158.3600000000001L350.86000000000001 2176.5599999999999L349.58999999999997 2194.7600000000002L348.88999999999999 2212.9699999999998L349.75999999999999 2231.1700000000001L349.13999999999999 2249.3800000000001L349.70999999999998 2267.5900000000001" stroke="#062334" stroke-width="50" stroke-miterlimit="10" stroke-dasharray="0.40000000596046448,0.20000000298023224" fill="none" />
                </g>
            </g>
        </g>
</g>
</svg>