<?xml version="1.0" encoding="UTF-8"?>
<svg id="Isolation_Mode" data-name="Isolation Mode" xmlns="http://www.w3.org/2000/svg" viewBox="0 0 277.26 214.92">
  <defs>
    <style>
      .cls-1 {
        fill: #00abaf;
      }

      .cls-1, .cls-2, .cls-3 {
        stroke-width: 0px;
      }

      .cls-2 {
        fill: #060833;
      }

      .cls-3 {
        fill: #dd1d47;
      }
    </style>
  </defs>
  <path class="cls-2" d="M277.02,136.61l-21.06,18.27-18.21,20.7-19.66-19.61-11.73-13.58-13.72-12.56-12.22-13.38-12.97-12.64-17.73-17.89,17.81-19.66,19.09-18.47,18.88,17.41,14.05,13.55,11.08,13.74,14.29,11.87,12.48,13.21,19.62,19.04ZM245.29,143.4l8.57-7.44-7.74-7.51-12.26-12.98-14.43-11.91-11.76-14.59-12.9-12.35-7.89-7.28-8.27,7.99-7.32,8.1,7.19,7.26,13.36,13.03,12.13,13.28,13.95,12.8,11.83,13.71,7.25,7.21,8.29-9.32Z"/>
  <polygon class="cls-1" points="253.86 135.96 245.29 143.4 237 152.72 229.75 145.51 217.92 131.8 203.97 119 191.84 105.72 178.48 92.69 171.29 85.43 178.61 77.33 186.88 69.34 194.77 76.62 207.67 88.97 219.43 103.56 233.86 115.47 246.12 128.45 253.86 135.96"/>
  <path class="cls-2" d="M196.96,142.17l26.73,32.09-35.96,40.41-31.13-26.04-18.49-19.2-16.32,15.17-23.3,29.68-46.73-37.21,32.08-28.78,20.86-29.35,33.25-27.59,30.02,29.04,28.99,21.78ZM215.46,174.12l-22.71-27.26-28.76-21.64-26.35-25.5-28.17,23.36-20.94,29.39-27.11,24.31,36.04,28.71,19.63-25.04,21.26-19.76,22.87,23.74,25.87,21.58,28.37-31.89Z"/>
  <path class="cls-2" d="M192.75,146.86l22.71,27.26-28.37,31.89-25.87-21.58-22.87-23.74-21.26,19.76-19.63,25.04-36.04-28.71,27.11-24.31,20.94-29.39,28.17-23.36,26.35,25.5,28.76,21.64ZM211.25,174.05l-20.83-25-28.5-21.41-24.45-23.64-25.8,21.4-20.88,29.33-24.43,21.91,30.58,24.35,17.81-22.7,23.72-22.07,24.92,25.87,23.37,19.49,24.49-27.53Z"/>
  <path class="cls-2" d="M190.42,149.05l20.83,25-24.49,27.53-23.37-19.49-24.92-25.87-23.72,22.07-17.81,22.7-30.58-24.35,24.43-21.91,20.88-29.33,25.8-21.4,24.45,23.64,28.5,21.41ZM203.02,173.92l-16.93-20.32-28.66-21.61-20.28-19.62-20.87,17.31-20.68,29.11-19.58,17.57,19.89,15.84,14.76-18.66,28.05-26.06,28.87,29.98,18.52,15.46,16.91-19Z"/>
  <polygon class="cls-3" points="186.09 153.6 203.02 173.92 186.11 192.92 167.59 177.46 138.72 147.48 110.67 173.54 95.91 192.2 76.02 176.36 95.6 158.79 116.28 129.68 137.15 112.37 157.43 131.99 186.09 153.6"/>
  <path class="cls-2" d="M179.34,41.72l-19.78,20.71-20.32,18.86-19.09-19.79-20.81-19.35,20.29-19.86L139.67.25l19.5,22.36,20.17,19.11ZM148.73,51.11l8.42-8.83-9.55-9.09-8.18-9.38-8.67,9.52-8.72,8.53,9.25,8.61,8.57,8.88,8.88-8.24Z"/>
  <polygon class="cls-3" points="157.15 42.28 148.73 51.11 139.85 59.35 131.28 50.47 122.03 41.86 130.75 33.33 139.42 23.81 147.6 33.19 157.15 42.28"/>
  <path class="cls-2" d="M128.08,86.06l-20.66,17.34-11.71,14.21-26.13,26.28-13.32,12.21-18.42,19.69-19.86-20.28L.25,136.12l17.97-18.65,13.37-12.08,12.44-13.38,12.94-12.99,12.89-13.41,18.42-17.41,19.24,17.86,20.56,20ZM96.24,92.33l8.49-7.13-8-7.79-8.35-7.74-7.63,7.2-12.58,13.1-12.95,13-12.88,13.81-13.42,12.13-7.2,7.48,7.73,8.45,8.13,8.3,7.87-8.39,13.42-12.3,25.45-25.59,11.92-14.53Z"/>
  <polygon class="cls-1" points="104.73 85.2 96.24 92.33 84.32 106.86 58.87 132.45 45.45 144.75 37.58 153.14 29.45 144.84 21.72 136.39 28.92 128.91 42.34 116.78 55.22 102.97 68.17 89.97 80.75 76.87 88.38 69.67 96.73 77.41 104.73 85.2"/>
</svg>