<svg id="svg" version="1.1" xmlns="http://www.w3.org/2000/svg" xmlns:xlink="http://www.w3.org/1999/xlink" width="400" height="319.2784667418264" viewBox="0, 0, 400,319.2784667418264"><g id="svgg"><path id="path0" d="M188.005 0.343 C 187.835 0.617,187.897 0.660,188.209 0.482 C 188.572 0.275,188.582 0.308,188.259 0.656 C 188.039 0.893,187.859 1.405,187.859 1.794 C 187.859 2.184,187.723 2.551,187.556 2.609 C 187.389 2.668,187.169 3.435,187.067 4.313 C 186.966 5.192,186.833 6.198,186.773 6.550 C 186.712 6.901,186.645 7.520,186.622 7.926 C 186.600 8.332,186.438 8.575,186.263 8.467 C 186.051 8.336,186.051 8.551,186.262 9.105 C 186.473 9.660,186.473 9.875,186.261 9.744 C 186.086 9.636,185.942 9.687,185.942 9.859 C 185.942 10.030,186.071 10.218,186.229 10.277 C 186.465 10.365,186.995 14.553,186.989 16.294 C 186.989 16.558,187.148 16.980,187.344 17.234 C 187.540 17.487,187.556 17.609,187.380 17.504 C 187.176 17.381,187.074 18.311,187.098 20.078 C 187.139 23.024,186.581 28.226,186.182 28.622 C 185.787 29.016,185.907 30.990,186.326 30.990 C 186.624 30.990,186.624 31.076,186.326 31.374 C 186.115 31.585,185.945 31.908,185.947 32.093 C 185.950 32.277,186.092 32.212,186.262 31.949 C 186.487 31.601,186.584 31.908,186.617 33.067 C 186.642 33.946,186.708 35.024,186.763 35.463 C 186.818 35.903,186.887 37.268,186.915 38.498 C 186.944 39.728,187.113 40.915,187.292 41.134 C 187.472 41.354,187.487 41.534,187.328 41.534 C 187.165 41.534,187.119 42.386,187.223 43.472 C 187.325 44.539,187.308 45.473,187.185 45.549 C 186.821 45.774,186.847 52.964,187.213 53.190 C 187.393 53.301,187.540 53.536,187.540 53.712 C 187.540 53.888,187.422 53.959,187.278 53.870 C 186.918 53.647,187.230 55.604,187.679 56.390 C 187.880 56.741,188.020 57.244,187.989 57.508 C 187.958 57.772,187.917 58.297,187.896 58.675 C 187.856 59.431,186.714 59.956,185.224 59.905 C 184.740 59.888,184.345 59.989,184.345 60.129 C 184.345 60.269,183.195 60.383,181.789 60.383 C 180.383 60.383,179.233 60.276,179.233 60.144 C 179.233 60.012,177.041 59.904,174.361 59.904 C 168.865 59.904,163.215 59.535,162.954 59.160 C 162.858 59.022,162.157 58.921,161.397 58.936 C 160.636 58.951,159.945 58.852,159.860 58.715 C 159.590 58.278,150.341 58.417,149.857 58.866 C 149.510 59.188,149.475 59.182,149.672 58.834 C 149.866 58.492,149.787 58.472,149.291 58.738 C 148.947 58.922,148.319 58.996,147.895 58.902 C 147.392 58.790,147.263 58.830,147.524 59.017 C 148.046 59.391,141.534 60.234,140.517 59.924 C 140.110 59.800,139.273 59.630,138.658 59.546 C 138.043 59.461,137.403 59.256,137.236 59.089 C 137.069 58.922,136.782 58.788,136.597 58.791 C 136.413 58.794,136.478 58.951,136.741 59.140 C 137.125 59.416,137.093 59.438,136.581 59.250 C 135.029 58.678,131.169 58.300,131.445 58.746 C 131.592 58.983,131.361 59.036,130.726 58.909 C 130.211 58.806,129.485 58.885,129.113 59.085 C 128.666 59.324,128.435 59.335,128.435 59.117 C 128.435 58.647,127.556 58.705,127.396 59.185 C 127.291 59.500,122.860 59.569,106.407 59.511 C 84.198 59.433,82.445 59.552,82.423 61.142 C 82.420 61.344,82.294 61.306,82.134 61.053 C 81.906 60.692,81.691 60.776,81.037 61.481 C 80.552 62.005,80.069 62.262,79.839 62.120 C 79.595 61.969,79.537 62.017,79.682 62.251 C 79.807 62.454,79.758 62.638,79.572 62.660 C 78.489 62.787,77.316 63.276,77.316 63.600 C 77.316 63.764,77.101 63.898,76.837 63.898 C 76.573 63.898,76.358 64.050,76.358 64.236 C 76.358 64.422,76.213 64.485,76.036 64.376 C 75.859 64.266,75.628 64.401,75.523 64.674 C 75.418 64.948,75.208 65.095,75.055 65.001 C 74.902 64.906,74.532 65.115,74.233 65.465 C 73.933 65.815,73.570 66.028,73.425 65.939 C 73.281 65.850,73.163 65.895,73.163 66.038 C 73.163 66.182,72.860 66.489,72.491 66.720 C 72.121 66.951,71.914 66.985,72.030 66.797 C 72.322 66.324,71.928 66.365,71.435 66.858 C 71.166 67.127,71.053 68.087,71.097 69.726 C 71.133 71.082,71.054 72.123,70.921 72.041 C 70.788 71.959,70.656 73.573,70.627 75.629 C 70.599 77.684,70.452 79.515,70.302 79.699 C 70.042 80.015,69.950 80.446,69.464 83.626 C 69.350 84.373,69.129 84.984,68.973 84.984 C 68.818 84.984,68.690 85.280,68.690 85.642 C 68.690 86.004,68.834 86.211,69.010 86.102 C 69.217 85.974,69.327 87.509,69.324 90.476 C 69.321 93.453,69.215 94.882,69.019 94.573 C 68.813 94.247,68.758 94.521,68.842 95.447 C 68.910 96.188,68.846 96.868,68.700 96.959 C 68.554 97.049,68.491 99.604,68.561 102.635 C 68.631 105.667,68.692 108.680,68.698 109.331 C 68.703 109.983,68.841 110.599,69.006 110.701 C 69.187 110.813,69.165 111.192,68.951 111.663 C 68.686 112.245,68.693 112.557,68.978 112.901 C 69.259 113.240,69.265 113.420,68.999 113.585 C 68.801 113.707,68.722 114.143,68.825 114.552 C 68.928 114.961,68.852 115.395,68.657 115.516 C 68.409 115.669,68.433 115.817,68.736 116.009 C 69.085 116.231,69.087 116.285,68.748 116.289 C 68.404 116.293,68.374 117.855,68.581 124.840 C 68.720 129.541,68.836 135.782,68.839 138.710 C 68.841 141.637,68.952 143.965,69.086 143.883 C 69.220 143.800,69.329 144.172,69.329 144.710 C 69.329 145.247,69.221 145.687,69.089 145.687 C 68.958 145.688,68.803 146.945,68.745 148.483 C 68.592 152.587,68.678 154.088,69.089 154.500 C 69.221 154.631,69.327 154.895,69.324 155.085 C 69.321 155.276,69.180 155.216,69.010 154.952 C 68.823 154.664,68.698 154.625,68.695 154.853 C 68.692 155.063,68.815 155.311,68.967 155.405 C 69.120 155.499,69.328 156.191,69.430 156.942 C 69.599 158.175,69.822 159.317,69.977 159.744 C 70.010 159.832,70.013 160.270,69.985 160.718 C 69.957 161.165,70.262 161.949,70.664 162.460 C 71.065 162.970,71.181 163.262,70.921 163.109 C 70.653 162.951,70.725 163.155,71.086 163.578 C 71.438 163.990,71.546 164.222,71.326 164.094 C 71.106 163.965,70.927 163.997,70.927 164.164 C 70.927 164.332,71.151 164.555,71.426 164.660 C 71.701 164.765,71.843 164.985,71.743 165.148 C 71.642 165.310,71.753 165.638,71.990 165.874 C 72.376 166.260,72.799 167.520,72.910 168.610 C 72.932 168.830,73.065 169.010,73.206 169.010 C 73.347 169.010,73.371 169.249,73.258 169.541 C 73.121 169.899,73.177 169.997,73.428 169.842 C 73.671 169.692,73.802 169.861,73.802 170.323 C 73.802 170.715,74.008 171.264,74.261 171.543 C 74.513 171.822,74.792 172.446,74.879 172.929 C 75.147 174.408,75.453 175.214,75.966 175.799 C 76.236 176.106,76.327 176.360,76.168 176.363 C 76.009 176.365,76.094 176.507,76.358 176.677 C 76.637 176.857,80.511 176.991,85.623 176.997 C 90.455 177.002,94.226 177.123,94.003 177.265 C 93.779 177.406,96.223 177.547,99.434 177.577 C 102.645 177.607,105.559 177.693,105.911 177.769 C 106.262 177.845,106.953 177.917,107.447 177.931 C 107.941 177.944,108.271 178.074,108.182 178.218 C 107.885 178.699,117.475 178.862,121.617 178.446 C 123.051 178.302,124.488 178.304,124.812 178.451 C 125.135 178.598,125.543 178.738,125.719 178.762 C 125.895 178.787,126.865 178.919,127.875 179.057 C 128.886 179.194,129.713 179.398,129.713 179.510 C 129.714 179.621,130.433 179.714,131.311 179.715 C 132.189 179.716,132.907 179.608,132.907 179.475 C 132.907 179.342,135.351 179.233,138.339 179.233 C 141.326 179.233,143.770 179.343,143.770 179.476 C 143.770 179.824,145.162 179.902,154.313 180.068 C 158.794 180.150,162.655 180.284,162.893 180.367 C 163.238 180.486,163.301 181.403,163.204 184.827 C 163.137 187.198,163.194 189.137,163.333 189.137 C 163.471 189.137,163.403 189.429,163.182 189.786 C 162.849 190.323,162.862 190.486,163.259 190.733 C 163.793 191.065,163.891 218.747,163.360 219.137 C 162.949 219.439,162.716 225.722,162.937 230.511 C 163.002 231.917,162.962 234.685,162.847 236.661 C 162.709 239.062,162.750 240.256,162.971 240.256 C 163.153 240.256,163.214 240.531,163.108 240.868 C 163.001 241.204,163.051 241.565,163.219 241.669 C 163.387 241.772,163.625 242.935,163.748 244.251 C 164.013 247.073,163.670 251.532,163.210 251.248 C 163.038 251.141,162.933 251.248,162.977 251.486 C 163.100 252.139,162.600 254.607,162.308 254.787 C 161.958 255.004,161.959 259.174,162.309 259.596 C 162.464 259.782,162.627 260.467,162.671 261.118 C 162.715 261.768,162.848 262.300,162.966 262.300 C 163.462 262.300,162.832 271.865,162.260 273.027 C 162.066 273.420,161.975 275.647,162.037 278.508 C 162.094 281.158,162.043 283.266,161.923 283.192 C 161.803 283.117,161.720 283.454,161.737 283.940 C 161.797 285.581,161.263 289.446,160.998 289.282 C 160.854 289.193,160.792 289.409,160.860 289.761 C 160.928 290.114,160.846 290.487,160.678 290.590 C 160.510 290.694,160.456 290.913,160.557 291.076 C 160.658 291.240,160.516 291.374,160.242 291.374 C 159.969 291.374,159.744 291.542,159.744 291.747 C 159.744 291.952,159.655 292.030,159.547 291.921 C 159.438 291.813,159.140 291.933,158.885 292.188 C 158.492 292.581,152.828 292.948,151.324 292.678 C 151.174 292.651,150.871 292.779,150.651 292.961 C 150.431 293.144,149.799 293.203,149.247 293.092 C 148.597 292.962,148.243 293.018,148.243 293.251 C 148.243 293.638,146.257 293.755,145.891 293.389 C 145.769 293.267,143.050 293.149,139.848 293.126 C 136.645 293.104,132.372 292.986,130.351 292.864 C 128.331 292.741,122.251 292.608,116.841 292.567 C 110.039 292.515,106.935 292.382,106.777 292.136 C 106.516 291.728,100.319 291.674,100.319 292.080 C 100.319 292.219,99.026 292.332,97.444 292.332 C 95.740 292.332,94.569 292.202,94.569 292.013 C 94.569 291.837,94.416 291.693,94.230 291.693 C 94.044 291.693,93.981 291.837,94.089 292.013 C 94.198 292.188,94.135 292.332,93.949 292.332 C 93.762 292.332,93.610 292.192,93.610 292.021 C 93.610 291.831,91.942 291.738,89.329 291.782 C 86.877 291.823,85.123 291.977,85.225 292.142 C 85.325 292.305,85.219 292.318,84.981 292.171 C 84.367 291.791,75.190 291.667,74.247 292.026 C 73.719 292.226,73.513 292.222,73.643 292.012 C 73.751 291.837,73.687 291.693,73.501 291.693 C 73.315 291.693,73.163 291.837,73.163 292.013 C 73.163 292.188,72.660 292.332,72.045 292.332 C 71.430 292.332,70.926 292.224,70.926 292.093 C 70.925 291.813,68.510 291.601,65.335 291.602 C 62.354 291.602,60.703 291.773,60.703 292.080 C 60.703 292.494,57.352 292.365,56.886 291.933 C 56.542 291.613,56.501 291.613,56.681 291.933 C 56.944 292.398,56.361 292.484,56.076 292.022 C 55.841 291.641,42.492 291.685,42.492 292.067 C 42.492 292.397,34.381 292.422,34.052 292.093 C 33.920 291.961,33.573 291.844,33.280 291.834 C 31.961 291.786,29.393 291.292,29.393 291.086 C 29.393 290.961,28.387 290.856,27.157 290.852 C 25.927 290.849,24.920 290.939,24.920 291.051 C 24.920 291.321,19.109 291.959,17.203 291.900 C 16.385 291.874,15.782 291.961,15.864 292.093 C 15.945 292.224,15.429 292.332,14.715 292.332 C 14.002 292.332,13.419 292.188,13.419 292.013 C 13.419 291.837,13.266 291.693,13.080 291.693 C 12.894 291.693,12.830 291.835,12.937 292.009 C 13.044 292.183,12.945 292.258,12.716 292.176 C 12.487 292.094,11.366 291.963,10.224 291.883 C 9.081 291.804,7.246 291.642,6.144 291.524 C 3.022 291.187,2.685 291.360,2.594 293.352 C 2.552 294.274,2.400 295.176,2.257 295.358 C 2.113 295.539,2.019 296.478,2.047 297.444 C 2.076 298.411,2.005 299.345,1.889 299.521 C 1.670 299.852,1.302 303.722,1.287 305.850 C 1.282 306.519,1.170 307.000,1.038 306.918 C 0.907 306.837,0.792 307.224,0.785 307.778 C 0.777 308.332,0.578 310.402,0.343 312.376 C -0.088 315.995,0.201 317.816,1.005 316.549 C 1.150 316.321,1.270 316.286,1.273 316.471 C 1.276 316.656,1.879 316.843,2.613 316.887 C 3.347 316.930,4.102 317.066,4.290 317.189 C 4.478 317.312,5.208 317.426,5.911 317.442 C 6.613 317.458,9.293 317.588,11.865 317.730 C 14.437 317.871,16.809 317.881,17.137 317.751 C 17.464 317.622,19.133 317.497,20.847 317.474 C 22.560 317.451,23.962 317.320,23.962 317.183 C 23.962 317.045,24.896 316.933,26.038 316.933 C 27.181 316.933,28.115 317.073,28.115 317.243 C 28.115 317.414,28.687 317.505,29.385 317.446 C 30.087 317.387,30.576 317.468,30.477 317.627 C 30.372 317.798,33.600 317.833,38.392 317.714 C 53.167 317.345,54.151 317.339,54.507 317.617 C 54.998 318.001,60.525 318.086,62.460 317.739 C 64.229 317.422,65.150 317.422,70.835 317.747 C 72.980 317.869,74.993 317.863,75.307 317.733 C 75.855 317.507,91.522 317.453,91.960 317.676 C 92.908 318.158,101.765 318.096,102.359 317.602 C 102.588 317.413,102.851 317.335,102.945 317.429 C 103.121 317.605,103.542 317.685,106.150 318.042 C 106.985 318.157,107.668 318.360,107.668 318.495 C 107.668 318.810,111.467 318.698,112.273 318.359 C 112.752 318.158,112.825 318.201,112.611 318.556 C 112.382 318.936,112.421 318.942,112.853 318.592 C 113.384 318.162,128.538 318.191,133.706 318.632 C 135.482 318.784,143.379 319.125,148.243 319.260 C 148.682 319.272,149.832 319.175,150.799 319.044 C 151.765 318.913,152.879 318.787,153.275 318.764 C 153.670 318.741,153.994 318.607,153.994 318.466 C 153.994 318.326,155.935 318.211,158.307 318.211 C 160.969 318.211,162.620 318.333,162.620 318.530 C 162.620 318.706,162.907 318.850,163.259 318.850 C 163.610 318.850,163.898 318.723,163.898 318.568 C 163.898 318.294,165.092 317.787,165.575 317.857 C 165.707 317.876,165.815 317.748,165.815 317.572 C 165.815 317.396,165.923 317.271,166.054 317.294 C 166.467 317.366,168.371 316.486,168.371 316.224 C 168.371 316.087,168.569 315.974,168.811 315.974 C 169.053 315.974,169.433 315.756,169.655 315.488 C 169.877 315.220,170.305 315.080,170.607 315.176 C 170.909 315.272,171.344 315.123,171.574 314.846 C 172.165 314.134,173.328 313.524,172.987 314.106 C 172.848 314.343,173.046 314.263,173.428 313.928 C 173.809 313.593,174.121 313.419,174.121 313.541 C 174.121 313.663,174.322 313.578,174.567 313.351 C 174.812 313.125,174.948 312.831,174.868 312.700 C 174.788 312.568,174.994 312.460,175.325 312.460 C 175.926 312.460,177.691 310.881,177.132 310.842 C 176.970 310.831,177.170 310.689,177.576 310.526 C 177.983 310.362,178.227 310.086,178.119 309.911 C 178.011 309.735,178.109 309.662,178.338 309.749 C 178.572 309.836,179.000 309.471,179.316 308.916 C 179.625 308.371,180.164 307.851,180.514 307.760 C 180.864 307.668,181.150 307.394,181.150 307.151 C 181.150 306.908,181.366 306.709,181.629 306.709 C 182.147 306.709,183.387 305.610,183.387 305.151 C 183.387 304.997,183.615 304.681,183.893 304.450 C 184.234 304.167,184.341 303.735,184.221 303.133 C 184.122 302.640,184.151 302.236,184.285 302.236 C 184.418 302.236,184.552 301.985,184.581 301.677 C 184.809 299.302,185.109 297.764,185.344 297.764 C 185.498 297.764,185.606 297.656,185.585 297.524 C 185.564 297.392,185.574 297.212,185.607 297.125 C 185.640 297.037,185.722 296.547,185.788 296.035 C 185.855 295.524,186.048 295.020,186.217 294.916 C 186.386 294.812,186.534 294.367,186.546 293.929 C 186.602 291.864,187.405 285.909,187.600 286.106 C 187.721 286.229,187.805 284.265,187.786 281.743 C 187.750 276.970,188.092 272.480,188.511 272.204 C 188.752 272.046,188.868 269.417,188.862 264.217 C 188.857 259.406,188.799 258.621,188.481 259.122 C 188.282 259.437,188.187 259.056,188.184 257.926 C 188.181 257.014,188.332 256.173,188.520 256.057 C 188.708 255.941,188.781 255.637,188.684 255.382 C 188.584 255.124,188.645 255.005,188.822 255.114 C 189.003 255.226,189.137 254.901,189.137 254.351 C 189.137 253.824,189.281 253.303,189.457 253.195 C 189.892 252.926,189.884 241.769,189.448 241.333 C 189.268 241.153,189.088 240.549,189.049 239.992 C 189.010 239.435,188.906 238.979,188.818 238.978 C 188.577 238.977,188.711 221.963,188.956 221.374 C 189.073 221.092,189.145 220.733,189.115 220.575 C 188.886 219.348,189.194 209.582,189.457 209.744 C 189.664 209.873,189.775 208.285,189.771 205.211 C 189.768 202.038,189.665 200.637,189.457 200.958 C 189.245 201.287,189.146 200.508,189.142 198.482 C 189.139 196.722,189.267 195.527,189.457 195.527 C 189.635 195.527,189.776 194.669,189.776 193.591 C 189.776 192.527,189.656 191.730,189.508 191.821 C 189.274 191.966,189.151 191.029,189.039 188.259 C 189.023 187.863,188.931 187.540,188.834 187.540 C 188.737 187.540,188.691 185.168,188.731 182.269 C 188.772 179.369,188.684 176.997,188.538 176.997 C 188.391 176.997,188.174 175.954,188.055 174.681 C 187.774 171.663,188.184 160.845,188.558 161.403 C 188.740 161.674,188.807 161.438,188.748 160.731 C 188.693 160.069,188.470 159.606,188.179 159.550 C 186.335 159.197,185.756 159.029,185.412 158.744 C 185.198 158.566,184.762 158.463,184.444 158.516 C 183.882 158.610,182.239 158.100,181.037 157.458 C 180.577 157.212,180.501 157.236,180.699 157.564 C 180.872 157.851,180.764 157.833,180.364 157.508 C 180.039 157.244,179.726 157.061,179.667 157.100 C 179.519 157.197,178.553 156.886,177.872 156.521 C 177.562 156.355,176.929 156.315,176.466 156.431 C 175.874 156.580,175.691 156.534,175.850 156.277 C 175.974 156.075,175.960 155.907,175.818 155.903 C 174.663 155.868,172.013 155.469,171.885 155.310 C 171.621 154.983,168.890 154.878,161.821 154.924 C 154.063 154.974,148.893 154.704,149.556 154.285 C 149.910 154.060,149.887 154.002,149.441 153.999 C 149.133 153.996,148.882 154.123,148.882 154.282 C 148.882 154.440,148.227 154.373,147.426 154.132 C 146.379 153.817,143.973 153.696,138.834 153.700 C 131.557 153.705,128.426 153.492,128.082 152.966 C 127.853 152.614,126.291 152.591,118.690 152.824 C 113.261 152.991,108.946 152.659,108.946 152.075 C 108.946 151.946,106.034 151.809,102.476 151.770 C 98.918 151.731,95.698 151.677,95.320 151.648 C 94.617 151.596,93.967 148.324,94.581 147.923 C 94.870 147.734,94.896 141.533,94.607 141.534 C 94.498 141.534,94.448 137.652,94.495 132.907 C 94.551 127.208,94.470 124.281,94.255 124.281 C 94.057 124.281,93.930 123.087,93.930 121.227 C 93.930 119.236,94.043 118.243,94.255 118.374 C 94.467 118.505,94.534 117.902,94.448 116.636 C 94.374 115.557,94.447 114.696,94.612 114.696 C 94.776 114.696,94.884 113.762,94.853 112.620 C 94.818 111.355,94.658 110.541,94.442 110.538 C 94.248 110.536,94.305 110.394,94.569 110.224 C 94.832 110.053,94.893 109.912,94.704 109.909 C 94.474 109.906,94.401 108.945,94.483 107.029 C 94.565 105.137,94.491 104.153,94.269 104.153 C 94.060 104.153,93.932 103.260,93.935 101.837 C 93.938 100.217,94.033 99.665,94.251 100.000 C 94.467 100.333,94.519 99.997,94.420 98.897 C 94.342 98.027,94.424 97.139,94.602 96.924 C 94.793 96.694,94.918 94.487,94.907 91.557 C 94.894 88.431,95.006 86.581,95.207 86.581 C 95.383 86.581,95.527 86.222,95.527 85.783 L 95.527 84.984 100.240 84.918 C 105.871 84.838,110.004 84.980,110.224 85.260 C 110.427 85.519,124.067 85.529,124.281 85.270 C 124.416 85.106,125.807 84.986,132.109 84.594 C 133.337 84.517,136.413 85.059,136.250 85.323 C 136.159 85.469,138.892 85.582,142.322 85.572 C 145.752 85.563,148.490 85.445,148.407 85.310 C 148.262 85.076,150.306 84.685,152.157 84.592 C 152.640 84.568,153.035 84.431,153.035 84.287 C 153.035 83.972,157.628 83.933,157.940 84.245 C 158.183 84.487,158.799 84.603,161.182 84.852 C 162.061 84.944,162.827 85.155,162.886 85.321 C 162.945 85.487,163.564 85.623,164.263 85.623 C 164.961 85.623,165.458 85.502,165.366 85.353 C 165.274 85.205,165.949 85.207,166.865 85.358 C 167.781 85.509,170.184 85.617,172.204 85.599 C 174.225 85.581,176.109 85.658,176.392 85.771 C 176.674 85.883,179.477 85.891,182.622 85.787 C 189.698 85.553,191.346 85.531,196.965 85.594 C 199.425 85.622,202.192 85.517,203.115 85.362 C 204.038 85.207,204.792 85.202,204.792 85.351 C 204.792 85.501,205.044 85.621,205.351 85.618 C 205.797 85.614,205.820 85.556,205.467 85.332 C 204.754 84.881,207.687 84.743,217.412 84.770 C 225.777 84.793,235.318 84.464,235.863 84.133 C 235.994 84.053,236.102 84.124,236.102 84.291 C 236.102 84.458,237.216 84.608,238.578 84.625 C 239.940 84.642,243.930 84.719,247.444 84.797 C 250.958 84.874,254.813 84.948,256.009 84.961 C 257.373 84.975,258.111 85.103,257.987 85.304 C 257.863 85.505,258.623 85.623,260.045 85.623 C 261.336 85.623,262.300 85.486,262.300 85.304 C 262.300 85.105,264.051 84.984,266.914 84.984 C 269.645 84.984,271.608 85.114,271.725 85.304 C 272.006 85.758,274.362 85.701,274.517 85.236 C 274.692 84.709,284.102 84.735,284.278 85.263 C 284.344 85.461,284.997 85.621,285.729 85.618 C 286.707 85.615,286.933 85.531,286.581 85.304 C 286.243 85.085,286.760 84.975,288.339 84.931 C 292.946 84.801,298.518 84.973,298.697 85.250 C 298.798 85.409,299.708 85.559,300.719 85.584 C 301.729 85.610,302.736 85.653,302.955 85.680 C 303.226 85.713,303.342 86.291,303.314 87.468 C 303.292 88.425,303.378 89.038,303.506 88.832 C 303.634 88.625,303.834 89.490,303.952 90.754 C 304.069 92.018,304.244 93.179,304.341 93.335 C 304.437 93.491,304.506 97.103,304.493 101.362 C 304.478 106.568,304.574 108.948,304.786 108.626 C 305.079 108.182,305.307 110.788,305.129 112.540 C 305.097 112.847,305.224 113.099,305.411 113.099 C 305.610 113.099,305.751 113.828,305.751 114.856 C 305.751 115.823,305.625 116.613,305.471 116.613 C 305.317 116.613,305.165 118.087,305.135 119.888 C 305.104 121.689,304.942 123.300,304.776 123.466 C 304.609 123.633,304.475 124.712,304.478 125.863 C 304.481 127.332,304.575 127.812,304.792 127.476 C 305.006 127.145,305.104 127.813,305.107 129.633 C 305.110 131.523,305.225 132.270,305.511 132.273 C 305.818 132.277,305.822 132.335,305.526 132.523 C 305.263 132.690,305.140 133.920,305.137 136.406 C 305.135 138.665,305.003 140.125,304.789 140.258 C 304.557 140.401,304.475 142.296,304.538 146.034 L 304.633 151.597 300.319 151.642 C 297.947 151.667,293.715 151.701,290.915 151.719 C 288.115 151.737,285.741 151.886,285.640 152.049 C 285.482 152.305,283.283 152.730,281.789 152.792 C 281.526 152.803,281.237 152.922,281.148 153.056 C 281.059 153.190,275.452 153.388,268.688 153.495 C 261.924 153.603,254.305 153.786,251.757 153.903 C 249.209 154.020,246.409 154.096,245.535 154.072 C 244.661 154.049,243.870 154.149,243.778 154.296 C 243.686 154.443,240.447 154.644,236.581 154.743 C 227.892 154.966,226.518 155.049,226.518 155.351 C 226.518 155.483,226.176 155.591,225.759 155.591 C 224.516 155.591,223.002 155.970,223.169 156.239 C 223.254 156.377,223.036 156.415,222.684 156.323 C 222.227 156.203,222.045 156.313,222.045 156.706 C 222.045 157.050,221.875 157.192,221.592 157.083 C 221.343 156.988,221.070 157.089,220.986 157.308 C 220.902 157.527,220.246 157.882,219.527 158.098 C 218.809 158.313,218.073 158.766,217.892 159.105 C 217.685 159.492,217.371 159.647,217.048 159.523 C 216.740 159.405,216.414 159.541,216.235 159.862 C 216.070 160.156,215.815 160.323,215.669 160.232 C 215.522 160.142,215.320 160.282,215.219 160.545 C 215.118 160.808,214.831 161.022,214.581 161.022 C 214.152 161.022,213.647 161.753,213.588 162.460 C 213.573 162.636,213.435 162.981,213.281 163.228 C 213.073 163.560,213.117 163.610,213.449 163.421 C 213.812 163.214,213.821 163.247,213.498 163.595 C 213.279 163.832,213.098 164.248,213.097 164.521 C 213.096 164.793,212.900 165.390,212.661 165.848 C 212.422 166.305,212.129 167.336,212.008 168.138 C 211.888 168.940,211.598 169.756,211.363 169.950 C 211.066 170.197,210.922 171.289,210.886 173.569 C 210.858 175.364,210.697 176.971,210.529 177.139 C 210.110 177.558,210.124 186.361,210.543 186.102 C 210.719 185.994,210.863 186.209,210.863 186.581 C 210.863 186.977,210.722 187.171,210.524 187.049 C 210.290 186.904,210.216 188.031,210.284 190.674 C 210.339 192.784,210.307 194.462,210.213 194.403 C 210.022 194.284,209.838 196.682,209.832 199.361 C 209.824 202.721,209.990 204.792,210.266 204.792 C 210.418 204.792,210.543 204.945,210.543 205.131 C 210.543 205.317,210.400 205.380,210.225 205.272 C 210.013 205.141,210.013 205.356,210.224 205.911 C 210.398 206.370,210.412 206.666,210.255 206.569 C 210.089 206.466,209.957 209.295,209.942 213.260 C 209.925 217.563,210.032 220.128,210.229 220.128 C 210.402 220.128,210.543 220.280,210.543 220.466 C 210.543 220.652,210.435 220.737,210.304 220.655 C 210.172 220.573,210.136 222.448,210.224 224.821 C 210.312 227.195,210.312 229.180,210.224 229.234 C 210.100 229.310,210.099 252.027,210.223 252.716 C 210.238 252.804,210.239 255.296,210.224 258.254 C 210.208 261.414,210.317 263.558,210.488 263.453 C 210.652 263.352,210.802 264.360,210.832 265.760 C 210.861 267.128,210.952 269.102,211.034 270.146 C 211.115 271.190,211.204 273.945,211.231 276.267 C 211.258 278.589,211.402 280.413,211.550 280.321 C 211.699 280.229,211.834 280.917,211.849 281.850 C 211.864 282.783,211.928 284.050,211.992 284.665 C 212.055 285.280,212.185 286.861,212.280 288.179 C 212.375 289.497,212.689 292.013,212.978 293.770 C 213.266 295.527,213.483 297.432,213.461 298.003 C 213.438 298.574,213.547 299.042,213.705 299.042 C 213.971 299.042,214.291 300.616,214.432 302.619 C 214.466 303.093,214.611 303.408,214.755 303.319 C 214.898 303.230,215.016 303.535,215.016 303.996 C 215.016 305.084,215.553 306.070,216.145 306.070 C 216.403 306.070,216.613 306.214,216.613 306.390 C 216.613 306.565,216.829 306.709,217.093 306.709 C 217.356 306.709,217.572 306.908,217.572 307.151 C 217.572 307.394,217.859 307.668,218.211 307.760 C 218.562 307.852,218.850 308.141,218.850 308.402 C 218.850 308.664,219.086 308.968,219.374 309.079 C 219.822 309.250,219.840 309.197,219.495 308.713 C 219.273 308.402,219.807 308.902,220.681 309.824 C 221.555 310.747,222.431 311.502,222.627 311.502 C 222.824 311.502,223.303 311.933,223.693 312.460 C 224.082 312.987,224.532 313.419,224.691 313.419 C 224.851 313.419,225.398 313.715,225.907 314.078 C 226.416 314.440,226.966 314.655,227.129 314.554 C 227.291 314.453,227.649 314.595,227.922 314.869 C 228.196 315.143,228.603 315.337,228.827 315.300 C 229.050 315.263,229.638 315.400,230.133 315.604 C 230.627 315.808,231.166 315.974,231.331 315.974 C 231.495 315.974,231.629 316.127,231.629 316.313 C 231.629 316.499,231.747 316.579,231.890 316.490 C 232.237 316.276,234.282 316.992,235.008 317.582 C 235.474 317.960,235.533 317.964,235.315 317.602 C 235.114 317.268,235.159 317.225,235.494 317.434 C 236.036 317.772,236.253 317.809,239.297 318.074 C 240.615 318.188,241.765 318.374,241.853 318.486 C 241.941 318.598,242.516 318.705,243.131 318.724 C 243.746 318.742,246.765 318.851,249.840 318.966 C 262.861 319.451,264.913 319.471,269.169 319.154 C 271.629 318.970,274.038 318.810,274.521 318.798 C 275.004 318.785,275.399 318.664,275.399 318.527 C 275.399 318.390,279.245 318.207,283.946 318.119 C 291.280 317.981,293.770 317.840,293.770 317.561 C 293.770 317.529,294.871 317.481,296.217 317.455 C 297.563 317.428,298.606 317.502,298.534 317.617 C 298.338 317.934,306.302 317.937,308.237 317.621 C 309.244 317.456,309.997 317.463,310.105 317.639 C 310.212 317.811,312.087 317.845,314.648 317.720 C 317.047 317.604,319.849 317.529,320.874 317.554 C 321.900 317.579,322.660 317.472,322.563 317.316 C 322.462 317.152,323.086 317.142,324.046 317.294 C 324.959 317.438,327.936 317.560,330.664 317.564 C 333.391 317.568,337.821 317.657,340.507 317.761 C 343.194 317.865,345.626 317.861,345.912 317.751 C 346.198 317.641,349.852 317.515,354.031 317.471 C 358.210 317.427,361.733 317.287,361.859 317.162 C 361.984 317.036,363.537 316.935,365.309 316.938 C 367.121 316.941,368.349 317.058,368.116 317.206 C 367.887 317.351,369.778 317.456,372.318 317.441 C 374.904 317.425,376.859 317.536,376.762 317.693 C 376.663 317.853,377.473 317.879,378.630 317.755 C 379.752 317.634,381.102 317.526,381.629 317.514 C 382.157 317.503,382.682 317.344,382.798 317.162 C 383.077 316.723,389.571 316.797,389.720 317.242 C 389.852 317.638,392.652 317.691,392.652 317.297 C 392.652 317.146,393.335 316.935,394.169 316.829 C 396.153 316.576,397.044 316.381,397.495 316.103 C 397.722 315.962,397.775 316.016,397.634 316.245 C 397.509 316.447,397.547 316.613,397.718 316.613 C 397.890 316.613,398.080 316.463,398.141 316.280 C 398.202 316.096,398.565 315.923,398.947 315.894 C 399.867 315.824,399.960 315.284,399.507 312.620 C 399.297 311.390,399.188 310.276,399.262 310.144 C 399.337 310.012,399.264 309.904,399.099 309.904 C 398.798 309.904,398.050 305.209,398.042 303.270 C 398.040 302.696,397.924 302.297,397.785 302.383 C 397.645 302.469,397.432 301.579,397.312 300.405 C 397.192 299.231,396.976 298.121,396.832 297.937 C 396.688 297.754,396.484 296.741,396.379 295.687 C 396.148 293.379,396.061 292.928,395.748 292.427 C 395.616 292.215,395.590 291.712,395.691 291.309 C 395.845 290.695,395.743 290.568,395.064 290.529 C 394.572 290.501,394.335 290.615,394.460 290.818 C 394.580 291.011,394.514 291.058,394.305 290.929 C 394.106 290.806,393.664 290.855,393.323 291.037 C 392.870 291.279,392.653 291.262,392.518 290.972 C 392.370 290.657,392.294 290.657,392.146 290.974 C 392.020 291.245,391.138 291.374,389.411 291.374 C 388.010 291.374,386.939 291.251,387.032 291.101 C 387.218 290.800,382.745 290.821,382.254 291.123 C 381.610 291.520,378.303 291.819,375.240 291.757 C 372.451 291.700,365.353 291.718,348.802 291.825 C 346.386 291.840,344.409 291.961,344.409 292.093 C 344.409 292.224,343.259 292.332,341.853 292.332 C 340.447 292.332,339.297 292.224,339.296 292.093 C 339.294 291.677,334.029 291.472,328.914 291.688 C 327.508 291.747,324.417 291.785,322.045 291.771 C 316.273 291.738,315.016 291.794,315.016 292.086 C 315.016 292.221,314.369 292.332,313.578 292.332 C 312.788 292.332,312.140 292.224,312.140 292.093 C 312.139 291.961,310.630 291.849,308.785 291.843 C 306.941 291.837,305.431 291.945,305.431 292.083 C 305.431 292.220,304.353 292.332,303.035 292.332 C 301.717 292.332,300.639 292.223,300.639 292.090 C 300.639 291.957,299.740 291.804,298.642 291.749 C 294.186 291.529,292.412 291.631,291.712 292.151 C 291.366 292.407,291.311 292.393,291.491 292.093 C 291.623 291.873,291.591 291.693,291.419 291.693 C 291.248 291.693,291.048 291.873,290.974 292.093 C 290.873 292.398,288.810 292.501,282.242 292.529 C 277.512 292.550,273.283 292.671,272.843 292.798 C 272.404 292.926,271.542 293.053,270.927 293.081 C 270.312 293.108,269.593 293.275,269.329 293.451 C 268.711 293.863,250.521 293.723,250.014 293.303 C 249.814 293.136,248.469 293.054,247.025 293.121 C 245.582 293.187,244.473 293.126,244.561 292.984 C 244.648 292.843,244.135 292.719,243.420 292.709 C 241.533 292.683,240.214 292.339,240.462 291.937 C 240.582 291.743,240.525 291.687,240.329 291.808 C 239.714 292.188,238.422 291.355,238.367 290.542 C 238.338 290.121,238.291 289.417,238.263 288.978 C 238.234 288.538,238.132 288.179,238.035 288.180 C 237.938 288.180,237.906 286.871,237.963 285.271 C 238.034 283.256,237.961 282.427,237.723 282.573 C 237.374 282.789,237.268 281.711,237.373 279.026 C 237.401 278.297,237.307 277.628,237.163 277.538 C 237.019 277.449,236.901 275.363,236.901 272.904 C 236.901 270.445,236.793 268.499,236.661 268.580 C 236.530 268.661,236.399 267.461,236.372 265.913 C 236.344 264.366,236.280 262.740,236.229 262.300 C 236.178 261.861,236.093 254.650,236.041 246.276 C 235.988 237.902,235.837 231.117,235.704 231.199 C 235.572 231.281,235.463 231.204,235.463 231.028 C 235.463 230.852,235.587 230.632,235.738 230.539 C 236.073 230.332,236.040 219.320,235.703 218.983 C 235.571 218.851,235.463 218.615,235.463 218.458 C 235.463 218.301,235.571 218.240,235.703 218.321 C 235.835 218.402,235.961 213.199,235.983 206.758 C 236.005 200.318,236.048 191.705,236.079 187.620 L 236.135 180.192 240.512 180.151 C 242.919 180.128,245.248 180.065,245.687 180.010 C 246.126 179.956,247.851 179.866,249.521 179.812 C 251.190 179.757,252.628 179.626,252.716 179.521 C 252.804 179.416,259.544 179.237,267.695 179.125 C 278.877 178.970,282.637 178.821,283.012 178.517 C 283.418 178.189,283.462 178.194,283.250 178.546 C 283.039 178.896,283.119 178.909,283.672 178.612 C 284.065 178.402,284.826 178.336,285.468 178.456 C 286.147 178.584,286.581 178.539,286.581 178.340 C 286.581 177.895,288.814 177.660,294.009 177.560 C 296.425 177.514,298.402 177.368,298.402 177.236 C 298.402 177.105,299.705 176.997,301.297 176.997 C 303.139 176.997,304.120 177.113,303.994 177.315 C 303.864 177.526,304.074 177.529,304.614 177.323 C 305.084 177.145,305.431 177.135,305.431 177.301 C 305.431 177.460,306.366 177.564,307.508 177.533 C 308.650 177.502,309.585 177.385,309.585 177.273 C 309.585 177.162,310.411 176.953,311.422 176.808 C 312.432 176.664,313.403 176.521,313.578 176.489 C 313.754 176.457,314.445 176.415,315.115 176.395 C 315.837 176.373,316.251 176.228,316.134 176.038 C 315.956 175.750,317.074 175.558,318.131 175.695 C 318.351 175.724,318.530 175.598,318.530 175.415 C 318.530 175.222,318.999 175.144,319.659 175.228 C 320.333 175.315,320.712 175.249,320.599 175.067 C 320.495 174.898,320.709 174.760,321.074 174.760 C 321.473 174.760,321.884 174.441,322.103 173.962 C 322.303 173.522,322.596 173.163,322.754 173.163 C 322.912 173.163,322.959 173.030,322.858 172.868 C 322.758 172.705,323.109 172.098,323.638 171.518 C 324.168 170.939,324.601 170.353,324.601 170.216 C 324.601 170.080,324.596 169.891,324.589 169.797 C 324.583 169.703,324.799 169.405,325.068 169.135 C 325.338 168.865,325.559 168.447,325.559 168.206 C 325.559 167.965,325.862 167.556,326.233 167.296 C 326.603 167.037,326.810 166.669,326.693 166.479 C 326.576 166.289,326.597 166.134,326.740 166.134 C 326.883 166.134,327.192 165.702,327.426 165.174 C 327.659 164.646,327.986 164.297,328.151 164.399 C 328.315 164.501,328.430 164.466,328.405 164.321 C 328.286 163.639,328.468 163.242,328.804 163.450 C 329.058 163.606,329.117 163.461,328.994 162.989 C 328.895 162.610,328.944 162.380,329.103 162.478 C 329.355 162.634,329.565 160.646,329.417 159.505 C 329.388 159.285,329.502 159.105,329.669 159.105 C 329.836 159.105,330.022 158.328,330.082 157.378 C 330.142 156.428,330.084 155.718,329.952 155.799 C 329.820 155.881,329.712 155.804,329.712 155.629 C 329.712 155.453,329.845 155.227,330.007 155.127 C 330.169 155.027,330.326 152.323,330.355 149.118 C 330.385 145.913,330.456 142.931,330.513 142.492 C 330.571 142.053,330.632 140.040,330.649 138.019 C 330.667 135.998,330.786 134.511,330.915 134.715 C 331.045 134.918,331.150 134.056,331.150 132.798 C 331.150 131.540,331.029 130.422,330.881 130.314 C 330.532 130.059,330.537 120.418,330.886 120.162 C 331.217 119.919,331.239 111.820,330.908 111.821 C 330.775 111.821,330.846 111.529,331.068 111.172 C 331.399 110.638,331.387 110.472,331.003 110.233 C 330.615 109.992,330.517 108.382,330.424 100.738 C 330.363 95.676,330.229 91.318,330.128 91.054 C 330.026 90.791,329.974 90.108,330.012 89.537 C 330.050 88.966,329.926 88.498,329.737 88.498 C 329.548 88.498,329.393 87.995,329.393 87.380 C 329.393 86.765,329.273 86.262,329.127 86.262 C 328.980 86.262,328.860 86.053,328.860 85.797 C 328.860 85.541,328.960 85.393,329.081 85.468 C 329.203 85.543,329.324 83.946,329.351 81.919 C 329.378 79.892,329.274 78.310,329.122 78.405 C 328.969 78.499,328.886 78.189,328.938 77.715 C 328.990 77.241,328.916 76.706,328.773 76.526 C 328.630 76.346,328.413 75.369,328.291 74.357 C 328.168 73.344,327.951 72.587,327.809 72.675 C 327.572 72.822,326.838 68.862,326.790 67.175 C 326.778 66.780,326.641 66.537,326.484 66.634 C 326.327 66.731,326.198 66.659,326.198 66.473 C 326.198 66.286,326.004 66.134,325.768 66.134 C 325.531 66.134,325.006 65.847,324.601 65.495 C 324.195 65.144,323.590 64.856,323.255 64.856 C 322.920 64.856,322.707 64.748,322.781 64.617 C 322.855 64.485,322.281 64.055,321.505 63.662 C 320.730 63.269,320.171 63.070,320.264 63.221 C 320.357 63.371,319.941 63.271,319.339 62.998 C 318.738 62.726,318.332 62.363,318.437 62.192 C 318.547 62.014,318.462 61.986,318.237 62.125 C 318.005 62.268,317.526 62.069,317.069 61.639 C 316.643 61.239,316.292 61.044,316.289 61.206 C 316.286 61.369,316.148 61.286,315.982 61.022 C 315.737 60.635,314.661 60.522,310.394 60.436 C 307.487 60.377,305.169 60.230,305.243 60.110 C 305.317 59.990,304.851 59.879,304.207 59.864 C 303.562 59.848,302.460 59.753,301.757 59.653 C 301.054 59.553,299.213 59.460,297.665 59.448 C 296.101 59.435,294.929 59.298,295.027 59.140 C 295.126 58.979,293.960 58.874,292.361 58.900 C 290.798 58.925,289.685 59.051,289.887 59.180 C 290.090 59.310,288.662 59.417,286.715 59.420 C 284.767 59.423,283.066 59.317,282.934 59.185 C 282.605 58.857,275.924 58.859,275.692 59.187 C 275.430 59.557,251.738 59.583,251.483 59.214 C 251.366 59.046,248.053 58.924,243.819 58.932 C 239.717 58.939,236.294 58.838,236.213 58.706 C 236.131 58.574,235.130 58.466,233.988 58.466 C 232.629 58.466,231.982 58.582,232.117 58.799 C 232.257 59.027,230.998 59.082,228.142 58.972 C 225.575 58.874,223.962 58.930,223.962 59.118 C 223.962 59.287,222.955 59.425,221.725 59.425 C 220.488 59.425,219.489 59.286,219.489 59.114 C 219.489 58.920,218.345 58.878,216.454 59.002 C 214.182 59.152,213.419 59.105,213.419 58.815 C 213.419 58.591,213.586 58.530,213.818 58.669 C 214.089 58.832,214.077 58.735,213.779 58.368 C 213.483 58.004,213.460 57.827,213.707 57.827 C 213.936 57.827,214.040 57.348,213.985 56.550 C 213.937 55.847,213.808 55.272,213.699 55.272 C 213.589 55.272,213.418 54.589,213.319 53.754 C 213.096 51.888,212.951 51.183,212.749 50.981 C 212.664 50.896,212.691 49.921,212.810 48.815 C 213.108 46.035,212.849 34.175,212.480 33.730 C 212.017 33.173,211.990 29.313,212.443 28.467 C 212.662 28.058,212.784 27.236,212.715 26.641 C 212.645 26.046,212.688 25.559,212.809 25.559 C 212.931 25.559,213.033 23.114,213.037 20.126 C 213.040 17.138,212.948 14.753,212.831 14.825 C 212.715 14.897,212.670 14.162,212.731 13.191 C 212.809 11.964,212.736 11.491,212.492 11.642 C 212.272 11.777,212.141 11.559,212.141 11.060 C 212.141 10.621,212.268 10.183,212.423 10.087 C 212.579 9.991,212.768 9.486,212.845 8.966 C 212.921 8.446,212.866 8.094,212.722 8.183 C 212.578 8.272,212.460 8.192,212.460 8.006 C 212.460 7.820,212.628 7.668,212.833 7.668 C 213.038 7.668,213.115 7.577,213.004 7.466 C 212.893 7.355,212.940 7.007,213.108 6.693 C 213.321 6.295,213.293 6.073,213.017 5.961 C 212.720 5.840,212.740 5.711,213.099 5.449 C 213.479 5.171,213.397 5.128,212.700 5.244 C 212.216 5.324,211.821 5.255,211.821 5.091 C 211.821 4.927,211.326 4.792,210.722 4.792 C 210.117 4.792,209.525 4.635,209.406 4.443 C 209.287 4.250,208.848 4.159,208.429 4.239 C 208.010 4.319,207.668 4.252,207.668 4.090 C 207.668 3.928,207.555 3.866,207.418 3.951 C 207.031 4.190,204.153 3.500,204.153 3.169 C 204.153 3.008,204.001 2.875,203.815 2.875 C 203.629 2.875,203.562 3.014,203.667 3.184 C 203.772 3.353,203.354 3.281,202.738 3.024 C 202.122 2.766,201.174 2.556,200.630 2.556 C 200.053 2.556,199.725 2.423,199.840 2.236 C 199.949 2.061,199.805 1.917,199.521 1.917 C 199.231 1.917,199.098 2.069,199.218 2.263 C 199.335 2.453,198.968 2.369,198.403 2.077 C 197.669 1.697,197.447 1.667,197.630 1.970 C 197.837 2.315,197.785 2.314,197.351 1.962 C 197.057 1.724,196.275 1.456,195.613 1.368 C 194.951 1.279,194.337 1.115,194.249 1.003 C 194.161 0.891,193.730 0.756,193.291 0.703 C 192.851 0.650,192.133 0.543,191.693 0.466 C 189.045 -0.003,188.235 -0.029,188.005 0.343 " stroke="none" fill="#0c2434" fill-rule="evenodd"></path><path id="path1" d="M213.506 58.466 C 213.462 59.052,213.637 59.100,215.595 59.044 L 217.732 58.982 215.751 58.869 C 214.177 58.780,213.806 58.661,213.948 58.292 C 214.046 58.036,213.997 57.827,213.840 57.827 C 213.683 57.827,213.533 58.115,213.506 58.466 M229.638 59.017 C 230.213 59.089,231.075 59.087,231.555 59.014 C 232.035 58.941,231.565 58.883,230.511 58.885 C 229.457 58.887,229.064 58.946,229.638 59.017 M245.447 59.019 C 246.106 59.088,247.185 59.088,247.843 59.019 C 248.502 58.950,247.963 58.893,246.645 58.893 C 245.327 58.893,244.788 58.950,245.447 59.019 M291.298 59.012 C 291.695 59.088,292.270 59.085,292.576 59.005 C 292.881 58.925,292.556 58.863,291.853 58.867 C 291.150 58.870,290.900 58.935,291.298 59.012 M86.505 59.651 C 86.903 59.727,87.478 59.724,87.783 59.644 C 88.089 59.564,87.764 59.502,87.061 59.505 C 86.358 59.509,86.108 59.574,86.505 59.651 M122.444 59.645 C 122.752 59.726,123.255 59.726,123.562 59.645 C 123.870 59.565,123.618 59.499,123.003 59.499 C 122.388 59.499,122.137 59.565,122.444 59.645 M258.227 59.645 C 258.534 59.726,259.038 59.726,259.345 59.645 C 259.653 59.565,259.401 59.499,258.786 59.499 C 258.171 59.499,257.919 59.565,258.227 59.645 M140.974 59.973 C 141.458 60.046,142.248 60.046,142.732 59.973 C 143.215 59.900,142.819 59.840,141.853 59.840 C 140.887 59.840,140.491 59.900,140.974 59.973 M170.208 59.970 C 170.603 60.046,171.250 60.046,171.645 59.970 C 172.041 59.894,171.717 59.831,170.927 59.831 C 170.136 59.831,169.812 59.894,170.208 59.970 M174.052 59.980 C 174.981 60.045,176.418 60.044,177.247 59.979 C 178.076 59.913,177.316 59.860,175.559 59.861 C 173.802 59.862,173.124 59.916,174.052 59.980 M70.889 71.496 C 70.783 72.131,70.830 72.429,71.007 72.251 C 71.168 72.090,71.247 71.619,71.181 71.203 C 71.081 70.563,71.036 70.608,70.889 71.496 M233.387 84.345 L 230.831 84.547 233.466 84.606 C 235.050 84.641,236.102 84.537,236.102 84.345 C 236.102 84.169,236.066 84.052,236.022 84.084 C 235.978 84.116,234.792 84.234,233.387 84.345 M105.192 84.885 C 105.499 84.965,106.002 84.965,106.310 84.885 C 106.617 84.804,106.366 84.739,105.751 84.739 C 105.136 84.739,104.884 84.804,105.192 84.885 M165.463 85.399 C 165.612 85.548,166.219 85.620,166.812 85.558 C 167.865 85.450,167.858 85.443,166.542 85.288 C 165.800 85.200,165.314 85.250,165.463 85.399 M203.355 85.304 L 202.077 85.532 203.435 85.578 C 204.181 85.603,204.792 85.479,204.792 85.304 C 204.792 85.128,204.756 85.004,204.712 85.029 C 204.669 85.054,204.058 85.178,203.355 85.304 M115.895 85.540 C 116.993 85.602,118.790 85.602,119.888 85.540 C 120.986 85.478,120.088 85.427,117.891 85.427 C 115.695 85.427,114.796 85.478,115.895 85.540 M190.335 85.529 C 190.731 85.605,191.378 85.605,191.773 85.529 C 192.169 85.453,191.845 85.391,191.054 85.391 C 190.264 85.391,189.940 85.453,190.335 85.529 M68.787 112.105 C 68.801 112.983,68.909 113.640,69.028 113.567 C 69.289 113.406,69.227 110.973,68.955 110.701 C 68.850 110.596,68.774 111.228,68.787 112.105 M331.110 116.134 C 331.111 118.067,331.163 118.817,331.227 117.800 C 331.290 116.783,331.290 115.202,331.226 114.285 C 331.161 113.369,331.109 114.201,331.110 116.134 M305.530 114.856 C 305.532 115.911,305.592 116.303,305.663 115.729 C 305.734 115.155,305.732 114.292,305.660 113.812 C 305.587 113.332,305.529 113.802,305.530 114.856 M331.050 132.482 C 331.017 133.390,330.908 134.396,330.807 134.718 C 330.634 135.266,330.646 135.268,330.983 134.743 C 331.181 134.435,331.290 133.428,331.226 132.507 L 331.109 130.831 331.050 132.482 M68.807 136.581 C 68.808 138.339,68.861 139.017,68.926 138.088 C 68.991 137.160,68.990 135.722,68.924 134.893 C 68.859 134.065,68.806 134.824,68.807 136.581 M68.764 142.492 C 68.764 143.107,68.830 143.359,68.910 143.051 C 68.991 142.744,68.991 142.240,68.910 141.933 C 68.830 141.625,68.764 141.877,68.764 142.492 M114.457 152.950 C 115.292 153.016,116.657 153.016,117.492 152.950 C 118.327 152.885,117.644 152.831,115.974 152.831 C 114.305 152.831,113.622 152.885,114.457 152.950 M154.233 154.870 C 155.507 154.930,157.592 154.930,158.866 154.870 C 160.140 154.809,159.097 154.760,156.550 154.760 C 154.002 154.760,152.959 154.809,154.233 154.870 M187.940 169.169 C 187.944 169.872,188.009 170.122,188.085 169.725 C 188.162 169.327,188.159 168.752,188.079 168.447 C 187.999 168.141,187.936 168.466,187.940 169.169 M304.043 177.396 C 304.124 177.528,304.470 177.636,304.811 177.636 C 305.152 177.636,305.431 177.528,305.431 177.396 C 305.431 177.264,305.086 177.157,304.663 177.157 C 304.241 177.157,303.962 177.264,304.043 177.396 M121.638 178.505 C 122.205 178.576,123.212 178.577,123.875 178.508 C 124.538 178.439,124.073 178.381,122.843 178.380 C 121.613 178.378,121.071 178.435,121.638 178.505 M130.595 179.779 C 130.992 179.855,131.567 179.852,131.873 179.772 C 132.178 179.692,131.853 179.630,131.150 179.633 C 130.447 179.637,130.197 179.702,130.595 179.779 M250.879 179.773 C 251.186 179.853,251.689 179.853,251.997 179.773 C 252.304 179.693,252.053 179.627,251.438 179.627 C 250.823 179.627,250.571 179.693,250.879 179.773 M163.057 183.706 C 163.057 185.551,163.110 186.306,163.175 185.383 C 163.239 184.461,163.239 182.951,163.175 182.029 C 163.110 181.106,163.057 181.861,163.057 183.706 M236.219 186.741 C 236.220 188.498,236.273 189.176,236.338 188.248 C 236.403 187.320,236.402 185.882,236.337 185.053 C 236.271 184.224,236.218 184.984,236.219 186.741 M163.670 194.728 C 163.672 195.607,163.734 195.929,163.808 195.443 C 163.881 194.957,163.879 194.238,163.803 193.845 C 163.727 193.452,163.667 193.850,163.670 194.728 M235.863 222.204 C 235.867 222.907,235.932 223.157,236.009 222.760 C 236.085 222.362,236.082 221.787,236.002 221.482 C 235.922 221.176,235.860 221.502,235.863 222.204 M163.026 231.629 C 163.026 232.420,163.089 232.744,163.165 232.348 C 163.241 231.953,163.241 231.306,163.165 230.911 C 163.089 230.515,163.026 230.839,163.026 231.629 M235.888 237.859 C 235.889 239.089,235.947 239.554,236.016 238.891 C 236.085 238.228,236.084 237.221,236.013 236.654 C 235.943 236.087,235.886 236.629,235.888 237.859 M235.870 247.284 C 235.870 248.075,235.932 248.399,236.008 248.003 C 236.084 247.608,236.084 246.961,236.008 246.565 C 235.932 246.170,235.870 246.494,235.870 247.284 M235.870 256.550 C 235.870 257.340,235.932 257.664,236.008 257.268 C 236.084 256.873,236.084 256.226,236.008 255.831 C 235.932 255.435,235.870 255.759,235.870 256.550 M163.026 264.856 C 163.026 265.647,163.089 265.970,163.165 265.575 C 163.241 265.180,163.241 264.533,163.165 264.137 C 163.089 263.742,163.026 264.065,163.026 264.856 M236.840 270.767 C 236.842 271.821,236.902 272.214,236.973 271.640 C 237.044 271.065,237.042 270.203,236.969 269.723 C 236.897 269.243,236.838 269.712,236.840 270.767 M187.639 279.073 C 187.641 280.128,187.700 280.521,187.771 279.946 C 187.843 279.372,187.841 278.510,187.768 278.029 C 187.695 277.549,187.637 278.019,187.639 279.073 M320.367 291.599 C 320.763 291.675,321.410 291.675,321.805 291.599 C 322.200 291.523,321.877 291.461,321.086 291.461 C 320.296 291.461,319.972 291.523,320.367 291.599 M10.543 291.819 C 10.543 291.889,11.106 291.999,11.794 292.065 C 12.482 292.131,12.977 292.074,12.894 291.939 C 12.742 291.693,10.543 291.582,10.543 291.819 M15.850 291.955 C 15.761 292.099,16.112 292.154,16.630 292.078 C 17.148 292.002,17.572 291.885,17.572 291.817 C 17.572 291.573,16.009 291.699,15.850 291.955 M81.713 291.919 C 82.110 291.996,82.685 291.993,82.991 291.913 C 83.296 291.833,82.971 291.770,82.268 291.774 C 81.565 291.777,81.316 291.843,81.713 291.919 M86.346 291.923 C 86.832 291.996,87.551 291.994,87.944 291.918 C 88.337 291.842,87.939 291.782,87.061 291.785 C 86.182 291.787,85.861 291.849,86.346 291.923 M309.669 291.923 C 310.155 291.996,310.873 291.994,311.266 291.918 C 311.659 291.842,311.262 291.782,310.383 291.785 C 309.505 291.787,309.183 291.849,309.669 291.923 M345.452 291.923 C 345.937 291.996,346.656 291.994,347.049 291.918 C 347.442 291.842,347.045 291.782,346.166 291.785 C 345.288 291.787,344.966 291.849,345.452 291.923 M349.449 291.928 C 350.201 291.995,351.351 291.994,352.005 291.926 C 352.660 291.857,352.045 291.802,350.639 291.803 C 349.233 291.804,348.698 291.860,349.449 291.928 M373.087 291.919 C 373.484 291.996,374.059 291.993,374.365 291.913 C 374.670 291.833,374.345 291.770,373.642 291.774 C 372.939 291.777,372.689 291.843,373.087 291.919 M375.962 291.919 C 376.360 291.996,376.935 291.993,377.240 291.913 C 377.546 291.833,377.220 291.770,376.518 291.774 C 375.815 291.777,375.565 291.843,375.962 291.919 M136.677 293.209 C 138.135 293.269,140.435 293.268,141.788 293.208 C 143.142 293.149,141.949 293.100,139.137 293.101 C 136.326 293.101,135.218 293.150,136.677 293.209 M245.930 293.197 C 246.328 293.274,246.903 293.271,247.208 293.191 C 247.514 293.111,247.188 293.048,246.486 293.052 C 245.783 293.055,245.533 293.121,245.930 293.197 M260.463 293.830 C 260.771 293.911,261.274 293.911,261.581 293.830 C 261.889 293.750,261.637 293.684,261.022 293.684 C 260.407 293.684,260.156 293.750,260.463 293.830 M322.651 317.348 C 322.800 317.497,323.407 317.568,324.001 317.507 C 325.053 317.399,325.047 317.392,323.730 317.237 C 322.988 317.149,322.503 317.199,322.651 317.348 M48.163 317.488 C 49.085 317.552,50.595 317.552,51.518 317.488 C 52.440 317.423,51.685 317.371,49.840 317.371 C 47.995 317.371,47.240 317.423,48.163 317.488 M330.112 317.473 C 330.419 317.553,330.923 317.553,331.230 317.473 C 331.538 317.392,331.286 317.327,330.671 317.327 C 330.056 317.327,329.804 317.392,330.112 317.473 M356.143 317.483 C 356.710 317.554,357.717 317.555,358.379 317.486 C 359.042 317.416,358.578 317.359,357.348 317.357 C 356.118 317.356,355.576 317.412,356.143 317.483 " stroke="none" fill="#102434" fill-rule="evenodd"></path><path id="path2" d="M213.506 58.466 C 213.462 59.052,213.637 59.100,215.595 59.044 L 217.732 58.982 215.751 58.869 C 214.177 58.780,213.806 58.661,213.948 58.292 C 214.046 58.036,213.997 57.827,213.840 57.827 C 213.683 57.827,213.533 58.115,213.506 58.466 M229.638 59.017 C 230.213 59.089,231.075 59.087,231.555 59.014 C 232.035 58.941,231.565 58.883,230.511 58.885 C 229.457 58.887,229.064 58.946,229.638 59.017 M245.447 59.019 C 246.106 59.088,247.185 59.088,247.843 59.019 C 248.502 58.950,247.963 58.893,246.645 58.893 C 245.327 58.893,244.788 58.950,245.447 59.019 M291.298 59.012 C 291.695 59.088,292.270 59.085,292.576 59.005 C 292.881 58.925,292.556 58.863,291.853 58.867 C 291.150 58.870,290.900 58.935,291.298 59.012 M86.505 59.651 C 86.903 59.727,87.478 59.724,87.783 59.644 C 88.089 59.564,87.764 59.502,87.061 59.505 C 86.358 59.509,86.108 59.574,86.505 59.651 M122.444 59.645 C 122.752 59.726,123.255 59.726,123.562 59.645 C 123.870 59.565,123.618 59.499,123.003 59.499 C 122.388 59.499,122.137 59.565,122.444 59.645 M258.227 59.645 C 258.534 59.726,259.038 59.726,259.345 59.645 C 259.653 59.565,259.401 59.499,258.786 59.499 C 258.171 59.499,257.919 59.565,258.227 59.645 M140.974 59.973 C 141.458 60.046,142.248 60.046,142.732 59.973 C 143.215 59.900,142.819 59.840,141.853 59.840 C 140.887 59.840,140.491 59.900,140.974 59.973 M170.208 59.970 C 170.603 60.046,171.250 60.046,171.645 59.970 C 172.041 59.894,171.717 59.831,170.927 59.831 C 170.136 59.831,169.812 59.894,170.208 59.970 M174.052 59.980 C 174.981 60.045,176.418 60.044,177.247 59.979 C 178.076 59.913,177.316 59.860,175.559 59.861 C 173.802 59.862,173.124 59.916,174.052 59.980 M70.889 71.496 C 70.783 72.131,70.830 72.429,71.007 72.251 C 71.168 72.090,71.247 71.619,71.181 71.203 C 71.081 70.563,71.036 70.608,70.889 71.496 M233.387 84.345 L 230.831 84.547 233.466 84.606 C 235.050 84.641,236.102 84.537,236.102 84.345 C 236.102 84.169,236.066 84.052,236.022 84.084 C 235.978 84.116,234.792 84.234,233.387 84.345 M105.192 84.885 C 105.499 84.965,106.002 84.965,106.310 84.885 C 106.617 84.804,106.366 84.739,105.751 84.739 C 105.136 84.739,104.884 84.804,105.192 84.885 M165.463 85.399 C 165.612 85.548,166.219 85.620,166.812 85.558 C 167.865 85.450,167.858 85.443,166.542 85.288 C 165.800 85.200,165.314 85.250,165.463 85.399 M203.355 85.304 L 202.077 85.532 203.435 85.578 C 204.181 85.603,204.792 85.479,204.792 85.304 C 204.792 85.128,204.756 85.004,204.712 85.029 C 204.669 85.054,204.058 85.178,203.355 85.304 M115.895 85.540 C 116.993 85.602,118.790 85.602,119.888 85.540 C 120.986 85.478,120.088 85.427,117.891 85.427 C 115.695 85.427,114.796 85.478,115.895 85.540 M190.335 85.529 C 190.731 85.605,191.378 85.605,191.773 85.529 C 192.169 85.453,191.845 85.391,191.054 85.391 C 190.264 85.391,189.940 85.453,190.335 85.529 M68.787 112.105 C 68.801 112.983,68.909 113.640,69.028 113.567 C 69.289 113.406,69.227 110.973,68.955 110.701 C 68.850 110.596,68.774 111.228,68.787 112.105 M331.110 116.134 C 331.111 118.067,331.163 118.817,331.227 117.800 C 331.290 116.783,331.290 115.202,331.226 114.285 C 331.161 113.369,331.109 114.201,331.110 116.134 M305.530 114.856 C 305.532 115.911,305.592 116.303,305.663 115.729 C 305.734 115.155,305.732 114.292,305.660 113.812 C 305.587 113.332,305.529 113.802,305.530 114.856 M331.050 132.482 C 331.017 133.390,330.908 134.396,330.807 134.718 C 330.634 135.266,330.646 135.268,330.983 134.743 C 331.181 134.435,331.290 133.428,331.226 132.507 L 331.109 130.831 331.050 132.482 M68.807 136.581 C 68.808 138.339,68.861 139.017,68.926 138.088 C 68.991 137.160,68.990 135.722,68.924 134.893 C 68.859 134.065,68.806 134.824,68.807 136.581 M68.764 142.492 C 68.764 143.107,68.830 143.359,68.910 143.051 C 68.991 142.744,68.991 142.240,68.910 141.933 C 68.830 141.625,68.764 141.877,68.764 142.492 M114.457 152.950 C 115.292 153.016,116.657 153.016,117.492 152.950 C 118.327 152.885,117.644 152.831,115.974 152.831 C 114.305 152.831,113.622 152.885,114.457 152.950 M154.233 154.870 C 155.507 154.930,157.592 154.930,158.866 154.870 C 160.140 154.809,159.097 154.760,156.550 154.760 C 154.002 154.760,152.959 154.809,154.233 154.870 M187.940 169.169 C 187.944 169.872,188.009 170.122,188.085 169.725 C 188.162 169.327,188.159 168.752,188.079 168.447 C 187.999 168.141,187.936 168.466,187.940 169.169 M304.043 177.396 C 304.124 177.528,304.470 177.636,304.811 177.636 C 305.152 177.636,305.431 177.528,305.431 177.396 C 305.431 177.264,305.086 177.157,304.663 177.157 C 304.241 177.157,303.962 177.264,304.043 177.396 M121.638 178.505 C 122.205 178.576,123.212 178.577,123.875 178.508 C 124.538 178.439,124.073 178.381,122.843 178.380 C 121.613 178.378,121.071 178.435,121.638 178.505 M130.595 179.779 C 130.992 179.855,131.567 179.852,131.873 179.772 C 132.178 179.692,131.853 179.630,131.150 179.633 C 130.447 179.637,130.197 179.702,130.595 179.779 M250.879 179.773 C 251.186 179.853,251.689 179.853,251.997 179.773 C 252.304 179.693,252.053 179.627,251.438 179.627 C 250.823 179.627,250.571 179.693,250.879 179.773 M163.057 183.706 C 163.057 185.551,163.110 186.306,163.175 185.383 C 163.239 184.461,163.239 182.951,163.175 182.029 C 163.110 181.106,163.057 181.861,163.057 183.706 M236.219 186.741 C 236.220 188.498,236.273 189.176,236.338 188.248 C 236.403 187.320,236.402 185.882,236.337 185.053 C 236.271 184.224,236.218 184.984,236.219 186.741 M163.670 194.728 C 163.672 195.607,163.734 195.929,163.808 195.443 C 163.881 194.957,163.879 194.238,163.803 193.845 C 163.727 193.452,163.667 193.850,163.670 194.728 M235.863 222.204 C 235.867 222.907,235.932 223.157,236.009 222.760 C 236.085 222.362,236.082 221.787,236.002 221.482 C 235.922 221.176,235.860 221.502,235.863 222.204 M163.026 231.629 C 163.026 232.420,163.089 232.744,163.165 232.348 C 163.241 231.953,163.241 231.306,163.165 230.911 C 163.089 230.515,163.026 230.839,163.026 231.629 M235.888 237.859 C 235.889 239.089,235.947 239.554,236.016 238.891 C 236.085 238.228,236.084 237.221,236.013 236.654 C 235.943 236.087,235.886 236.629,235.888 237.859 M235.870 247.284 C 235.870 248.075,235.932 248.399,236.008 248.003 C 236.084 247.608,236.084 246.961,236.008 246.565 C 235.932 246.170,235.870 246.494,235.870 247.284 M235.870 256.550 C 235.870 257.340,235.932 257.664,236.008 257.268 C 236.084 256.873,236.084 256.226,236.008 255.831 C 235.932 255.435,235.870 255.759,235.870 256.550 M163.026 264.856 C 163.026 265.647,163.089 265.970,163.165 265.575 C 163.241 265.180,163.241 264.533,163.165 264.137 C 163.089 263.742,163.026 264.065,163.026 264.856 M236.840 270.767 C 236.842 271.821,236.902 272.214,236.973 271.640 C 237.044 271.065,237.042 270.203,236.969 269.723 C 236.897 269.243,236.838 269.712,236.840 270.767 M187.639 279.073 C 187.641 280.128,187.700 280.521,187.771 279.946 C 187.843 279.372,187.841 278.510,187.768 278.029 C 187.695 277.549,187.637 278.019,187.639 279.073 M320.367 291.599 C 320.763 291.675,321.410 291.675,321.805 291.599 C 322.200 291.523,321.877 291.461,321.086 291.461 C 320.296 291.461,319.972 291.523,320.367 291.599 M10.543 291.819 C 10.543 291.889,11.106 291.999,11.794 292.065 C 12.482 292.131,12.977 292.074,12.894 291.939 C 12.742 291.693,10.543 291.582,10.543 291.819 M15.850 291.955 C 15.761 292.099,16.112 292.154,16.630 292.078 C 17.148 292.002,17.572 291.885,17.572 291.817 C 17.572 291.573,16.009 291.699,15.850 291.955 M81.713 291.919 C 82.110 291.996,82.685 291.993,82.991 291.913 C 83.296 291.833,82.971 291.770,82.268 291.774 C 81.565 291.777,81.316 291.843,81.713 291.919 M86.346 291.923 C 86.832 291.996,87.551 291.994,87.944 291.918 C 88.337 291.842,87.939 291.782,87.061 291.785 C 86.182 291.787,85.861 291.849,86.346 291.923 M309.669 291.923 C 310.155 291.996,310.873 291.994,311.266 291.918 C 311.659 291.842,311.262 291.782,310.383 291.785 C 309.505 291.787,309.183 291.849,309.669 291.923 M345.452 291.923 C 345.937 291.996,346.656 291.994,347.049 291.918 C 347.442 291.842,347.045 291.782,346.166 291.785 C 345.288 291.787,344.966 291.849,345.452 291.923 M349.449 291.928 C 350.201 291.995,351.351 291.994,352.005 291.926 C 352.660 291.857,352.045 291.802,350.639 291.803 C 349.233 291.804,348.698 291.860,349.449 291.928 M373.087 291.919 C 373.484 291.996,374.059 291.993,374.365 291.913 C 374.670 291.833,374.345 291.770,373.642 291.774 C 372.939 291.777,372.689 291.843,373.087 291.919 M375.962 291.919 C 376.360 291.996,376.935 291.993,377.240 291.913 C 377.546 291.833,377.220 291.770,376.518 291.774 C 375.815 291.777,375.565 291.843,375.962 291.919 M136.677 293.209 C 138.135 293.269,140.435 293.268,141.788 293.208 C 143.142 293.149,141.949 293.100,139.137 293.101 C 136.326 293.101,135.218 293.150,136.677 293.209 M245.930 293.197 C 246.328 293.274,246.903 293.271,247.208 293.191 C 247.514 293.111,247.188 293.048,246.486 293.052 C 245.783 293.055,245.533 293.121,245.930 293.197 M260.463 293.830 C 260.771 293.911,261.274 293.911,261.581 293.830 C 261.889 293.750,261.637 293.684,261.022 293.684 C 260.407 293.684,260.156 293.750,260.463 293.830 M322.651 317.348 C 322.800 317.497,323.407 317.568,324.001 317.507 C 325.053 317.399,325.047 317.392,323.730 317.237 C 322.988 317.149,322.503 317.199,322.651 317.348 M48.163 317.488 C 49.085 317.552,50.595 317.552,51.518 317.488 C 52.440 317.423,51.685 317.371,49.840 317.371 C 47.995 317.371,47.240 317.423,48.163 317.488 M330.112 317.473 C 330.419 317.553,330.923 317.553,331.230 317.473 C 331.538 317.392,331.286 317.327,330.671 317.327 C 330.056 317.327,329.804 317.392,330.112 317.473 M356.143 317.483 C 356.710 317.554,357.717 317.555,358.379 317.486 C 359.042 317.416,358.578 317.359,357.348 317.357 C 356.118 317.356,355.576 317.412,356.143 317.483 " stroke="none" fill="#102434" fill-rule="evenodd"></path><path id="path3" d="M213.506 58.466 C 213.462 59.052,213.637 59.100,215.595 59.044 L 217.732 58.982 215.751 58.869 C 214.177 58.780,213.806 58.661,213.948 58.292 C 214.046 58.036,213.997 57.827,213.840 57.827 C 213.683 57.827,213.533 58.115,213.506 58.466 M229.638 59.017 C 230.213 59.089,231.075 59.087,231.555 59.014 C 232.035 58.941,231.565 58.883,230.511 58.885 C 229.457 58.887,229.064 58.946,229.638 59.017 M245.447 59.019 C 246.106 59.088,247.185 59.088,247.843 59.019 C 248.502 58.950,247.963 58.893,246.645 58.893 C 245.327 58.893,244.788 58.950,245.447 59.019 M291.298 59.012 C 291.695 59.088,292.270 59.085,292.576 59.005 C 292.881 58.925,292.556 58.863,291.853 58.867 C 291.150 58.870,290.900 58.935,291.298 59.012 M86.505 59.651 C 86.903 59.727,87.478 59.724,87.783 59.644 C 88.089 59.564,87.764 59.502,87.061 59.505 C 86.358 59.509,86.108 59.574,86.505 59.651 M122.444 59.645 C 122.752 59.726,123.255 59.726,123.562 59.645 C 123.870 59.565,123.618 59.499,123.003 59.499 C 122.388 59.499,122.137 59.565,122.444 59.645 M258.227 59.645 C 258.534 59.726,259.038 59.726,259.345 59.645 C 259.653 59.565,259.401 59.499,258.786 59.499 C 258.171 59.499,257.919 59.565,258.227 59.645 M140.974 59.973 C 141.458 60.046,142.248 60.046,142.732 59.973 C 143.215 59.900,142.819 59.840,141.853 59.840 C 140.887 59.840,140.491 59.900,140.974 59.973 M170.208 59.970 C 170.603 60.046,171.250 60.046,171.645 59.970 C 172.041 59.894,171.717 59.831,170.927 59.831 C 170.136 59.831,169.812 59.894,170.208 59.970 M174.052 59.980 C 174.981 60.045,176.418 60.044,177.247 59.979 C 178.076 59.913,177.316 59.860,175.559 59.861 C 173.802 59.862,173.124 59.916,174.052 59.980 M70.889 71.496 C 70.783 72.131,70.830 72.429,71.007 72.251 C 71.168 72.090,71.247 71.619,71.181 71.203 C 71.081 70.563,71.036 70.608,70.889 71.496 M233.387 84.345 L 230.831 84.547 233.466 84.606 C 235.050 84.641,236.102 84.537,236.102 84.345 C 236.102 84.169,236.066 84.052,236.022 84.084 C 235.978 84.116,234.792 84.234,233.387 84.345 M105.192 84.885 C 105.499 84.965,106.002 84.965,106.310 84.885 C 106.617 84.804,106.366 84.739,105.751 84.739 C 105.136 84.739,104.884 84.804,105.192 84.885 M165.463 85.399 C 165.612 85.548,166.219 85.620,166.812 85.558 C 167.865 85.450,167.858 85.443,166.542 85.288 C 165.800 85.200,165.314 85.250,165.463 85.399 M203.355 85.304 L 202.077 85.532 203.435 85.578 C 204.181 85.603,204.792 85.479,204.792 85.304 C 204.792 85.128,204.756 85.004,204.712 85.029 C 204.669 85.054,204.058 85.178,203.355 85.304 M115.895 85.540 C 116.993 85.602,118.790 85.602,119.888 85.540 C 120.986 85.478,120.088 85.427,117.891 85.427 C 115.695 85.427,114.796 85.478,115.895 85.540 M190.335 85.529 C 190.731 85.605,191.378 85.605,191.773 85.529 C 192.169 85.453,191.845 85.391,191.054 85.391 C 190.264 85.391,189.940 85.453,190.335 85.529 M68.787 112.105 C 68.801 112.983,68.909 113.640,69.028 113.567 C 69.289 113.406,69.227 110.973,68.955 110.701 C 68.850 110.596,68.774 111.228,68.787 112.105 M331.110 116.134 C 331.111 118.067,331.163 118.817,331.227 117.800 C 331.290 116.783,331.290 115.202,331.226 114.285 C 331.161 113.369,331.109 114.201,331.110 116.134 M305.530 114.856 C 305.532 115.911,305.592 116.303,305.663 115.729 C 305.734 115.155,305.732 114.292,305.660 113.812 C 305.587 113.332,305.529 113.802,305.530 114.856 M331.050 132.482 C 331.017 133.390,330.908 134.396,330.807 134.718 C 330.634 135.266,330.646 135.268,330.983 134.743 C 331.181 134.435,331.290 133.428,331.226 132.507 L 331.109 130.831 331.050 132.482 M68.807 136.581 C 68.808 138.339,68.861 139.017,68.926 138.088 C 68.991 137.160,68.990 135.722,68.924 134.893 C 68.859 134.065,68.806 134.824,68.807 136.581 M68.764 142.492 C 68.764 143.107,68.830 143.359,68.910 143.051 C 68.991 142.744,68.991 142.240,68.910 141.933 C 68.830 141.625,68.764 141.877,68.764 142.492 M114.457 152.950 C 115.292 153.016,116.657 153.016,117.492 152.950 C 118.327 152.885,117.644 152.831,115.974 152.831 C 114.305 152.831,113.622 152.885,114.457 152.950 M154.233 154.870 C 155.507 154.930,157.592 154.930,158.866 154.870 C 160.140 154.809,159.097 154.760,156.550 154.760 C 154.002 154.760,152.959 154.809,154.233 154.870 M187.940 169.169 C 187.944 169.872,188.009 170.122,188.085 169.725 C 188.162 169.327,188.159 168.752,188.079 168.447 C 187.999 168.141,187.936 168.466,187.940 169.169 M304.043 177.396 C 304.124 177.528,304.470 177.636,304.811 177.636 C 305.152 177.636,305.431 177.528,305.431 177.396 C 305.431 177.264,305.086 177.157,304.663 177.157 C 304.241 177.157,303.962 177.264,304.043 177.396 M121.638 178.505 C 122.205 178.576,123.212 178.577,123.875 178.508 C 124.538 178.439,124.073 178.381,122.843 178.380 C 121.613 178.378,121.071 178.435,121.638 178.505 M130.595 179.779 C 130.992 179.855,131.567 179.852,131.873 179.772 C 132.178 179.692,131.853 179.630,131.150 179.633 C 130.447 179.637,130.197 179.702,130.595 179.779 M250.879 179.773 C 251.186 179.853,251.689 179.853,251.997 179.773 C 252.304 179.693,252.053 179.627,251.438 179.627 C 250.823 179.627,250.571 179.693,250.879 179.773 M163.057 183.706 C 163.057 185.551,163.110 186.306,163.175 185.383 C 163.239 184.461,163.239 182.951,163.175 182.029 C 163.110 181.106,163.057 181.861,163.057 183.706 M236.219 186.741 C 236.220 188.498,236.273 189.176,236.338 188.248 C 236.403 187.320,236.402 185.882,236.337 185.053 C 236.271 184.224,236.218 184.984,236.219 186.741 M163.670 194.728 C 163.672 195.607,163.734 195.929,163.808 195.443 C 163.881 194.957,163.879 194.238,163.803 193.845 C 163.727 193.452,163.667 193.850,163.670 194.728 M235.863 222.204 C 235.867 222.907,235.932 223.157,236.009 222.760 C 236.085 222.362,236.082 221.787,236.002 221.482 C 235.922 221.176,235.860 221.502,235.863 222.204 M163.026 231.629 C 163.026 232.420,163.089 232.744,163.165 232.348 C 163.241 231.953,163.241 231.306,163.165 230.911 C 163.089 230.515,163.026 230.839,163.026 231.629 M235.888 237.859 C 235.889 239.089,235.947 239.554,236.016 238.891 C 236.085 238.228,236.084 237.221,236.013 236.654 C 235.943 236.087,235.886 236.629,235.888 237.859 M235.870 247.284 C 235.870 248.075,235.932 248.399,236.008 248.003 C 236.084 247.608,236.084 246.961,236.008 246.565 C 235.932 246.170,235.870 246.494,235.870 247.284 M235.870 256.550 C 235.870 257.340,235.932 257.664,236.008 257.268 C 236.084 256.873,236.084 256.226,236.008 255.831 C 235.932 255.435,235.870 255.759,235.870 256.550 M163.026 264.856 C 163.026 265.647,163.089 265.970,163.165 265.575 C 163.241 265.180,163.241 264.533,163.165 264.137 C 163.089 263.742,163.026 264.065,163.026 264.856 M236.840 270.767 C 236.842 271.821,236.902 272.214,236.973 271.640 C 237.044 271.065,237.042 270.203,236.969 269.723 C 236.897 269.243,236.838 269.712,236.840 270.767 M187.639 279.073 C 187.641 280.128,187.700 280.521,187.771 279.946 C 187.843 279.372,187.841 278.510,187.768 278.029 C 187.695 277.549,187.637 278.019,187.639 279.073 M320.367 291.599 C 320.763 291.675,321.410 291.675,321.805 291.599 C 322.200 291.523,321.877 291.461,321.086 291.461 C 320.296 291.461,319.972 291.523,320.367 291.599 M10.543 291.819 C 10.543 291.889,11.106 291.999,11.794 292.065 C 12.482 292.131,12.977 292.074,12.894 291.939 C 12.742 291.693,10.543 291.582,10.543 291.819 M15.850 291.955 C 15.761 292.099,16.112 292.154,16.630 292.078 C 17.148 292.002,17.572 291.885,17.572 291.817 C 17.572 291.573,16.009 291.699,15.850 291.955 M81.713 291.919 C 82.110 291.996,82.685 291.993,82.991 291.913 C 83.296 291.833,82.971 291.770,82.268 291.774 C 81.565 291.777,81.316 291.843,81.713 291.919 M86.346 291.923 C 86.832 291.996,87.551 291.994,87.944 291.918 C 88.337 291.842,87.939 291.782,87.061 291.785 C 86.182 291.787,85.861 291.849,86.346 291.923 M309.669 291.923 C 310.155 291.996,310.873 291.994,311.266 291.918 C 311.659 291.842,311.262 291.782,310.383 291.785 C 309.505 291.787,309.183 291.849,309.669 291.923 M345.452 291.923 C 345.937 291.996,346.656 291.994,347.049 291.918 C 347.442 291.842,347.045 291.782,346.166 291.785 C 345.288 291.787,344.966 291.849,345.452 291.923 M349.449 291.928 C 350.201 291.995,351.351 291.994,352.005 291.926 C 352.660 291.857,352.045 291.802,350.639 291.803 C 349.233 291.804,348.698 291.860,349.449 291.928 M373.087 291.919 C 373.484 291.996,374.059 291.993,374.365 291.913 C 374.670 291.833,374.345 291.770,373.642 291.774 C 372.939 291.777,372.689 291.843,373.087 291.919 M375.962 291.919 C 376.360 291.996,376.935 291.993,377.240 291.913 C 377.546 291.833,377.220 291.770,376.518 291.774 C 375.815 291.777,375.565 291.843,375.962 291.919 M136.677 293.209 C 138.135 293.269,140.435 293.268,141.788 293.208 C 143.142 293.149,141.949 293.100,139.137 293.101 C 136.326 293.101,135.218 293.150,136.677 293.209 M245.930 293.197 C 246.328 293.274,246.903 293.271,247.208 293.191 C 247.514 293.111,247.188 293.048,246.486 293.052 C 245.783 293.055,245.533 293.121,245.930 293.197 M260.463 293.830 C 260.771 293.911,261.274 293.911,261.581 293.830 C 261.889 293.750,261.637 293.684,261.022 293.684 C 260.407 293.684,260.156 293.750,260.463 293.830 M322.651 317.348 C 322.800 317.497,323.407 317.568,324.001 317.507 C 325.053 317.399,325.047 317.392,323.730 317.237 C 322.988 317.149,322.503 317.199,322.651 317.348 M48.163 317.488 C 49.085 317.552,50.595 317.552,51.518 317.488 C 52.440 317.423,51.685 317.371,49.840 317.371 C 47.995 317.371,47.240 317.423,48.163 317.488 M330.112 317.473 C 330.419 317.553,330.923 317.553,331.230 317.473 C 331.538 317.392,331.286 317.327,330.671 317.327 C 330.056 317.327,329.804 317.392,330.112 317.473 M356.143 317.483 C 356.710 317.554,357.717 317.555,358.379 317.486 C 359.042 317.416,358.578 317.359,357.348 317.357 C 356.118 317.356,355.576 317.412,356.143 317.483 " stroke="none" fill="#102434" fill-rule="evenodd"></path><path id="path4" d="M213.506 58.466 C 213.462 59.052,213.637 59.100,215.595 59.044 L 217.732 58.982 215.751 58.869 C 214.177 58.780,213.806 58.661,213.948 58.292 C 214.046 58.036,213.997 57.827,213.840 57.827 C 213.683 57.827,213.533 58.115,213.506 58.466 M229.638 59.017 C 230.213 59.089,231.075 59.087,231.555 59.014 C 232.035 58.941,231.565 58.883,230.511 58.885 C 229.457 58.887,229.064 58.946,229.638 59.017 M245.447 59.019 C 246.106 59.088,247.185 59.088,247.843 59.019 C 248.502 58.950,247.963 58.893,246.645 58.893 C 245.327 58.893,244.788 58.950,245.447 59.019 M291.298 59.012 C 291.695 59.088,292.270 59.085,292.576 59.005 C 292.881 58.925,292.556 58.863,291.853 58.867 C 291.150 58.870,290.900 58.935,291.298 59.012 M86.505 59.651 C 86.903 59.727,87.478 59.724,87.783 59.644 C 88.089 59.564,87.764 59.502,87.061 59.505 C 86.358 59.509,86.108 59.574,86.505 59.651 M122.444 59.645 C 122.752 59.726,123.255 59.726,123.562 59.645 C 123.870 59.565,123.618 59.499,123.003 59.499 C 122.388 59.499,122.137 59.565,122.444 59.645 M258.227 59.645 C 258.534 59.726,259.038 59.726,259.345 59.645 C 259.653 59.565,259.401 59.499,258.786 59.499 C 258.171 59.499,257.919 59.565,258.227 59.645 M140.974 59.973 C 141.458 60.046,142.248 60.046,142.732 59.973 C 143.215 59.900,142.819 59.840,141.853 59.840 C 140.887 59.840,140.491 59.900,140.974 59.973 M170.208 59.970 C 170.603 60.046,171.250 60.046,171.645 59.970 C 172.041 59.894,171.717 59.831,170.927 59.831 C 170.136 59.831,169.812 59.894,170.208 59.970 M174.052 59.980 C 174.981 60.045,176.418 60.044,177.247 59.979 C 178.076 59.913,177.316 59.860,175.559 59.861 C 173.802 59.862,173.124 59.916,174.052 59.980 M70.889 71.496 C 70.783 72.131,70.830 72.429,71.007 72.251 C 71.168 72.090,71.247 71.619,71.181 71.203 C 71.081 70.563,71.036 70.608,70.889 71.496 M233.387 84.345 L 230.831 84.547 233.466 84.606 C 235.050 84.641,236.102 84.537,236.102 84.345 C 236.102 84.169,236.066 84.052,236.022 84.084 C 235.978 84.116,234.792 84.234,233.387 84.345 M105.192 84.885 C 105.499 84.965,106.002 84.965,106.310 84.885 C 106.617 84.804,106.366 84.739,105.751 84.739 C 105.136 84.739,104.884 84.804,105.192 84.885 M165.463 85.399 C 165.612 85.548,166.219 85.620,166.812 85.558 C 167.865 85.450,167.858 85.443,166.542 85.288 C 165.800 85.200,165.314 85.250,165.463 85.399 M203.355 85.304 L 202.077 85.532 203.435 85.578 C 204.181 85.603,204.792 85.479,204.792 85.304 C 204.792 85.128,204.756 85.004,204.712 85.029 C 204.669 85.054,204.058 85.178,203.355 85.304 M115.895 85.540 C 116.993 85.602,118.790 85.602,119.888 85.540 C 120.986 85.478,120.088 85.427,117.891 85.427 C 115.695 85.427,114.796 85.478,115.895 85.540 M190.335 85.529 C 190.731 85.605,191.378 85.605,191.773 85.529 C 192.169 85.453,191.845 85.391,191.054 85.391 C 190.264 85.391,189.940 85.453,190.335 85.529 M68.787 112.105 C 68.801 112.983,68.909 113.640,69.028 113.567 C 69.289 113.406,69.227 110.973,68.955 110.701 C 68.850 110.596,68.774 111.228,68.787 112.105 M331.110 116.134 C 331.111 118.067,331.163 118.817,331.227 117.800 C 331.290 116.783,331.290 115.202,331.226 114.285 C 331.161 113.369,331.109 114.201,331.110 116.134 M305.530 114.856 C 305.532 115.911,305.592 116.303,305.663 115.729 C 305.734 115.155,305.732 114.292,305.660 113.812 C 305.587 113.332,305.529 113.802,305.530 114.856 M331.050 132.482 C 331.017 133.390,330.908 134.396,330.807 134.718 C 330.634 135.266,330.646 135.268,330.983 134.743 C 331.181 134.435,331.290 133.428,331.226 132.507 L 331.109 130.831 331.050 132.482 M68.807 136.581 C 68.808 138.339,68.861 139.017,68.926 138.088 C 68.991 137.160,68.990 135.722,68.924 134.893 C 68.859 134.065,68.806 134.824,68.807 136.581 M68.764 142.492 C 68.764 143.107,68.830 143.359,68.910 143.051 C 68.991 142.744,68.991 142.240,68.910 141.933 C 68.830 141.625,68.764 141.877,68.764 142.492 M114.457 152.950 C 115.292 153.016,116.657 153.016,117.492 152.950 C 118.327 152.885,117.644 152.831,115.974 152.831 C 114.305 152.831,113.622 152.885,114.457 152.950 M154.233 154.870 C 155.507 154.930,157.592 154.930,158.866 154.870 C 160.140 154.809,159.097 154.760,156.550 154.760 C 154.002 154.760,152.959 154.809,154.233 154.870 M187.940 169.169 C 187.944 169.872,188.009 170.122,188.085 169.725 C 188.162 169.327,188.159 168.752,188.079 168.447 C 187.999 168.141,187.936 168.466,187.940 169.169 M304.043 177.396 C 304.124 177.528,304.470 177.636,304.811 177.636 C 305.152 177.636,305.431 177.528,305.431 177.396 C 305.431 177.264,305.086 177.157,304.663 177.157 C 304.241 177.157,303.962 177.264,304.043 177.396 M121.638 178.505 C 122.205 178.576,123.212 178.577,123.875 178.508 C 124.538 178.439,124.073 178.381,122.843 178.380 C 121.613 178.378,121.071 178.435,121.638 178.505 M130.595 179.779 C 130.992 179.855,131.567 179.852,131.873 179.772 C 132.178 179.692,131.853 179.630,131.150 179.633 C 130.447 179.637,130.197 179.702,130.595 179.779 M250.879 179.773 C 251.186 179.853,251.689 179.853,251.997 179.773 C 252.304 179.693,252.053 179.627,251.438 179.627 C 250.823 179.627,250.571 179.693,250.879 179.773 M163.057 183.706 C 163.057 185.551,163.110 186.306,163.175 185.383 C 163.239 184.461,163.239 182.951,163.175 182.029 C 163.110 181.106,163.057 181.861,163.057 183.706 M236.219 186.741 C 236.220 188.498,236.273 189.176,236.338 188.248 C 236.403 187.320,236.402 185.882,236.337 185.053 C 236.271 184.224,236.218 184.984,236.219 186.741 M163.670 194.728 C 163.672 195.607,163.734 195.929,163.808 195.443 C 163.881 194.957,163.879 194.238,163.803 193.845 C 163.727 193.452,163.667 193.850,163.670 194.728 M235.863 222.204 C 235.867 222.907,235.932 223.157,236.009 222.760 C 236.085 222.362,236.082 221.787,236.002 221.482 C 235.922 221.176,235.860 221.502,235.863 222.204 M163.026 231.629 C 163.026 232.420,163.089 232.744,163.165 232.348 C 163.241 231.953,163.241 231.306,163.165 230.911 C 163.089 230.515,163.026 230.839,163.026 231.629 M235.888 237.859 C 235.889 239.089,235.947 239.554,236.016 238.891 C 236.085 238.228,236.084 237.221,236.013 236.654 C 235.943 236.087,235.886 236.629,235.888 237.859 M235.870 247.284 C 235.870 248.075,235.932 248.399,236.008 248.003 C 236.084 247.608,236.084 246.961,236.008 246.565 C 235.932 246.170,235.870 246.494,235.870 247.284 M235.870 256.550 C 235.870 257.340,235.932 257.664,236.008 257.268 C 236.084 256.873,236.084 256.226,236.008 255.831 C 235.932 255.435,235.870 255.759,235.870 256.550 M163.026 264.856 C 163.026 265.647,163.089 265.970,163.165 265.575 C 163.241 265.180,163.241 264.533,163.165 264.137 C 163.089 263.742,163.026 264.065,163.026 264.856 M236.840 270.767 C 236.842 271.821,236.902 272.214,236.973 271.640 C 237.044 271.065,237.042 270.203,236.969 269.723 C 236.897 269.243,236.838 269.712,236.840 270.767 M187.639 279.073 C 187.641 280.128,187.700 280.521,187.771 279.946 C 187.843 279.372,187.841 278.510,187.768 278.029 C 187.695 277.549,187.637 278.019,187.639 279.073 M320.367 291.599 C 320.763 291.675,321.410 291.675,321.805 291.599 C 322.200 291.523,321.877 291.461,321.086 291.461 C 320.296 291.461,319.972 291.523,320.367 291.599 M10.543 291.819 C 10.543 291.889,11.106 291.999,11.794 292.065 C 12.482 292.131,12.977 292.074,12.894 291.939 C 12.742 291.693,10.543 291.582,10.543 291.819 M15.850 291.955 C 15.761 292.099,16.112 292.154,16.630 292.078 C 17.148 292.002,17.572 291.885,17.572 291.817 C 17.572 291.573,16.009 291.699,15.850 291.955 M81.713 291.919 C 82.110 291.996,82.685 291.993,82.991 291.913 C 83.296 291.833,82.971 291.770,82.268 291.774 C 81.565 291.777,81.316 291.843,81.713 291.919 M86.346 291.923 C 86.832 291.996,87.551 291.994,87.944 291.918 C 88.337 291.842,87.939 291.782,87.061 291.785 C 86.182 291.787,85.861 291.849,86.346 291.923 M309.669 291.923 C 310.155 291.996,310.873 291.994,311.266 291.918 C 311.659 291.842,311.262 291.782,310.383 291.785 C 309.505 291.787,309.183 291.849,309.669 291.923 M345.452 291.923 C 345.937 291.996,346.656 291.994,347.049 291.918 C 347.442 291.842,347.045 291.782,346.166 291.785 C 345.288 291.787,344.966 291.849,345.452 291.923 M349.449 291.928 C 350.201 291.995,351.351 291.994,352.005 291.926 C 352.660 291.857,352.045 291.802,350.639 291.803 C 349.233 291.804,348.698 291.860,349.449 291.928 M373.087 291.919 C 373.484 291.996,374.059 291.993,374.365 291.913 C 374.670 291.833,374.345 291.770,373.642 291.774 C 372.939 291.777,372.689 291.843,373.087 291.919 M375.962 291.919 C 376.360 291.996,376.935 291.993,377.240 291.913 C 377.546 291.833,377.220 291.770,376.518 291.774 C 375.815 291.777,375.565 291.843,375.962 291.919 M136.677 293.209 C 138.135 293.269,140.435 293.268,141.788 293.208 C 143.142 293.149,141.949 293.100,139.137 293.101 C 136.326 293.101,135.218 293.150,136.677 293.209 M245.930 293.197 C 246.328 293.274,246.903 293.271,247.208 293.191 C 247.514 293.111,247.188 293.048,246.486 293.052 C 245.783 293.055,245.533 293.121,245.930 293.197 M260.463 293.830 C 260.771 293.911,261.274 293.911,261.581 293.830 C 261.889 293.750,261.637 293.684,261.022 293.684 C 260.407 293.684,260.156 293.750,260.463 293.830 M322.651 317.348 C 322.800 317.497,323.407 317.568,324.001 317.507 C 325.053 317.399,325.047 317.392,323.730 317.237 C 322.988 317.149,322.503 317.199,322.651 317.348 M48.163 317.488 C 49.085 317.552,50.595 317.552,51.518 317.488 C 52.440 317.423,51.685 317.371,49.840 317.371 C 47.995 317.371,47.240 317.423,48.163 317.488 M330.112 317.473 C 330.419 317.553,330.923 317.553,331.230 317.473 C 331.538 317.392,331.286 317.327,330.671 317.327 C 330.056 317.327,329.804 317.392,330.112 317.473 M356.143 317.483 C 356.710 317.554,357.717 317.555,358.379 317.486 C 359.042 317.416,358.578 317.359,357.348 317.357 C 356.118 317.356,355.576 317.412,356.143 317.483 " stroke="none" fill="#102434" fill-rule="evenodd"></path></g></svg>