<svg viewBox="0 0 457.31 376.87">
  <defs>
    <style>
      .archcls-1 {
        fill: #002235;
        stroke-width: 0px;
      }
    </style>
  </defs>
  <path class="archcls-1" d="M11.19,353.21c-2.27,1.86-3.4,4.16-3.4,6.89,0,1.2.22,2.32.66,3.34.44,1.03,1.03,1.91,1.78,2.64.75.74,1.65,1.32,2.69,1.74,1.04.42,2.16.64,3.36.64s2.36-.21,3.4-.64c1.04-.42,1.94-1.01,2.71-1.76s1.37-1.63,1.8-2.64c.44-1.01.66-2.1.66-3.28,0-2.57-1.09-4.88-3.28-6.93h9.51l.29.82c.44,1.23.76,2.38.96,3.44.21,1.07.31,2.12.31,3.16,0,2.13-.4,4.18-1.21,6.13s-1.94,3.68-3.4,5.17c-1.46,1.49-3.2,2.69-5.21,3.59-2.01.9-4.2,1.35-6.58,1.35s-4.56-.44-6.54-1.33c-1.98-.89-3.69-2.08-5.12-3.57-1.44-1.49-2.56-3.22-3.36-5.19-.81-1.97-1.21-4.03-1.21-6.19,0-1.23.13-2.44.39-3.63.26-1.19.66-2.44,1.21-3.75h9.59Z"/>
  <path class="archcls-1" d="M31.78,322.42v10l-11.89,7.67h11.89v8.04H.86v-12.5c0-1.72.25-3.22.76-4.51.51-1.28,1.2-2.34,2.07-3.18.88-.83,1.89-1.46,3.03-1.89,1.15-.42,2.38-.64,3.69-.64,2.35,0,4.26.57,5.72,1.7,1.46,1.13,2.45,2.81,2.97,5.02l12.67-9.72ZM14.68,340.1v-1.52c0-1.58-.33-2.8-.98-3.65-.66-.85-1.6-1.27-2.83-1.27s-2.17.42-2.83,1.27c-.66.85-.98,2.06-.98,3.65v1.52h7.63Z"/>
  <path class="archcls-1" d="M7.67,301.47v9.55h5.17v-9.02h6.81v9.02h5.33v-9.55h6.81v17.59H.86v-17.59h6.81Z"/>
  <path class="archcls-1" d="M26.4,276.74v11.48l5.37,1.84v8.57l-30.91-11.77v-8.77l30.91-11.77v8.57l-5.37,1.85ZM20.29,278.87l-10.29,3.61,10.29,3.61v-7.22Z"/>
  <path class="archcls-1" d="M7.67,252.41h24.11v8.04H7.67v6.6H.86v-21.24h6.81v6.6Z"/>
  <path class="archcls-1" d="M.86,234.21h30.91v8.04H.86v-8.04Z"/>
  <path class="archcls-1" d="M15.69,228.83c-2.29-.13-4.4-.67-6.33-1.63s-3.59-2.23-4.98-3.82c-1.39-1.58-2.44-3.44-3.15-5.58-.71-2.13-1-4.46-.86-6.97.14-2.48.69-4.75,1.64-6.81.95-2.05,2.21-3.8,3.77-5.23,1.56-1.43,3.35-2.51,5.38-3.25,2.03-.73,4.19-1.04,6.48-.9,2.29.13,4.4.67,6.33,1.63s3.59,2.24,4.98,3.83,2.44,3.47,3.15,5.62c.71,2.15,1,4.46.86,6.95-.14,2.51-.69,4.79-1.64,6.83-.95,2.04-2.21,3.77-3.76,5.19-1.56,1.42-3.35,2.49-5.38,3.23-2.03.73-4.19,1.04-6.48.91ZM16.17,220.44c1.23.07,2.37-.1,3.44-.5,1.06-.4,2-.98,2.81-1.73s1.46-1.63,1.94-2.66c.48-1.03.76-2.13.82-3.3.07-1.17-.08-2.3-.45-3.37-.36-1.07-.9-2.04-1.62-2.88-.72-.85-1.58-1.53-2.59-2.06-1.01-.52-2.13-.82-3.36-.89-1.23-.07-2.37.1-3.44.5-1.06.41-2,.99-2.81,1.75-.81.76-1.46,1.66-1.94,2.68-.48,1.03-.76,2.13-.82,3.3-.07,1.17.08,2.3.45,3.37.36,1.08.91,2.03,1.62,2.86.72.84,1.58,1.51,2.59,2.04,1.01.52,2.13.82,3.36.89Z"/>
  <path class="archcls-1" d="M33.69,192.34l-30.01-7.42,1.93-7.8,21.91-9.87-18.35-4.54,1.92-7.76,30.01,7.42-1.92,7.76-21.91,9.87,18.35,4.54-1.93,7.8Z"/>
  <path class="archcls-1" d="M57.85,126.86l-4.14,6.89-26.49-15.94,6.59-10.96c1.79-2.97,3.93-4.79,6.43-5.44,2.5-.65,5.15-.13,7.96,1.56,2.81,1.69,4.51,3.79,5.11,6.3.59,2.51,0,5.25-1.79,8.23l-2.45,4.08,8.78,5.28ZM43.52,118.24l1.37-2.28c1.52-2.53,1.18-4.46-1.02-5.78-2.2-1.33-4.06-.72-5.58,1.81l-1.37,2.28,6.6,3.97Z"/>
  <path class="archcls-1" d="M83.77,91.34l-6.3,7.77-14.06-1.53,9.24,7.49-5.06,6.24-24.01-19.47,7.88-9.71c1.08-1.34,2.23-2.35,3.43-3.03,1.2-.68,2.41-1.07,3.61-1.16,1.2-.1,2.38.05,3.54.45,1.16.39,2.25,1,3.27,1.83,1.83,1.48,2.95,3.12,3.37,4.92.42,1.8.14,3.73-.85,5.77l15.96.43ZM59.36,94.3l.96-1.18c1-1.23,1.51-2.38,1.53-3.45.02-1.07-.44-1.99-1.4-2.77-.96-.77-1.96-1.04-3-.79s-2.06.98-3.06,2.21l-.96,1.18,5.92,4.8Z"/>
  <path class="archcls-1" d="M81.54,60.51l-6.92,6.59,3.56,3.74,6.53-6.22,4.7,4.93-6.53,6.22,3.68,3.86,6.92-6.59,4.69,4.93-12.74,12.13-21.32-22.38,12.73-12.13,4.7,4.93Z"/>
  <path class="archcls-1" d="M101.51,46.42c-1.13-.05-2.14.05-3.05.3-.91.25-1.69.62-2.35,1.11-.83.62-1.37,1.32-1.6,2.11s-.11,1.5.36,2.13c.33.44.73.7,1.2.79.48.09,1,.08,1.59-.03.58-.11,1.2-.29,1.85-.53.65-.25,1.31-.48,1.96-.69,2.63-.86,4.87-1.07,6.71-.62,1.85.45,3.47,1.62,4.88,3.5.95,1.27,1.59,2.58,1.93,3.93.34,1.35.37,2.7.09,4.04s-.86,2.67-1.76,3.96c-.89,1.29-2.1,2.5-3.61,3.63-3.14,2.33-6.74,3.56-10.8,3.68l-1.1-7.25c1.6.14,3.03.07,4.28-.22,1.25-.28,2.34-.77,3.26-1.45,1.05-.78,1.66-1.61,1.81-2.47.16-.87,0-1.61-.45-2.22-.28-.37-.58-.65-.92-.82-.34-.18-.74-.27-1.22-.27-.48,0-1.04.08-1.68.25-.64.17-1.4.39-2.28.67-1.03.36-2.06.67-3.1.95-1.04.28-2.06.38-3.08.32-1.02-.06-2.01-.35-2.99-.87-.98-.51-1.92-1.39-2.84-2.62-.91-1.23-1.54-2.49-1.87-3.79s-.4-2.58-.2-3.84c.21-1.26.69-2.48,1.46-3.67s1.81-2.27,3.13-3.25c1.23-.91,2.64-1.7,4.23-2.35,1.59-.65,3.25-1.11,4.96-1.36l1.17,6.94Z"/>
  <path class="archcls-1" d="M125.47,30.65l-8.31,4.72,2.55,4.49,7.84-4.46,3.36,5.92-7.84,4.46,2.63,4.63,8.31-4.72,3.36,5.92-15.29,8.69-15.27-26.88,15.29-8.69,3.36,5.92Z"/>
  <path class="archcls-1" d="M165.11,39.85l-9.26,3.78-11.59-8.12,4.49,11.01-7.44,3.03-11.67-28.63,11.58-4.72c1.59-.65,3.08-.98,4.46-1,1.38-.02,2.62.22,3.72.72,1.1.5,2.07,1.2,2.89,2.1.83.9,1.49,1.96,1.98,3.18.89,2.18,1.08,4.16.58,5.94-.5,1.78-1.67,3.33-3.53,4.65l13.78,8.07ZM142.29,30.69l1.4-.57c1.47-.6,2.47-1.36,3.01-2.29.54-.93.57-1.96.11-3.1-.46-1.14-1.21-1.85-2.25-2.14-1.03-.29-2.28-.13-3.75.46l-1.41.57,2.88,7.06Z"/>
  <path class="archcls-1" d="M163.78,8.41l11.72,16.5,2.81-20.06,8.48-2.08-5.31,33.13-6.21,1.52-19.98-26.94,8.48-2.08Z"/>
  <path class="archcls-1" d="M211.87,26.07l-11.43,1.05-1.35,5.52-8.53.78,8.9-31.86,8.74-.8,14.54,29.71-8.53.78-2.33-5.18ZM209.19,20.18l-4.53-9.92-2.65,10.58,7.19-.66Z"/>
  <path class="archcls-1" d="M236.17,7.3l-.82,24.09-8.03-.27.82-24.09-6.6-.23.23-6.8,21.23.72-.23,6.8-6.6-.23Z"/>
  <path class="archcls-1" d="M256.28,2.41l-3.75,30.68-7.98-.98,3.76-30.69,7.98.98Z"/>
  <path class="archcls-1" d="M260.2,18.02c.56-2.23,1.49-4.2,2.79-5.92,1.3-1.72,2.86-3.11,4.68-4.17s3.84-1.75,6.07-2.05c2.23-.3,4.57-.15,7,.46,2.41.6,4.54,1.57,6.38,2.89,1.84,1.32,3.32,2.88,4.43,4.68s1.84,3.76,2.18,5.89c.34,2.13.23,4.31-.33,6.53s-1.49,4.2-2.79,5.92c-1.3,1.72-2.87,3.11-4.7,4.17-1.83,1.06-3.87,1.74-6.11,2.04-2.24.3-4.57.14-6.99-.46-2.44-.61-4.57-1.57-6.4-2.89s-3.29-2.87-4.39-4.67-1.82-3.76-2.16-5.89c-.34-2.13-.23-4.31.33-6.53ZM268.36,20.06c-.3,1.19-.35,2.35-.15,3.47.2,1.12.59,2.15,1.17,3.08s1.33,1.74,2.25,2.4c.92.67,1.95,1.14,3.09,1.43,1.14.29,2.27.35,3.4.2s2.17-.51,3.14-1.05c.97-.55,1.8-1.27,2.51-2.16s1.2-1.94,1.5-3.13c.3-1.19.35-2.35.15-3.47-.2-1.12-.6-2.15-1.19-3.09-.6-.94-1.35-1.74-2.27-2.41-.92-.67-1.95-1.14-3.09-1.43-1.14-.29-2.27-.35-3.4-.19-1.12.16-2.16.51-3.12,1.06-.96.55-1.78,1.27-2.49,2.17-.7.9-1.2,1.94-1.5,3.13Z"/>
  <path class="archcls-1" d="M292.77,42.57l12.56-28.25,7.34,3.27,5.88,23.3,7.68-17.27,7.31,3.25-12.56,28.25-7.3-3.25-5.88-23.3-7.68,17.27-7.34-3.26Z"/>
  <path class="archcls-1" d="M347.47,71.93l20.23-23.38,6.08,5.26-1.15,24,12.37-14.29,6.04,5.23-20.23,23.37-6.05-5.23,1.15-24-12.37,14.29-6.08-5.26Z"/>
  <path class="archcls-1" d="M385.5,84.93c1.78-1.45,3.71-2.46,5.78-3.05,2.07-.59,4.16-.77,6.25-.53,2.09.24,4.12.91,6.09,2,1.96,1.1,3.74,2.62,5.32,4.58,1.57,1.93,2.69,3.98,3.37,6.14.68,2.16.92,4.29.73,6.4-.19,2.11-.79,4.12-1.79,6.02-1.01,1.91-2.4,3.58-4.18,5.03s-3.71,2.46-5.78,3.05c-2.07.59-4.16.76-6.26.51-2.1-.25-4.14-.93-6.11-2.04-1.97-1.11-3.74-2.63-5.31-4.56-1.58-1.95-2.71-4-3.38-6.15-.67-2.15-.91-4.27-.71-6.37.2-2.1.8-4.1,1.81-6.01,1-1.91,2.4-3.58,4.18-5.03ZM390.8,91.46c-.96.78-1.69,1.67-2.2,2.68-.51,1.02-.82,2.07-.91,3.17-.1,1.1.02,2.19.36,3.27.33,1.08.87,2.08,1.61,3,.74.91,1.61,1.64,2.6,2.19.99.55,2.04.9,3.14,1.04,1.1.14,2.2.07,3.3-.22,1.1-.29,2.13-.83,3.08-1.6.96-.78,1.69-1.67,2.2-2.69.51-1.01.81-2.08.9-3.18.09-1.11-.04-2.21-.37-3.29s-.87-2.08-1.61-3c-.74-.91-1.61-1.64-2.6-2.19-.99-.55-2.04-.89-3.13-1.03s-2.19-.05-3.29.24c-1.1.29-2.13.83-3.08,1.6Z"/>
  <path class="archcls-1" d="M427.6,116.14l-14.68,8.19c-.79.44-1.58.92-2.37,1.44-.79.52-1.44,1.11-1.94,1.79-.5.67-.78,1.45-.84,2.32-.06.88.24,1.9.89,3.07s1.36,1.95,2.13,2.35c.77.4,1.58.57,2.42.5.84-.06,1.69-.29,2.55-.69.86-.4,1.68-.82,2.47-1.26l14.68-8.19,3.9,6.98-15.65,8.73c-4.2,2.34-7.8,3.09-10.81,2.25-3-.84-5.62-3.26-7.84-7.24s-2.91-7.49-2.05-10.5c.86-3.01,3.38-5.69,7.58-8.03l15.65-8.73,3.91,7.02Z"/>
  <path class="archcls-1" d="M420.51,176.35l-3.43-9.4,8.54-11.28-11.17,4.08-2.75-7.55,29.04-10.6,4.29,11.75c.59,1.62.87,3.12.83,4.5-.03,1.38-.32,2.61-.86,3.69s-1.27,2.02-2.2,2.81c-.93.79-2.02,1.41-3.25,1.86-2.21.81-4.19.93-5.96.36-1.76-.56-3.27-1.8-4.51-3.7l-8.57,13.47ZM430.52,153.89l.52,1.43c.54,1.49,1.27,2.52,2.18,3.09.91.57,1.94.65,3.09.22,1.16-.42,1.9-1.14,2.22-2.16.33-1.02.22-2.28-.33-3.77l-.52-1.42-7.16,2.61Z"/>
  <path class="archcls-1" d="M452.51,179.21l-30.06,7.21-1.87-7.81,30.06-7.21,1.88,7.81Z"/>
  <path class="archcls-1" d="M448.69,205.56c.59-.96,1.01-1.89,1.24-2.8.23-.91.29-1.77.19-2.59-.13-1.03-.48-1.84-1.05-2.43-.57-.59-1.25-.83-2.04-.73-.54.07-.97.29-1.28.66-.31.37-.56.84-.75,1.4-.19.56-.34,1.19-.44,1.88-.11.69-.23,1.37-.36,2.05-.54,2.71-1.46,4.76-2.75,6.16-1.3,1.39-3.11,2.23-5.45,2.53-1.57.2-3.03.12-4.37-.25-1.34-.37-2.53-1-3.57-1.9-1.04-.9-1.9-2.06-2.59-3.47-.69-1.42-1.15-3.06-1.39-4.93-.49-3.88.21-7.62,2.09-11.22l6.86,2.6c-.91,1.33-1.54,2.61-1.91,3.84-.37,1.23-.48,2.42-.33,3.56.17,1.3.59,2.23,1.26,2.79.68.56,1.39.79,2.15.7.46-.06.85-.19,1.17-.4s.6-.52.83-.93c.24-.42.44-.94.6-1.59.17-.64.34-1.41.53-2.32.19-1.07.43-2.13.69-3.17.27-1.04.68-1.99,1.23-2.84.55-.85,1.29-1.58,2.22-2.18.93-.6,2.15-1,3.67-1.19s2.93-.12,4.22.23c1.3.34,2.44.92,3.44,1.71,1,.8,1.82,1.82,2.48,3.08.65,1.25,1.08,2.69,1.29,4.32.19,1.52.18,3.13-.03,4.84-.21,1.71-.63,3.37-1.25,4.99l-6.62-2.38Z"/>
  <path class="archcls-1" d="M445.38,224.66v11.6h11.93v8.04h-30.91v-8.04h12.75v-11.6h-12.75v-8.04h30.91v8.04h-11.93Z"/>
  <path class="archcls-1" d="M426.39,249.41l30.91,5.25v7.95l-16.48,6.19,16.48,6.15v7.95l-30.91,5.25v-8l17.79-2.67-17.79-7.3v-3.2l17.79-6.93-17.79-2.67v-8Z"/>
  <path class="archcls-1" d="M450.5,310.84v-9.55h-5.17v9.02h-6.81v-9.02h-5.33v9.55h-6.81v-17.59h30.91v17.59h-6.81Z"/>
  <path class="archcls-1" d="M426.39,316.61h30.91v8.04l-18.9,14.84h18.9v8h-30.91v-8l18.9-14.84h-18.9v-8.04Z"/>
  <path class="archcls-1" d="M450.5,365.67h-24.11v-8.04h24.11v-6.6h6.81v21.24h-6.81v-6.6Z"/>
</svg>