<?xml version="1.0" encoding="UTF-8"?>
<svg id="Layer_1" data-name="Layer 1" xmlns="http://www.w3.org/2000/svg" viewBox="0 0 1117.18 2531.98">
  <defs>
    <style>
      .footercls-1 {
        fill: none;
        stroke: #062334;
        stroke-miterlimit: 10;
        stroke-width: 49.45px;
      }
    </style>
  </defs>
  <g>
    <ellipse class="footercls-1" cx="559.48" cy="1244.95" rx="1.48" ry="2.07"/>
    <path id="footer1" stroke-dasharray="0,2531.98" class="footercls-1" d="M557.66 276.91 560.99 288.9 559.11 300.89 559.42 312.89 560.59 324.88 558.52 336.87 558.71 348.87 559.33 360.86 557.71 372.85 559.07 384.84 558.87 396.83 559.92 408.81 561 420.8 557.98 432.79 558.38 444.78 557.64 456.78 559.27 468.77 559.98 480.76 560.22 492.75 557.34 504.75 557.94 516.74 558.29 528.73 559.34 540.73 557.22 552.72 560.38 564.71 557.9 576.7 559.67 588.69 558.24 600.68 560.79 612.67 560.17 624.66 559.06 636.65 560.15 648.65 559.9 660.64 559.86 672.63 558.78 684.63 560.34 696.62 557.36 708.61 559.78 720.6 560.18 732.59 557.49 744.58 560.35 756.58 558.04 768.57 561.12 780.56 560.34 792.55 557.97 804.55 557.23 816.54 558.8 828.54 559.47 840.53 557.23 852.52 558.47 864.51 559.71 876.5 558.39 888.5 558.02 900.49 557.57 912.48 559.12 924.47 558.08 936.47 558.87 948.46 558.36 960.46 558.98 972.45 558.91 984.44 559.06 996.44 560.35 1008.43 558.66 1020.42 558.28 1032.41 560.7 1044.41 559.83 1056.4 559.23 1068.4 560 1080.39 560.39 1092.38 557.57 1104.38 559.96 1116.37 557.56 1128.36 558.15 1140.36 560.18 1152.35 559.56 1164.35 559.37 1176.34 561.14 1188.33 560.27 1200.33 560.82 1212.32 558.16 1224.31 557.94 1236.31 558.66 1248.31 559.35 1260.3 560.66 1272.29 560.83 1284.29 557.5 1296.28 558.93 1308.27 559.64 1320.27 559.9 1332.27 559.74 1344.26 558.19 1356.25 560.41 1368.25 558.44 1380.24 559.82 1392.24 559.15 1404.23 560.07 1416.23 557.33 1428.22 560.87 1440.22 558.36 1452.21 559.38 1464.21 558.02 1476.2 559.39 1488.2 559.16 1500.19 557.64 1512.19 559.79 1524.18 560.75 1536.18 557.75 1548.17 558.49 1560.17 560.76 1572.16 558.39 1584.16 557.68 1596.15 560.84 1608.15 558.47 1620.14 560.08 1632.14 557.35 1644.14 559.17 1656.13 559.53 1668.13 558.12 1680.12 557.2 1692.12 559.05 1704.11 557.97 1716.11 558.85 1728.11 559.17 1740.1 560.3 1752.1 560.01 1764.09 560.44 1776.09 561.11 1788.08 557.71 1800.08 558.68 1812.07 558.1 1824.06 558.7 1836.05 559.56 1848.05 560.23 1860.04 557.86 1872.03 557.5 1884.03 557.97 1896.02 557.57 1908.01 558.15 1920.01 559.89 1932 559.32 1944 560.7 1955.99 560 1967.99 557.29 1979.98 560.78 1991.98 559.53 2003.97 557.42 2015.97 560.56 2027.96 561.07 2039.96 560.9 2051.95 560.63 2063.95 558.96 2075.95 559.62 2087.94 559.2 2099.94 559.66 2111.94 560.41 2123.93 560.27 2135.93 558.45 2147.93 561.18 2159.92 559.74 2171.92 557.54 2183.92 557.29 2195.92 557.74 2207.92 559.4 2219.91 557.75 2231.91 558.62 2243.91 558.74 2255.91 557.35 2267.91 560.88 2279.91 559.43 2291.91 557.89 2303.91 558.77 2315.9 559.62 2327.9 558.47 2339.9 558.63 2351.89 558.15 2363.89 557.36 2375.89 557.46 2387.89 560.47 2399.89 560.45 2411.89 557.63 2423.89 557.36 2435.89 559.35 2447.89 559.89 2459.89 558.75 2471.89 557.31 2483.89 557.25 2495.9 561.04 2507.9 558.11 2519.91 558.08 2531.92"/>
  </g>
  <path id="footer2" stroke-dasharray="0,2531.98" class="footercls-1" d="M2.1 26.55 13.9 27.56 25.7 27.28 37.51 28.56 49.31 28.42 61.12 25.97 72.92 26.53 84.73 28.51 96.53 26.93 108.33 26.59 120.14 26.38 131.95 26.71 143.75 25.92 155.57 25.56 167.38 28.12 179.28 27.32 191.08 29.37 201.25 35.92 213.27 38.67 222.71 46.23 229.73 56.06 237.28 65.16 244.32 74.95 247.52 86.55 250.09 98.19 252.6 110.08 250.64 121.62 248.71 133.15 250.66 144.68 249.42 156.22 252.27 167.75 249.11 179.29 251.91 190.83 253.38 202.99 255.04 215.24 258.83 227.17 265.54 237.78 274.06 246.93 283.12 255.58 294.93 259.98 306.07 264.97 317.83 268.7 330.16 271.44 342.22 271.89 354.26 268.82 366.31 270.46 378.36 268.49 390.41 269.27 402.47 270.9 414.52 271.07 426.57 269.85 438.62 271.8 450.68 268.47 462.73 270.36 474.79 270.05 486.84 268.87 498.89 270.95 510.95 270.75 523 270.13 535.06 271.75 547.12 270.39 559.18 270.59"/>
  <path id="footer3" stroke-dasharray="0,2531.98" class="footercls-1" d="M1115.08 26.95 1103.28 25.95 1091.48 26.23 1079.67 24.94 1067.87 25.08 1056.06 27.53 1044.26 26.98 1032.45 25 1020.65 26.57 1008.85 26.91 997.04 27.13 985.23 26.79 973.43 27.59 961.61 27.94 949.8 25.38 937.98 27.86 926.53 30.84 914.42 32.61 905.58 41.27 895.99 47.98 886.19 54.97 879.48 64.89 875.1 75.97 869.99 86.65 867.53 98.25 868.35 110.08 866.39 121.62 864.47 133.15 866.42 144.68 865.17 156.22 868.03 167.75 864.86 179.29 867.66 190.83 867.21 203.53 863.06 215.54 857.3 226.64 850.96 237.28 843.28 247.09 833.38 254.64 823.94 263.29 812.04 267.86 799.55 269.93 787.02 269.12 774.96 268.68 762.92 271.74 750.87 270.11 738.82 272.08 726.77 271.29 714.71 269.67 702.66 269.5 690.61 270.72 678.56 268.76 666.5 272.09 654.45 270.21 642.39 270.52 630.34 271.69 618.29 269.62 606.23 269.81 594.18 270.43 582.12 268.81 570.06 270.17 558 269.97"/>
</svg>