<?xml version="1.0" encoding="UTF-8"?>
<svg id="Isolation_Mode" data-name="Isolation Mode" xmlns="http://www.w3.org/2000/svg" viewBox="0 0 855.41 284.82">
  <defs>
    <style>
      .cls-1 {
        fill: #002235;
      }

      .cls-1, .cls-2 {
        stroke-width: 0px;
      }

      .cls-2 {
        fill: #002235;
      }
    </style>
  </defs>
  <path class="cls-1" d="M566.23,158.12c0-.61,0-1.47-.17-2.43-.26-.69-.35-1.39-.43-2-.09-.87-.26-1.56-.44-2.52-.26-1.22-.61-2.34-.95-3.64-.26-1.04-.61-2.17-.87-3.21-.95-3.82-2.25-7.2-3.47-9.89-.95-2.25-1.91-4.42-2.69-6.77-.35-.69-.43-1.56-.43-2.69.17-3.39-2-5.47-3.64-6.86-1.22-1.3-2.61-2-3.82-2.52-.35-.35-.61-.52-1.04-.69-1.22-.61-2.43-.78-3.47-.78l-.61.17h-.26l-.87-.35h-.61c-.35-.17-.69-.17-1.3,0h-.87c-.17,0-.35,0-.87-.17-.61,0-1.47-.17-2.25-.17h-25.99c-.69,0-1.47.17-2.34,0-.43-.17-1.22-.35-2-.17h-3.3c-1.56-.35-2.86-.35-4.25-.35h-19.96c-2.25.17-4.42.52-6.51.87,0,0-22.35.65-22.35.65-2.25.39-5.4,1.24-7.6.05-.72-.39-1.25-.94-2.08-1.13-1.2-.27-2.54.08-3.75.12-1.58.05-3.19.07-4.77.02-3.82-.12-7.43-.93-11.14.06-1.74.46-4.12.68-5.86.15-.94-.29-.97-.6-2.14-.57-1.06.03-1.78-.23-2.78-.53-1.39-.41-2.94-.68-4.28-1.08-.89-.26-1.09-.57-2.13-.56-.81.01-1.91.17-2.7.03-.56-.1-2.22-.42-2.59-.68-.68-.47-.73-1.35-1.04-2.06-.81-1.84-.69-3.39-.69-5.4,0-.79-.2-1.94-.04-2.7.25-1.22,1.44-2.27,1.89-3.47,1.34-3.55,2.85-7.3,4.43-10.86s3.92-7.46,5.07-11.35c.41-1.38,1.23-2.92,1.5-4.17.18-.82.02-1.65.24-2.46.19-.69.72-1.77,1.03-2.51.48-1.18,1.41-2.03,1.96-3.16.79-1.62,1.78-2.97,2.84-4.41,2.84-3.88,8.18-2.77,12.34-3.44,2.12-.34,4.43-.12,6.58-.12,1.16,0,2.33,0,3.49,0,1.37,0,2.28.34,3.53.57,1.82.33,4.09-.03,5.95-.03,2.17,0,4.38.18,6.49-.31,1.34-.31,2.59-.25,3.95-.15,2.98.21,5.95.36,8.94.36,2.7,0,12.8.02,15.49.07,2.92.05,5.63-.41,8.52-.67,2.58-.23,5.18.03,7.76.15,2.35.12,5.12.43,7.39-.38,1.66-.59,3.37-2.05,4.66-3.23,4.66-4.26-1.39-11.68-3.03-16.17-.77-2.09-.65-3.71-.78-5.87-.12-1.92-1.04-3.59-1.78-5.33-2.62-6.16-6.49-11.94-8.94-18.07-1.29-3.24-5.72-4.78-8.97-4.78-3.64,0-14.67,0-18.31,0-2.19,0-4.29-.28-6.44.3-1.65.45-2.87.74-4.58.57-2.92-.29,5.77-.13,2.83-.12-6.46.02-12.92.02-19.38,0-3.29-.01,5.54-1.01,2.26-1.19-2,0-3.99-.17-6.08,0h-23.26c-.87,0-1.74.17-2.52.17h-9.03c-.96,0-1.82.17-3.13.35-.17,0-.35,0-.61-.09-.61-.08-1.22-.08-1.82,0-.69.09-1.39.17-2,.35-.61.17-1.13.35-1.56.35-1.04,0-2.08.17-3.04.35-.61,0-1.13.17-1.82.17-.35,0-1.04,0-1.82.17l-.61.17-.35-.17-.61.17c-.26.17-.52.17-.78.35h-.87l-1.65.35c-1.47.43-3.12.61-4.68,1.3-1.04.35-1.83.69-2.61,1.13-.61.52-1.22,1.04-1.82,1.56-.35.26-.52.43-.69.78-.35.17-.87.52-1.39,1.04l-.44.52c-.09.17-.26.35-.43.52-.44.43-1.04.95-1.48,1.82-.26.43-.35.78-.61,1.13,0,.17-.17.35-.26.52-.52.78-.96,1.65-1.31,2.52l-.95,1.65c-1.22,2.34-2.52,4.69-3.47,7.2-.43,1.3-.95,2.43-1.47,3.64-.78,1.82-1.56,3.64-2.17,5.64-1.22,4.34-3.3,8.5-5.3,12.84-.62,1.18-1.47,1.63-1.93,2.9-.31.87-.78,1.51-1.12,2.33-.66,1.57-1.06,3.32-1.65,4.89-1.37,3.63-2.21,7.44-3.33,11.11-.98,3.2-2.66,6.21-3.87,9.42-.95,2.5,1.54-4.85.33-2.55-.76,1.44-1.35,3.15-1.82,4.59-.43,1.31-.92,2.5-1.38,3.75-.26.71-.85,1.52-1,2.2-.08.37.14.8.06,1.17-.06.27-.42.48-.46.65-.32,1.28-.61,2.46-1.37,3.64-1.41,2.18-3.12,4.69-3.69,7.11-.38,1.63-.44,3.41-1.16,4.95-.65,1.39-1.45,2.62-2.23,3.88-.77,1.24-1.42,2.87-2.35,4.05s-1.36,1.92-1.53,3.44c-.13,1.18-.72,2.01-1,3.18-.23.98.14,2.03-.08,2.97-.47,1.95-1.29,3.97-2.02,5.8-.35.87-.69,1.74-1.13,2.43-.08.26-.26.43-.35.78-.61.87-1.21,1.82-1.47,3.3-.26,1.04-.86,2.17-1.56,3.39-.52.87-1.04,1.82-1.47,2.69l-.35.78c-.35.69-.69,1.39-.96,2.17-.17.35-.17.69-.26,1.04s-.17.52-.17.52c-.26.35-.69.95-.87,1.82-.08.35-.17.61-.17,1.13-.08.17-.17.52-.26.69-.26.52-.61,1.47-.69,2.52v1.3c-.17.52-.26.87-.35,1.39-.09,1.47,0,3.12,0,4.6.09,1.82.95,3.39,1.56,4.17l.35.69c.35.69,1.04,2,2.43,3.04.78.52,1.82,1.3,3.04,1.82.95.52,1.91.69,2.86.87.35.08.69.26,1.04.35,1.04.26,1.91.43,2.6.43h.78c.52,0,1.13.17,1.65.35.95.17,1.82.35,2.69.35.78.17,1.47.17,2.17.17.35,0,.78-.17.96,0,1.47.17,2.86.35,4.34.17h10.32c1.65,0,2.7.17,4,.17.34.08.69.08,1.04.08.78,0,1.56-.08,2.43-.08.52-.17,1.13-.17,1.65-.17h9.2c.95,0,1.91-.17,2.86-.35.95-.17,1.91-.17,2.95-.17h20.4c6.16.17,12.32.17,18.57.35,20.48.35,61.23-.48,80.33-1.17,1.3-.17,2.69,0,3.99,0,2,0,4.08.17,6.16.17,3.82.17,27.98.35,31.8.35,2.86,0,5.64-.17,8.42-.35,2.6,0,5.21-.17,7.81-.17,1.65,0,3.04-.17,4.6-.35,1.21-.17,2.43-.61,3.38-.95.52,0,.87-.17,1.3-.35.96-.17,1.65-.69,2.17-1.04l.52-.17c.35-.17.78-.26,1.13-.43.87-.52,2-1.22,2.61-2.34.78-1.22.69-2.69.61-3.91ZM501.08,48.11h.44c-.17,0-.35,0-.52.08,0-.08.08-.08.08-.08ZM499.08,48.98h.17l-.17.08c-.17,0-.35,0-.52.08.17-.08.35-.08.52-.17ZM443.54,7.02c2.17.09,13.17,1.26,15.42,1.26-2.25,0-13.25-1.17-15.42-1.17-.69-.09-1.3-.09-2-.09h2ZM416.9,50.24c.17-.08.35-.17.52-.26-.17.17-.35.26-.52.35h-.61c.26,0,.43-.09.61-.09ZM319.67,147.15c0,.09-.08.26-.08.52,0-.26.08-.43,0-.52l.26-.44-.17.44ZM321.76,159.99c.61.26,1.13.35,1.65.52-.52-.17-1.13-.17-1.65-.52ZM325.31,134.39c.09-.17.09-.35.09-.43l.08-.08c-.08.17-.08.35-.17.52ZM329.22,161.47c-.26-.08-.52-.17-.87-.26.26.08.61.17.87.17l1.56.26c-.52-.08-1.04-.17-1.56-.17ZM331.22,122.59c-.08.17-.17.26-.26.35.09-.09.18-.26.18-.35.17-.26.35-.52.52-.78-.17.26-.35.52-.43.78ZM338.16,106.1l.09-.08c0,.26-.09.61-.09.86v-.78ZM337.29,109.74c.08-.08.17-.26.26-.43-.09.26-.17.43-.17.52-.35.78-.69,1.48-1.04,2.17.26-.69.61-1.39.96-2.25ZM348.4,162.16h-10.41c-.87,0-1.56-.08-2.26-.17.69.09,1.39.09,2.26.09h10.41c1.47,0,2.86.08,4.25.17-1.39-.08-2.78-.08-4.25-.08ZM365.26,35.66c-.35,1.13-.69,2.17-1.13,3.21.44-1.04.69-2.17,1.04-3.21.08-.35.26-.69.35-1.04-.09.35-.17.69-.26,1.04ZM378.72,11.18c-.26.17-.52.44-.69.61l-.52.61h-.09l.52-.69c.26-.17.52-.35.69-.61.26-.08.44-.17.61-.17-.17,0-.34.09-.52.26ZM385.05,9.36l-1.13.26c-.78.17-1.47.26-2.17.43.61-.17,1.31-.35,2.17-.52l1.13-.26c.08,0,.26.08.35.08h-.35ZM386.61,9.28h-.43c.09,0,.26,0,.35-.09l.61-.08-.52.17ZM393.81,8.06c.87,0,1.47-.08,2.17-.17-.69.09-1.3.26-2.08.26h-.61c.17-.09.35-.09.52-.09ZM392.83,161.64c-1.56-.08-3.21-.08-4.78-.08h4.78c3.12.08,6.25.08,9.37.17-3.13-.09-6.25-.09-9.37-.09ZM435.1,120.85c-.34,0-.61-.09-.86-.09-.35,0-.69.09-.96.09-.86.08-1.73.17-2.52.26.87-.09,1.65-.26,2.43-.35h1.91c.35.09.61.17.96.26-.35-.08-.61-.17-.96-.17ZM438.22,121.54c-.09-.08-.17-.08-.26-.08h.26c1.04.26,2.08.43,3.12.52-1.04-.09-2.08-.26-3.12-.44ZM502.23,120.2c-.52-.09-.95-.09-1.47-.09.52,0,1.04-.08,1.47,0,.17.09.35.09.43.09h-.43ZM507.09,120.37l-.44-.08h.44c.17.08.35.08.52.17-.17,0-.34-.09-.52-.09ZM545.23,121.24v-.08c.17.08.26.26.43.35-.17-.09-.26-.17-.43-.26ZM548.52,123.32c-.26-.35-.69-.61-1.04-.87.35.26.78.52,1.04.78v.09ZM558.33,158.82l-.26.09-.26.17v-.09l.26-.08.26-.17c.09,0,.18-.09.26-.09-.08.09-.17.09-.26.17Z"/>
  <path class="cls-2" d="M482.9,96.01c-1.25,0-2.49-.34-3.57-1l-55.88.1h-.01c-2.79,0-5.31-1.69-6.36-4.29-1.05-2.59-.42-5.57,1.59-7.51,1.83-1.77,3.39-3.41,4.63-4.87.21-.24.38-.49.56-.74.5-.69,1.12-1.54,2.02-2.44,1.57-1.57,3.21-2.69,4.65-3.68.95-.65,1.83-1.03,2.47-1.29,1-.95,2.27-1.6,3.67-1.82,1.66-.26,3.33.09,4.73.97.45.18,1.08.46,1.77.91,1.06.69,1.82,1.49,2.33,2.02.08.09.16.18.25.26,1.3,1.14,2.29,2.35,3.17,3.42.29.36.59.72.9,1.07.22.26.45.51.67.77.17-.14.34-.29.51-.43.19-.16.37-.33.54-.49.64-.6,1.51-1.42,2.74-2.17l.19-.12c.34-.56.84-1.34,1.59-2.15.17-.18.34-.37.51-.56.46-.51.93-1.03,1.4-1.5,3.36-3.35,7.57-3.61,11.27-.68.09.05.18.09.27.13.33.16.66.33,1.01.53,1.32.74,2.42,1.62,3.31,2.32.55.44,1.24.98,1.57,1.14,2.19,1.04,4.7,2.33,6.67,4.05.22.19.44.36.64.53.04.03.07.06.11.09.15-.16.3-.31.45-.47.86-.9,1.83-1.91,3-2.9l.33-.27c1.07-.89,1.67-1.45,2-1.79.35-.92.9-1.77,1.62-2.48,1.36-1.33,3.21-2.04,5.1-1.95,3.74.16,6.49,1.77,8.5,2.95.44.26.88.52,1.33.76,1.5.78,2.64,1.69,3.55,2.42.33.27.67.54,1.03.79.08.05.14.09.2.12.8.47,1.74,1.09,2.85,2.43.55.67.93,1.3,1.18,1.72.01.02.02.03.03.05.07.06.14.13.21.2,1.33,1.26,3.55,3.36,4.21,6.52.42,2.02-.09,4.12-1.39,5.72s-3.25,2.53-5.31,2.54l-25.19.05c-.12.07-.24.14-.36.2-1.02.54-2.13.81-3.22.81ZM431.7,72s0,0,0,0c0,0,0,0,0,0Z"/>
  <path class="cls-2" d="M123.55,284.82c-.22,0-.45,0-.68-.01-1.15-.05-2.3-.11-3.45-.18-19.84-1.24-38.72-6.04-56.35-10.85-6.39-1.74-9.52-5.08-10.81-11.54-2.93-14.67,17.65-22.43,24.41-24.98,5.29-2,10.69-3.84,15.91-5.63,2.94-1,5.87-2.01,8.79-3.04,1.52-.54,3.04-1.12,4.66-1.75,3.15-1.21,6.4-2.47,9.84-3.42,2.14-.59,4.04-.5,5.3-.44.1,0,.2.01.29.01,2.62-.46,5.34-1.16,8.22-1.91,3.59-.93,7.3-1.88,11.2-2.47,1.33-.2,2.74-.54,4.24-.89,1.61-.38,3.28-.78,5.08-1.07,2.62-.42,5.07-.49,7.44-.56,1.52-.04,2.96-.09,4.29-.22,9-.92,17.86-2.93,27.23-5.05,7.87-1.79,16-3.63,24.25-4.77,1.03-.14,2.19-.35,3.41-.57,3.81-.69,8.14-1.48,12.48-.96,2.86.34,5.57.98,8.19,1.6,1.58.37,3.07.72,4.5.99.14.02.69,0,1.05-.02.76-.04,1.7-.09,2.83-.01,1.8.11,3.41.57,4.71.93.4.11.8.23,1.17.31.77.17,1.55.36,2.34.56,1.54.39,2.99.75,4.04.78,7.71.2,15.41,1.3,23.29,2.51,1.35.21,2.79.22,4.46.23,2.49.02,5.31.03,8.47.74,6.16,1.38,12.46,2.75,18.54,4.07l3.49.76c10.64,2.28,20.74,5.5,22.62,13.59.6,2.58.73,7.6-5.17,12.27-3.35,2.65-7.38,3.46-10.62,4.11-.8.16-1.56.31-2.16.47-4.77,1.23-10.04,2.31-15.66,3.21-3.9.62-7.93,1.63-12.69,3.17-.79.26-1.77.71-2.8,1.19-1.91.89-4.08,1.9-6.65,2.45-1.4.3-2.64.43-3.64.53-1.08.11-1.72.18-2.22.36-2.37.84-4.48,1.04-6.17,1.2-.53.05-1.07.1-1.63.18-1.43.21-2.87.49-4.4.79-2.54.5-5.17,1.01-8.06,1.26-8.69.77-16.59,1.74-24.16,2.96-.85.14-1.85.41-2.91.71-1.41.39-3.01.84-4.8,1.11-8.06,1.23-14.25,2.61-20.07,4.5-1.1.36-2.19.72-3.29,1.08-7.19,2.37-14.63,4.83-22.66,5.8-5.34.65-10.55.99-15.59,1.32-1.3.08-2.61.17-3.93.26-3.76.26-7.1.76-10.51,1.57-3.89.93-7.82.96-11.29.99-2.7.02-5.25.04-7.43.46-.42.08-.8.2-1.33.37-1.25.4-3.08.99-5.62.99ZM68.04,259.17c16.6,4.51,34.28,8.95,52.34,10.08h0c1.04.06,2.08.12,3.12.16.08,0,.1,0,.11,0,.11-.01.55-.16.84-.25.77-.25,1.81-.58,3.16-.84,3.55-.68,7.09-.71,10.2-.73,2.9-.02,5.64-.04,7.83-.57,4.2-1.01,8.46-1.65,13.04-1.96,1.34-.09,2.67-.18,3.98-.27,5.05-.33,9.83-.64,14.74-1.24,6.52-.79,12.92-2.9,19.69-5.14,1.12-.37,2.24-.74,3.36-1.1,6.64-2.15,13.58-3.72,22.5-5.08.87-.13,1.9-.42,3-.72,1.35-.37,2.88-.8,4.57-1.07,7.93-1.28,16.19-2.29,25.25-3.1,2.09-.19,4.22-.6,6.47-1.04,1.63-.32,3.31-.65,5.09-.91.83-.12,1.64-.2,2.44-.28,1.06-.1,1.9-.18,2.46-.38,2.29-.81,4.26-1.01,5.84-1.17.74-.07,1.39-.14,1.94-.26.88-.19,2.09-.76,3.38-1.36,1.34-.62,2.86-1.33,4.55-1.88,5.54-1.8,10.32-2.98,15.02-3.73,4.75-.76,9.2-1.65,13.24-2.66-.92-.23-1.94-.46-3.07-.7l-3.53-.76c-6.11-1.33-12.43-2.7-18.65-4.09-1.54-.35-3.23-.36-5.2-.37-1.99-.01-4.24-.03-6.7-.4-7.36-1.13-14.54-2.16-21.35-2.33-2.75-.07-5.21-.69-7.39-1.24-.63-.16-1.26-.32-1.88-.45-.66-.14-1.35-.33-2.06-.53-.5-.14-1.26-.36-1.54-.39-.21-.01-.6,0-1.05.03-1.14.06-2.71.14-4.6-.21-1.8-.33-3.56-.74-5.25-1.14-2.3-.54-4.48-1.06-6.47-1.29-2.05-.24-5.03.3-7.91.82-1.33.24-2.7.49-4.05.68-7.59,1.05-15.05,2.74-22.95,4.54-9.41,2.14-19.14,4.35-29.08,5.36-1.89.19-3.68.24-5.4.29-1.96.06-3.81.11-5.44.37-1.24.2-2.57.52-3.97.85-1.74.42-3.55.84-5.52,1.14-3.12.47-6.28,1.29-9.64,2.15-3.21.83-6.52,1.68-9.92,2.25-1.22.2-2.3.15-3.17.11-.22-.01-.54-.03-.73-.03h0c-2.62.74-5.3,1.78-8.13,2.87-1.65.64-3.35,1.29-5.07,1.9-2.97,1.05-5.95,2.07-8.94,3.09-5.11,1.75-10.39,3.55-15.46,5.47-9.23,3.48-12.76,6.16-14.07,7.5Z"/>
  <path class="cls-2" d="M247.86,143.64c-8.69-2.32-17.39-4.43-26.26-5.8s-17.78-2.79-26.74-3.24c-8.97-.44-18.12-2.75-27.08-2.27s-17.61,5.05-26.48,6.43c-8.87,1.38-17.69,2.76-26.37,5.03-8.69,2.27-17.1,5.24-25.51,8.38s-17.56,4.71-25.6,8.71-13.89,11.76-21.47,16.6-14.69,9.83-21.7,15.48c-11.48,9.24-28.34-7.52-16.75-16.85,6.94-5.59,14.24-10.37,21.63-15.25s14.63-9.86,22.45-14.03,15.54-8.45,23.72-11.88,15.56-9.35,24.03-12.01,17.54-3.66,26.23-5.53,17.66-2.14,26.49-3.2,17.59-3.33,26.48-3.56,17.84.25,26.72.86c8.85.6,17.86.94,26.66,2.39s17.8,2.46,26.42,4.76c14.36,3.83,7.82,27.7-6.59,23.86-.25-.06-.28,1.14-.28,1.14Z"/>
  <path class="cls-2" d="M263.52,77.84c-8.29-1.98-16.3-5.16-24.76-6.69s-16.62-4.65-25.13-5.67-17.28,1.23-25.82.78-17.02-1.82-25.57-1.64c-8.57.18-17.04,1.06-25.54,1.94-8.53.88-17.01,1.66-25.4,3.31s-17.15,2.12-25.35,4.6-15.58,7.23-23.48,10.6c-7.82,3.33-15.96,6.13-23.47,10.4-12.95,7.36-24.94-13.18-11.99-20.54,8.1-4.61,15.98-9.94,24.41-13.55s18.39-3.83,27.2-6.54c8.84-2.72,17.42-6.44,26.48-8.26s18.17-3.93,27.37-4.93,18.6,1.98,27.85,1.74,18.32-.43,27.56.02c9.22.45,18.67-1.89,27.85-.81s18.37,2.68,27.45,4.32,17.44,6.86,26.39,8.99c14.46,3.45,8.97,22.62-5.51,19.16-1.01-.1-.55,2.76-.55,2.76Z"/>
  <path class="cls-2" d="M724.44,284.82c-2.53,0-4.37-.59-5.62-.99-.53-.17-.91-.29-1.33-.37-2.18-.42-4.73-.44-7.43-.46-3.47-.03-7.39-.06-11.29-.99-3.41-.81-6.75-1.32-10.51-1.57-1.32-.09-2.63-.18-3.93-.26-5.04-.33-10.26-.67-15.59-1.32-8.03-.98-15.47-3.43-22.66-5.8-1.1-.36-2.19-.72-3.29-1.08-5.81-1.89-12-3.27-20.07-4.5-1.78-.27-3.38-.72-4.8-1.11-1.06-.29-2.06-.57-2.91-.71-7.56-1.22-15.46-2.19-24.16-2.96-2.89-.26-5.52-.77-8.06-1.26-1.53-.3-2.97-.58-4.4-.79-.55-.08-1.09-.13-1.62-.18-1.69-.16-3.8-.36-6.17-1.2-.51-.18-1.14-.25-2.22-.36-1-.1-2.24-.23-3.64-.53-2.57-.55-4.74-1.56-6.65-2.45-1.03-.48-2.01-.93-2.8-1.19-4.76-1.54-8.79-2.55-12.69-3.17-5.62-.89-10.88-1.97-15.66-3.21-.59-.15-1.35-.31-2.16-.47-3.24-.65-7.26-1.46-10.62-4.11-5.9-4.66-5.77-9.69-5.17-12.27,1.88-8.09,11.99-11.31,22.62-13.59l3.49-.76c6.08-1.32,12.37-2.68,18.54-4.07,3.16-.71,5.99-.73,8.48-.74,1.67-.01,3.11-.02,4.46-.23,7.87-1.21,15.58-2.31,23.29-2.51,1.04-.03,2.5-.39,4.04-.78.79-.2,1.57-.39,2.34-.56.37-.08.77-.2,1.17-.31,1.29-.36,2.91-.82,4.71-.93,1.12-.07,2.06-.02,2.82.01.37.02.91.05,1.05.02,1.42-.26,2.92-.61,4.5-.99,2.62-.62,5.33-1.26,8.19-1.6,4.34-.51,8.66.27,12.48.96,1.22.22,2.38.43,3.41.57,8.24,1.14,16.38,2.99,24.25,4.77,9.37,2.13,18.22,4.14,27.23,5.05,1.34.14,2.77.18,4.29.22,2.37.07,4.82.14,7.44.56,1.81.29,3.47.69,5.08,1.07,1.5.36,2.91.69,4.24.89,3.91.59,7.62,1.54,11.2,2.47,2.88.74,5.6,1.45,8.22,1.91.09,0,.19,0,.29-.01,1.26-.06,3.16-.15,5.3.44,3.44.95,6.69,2.2,9.84,3.42,1.62.62,3.14,1.21,4.66,1.75,2.92,1.03,5.85,2.03,8.79,3.04,5.22,1.79,10.62,3.63,15.91,5.63,6.76,2.55,27.34,10.32,24.41,24.98-1.29,6.46-4.42,9.8-10.81,11.54-17.63,4.81-36.51,9.6-56.35,10.85h0c-1.15.07-2.3.13-3.45.18-.23,0-.46.01-.68.01ZM531.79,233.69c4.05,1.01,8.5,1.9,13.25,2.66,4.71.75,9.48,1.94,15.02,3.73,1.69.55,3.21,1.25,4.55,1.88,1.29.6,2.51,1.17,3.38,1.36.56.12,1.2.18,1.94.26,1.58.16,3.55.36,5.84,1.17.57.2,1.4.28,2.46.38.8.08,1.6.15,2.43.28,1.78.26,3.46.59,5.09.91,2.25.44,4.38.85,6.47,1.04,9.06.8,17.32,1.82,25.25,3.1,1.69.27,3.22.7,4.57,1.07,1.09.3,2.13.59,3,.72,8.92,1.36,15.86,2.92,22.5,5.08,1.12.36,2.24.73,3.36,1.1,6.78,2.24,13.18,4.35,19.69,5.14,4.91.6,9.69.91,14.74,1.24,1.32.09,2.64.17,3.99.27,4.57.31,8.83.96,13.03,1.96,2.19.52,4.93.55,7.83.57,3.12.02,6.65.05,10.2.73,1.35.26,2.39.59,3.16.84.29.09.73.24.84.25,0,0,.03,0,.1,0,1.04-.04,2.08-.1,3.12-.16h0c18.05-1.13,35.74-5.57,52.34-10.08-1.3-1.33-4.84-4.02-14.07-7.5-5.07-1.91-10.35-3.72-15.46-5.47-2.98-1.02-5.96-2.04-8.93-3.09-1.72-.61-3.42-1.27-5.07-1.9-2.84-1.09-5.52-2.13-8.14-2.87h0c-.19,0-.51.01-.73.03-.86.04-1.95.09-3.17-.11-3.4-.57-6.71-1.42-9.92-2.25-3.35-.87-6.52-1.68-9.64-2.15-1.98-.3-3.78-.73-5.52-1.14-1.4-.33-2.72-.65-3.97-.85-1.63-.26-3.48-.32-5.44-.37-1.73-.05-3.51-.1-5.4-.29-9.94-1.01-19.67-3.22-29.08-5.36-7.9-1.79-15.36-3.49-22.95-4.54-1.35-.19-2.72-.44-4.05-.68-2.88-.52-5.87-1.06-7.91-.82-1.99.24-4.17.75-6.47,1.29-1.7.4-3.45.81-5.25,1.14-1.89.35-3.46.27-4.6.21-.45-.02-.83-.04-1.09-.03-.23.03-.99.24-1.5.38-.71.2-1.4.39-2.06.53-.62.14-1.25.29-1.88.45-2.18.55-4.65,1.17-7.39,1.24-6.81.18-13.98,1.2-21.35,2.33-2.46.38-4.71.39-6.7.4-1.96.01-3.65.02-5.2.37-6.22,1.4-12.53,2.77-18.64,4.09l-3.53.76c-1.12.24-2.14.47-3.07.7Z"/>
  <path class="cls-2" d="M606.29,142.9c2.92-.51,6.23.35,9.27-.35,5.8-1.32,11.5-2.68,17.38-3.59,8.89-1.38,17.75-1.5,26.73-1.94s17.8-1.01,26.79-.53,18.17-1.09,27.06.3c8.89,1.39,17.84,3.09,26.54,5.37,8.67,2.27,16.12,8.25,24.51,11.4,8.39,3.15,16.59,6.25,24.61,10.25s16.51,6.98,24.06,11.8c7.55,4.82,13.95,11.1,20.94,16.72,11.48,9.24,29.02-8.36,17.43-17.69-6.94-5.59-13.12-12.38-20.52-17.26s-15.63-8.81-23.46-12.98c-7.85-4.19-16.93-5.78-25.12-9.21s-15.38-9.83-23.85-12.49-17.59-3.55-26.28-5.42-17.41-4.35-26.23-5.41-17.86-1.43-26.75-1.66-17.91-.26-26.8.34-17.78,2.02-26.57,3.47-16.85,5.97-25.47,8.27c-9.18,2.45-13.1,17.42-3.17,21.07,3.01,1.1,6.08.03,8.89-.46Z"/>
  <path class="cls-2" d="M590.58,76.85c8.29-1.98,16.89-2.22,25.35-3.76s16.41-5.39,24.92-6.41,17.03-1.86,25.58-2.31,17.14-.98,25.69-.8,16.97,2.56,25.47,3.44c8.53.88,17.06,1.2,25.45,2.85s16.72,3.53,24.92,6.02,15.32,7.42,23.23,10.79,16.8,4.25,24.31,8.52c12.95,7.36,25.04-13.37,12.1-20.72-8.1-4.61-17.21-7.22-25.64-10.83s-17.64-5.39-26.44-8.09-17.53-5.55-26.58-7.37c-9.05-1.82-18.18-2.46-27.38-3.45s-18.15-5.81-27.4-6.04-18.44,4.31-27.68,4.76-18.73-2.4-27.91-1.32-17.91,5.41-26.99,7.05-18.35,2.48-27.31,4.62c-14.46,3.45-8.2,26.64,6.28,23.19.5-.08.05-.12.05-.12Z"/>
</svg>