<svg id="topImg" viewBox="0 0 862.51 265.64">
  <defs>
    <style>
      .serpcls1 {
        fill: none;
        stroke: #002235;
        stroke-linecap: round;
        stroke-linejoin: round;
        stroke-width: 13.73px;
      }

      .serpcls2 {
        fill: #002235;
      }

      .serpcls2, .serpcls3, .serpcls4 {
        stroke-width: 0px;
      }

      .serpcls3 {
        fill: #002235;
      }

      .serpcls4 {
        fill: #fff;
      }
    </style>
  </defs>
  <g>
    <path class="serpcls2" d="M556.09,158.95c0-.61,0-1.47-.17-2.43-.26-.7-.35-1.39-.43-2-.09-.87-.26-1.56-.44-2.52-.26-1.22-.61-2.34-.95-3.64-.26-1.04-.61-2.17-.87-3.21-.95-3.82-2.25-7.2-3.47-9.89-.95-2.25-1.91-4.42-2.69-6.77-.35-.69-.43-1.56-.43-2.69.17-3.39-2-5.47-3.64-6.86-1.22-1.3-2.61-2-3.82-2.52-.35-.35-.61-.52-1.04-.69-1.22-.61-2.43-.78-3.47-.78l-.61.17h-.26l-.87-.35h-.61c-.35-.17-.69-.17-1.3,0h-.87c-.17,0-.35,0-.87-.17-.61,0-1.47-.17-2.25-.17h-25.99c-.7,0-1.47.17-2.34,0-.43-.17-1.22-.35-2-.17h-3.3c-1.56-.35-2.86-.35-4.25-.35h-19.96c-2.25.17-4.42.52-6.51.87,0,0-22.35.65-22.35.65-2.25.39-5.4,1.24-7.6.05-.72-.39-1.25-.94-2.08-1.13-1.2-.27-2.54.08-3.75.12-1.58.05-3.19.07-4.77.02-9.64-.29-19.54.29-29.26.29-1.96,0-4.27-.19-5.27-1.87-.71-1.19-.47-2.7-.2-4.06,1.52-7.78,2.43-14.75,5.66-22.03,1.63-3.67,3.92-7.46,5.07-11.35.41-1.38,1.23-2.92,1.5-4.17.18-.82.02-1.65.24-2.46.19-.69.72-1.77,1.03-2.51.48-1.18,1.41-2.03,1.96-3.16.79-1.62,1.78-2.97,2.84-4.41,2.84-3.88,8.18-2.77,12.34-3.44,2.12-.34,4.43-.12,6.58-.12,1.16,0,2.33,0,3.49,0,1.37,0,2.28.34,3.53.57,1.82.33,4.09-.03,5.95-.03,2.17,0,4.38.18,6.49-.31,1.34-.31,2.59-.25,3.95-.15,2.98.21,5.95.36,8.94.36,2.7,0,12.8.02,15.49.07,2.92.05,5.63-.41,8.52-.67,2.58-.23,5.18.03,7.76.15,2.35.12,5.12.43,7.39-.38,1.66-.59,3.37-2.05,4.66-3.23,4.66-4.26-1.39-11.68-3.03-16.17-.77-2.09-.65-3.71-.78-5.87-.12-1.92-1.04-3.59-1.78-5.33-2.62-6.16-6.49-11.94-8.94-18.07-1.29-3.24-5.72-4.78-8.97-4.78-3.64,0-14.67,0-18.31,0-2.19,0-4.29-.28-6.44.3-.62.17-1.18.3-1.73.41.68.01.93.03-.01.04-.06,0-.12,0-.18,0-.84.15-1.67.22-2.65.12-.22-.02-.36-.04-.46-.06-5.5.17-11.25.66-16.62.63-3.29-.01,4.51-2.62,1.23-2.8-2,0-3.68.18-5.77.36l-21.99.54c-.87,0-1.74.17-2.52.17h-9.03c-.96,0-1.82.17-3.13.35-.17,0-.35,0-.61-.09-.61-.08-1.22-.08-1.82,0-.7.09-1.39.17-2,.35-.61.17-1.13.35-1.56.35-1.04,0-2.08.17-3.04.35-.61,0-1.13.17-1.82.17-.35,0-1.04,0-1.82.17l-.61.17-.35-.17-.61.17c-.26.17-.52.17-.78.35h-.87l-1.65.35c-1.47.43-3.12.61-4.68,1.3-1.04.35-1.83.7-2.61,1.13-.61.52-1.22,1.04-1.82,1.56-.35.26-.52.43-.69.78-.35.17-.87.52-1.39,1.04l-.44.52c-.09.17-.26.35-.43.52-.44.43-1.04.95-1.48,1.82-.26.43-.35.78-.61,1.13,0,.17-.17.35-.26.52-.52.78-.96,1.65-1.31,2.52l-.95,1.65c-1.22,2.34-2.52,4.69-3.47,7.2-.43,1.3-.95,2.43-1.47,3.64-.78,1.82-1.56,3.64-2.17,5.64-1.22,4.34-3.3,8.5-5.3,12.84-.62,1.18-1.47,1.63-1.93,2.9-.31.87-.78,1.51-1.12,2.33-.66,1.57-1.06,3.32-1.65,4.89-1.37,3.63-2.21,7.44-3.33,11.11-.98,3.2-2.66,6.21-3.87,9.42-.95,2.5,1.54-4.85.33-2.55-.76,1.44-1.35,3.15-1.82,4.59-.43,1.31-.92,2.5-1.38,3.75-.26.71-.85,1.52-1,2.2-.08.37.14.8.06,1.17-.06.27-.42.48-.46.65-.32,1.28-.61,2.46-1.37,3.64-1.41,2.18-3.12,4.69-3.69,7.11-.38,1.63-.44,3.41-1.16,4.95-.65,1.39-1.45,2.62-2.23,3.88-.77,1.24-1.42,2.87-2.35,4.05-.9,1.14-1.36,1.91-1.53,3.44-.13,1.18-.72,2.01-1,3.18-.23.98.14,2.03-.08,2.97-.47,1.95-1.29,3.97-2.02,5.8-.35.87-.69,1.74-1.13,2.43-.08.26-.26.43-.35.78-.61.87-1.21,1.82-1.47,3.3-.26,1.04-.86,2.17-1.56,3.39-.52.87-1.04,1.82-1.47,2.69l-.35.78c-.35.7-.69,1.39-.96,2.17-.17.35-.17.69-.26,1.04s-.17.52-.17.52c-.26.35-.69.95-.87,1.82-.08.35-.17.61-.17,1.13-.08.17-.17.52-.26.69-.26.52-.61,1.47-.7,2.52v1.3c-.17.52-.26.87-.35,1.39-.09,1.47,0,3.12,0,4.6.09,1.82.95,3.39,1.56,4.17l.35.69c.35.69,1.04,2,2.43,3.04.78.52,1.82,1.3,3.04,1.82.95.52,1.91.69,2.86.87.35.08.69.26,1.04.35,1.04.26,1.91.43,2.6.43h.78c.52,0,1.13.17,1.65.35.95.17,1.82.35,2.69.35.78.17,1.47.17,2.17.17.35,0,.78-.17.96,0,1.47.17,2.86.35,4.34.17h10.32c1.65,0,2.7.17,4,.17.34.08.69.08,1.04.08.78,0,1.56-.08,2.43-.08.52-.17,1.13-.17,1.65-.17h9.2c.95,0,1.91-.17,2.86-.35.95-.17,1.91-.17,2.95-.17h20.4c6.16.17,12.32.17,18.57.35,20.48.35,61.23-.48,80.33-1.17,1.3-.17,2.69,0,3.99,0,2,0,4.08.17,6.16.17,3.82.17,27.98.35,31.8.35,2.86,0,5.64-.17,8.42-.35,2.6,0,5.21-.17,7.81-.17,1.65,0,3.04-.17,4.6-.35,1.21-.17,2.43-.61,3.38-.95.52,0,.87-.17,1.3-.35.96-.17,1.65-.69,2.17-1.04l.52-.17c.35-.17.78-.26,1.13-.43.87-.52,2-1.22,2.61-2.34.78-1.22.69-2.69.61-3.91ZM490.93,48.94h.44c-.17,0-.35,0-.52.08,0-.08.08-.08.08-.08ZM488.94,49.81h.17l-.17.08c-.17,0-.35,0-.52.08.17-.08.35-.08.52-.17ZM433.4,7.84c2.17.09,13.17,1.26,15.42,1.26-2.25,0-13.25-1.17-15.42-1.17-.69-.09-1.3-.09-2-.09h2ZM406.76,51.06c.17-.08.35-.17.52-.26-.17.17-.35.26-.52.35h-.61c.26,0,.43-.09.61-.09ZM309.53,147.97c0,.09-.08.26-.08.52,0-.26.08-.43,0-.52l.26-.44-.17.44ZM311.62,160.82c.61.26,1.13.35,1.65.52-.52-.17-1.13-.17-1.65-.52ZM315.17,135.21c.09-.17.09-.35.09-.43l.08-.08c-.08.17-.08.35-.17.52ZM319.08,162.29c-.26-.08-.52-.17-.87-.26.26.08.61.17.87.17l1.56.26c-.52-.08-1.04-.17-1.56-.17ZM321.07,123.41c-.08.17-.17.26-.26.35.09-.09.18-.26.18-.35.17-.26.35-.52.52-.78-.17.26-.35.52-.43.78ZM328.02,106.92l.09-.08c0,.26-.09.61-.09.86v-.78ZM327.15,110.57c.08-.08.17-.26.26-.43-.09.26-.17.43-.17.52-.35.78-.69,1.48-1.04,2.17.26-.69.61-1.39.96-2.25ZM338.26,162.99h-10.41c-.87,0-1.56-.08-2.26-.17.69.09,1.39.09,2.26.09h10.41c1.47,0,2.86.08,4.25.17-1.39-.08-2.78-.08-4.25-.08ZM355.12,36.48c-.35,1.13-.69,2.17-1.13,3.21.44-1.04.69-2.17,1.04-3.21.08-.35.26-.7.35-1.04-.09.35-.17.7-.26,1.04ZM368.57,12.01c-.26.17-.52.44-.69.61l-.52.61h-.09l.52-.7c.26-.17.52-.35.69-.61.26-.08.44-.17.61-.17-.17,0-.34.09-.52.26ZM374.91,10.19l-1.13.26c-.78.17-1.47.26-2.17.43.61-.17,1.31-.35,2.17-.52l1.13-.26c.08,0,.26.08.35.08h-.35ZM376.47,10.1h-.43c.09,0,.26,0,.35-.09l.61-.08-.52.17ZM383.67,8.89c.87,0,1.47-.08,2.17-.17-.69.09-1.3.26-2.08.26h-.61c.17-.09.35-.09.52-.09ZM382.69,162.46c-1.56-.08-3.21-.08-4.78-.08h4.78c3.12.08,6.25.08,9.37.17-3.13-.09-6.25-.09-9.37-.09ZM424.95,121.68c-.34,0-.61-.09-.86-.09-.35,0-.7.09-.96.09-.86.08-1.73.17-2.52.26.87-.09,1.65-.26,2.43-.35h1.91c.35.09.61.17.96.26-.35-.08-.61-.17-.96-.17ZM428.08,122.37c-.09-.08-.17-.08-.26-.08h.26c1.04.26,2.08.43,3.12.52-1.04-.09-2.08-.26-3.12-.44ZM492.09,121.03c-.52-.09-.95-.09-1.47-.09.52,0,1.04-.08,1.47,0,.17.09.35.09.43.09h-.43ZM496.95,121.2l-.44-.08h.44c.17.08.35.08.52.17-.17,0-.34-.09-.52-.09ZM535.08,122.06v-.08c.17.08.26.26.43.35-.17-.09-.26-.17-.43-.26ZM538.38,124.15c-.26-.35-.69-.61-1.04-.87.35.26.78.52,1.04.78v.09ZM548.19,159.64l-.26.09-.26.17v-.09l.26-.08.26-.17c.09,0,.18-.09.26-.09-.08.09-.17.09-.26.17Z"/>
    <path class="serpcls2" d="M450.79,2.07c-1.28-.03-4.1-.04-3.31.1,1.05-.03,2.09-.06,3.11-.06.06-.01.13-.03.19-.04Z"/>
  </g>
  <path class="serpcls1" d="M413.3,89.07c1.74-1.68,3.54-3.53,5.09-5.36.78-.92,1.32-1.89,2.2-2.76,1.14-1.14,2.41-2,3.75-2.92.98-.67,2.68-.87,3.26-1.94.42.4,1.14.5,1.66.84.64.42,1.2,1.16,1.76,1.65,1.35,1.18,2.31,2.57,3.48,3.9.81.92,1.57,1.8,2.35,2.76.92,1.14,1.33,1.52,2.78,1.72.04.91.71,1.25,1.18,1.93.89-2.18,2.65-3.84,4.4-5.3.86-.71,1.52-1.5,2.49-2.09.65-.4,1.32-.71,1.79-1.35.54-.72.84-1.45,1.45-2.11.56-.6,1.14-1.28,1.71-1.86.93-.93,1.19-.95,2.22-.12.72.58,1.36.8,2.12,1.22,1.87,1.06,3.4,2.78,5.31,3.68,1.63.77,3.74,1.83,5.09,3.02,1.19,1.04,2.23,1.62,3.03,3.02.66,1.16,1.46,1.9,2.34,2.96-.26-.88,3.66-4.57,4.5-5.42,1.12-1.14,2.1-2.25,3.29-3.26.96-.81,4.34-3.52,4.31-4.87,2.7.12,4.66,1.74,6.96,2.94,1.45.75,2.54,1.87,3.86,2.77.78.54,1.01.51,1.65,1.27.49.59.8,1.38,1.34,1.95.88.91,2.58,2.23,2.86,3.57"/>
  <path class="serpcls3" d="M156.4,265.64c-.22,0-.45,0-.68-.01-1.15-.05-2.3-.11-3.45-.18h0c-19.84-1.24-38.71-6.04-56.35-10.85-6.38-1.74-9.51-5.08-10.81-11.54-2.93-14.67,17.65-22.43,24.41-24.99,5.3-2,10.7-3.85,15.92-5.63,2.93-1,5.86-2.01,8.78-3.04,1.51-.53,3.04-1.12,4.65-1.75,3.15-1.22,6.41-2.47,9.84-3.42,2.14-.59,4.04-.5,5.3-.44.1,0,.2.01.29.01,2.62-.46,5.34-1.16,8.22-1.91,3.59-.93,7.3-1.88,11.2-2.47,1.33-.2,2.74-.54,4.24-.89,1.61-.38,3.28-.78,5.09-1.07,2.62-.42,5.07-.5,7.44-.56,1.52-.04,2.96-.09,4.29-.22,9-.92,17.86-2.93,27.23-5.05,7.87-1.79,16-3.63,24.24-4.77,1.03-.14,2.19-.35,3.41-.57,3.81-.69,8.13-1.48,12.48-.96,2.86.34,5.58.98,8.2,1.6,1.58.37,3.07.72,4.49.99.13.02.68,0,1.05-.02.76-.04,1.7-.08,2.83-.01,1.8.11,3.41.57,4.7.93.4.11.8.23,1.17.31.77.17,1.55.36,2.34.56,1.54.39,3,.75,4.04.78,7.71.2,15.42,1.3,23.29,2.51,1.35.21,2.79.21,4.46.22,2.49.02,5.31.03,8.48.74,6.29,1.41,12.71,2.8,18.92,4.15l3.11.67c10.64,2.28,20.74,5.5,22.62,13.59.6,2.58.73,7.6-5.17,12.26-3.35,2.65-7.38,3.46-10.62,4.11-.8.16-1.56.31-2.16.47-4.78,1.23-10.04,2.31-15.66,3.21-3.9.62-7.94,1.63-12.69,3.17-.8.26-1.77.71-2.8,1.19-1.91.89-4.08,1.9-6.64,2.45-1.4.3-2.64.42-3.64.53-1.08.11-1.72.18-2.22.36-2.37.84-4.48,1.04-6.17,1.2-.53.05-1.07.1-1.63.18-1.43.21-2.87.49-4.4.79-2.54.5-5.17,1.01-8.06,1.26-8.69.77-16.59,1.74-24.16,2.96-.85.14-1.85.41-2.9.71-1.41.39-3.02.84-4.8,1.11-8.07,1.23-14.25,2.62-20.06,4.5-1.1.36-2.2.72-3.3,1.08-7.19,2.37-14.62,4.82-22.66,5.8-5.35.65-10.57.99-15.62,1.32-1.29.08-2.59.17-3.9.26-3.76.26-7.1.76-10.51,1.58-3.9.93-7.82.96-11.29.99-2.7.02-5.25.04-7.43.46-.42.08-.8.2-1.33.37-1.25.4-3.08.99-5.62.99ZM153.23,250.07c1.04.06,2.08.12,3.12.16.12,0,.15,0,.95-.25.77-.25,1.81-.58,3.16-.84,3.55-.68,7.09-.71,10.21-.73,2.9-.02,5.64-.04,7.82-.57,4.2-1,8.46-1.65,13.03-1.96,1.33-.09,2.65-.18,3.96-.26,5.06-.33,9.85-.64,14.77-1.24,6.52-.79,12.91-2.9,19.69-5.14,1.12-.37,2.25-.74,3.37-1.1,6.63-2.15,13.57-3.72,22.5-5.08.87-.13,1.91-.42,3-.72,1.35-.37,2.88-.8,4.56-1.07,7.93-1.28,16.19-2.29,25.25-3.1,2.09-.19,4.22-.6,6.47-1.04,1.63-.32,3.31-.65,5.09-.91.83-.12,1.64-.2,2.44-.28,1.06-.1,1.9-.18,2.46-.38,2.29-.81,4.26-1.01,5.84-1.17.74-.07,1.39-.14,1.94-.26.87-.19,2.09-.75,3.38-1.35,1.34-.62,2.86-1.33,4.55-1.88,5.53-1.8,10.31-2.98,15.02-3.73,4.75-.76,9.2-1.65,13.25-2.66-.92-.23-1.94-.46-3.07-.7l-3.15-.68c-6.23-1.35-12.68-2.75-19.02-4.17-1.54-.35-3.23-.36-5.2-.37-1.99-.01-4.24-.03-6.7-.4-7.36-1.13-14.54-2.16-21.35-2.33-2.75-.07-5.22-.69-7.39-1.24-.63-.16-1.26-.32-1.88-.45-.66-.14-1.35-.33-2.06-.53-.5-.14-1.26-.36-1.54-.39-.21-.01-.6,0-1.05.03-1.14.06-2.7.14-4.6-.21-1.8-.33-3.55-.74-5.25-1.14-2.3-.54-4.48-1.06-6.47-1.29-2.05-.24-5.03.3-7.91.82-1.33.24-2.7.49-4.05.68-7.59,1.05-15.05,2.74-22.94,4.54-9.41,2.14-19.14,4.35-29.08,5.36-1.89.19-3.68.24-5.4.29-1.96.06-3.81.11-5.44.37-1.25.2-2.57.52-3.97.85-1.74.41-3.54.84-5.52,1.14-3.12.47-6.29,1.29-9.64,2.15-3.21.83-6.52,1.68-9.92,2.25-1.22.21-2.3.15-3.16.11-.22-.01-.54-.03-.73-.03h0c-2.62.74-5.31,1.78-8.14,2.87-1.64.63-3.35,1.29-5.07,1.9-2.97,1.05-5.94,2.07-8.92,3.09-5.11,1.75-10.4,3.56-15.47,5.47-9.23,3.48-12.76,6.16-14.07,7.5,16.6,4.51,34.28,8.95,52.34,10.08h0Z"/>
  <path class="serpcls3" d="M270.63,55.89c-8.95-2.14-17.9-4.16-27.02-5.8-9.08-1.63-17.8-5.92-26.99-6.99-9.18-1.07-18.68,1.83-27.91,1.38-9.24-.45-18.33-.54-27.55-.31-9.25.23-18.73-3.11-27.9-2.12-9.2.99-17.98,4.97-27.03,6.79-9.05,1.82-17.85,4.35-26.69,7.07-8.8,2.7-17.46,5.62-25.99,9.28-8.43,3.61-17.99,5.25-26.1,9.85-12.94,7.35.08,29.72,13.03,22.36,7.51-4.27,14.84-8.6,22.66-11.93,7.91-3.37,16.13-5.6,24.3-8.08,8.2-2.49,15.94-6.95,24.34-8.6,8.39-1.65,17.29-.1,25.82-.99,8.5-.88,16.91-3.05,25.48-3.23,8.54-.18,17.23-1.83,25.79-1.37,8.54.45,17.2,1.43,25.69,2.45,8.51,1.02,16.32,6.63,24.72,8.16,4.34.79,8.87.63,13.37.55,1.98.35,3.95.7,5.88,1.23,2.48.67,4.73,1.15,7.3,1.26,1.54.07,2.98-.13,4.3-.54.49-.03.92-.16,1.24-.44,8.84-3.76,11.36-17.08-.74-19.97Z"/>
  <path class="serpcls3" d="M704.3,265.64c-2.54,0-4.37-.59-5.62-.99-.53-.17-.91-.29-1.33-.37-2.18-.42-4.73-.44-7.44-.46-3.46-.03-7.39-.06-11.29-.99-3.41-.82-6.74-1.32-10.51-1.58-1.31-.09-2.61-.17-3.9-.26-5.05-.33-10.27-.67-15.62-1.32-8.03-.97-15.46-3.43-22.65-5.8-1.1-.36-2.2-.72-3.29-1.08-5.81-1.88-12-3.27-20.07-4.5-1.78-.27-3.38-.71-4.8-1.11-1.06-.29-2.06-.57-2.9-.71-7.56-1.22-15.46-2.19-24.16-2.96-2.89-.26-5.52-.77-8.06-1.26-1.53-.3-2.97-.58-4.4-.79-.55-.08-1.09-.13-1.62-.18-1.69-.16-3.8-.36-6.17-1.2-.51-.18-1.14-.25-2.23-.36-1-.1-2.24-.22-3.64-.52-2.57-.55-4.74-1.56-6.65-2.45-1.03-.48-2.01-.93-2.8-1.19-4.76-1.54-8.79-2.55-12.7-3.17-5.61-.89-10.88-1.97-15.66-3.21-.59-.15-1.35-.31-2.16-.47-3.24-.65-7.26-1.46-10.62-4.11-5.9-4.66-5.77-9.69-5.17-12.26,1.88-8.09,11.99-11.31,22.62-13.59l3.13-.68c6.2-1.34,12.61-2.73,18.89-4.14,3.16-.71,5.99-.73,8.48-.74,1.67,0,3.11-.02,4.46-.22,7.87-1.21,15.58-2.31,23.29-2.51,1.05-.03,2.5-.39,4.04-.78.79-.2,1.56-.39,2.33-.56.38-.08.77-.2,1.17-.31,1.29-.36,2.9-.82,4.71-.93,1.12-.07,2.07-.02,2.83.01.36.02.92.04,1.05.02,1.42-.26,2.91-.61,4.49-.99,2.62-.62,5.33-1.26,8.2-1.6,4.34-.51,8.66.27,12.48.96,1.22.22,2.38.43,3.41.57,8.24,1.14,16.38,2.99,24.24,4.77,9.37,2.13,18.23,4.14,27.23,5.05,1.34.14,2.77.18,4.29.22,2.37.07,4.82.14,7.44.56,1.81.29,3.47.69,5.08,1.07,1.5.36,2.91.69,4.24.89,3.91.59,7.62,1.54,11.2,2.47,2.88.74,5.6,1.45,8.22,1.91.09,0,.19,0,.29-.01,1.26-.06,3.16-.15,5.3.44,3.44.95,6.69,2.21,9.84,3.42,1.61.62,3.14,1.21,4.65,1.75,2.92,1.03,5.85,2.03,8.78,3.04,5.22,1.79,10.62,3.63,15.92,5.63,6.76,2.55,27.34,10.31,24.41,24.98-1.29,6.46-4.42,9.8-10.81,11.54-17.63,4.81-36.51,9.6-56.35,10.85h0c-1.15.07-2.3.13-3.45.18-.23,0-.46.01-.68.01ZM707.47,250.33c3.32-.11,6.84-.81,9.93-1.2,4.94-.62,9.86-1.45,14.75-2.42s9.37-2.01,14.02-3.16c2.29-.57,4.58-1.16,6.87-1.76.77-.2,6.37-2.21,6.76-1.81-1.31-1.33-4.84-4.02-14.07-7.5-5.07-1.92-10.36-3.72-15.47-5.47-2.98-1.02-5.96-2.04-8.92-3.08-1.72-.61-3.42-1.26-5.07-1.9-2.84-1.09-5.52-2.13-8.14-2.87-.19,0-.51.01-.73.03-.86.04-1.94.09-3.16-.11-3.4-.57-6.72-1.42-9.92-2.25-3.35-.87-6.52-1.68-9.64-2.15-1.97-.3-3.78-.73-5.52-1.14-1.4-.33-2.72-.65-3.97-.85-1.63-.26-3.48-.32-5.44-.37-1.73-.05-3.51-.1-5.4-.29-9.94-1.01-19.67-3.22-29.08-5.36-7.9-1.79-15.36-3.49-22.95-4.54-1.35-.19-2.72-.44-4.05-.68-2.89-.52-5.87-1.06-7.92-.82-1.99.24-4.17.75-6.47,1.29-1.69.4-3.45.81-5.25,1.14-1.89.35-3.46.27-4.6.21-.45-.02-.84-.04-1.09-.03-.24.03-.99.24-1.5.38-.71.2-1.4.39-2.06.53-.62.13-1.24.29-1.87.45-2.18.55-4.65,1.17-7.4,1.24-6.81.18-13.98,1.2-21.35,2.33-2.46.38-4.71.39-6.7.4-1.96.01-3.65.02-5.2.37-6.33,1.42-12.78,2.82-19,4.17l-3.17.69c-1.12.24-2.14.47-3.06.7,4.05,1.01,8.5,1.9,13.24,2.66,4.72.75,9.49,1.94,15.02,3.73,1.69.55,3.21,1.25,4.55,1.88,1.29.6,2.51,1.17,3.38,1.36.55.12,1.19.18,1.94.26,1.58.16,3.55.36,5.84,1.17.56.2,1.4.28,2.46.38.8.08,1.6.15,2.43.28,1.78.26,3.46.59,5.09.91,2.25.44,4.38.85,6.47,1.04,9.06.8,17.32,1.82,25.25,3.1,1.69.27,3.22.7,4.56,1.07,1.09.3,2.13.59,3,.72,8.93,1.36,15.87,2.92,22.5,5.08,1.12.36,2.24.73,3.37,1.1,6.77,2.24,13.17,4.35,19.69,5.14,4.92.6,9.7.91,14.77,1.24,1.31.09,2.63.17,3.96.26,4.58.32,8.84.96,13.04,1.96,2.19.52,4.92.54,7.82.57,3.12.02,6.65.05,10.21.73,1.33.25,2.63.89,3.96,1.06,1.05.13,2.14.16,3.26.13Z"/>
  <path class="serpcls4" d="M380.42,25.86c4.22-1.38,9.47-.83,12.55,1.45,2.28,1.68,3.63,4.54,3.5,7.37-.19,3.93-3.63,8.25-7.19,9.79-1.96.85-4.14,1.14-6.24.72-5.44-1.1-10.11-7.03-9.1-12.67.61-3.42,3.25-5.61,6.49-6.66Z"/>
  <path class="serpcls3" d="M832.81,76.41c-8.1-4.61-16.55-8.39-24.99-12-8.53-3.66-17.72-5.14-26.53-7.84-8.84-2.72-17.1-7.57-26.15-9.39-9.05-1.82-18.22-3.7-27.42-4.7-9.17-.99-18.54-.49-27.79-.73-9.22-.23-18.4,1.63-27.64,2.08-9.22.45-18.6-1.01-27.78.06-9.18,1.08-18.43,2.17-27.51,3.8-9.12,1.64-17.49,6.68-26.44,8.81-13.94,3.33-8.98,23.87,4.37,22.23,7.4,1.27,15-.72,21.96-3.28,7.54-2.77,16.24-3.7,24.21-4.94,17.58-2.73,35.4-3.94,53.19-3.61.43,0,.87.02,1.3.01.78.05,1.55.1,2.33.11,8.57.18,17.37-3.35,25.87-2.47,8.53.88,16.77,4.23,25.16,5.88,8.4,1.65,17.2,2.04,25.4,4.53,8.17,2.48,15.02,8.64,22.92,12.01,7.82,3.33,15.57,6.55,23.07,10.82,12.95,7.36,25.43-14.04,12.48-21.4Z"/>
  <path class="serpcls3" d="M858.55,173.11c-6.94-5.59-14.12-11.16-21.52-16.04-7.43-4.91-16.49-7.22-24.32-11.39-7.85-4.19-14.63-10.87-22.82-14.3-8.2-3.44-16.92-6.13-25.39-8.8-8.48-2.67-17.27-5.01-25.95-6.88-8.69-1.87-18.13.54-26.95-.52-8.82-1.06-17.49-2.8-26.39-3.04-8.87-.23-17.75-.75-26.63-.14-8.85.6-17.4,3.36-26.19,4.81-5.25.87-10.58,1.26-15.87,1.93-5.94-.25-11.94.79-17.43,3.07-7.12,2.95-11.01,10.52-4.83,16.91,2.81,2.91,7.07,4.04,11.12,3.92,1.52-.05,3.02-.25,4.5-.55.73,0,1.43,0,2.09,0,.86-.01,1.64-.03,2.3-.03,6.62-.06,13.18-1.32,19.64-2.68,10.05-2.11,19.44-3.56,29.71-2.86,9.41.64,19.17-2.15,28.77-1.64,8.98.48,17.8,2.2,26.69,3.59,8.89,1.39,17.72,2.82,26.42,5.1,8.67,2.27,17.54,3.99,25.93,7.13,8.39,3.15,17.22,5.64,25.24,9.64,8.02,4,15.41,9.42,22.97,14.24,7.55,4.82,15.59,9.24,22.57,14.86,11.48,9.24,27.94-7.02,16.35-16.35Z"/>
  <path class="serpcls3" d="M248.23,140.15c-3.76-.22-7.46-1.38-11.08-2.52-6.51-2.05-12.92-4.66-19.76-5.21-7.36-.6-14.75-.16-22.11-.52-8.97-.44-17.98.89-26.94,1.37-8.97.48-17.9,1.12-26.78,2.5-8.87,1.38-17.78,2.71-26.47,4.98-8.69,2.27-18.1,2.81-26.52,5.96-8.41,3.14-15.28,10.1-23.32,14.11-8.03,4-16,7.99-23.58,12.83s-14.62,10.25-21.63,15.9c-11.48,9.24-27.64-6.66-16.06-15.99,6.94-5.59,11.89-14,19.29-18.88,9.28-6.12,18.45-9.87,28.3-14.35,11.22-5.1,21.28-11.74,33.17-15.5,8.82-2.79,17.97-4.35,27.09-5.9,11.36-1.93,22.75-3.75,34.1-5.78,9.69-1.74,19.48-5.38,29.36-5.64,8.87-.23,17.86,1.3,26.74,1.91,8.85.6,17.54,2.84,26.33,4.29,10.09,1.67,27.2-.29,32.91,10.11,1.51,2.74,1.97,6.13.86,9.06-1.67,4.4-6.51,6.93-11.2,7.28-.91.07-1.81.07-2.71.01Z"/>
</svg>