<svg  viewBox="0 0 856.73 284.82">
  <defs>
    <style>
      .herocls-1 {
        stroke-linecap: round;
        stroke-linejoin: round;
        stroke-width: 13.73px;
      }

      .herocls-1, .herocls-2 {
        fill: none;
        stroke: #002235;
      }

      .herocls-3 {
        fill: #002235;
      }

      .herocls-3, .herocls-4, .herocls-5 {
        stroke-width: 0px;
      }

      .herocls-4 {
        fill: #002235;
      }

      .herocls-5 {
        fill: #fff;
      }

      .herocls-2 {
        stroke-miterlimit: 10;
        stroke-width: 15.41px;
      }
    </style>
  </defs>
  <path class="herocls-3" d="M566.62,158.12c0-.61,0-1.47-.17-2.43-.26-.69-.35-1.39-.43-2-.09-.87-.26-1.56-.44-2.52-.26-1.22-.61-2.34-.95-3.64-.26-1.04-.61-2.17-.87-3.21-.95-3.82-2.25-7.2-3.47-9.89-.95-2.25-1.91-4.42-2.69-6.77-.35-.69-.43-1.56-.43-2.69.17-3.39-2-5.47-3.64-6.86-1.22-1.3-2.61-2-3.82-2.52-.35-.35-.61-.52-1.04-.69-1.22-.61-2.43-.78-3.47-.78l-.61.17h-.26l-.87-.35h-.61c-.35-.17-.69-.17-1.3,0h-.87c-.17,0-.35,0-.87-.17-.61,0-1.47-.17-2.25-.17h-25.99c-.69,0-1.47.17-2.34,0-.43-.17-1.22-.35-2-.17h-3.3c-1.56-.35-2.86-.35-4.25-.35h-19.96c-2.25.17-4.42.52-6.51.87,0,0-22.35.65-22.35.65-2.25.39-5.4,1.24-7.6.05-.72-.39-1.25-.94-2.08-1.13-1.2-.27-2.54.08-3.75.12-1.58.05-3.19.07-4.77.02-3.82-.12-7.43-.93-11.14.06-1.74.46-4.12.68-5.86.15-.94-.29-.97-.6-2.14-.57-1.06.03-1.78-.23-2.78-.53-1.39-.41-2.94-.68-4.28-1.08-.89-.26-1.09-.57-2.13-.56-.81.01-1.91.17-2.7.03-.56-.1-2.22-.42-2.59-.68-.68-.47-.73-1.35-1.04-2.06-.81-1.84-.69-3.39-.69-5.4,0-.79-.2-1.94-.04-2.7.25-1.22,1.44-2.27,1.89-3.47,1.34-3.55,2.85-7.3,4.43-10.86s3.92-7.46,5.07-11.35c.41-1.38,1.23-2.92,1.5-4.17.18-.82.02-1.65.24-2.46.19-.69.72-1.77,1.03-2.51.48-1.18,1.41-2.03,1.96-3.16.79-1.62,1.78-2.97,2.84-4.41,2.84-3.88,8.18-2.77,12.34-3.44,2.12-.34,4.43-.12,6.58-.12,1.16,0,2.33,0,3.49,0,1.37,0,2.28.34,3.53.57,1.82.33,4.09-.03,5.95-.03,2.17,0,4.38.18,6.49-.31,1.34-.31,2.59-.25,3.95-.15,2.98.21,5.95.36,8.94.36,2.7,0,12.8.02,15.49.07,2.92.05,5.63-.41,8.52-.67,2.58-.23,5.18.03,7.76.15,2.35.12,5.12.43,7.39-.38,1.66-.59,3.37-2.05,4.66-3.23,4.66-4.26-1.39-11.68-3.03-16.17-.77-2.09-.65-3.71-.78-5.87-.12-1.92-1.04-3.59-1.78-5.33-2.62-6.16-6.49-11.94-8.94-18.07-1.29-3.24-5.72-4.78-8.97-4.78-3.64,0-14.67,0-18.31,0-2.19,0-4.29-.28-6.44.3-1.65.45-2.87.74-4.58.57-2.92-.29,5.77-.13,2.83-.12-6.46.02-12.92.02-19.38,0-3.29-.01,5.54-1.01,2.26-1.19-2,0-3.99-.17-6.08,0h-23.26c-.87,0-1.74.17-2.52.17h-9.03c-.96,0-1.82.17-3.13.35-.17,0-.35,0-.61-.09-.61-.08-1.22-.08-1.82,0-.69.09-1.39.17-2,.35-.61.17-1.13.35-1.56.35-1.04,0-2.08.17-3.04.35-.61,0-1.13.17-1.82.17-.35,0-1.04,0-1.82.17l-.61.17-.35-.17-.61.17c-.26.17-.52.17-.78.35h-.87l-1.65.35c-1.47.43-3.12.61-4.68,1.3-1.04.35-1.83.69-2.61,1.13-.61.52-1.22,1.04-1.82,1.56-.35.26-.52.43-.69.78-.35.17-.87.52-1.39,1.04l-.44.52c-.09.17-.26.35-.43.52-.44.43-1.04.95-1.48,1.82-.26.43-.35.78-.61,1.13,0,.17-.17.35-.26.52-.52.78-.96,1.65-1.31,2.52l-.95,1.65c-1.22,2.34-2.52,4.69-3.47,7.2-.43,1.3-.95,2.43-1.47,3.64-.78,1.82-1.56,3.64-2.17,5.64-1.22,4.34-3.3,8.5-5.3,12.84-.62,1.18-1.47,1.63-1.93,2.9-.31.87-.78,1.51-1.12,2.33-.66,1.57-1.06,3.32-1.65,4.89-1.37,3.63-2.21,7.44-3.33,11.11-.98,3.2-2.66,6.21-3.87,9.42-.95,2.5,1.54-4.85.33-2.55-.76,1.44-1.35,3.15-1.82,4.59-.43,1.31-.92,2.5-1.38,3.75-.26.71-.85,1.52-1,2.2-.08.37.14.8.06,1.17-.06.27-.42.48-.46.65-.32,1.28-.61,2.46-1.37,3.64-1.41,2.18-3.12,4.69-3.69,7.11-.38,1.63-.44,3.41-1.16,4.95-.65,1.39-1.45,2.62-2.23,3.88-.77,1.24-1.42,2.87-2.35,4.05s-1.36,1.92-1.53,3.44c-.13,1.18-.72,2.01-1,3.18-.23.98.14,2.03-.08,2.97-.47,1.95-1.29,3.97-2.02,5.8-.35.87-.69,1.74-1.13,2.43-.08.26-.26.43-.35.78-.61.87-1.21,1.82-1.47,3.3-.26,1.04-.86,2.17-1.56,3.39-.52.87-1.04,1.82-1.47,2.69l-.35.78c-.35.69-.69,1.39-.96,2.17-.17.35-.17.69-.26,1.04s-.17.52-.17.52c-.26.35-.69.95-.87,1.82-.08.35-.17.61-.17,1.13-.08.17-.17.52-.26.69-.26.52-.61,1.47-.69,2.52v1.3c-.17.52-.26.87-.35,1.39-.09,1.47,0,3.12,0,4.6.09,1.82.95,3.39,1.56,4.17l.35.69c.35.69,1.04,2,2.43,3.04.78.52,1.82,1.3,3.04,1.82.95.52,1.91.69,2.86.87.35.08.69.26,1.04.35,1.04.26,1.91.43,2.6.43h.78c.52,0,1.13.17,1.65.35.95.17,1.82.35,2.69.35.78.17,1.47.17,2.17.17.35,0,.78-.17.96,0,1.47.17,2.86.35,4.34.17h10.32c1.65,0,2.7.17,4,.17.34.08.69.08,1.04.08.78,0,1.56-.08,2.43-.08.52-.17,1.13-.17,1.65-.17h9.2c.95,0,1.91-.17,2.86-.35.95-.17,1.91-.17,2.95-.17h20.4c6.16.17,12.32.17,18.57.35,20.48.35,61.23-.48,80.33-1.17,1.3-.17,2.69,0,3.99,0,2,0,4.08.17,6.16.17,3.82.17,27.98.35,31.8.35,2.86,0,5.64-.17,8.42-.35,2.6,0,5.21-.17,7.81-.17,1.65,0,3.04-.17,4.6-.35,1.21-.17,2.43-.61,3.38-.95.52,0,.87-.17,1.3-.35.96-.17,1.65-.69,2.17-1.04l.52-.17c.35-.17.78-.26,1.13-.43.87-.52,2-1.22,2.61-2.34.78-1.22.69-2.69.61-3.91ZM501.47,48.11h.44c-.17,0-.35,0-.52.08,0-.08.08-.08.08-.08ZM499.47,48.98h.17l-.17.08c-.17,0-.35,0-.52.08.17-.08.35-.08.52-.17ZM443.94,7.02c2.17.09,13.17,1.26,15.42,1.26-2.25,0-13.25-1.17-15.42-1.17-.69-.09-1.3-.09-2-.09h2ZM417.29,50.24c.17-.08.35-.17.52-.26-.17.17-.35.26-.52.35h-.61c.26,0,.43-.09.61-.09ZM320.07,147.15c0,.09-.08.26-.08.52,0-.26.08-.43,0-.52l.26-.44-.17.44ZM322.15,159.99c.61.26,1.13.35,1.65.52-.52-.17-1.13-.17-1.65-.52ZM325.71,134.39c.09-.17.09-.35.09-.43l.08-.08c-.08.17-.08.35-.17.52ZM329.61,161.47c-.26-.08-.52-.17-.87-.26.26.08.61.17.87.17l1.56.26c-.52-.08-1.04-.17-1.56-.17ZM331.61,122.59c-.08.17-.17.26-.26.35.09-.09.18-.26.18-.35.17-.26.35-.52.52-.78-.17.26-.35.52-.43.78ZM338.55,106.1l.09-.08c0,.26-.09.61-.09.86v-.78ZM337.69,109.74c.08-.08.17-.26.26-.43-.09.26-.17.43-.17.52-.35.78-.69,1.48-1.04,2.17.26-.69.61-1.39.96-2.25ZM348.79,162.16h-10.41c-.87,0-1.56-.08-2.26-.17.69.09,1.39.09,2.26.09h10.41c1.47,0,2.86.08,4.25.17-1.39-.08-2.78-.08-4.25-.08ZM365.66,35.66c-.35,1.13-.69,2.17-1.13,3.21.44-1.04.69-2.17,1.04-3.21.08-.35.26-.69.35-1.04-.09.35-.17.69-.26,1.04ZM379.11,11.18c-.26.17-.52.44-.69.61l-.52.61h-.09l.52-.69c.26-.17.52-.35.69-.61.26-.08.44-.17.61-.17-.17,0-.34.09-.52.26ZM385.44,9.36l-1.13.26c-.78.17-1.47.26-2.17.43.61-.17,1.31-.35,2.17-.52l1.13-.26c.08,0,.26.08.35.08h-.35ZM387,9.28h-.43c.09,0,.26,0,.35-.09l.61-.08-.52.17ZM394.21,8.06c.87,0,1.47-.08,2.17-.17-.69.09-1.3.26-2.08.26h-.61c.17-.09.35-.09.52-.09ZM393.23,161.64c-1.56-.08-3.21-.08-4.78-.08h4.78c3.12.08,6.25.08,9.37.17-3.13-.09-6.25-.09-9.37-.09ZM435.49,120.85c-.34,0-.61-.09-.86-.09-.35,0-.69.09-.96.09-.86.08-1.73.17-2.52.26.87-.09,1.65-.26,2.43-.35h1.91c.35.09.61.17.96.26-.35-.08-.61-.17-.96-.17ZM438.62,121.54c-.09-.08-.17-.08-.26-.08h.26c1.04.26,2.08.43,3.12.52-1.04-.09-2.08-.26-3.12-.44ZM502.63,120.2c-.52-.09-.95-.09-1.47-.09.52,0,1.04-.08,1.47,0,.17.09.35.09.43.09h-.43ZM507.49,120.37l-.44-.08h.44c.17.08.35.08.52.17-.17,0-.34-.09-.52-.09ZM545.62,121.24v-.08c.17.08.26.26.43.35-.17-.09-.26-.17-.43-.26ZM548.92,123.32c-.26-.35-.69-.61-1.04-.87.35.26.78.52,1.04.78v.09ZM558.72,158.82l-.26.09-.26.17v-.09l.26-.08.26-.17c.09,0,.18-.09.26-.09-.08.09-.17.09-.26.17Z"/>
  <path class="herocls-1" d="M423.83,88.25c1.74-1.68,3.54-3.53,5.09-5.36.78-.92,1.32-1.89,2.2-2.76,1.14-1.14,2.41-2,3.75-2.92.98-.67,2.68-.87,3.26-1.94.42.4,1.14.5,1.66.84.64.42,1.2,1.16,1.76,1.65,1.35,1.18,2.31,2.57,3.48,3.9.81.92,1.57,1.8,2.35,2.76.92,1.14,1.33,1.52,2.78,1.72.04.91.71,1.25,1.18,1.93.89-2.18,2.65-3.84,4.4-5.3.86-.71,1.52-1.5,2.49-2.09.65-.4,1.32-.71,1.79-1.35.54-.72.84-1.45,1.45-2.11.56-.6,1.14-1.28,1.71-1.86.93-.93,1.19-.95,2.22-.12.72.58,1.36.8,2.12,1.22,1.87,1.06,3.4,2.78,5.31,3.68,1.63.77,3.74,1.83,5.09,3.02,1.19,1.04,2.23,1.62,3.03,3.02.66,1.16,1.46,1.9,2.34,2.96-.26-.88,3.66-4.57,4.5-5.42,1.12-1.14,2.1-2.25,3.29-3.26.96-.81,4.34-3.52,4.31-4.87,2.7.12,4.66,1.74,6.96,2.94,1.45.75,2.54,1.87,3.86,2.77.78.54,1.01.51,1.65,1.27.49.59.8,1.38,1.34,1.95.88.91,2.58,2.23,2.86,3.57"/>
  <path class="herocls-2" d="M120.29,276.94c1.09.07,2.19.13,3.28.17,2.42.1,3.5-.77,5.87-1.22,6.03-1.15,12.58.01,18.38-1.37,3.89-.93,7.7-1.49,11.77-1.77,6.51-.45,12.68-.76,19.12-1.54,8.44-1.03,16.46-3.95,24.5-6.56,7.06-2.29,13.97-3.68,21.28-4.79,2.6-.4,5.04-1.39,7.63-1.8,8.18-1.32,16.43-2.29,24.7-3.03,4.13-.37,7.96-1.4,12.01-2,2.2-.33,4.2-.26,6.35-1.02,2.36-.84,4.41-.64,6.82-1.16,3-.64,5.77-2.49,8.69-3.44,4.57-1.48,9.12-2.7,13.86-3.45,4.98-.79,10.06-1.8,14.94-3.06,3.12-.8,7.36-1.14,9.92-3.17,9.51-7.52-10.69-11.49-14.77-12.38-7.21-1.56-14.42-3.12-21.61-4.73-4.27-.96-8.18-.22-12.41-.87-7.38-1.13-14.93-2.23-22.32-2.42-2.6-.07-5.27-.96-7.82-1.51-1.49-.32-3.21-.99-4.72-1.08-1.69-.11-3.07.24-4.78-.08-4.03-.74-8.16-2.03-12.2-2.51-4.4-.52-9.57.92-13.92,1.52-17.34,2.4-34.33,8.09-51.75,9.86-3.77.38-7.58.13-11.29.73-3.16.51-6.21,1.5-9.41,1.98-6.69,1-13.22,3.35-19.68,4.42-1.04.17-2.84-.25-4.43.19-4.72,1.3-9.36,3.37-13.98,5-8.17,2.89-16.45,5.56-24.55,8.61-5.92,2.23-21.16,8.31-19.57,16.27.74,3.71,1.88,4.69,5.28,5.62,18.09,4.93,36.11,9.42,54.81,10.59Z"/>
  <path class="herocls-4" d="M248.12,144.14c-8.69-2.32-16.85-7.58-25.71-8.95-8.88-1.38-18.16-.65-27.13-1.1s-17.98.89-26.94,1.37c-8.97.48-17.9,1.12-26.78,2.5-8.87,1.38-17.78,2.71-26.47,4.98-8.69,2.27-18.1,2.81-26.52,5.96-8.41,3.14-15.28,10.1-23.32,14.11-8.03,4-16,7.99-23.58,12.83-7.55,4.82-14.62,10.25-21.63,15.9-11.48,9.24-27.64-6.66-16.06-15.99,6.94-5.59,11.89-14,19.29-18.88,7.43-4.91,15.33-9.49,23.16-13.66,7.85-4.19,17.74-4.17,25.93-7.6,8.2-3.44,16.53-6.02,25.01-8.68,8.48-2.67,16.76-5.46,25.45-7.33,8.69-1.87,17.24-3.88,26.07-4.94s17.51-4.74,26.4-4.97c8.87-.23,17.86,1.3,26.74,1.91,8.85.6,17.54,2.84,26.33,4.29,8.74,1.44,17.79,1.73,26.41,4.03,14.36,3.83,7.88,27.77-6.53,23.93-.5-.1-.13.3-.13.3Z"/>
  <path class="herocls-4" d="M264.66,74.68c-8.29-1.98-17.21-1.16-25.66-2.69-8.41-1.52-16.53-5.01-25.04-6.03-8.5-1.02-17.24,1.04-25.78.59-8.56-.45-17.01-2.06-25.55-1.88-8.57.18-17.27-1.16-25.77-.28-8.53.88-16.53,5.11-24.92,6.76-8.4,1.65-16.9,2.5-25.09,4.99-8.17,2.48-16.02,5.71-23.93,9.08-7.82,3.33-15.64,6.66-23.15,10.93-12.95,7.36-24.2-11.89-11.26-19.24,8.1-4.61,15.49-10.44,23.92-14.05,8.53-3.66,17.61-5.8,26.41-8.51,8.84-2.72,17.5-6.33,26.55-8.15,9.05-1.82,18.14-4.52,27.34-5.51,9.17-.99,18.67,1.62,27.93,1.38,9.22-.23,18.48-1.62,27.72-1.17,9.22.45,18.56.53,27.74,1.6,9.18,1.08,17.78,5.98,26.86,7.61,9.12,1.64,18.13,3.2,27.08,5.34,14.46,3.45,8.4,25.05-6.08,21.59-.58-.19.66-2.35.66-2.35Z"/>
  <path class="herocls-2" d="M728.48,276.94c-1.09.07-2.19.13-3.28.17-2.42.1-3.5-.77-5.87-1.22-6.03-1.15-12.58.01-18.38-1.37-3.89-.93-7.7-1.49-11.77-1.77-6.51-.45-12.68-.76-19.12-1.54-8.44-1.03-16.46-3.95-24.5-6.56-7.06-2.29-13.97-3.68-21.28-4.79-2.6-.4-5.04-1.39-7.63-1.8-8.18-1.32-16.43-2.29-24.7-3.03-4.13-.37-7.96-1.4-12.01-2-2.2-.33-4.2-.26-6.35-1.02-2.36-.84-4.41-.64-6.82-1.16-3-.64-5.77-2.49-8.69-3.44-4.57-1.48-9.12-2.7-13.86-3.45-4.98-.79-10.06-1.8-14.94-3.06-3.12-.8-7.36-1.14-9.92-3.17-9.51-7.52,10.69-11.49,14.77-12.38,7.21-1.56,14.42-3.12,21.61-4.73,4.27-.96,8.18-.22,12.41-.87,7.38-1.13,14.93-2.23,22.32-2.42,2.6-.07,5.27-.96,7.82-1.51,1.49-.32,3.21-.99,4.72-1.08,1.69-.11,3.07.24,4.78-.08,4.03-.74,8.16-2.03,12.2-2.51,4.4-.52,9.57.92,13.92,1.52,17.34,2.4,34.33,8.09,51.75,9.86,3.77.38,7.58.13,11.29.73,3.16.51,6.21,1.5,9.41,1.98,6.69,1,13.22,3.35,19.68,4.42,1.04.17,2.84-.25,4.43.19,4.72,1.3,9.36,3.37,13.98,5,8.17,2.89,16.45,5.56,24.55,8.61,5.92,2.23,21.16,8.31,19.57,16.27-.74,3.71-1.88,4.69-5.28,5.62-18.09,4.93-36.11,9.42-54.81,10.59Z"/>
  <path class="herocls-4" d="M606.5,141.85c2.92-.51,6-.4,9.04-1.1,5.8-1.32,11.88-1.08,17.76-1.99,8.89-1.38,17.66-3.69,26.64-4.14,8.98-.44,17.92,1.48,26.9,1.96,8.98.48,17.82,1.14,26.7,2.53,8.89,1.39,17.38,3.94,26.08,6.22,8.67,2.27,17.22,4.37,25.61,7.51,8.39,3.15,17.6,4.4,25.62,8.4,8.02,4,16.01,8.33,23.56,13.15,7.55,4.82,12.78,12.81,19.76,18.43,11.48,9.24,30.53-10.24,18.94-19.57-6.94-5.59-15.15-9.61-22.54-14.49-7.43-4.91-14.46-10.67-22.29-14.84-7.85-4.19-16.63-6.62-24.82-10.05-8.2-3.44-16.01-8.26-24.49-10.92s-17.43-4.17-26.12-6.04c-8.69-1.87-17.85-.93-26.68-1.99-8.82-1.06-17.47-5.24-26.36-5.48-8.87-.23-17.87,1.43-26.75,2.03-8.85.6-17.91.64-26.71,2.1s-17.52,3.63-26.14,5.93c-9.18,2.45-12.64,20.98-2.7,24.63,3.01,1.1,6.18-1.78,8.98-2.27Z"/>
  <path class="herocls-4" d="M590.15,73.4c8.29-1.98,16.87-3.42,25.33-4.95,8.41-1.52,17.17-1.46,25.68-2.48,8.5-1.02,17.18.02,25.72-.43,8.56-.45,17.02.94,25.56,1.11,8.57.18,17.18-1.92,25.68-1.04,8.53.88,17.02,2.05,25.41,3.7,8.4,1.65,16.83,3.35,25.03,5.84,8.17,2.48,15.53,7.13,23.44,10.5,7.82,3.33,15.82,6.24,23.32,10.5,12.95,7.36,24.95-13.2,12.01-20.56-8.1-4.61-15.54-10.75-23.97-14.37-8.53-3.66-18.39-3.9-27.19-6.61-8.84-2.72-17.31-7.13-26.36-8.95-9.05-1.82-18.51-1.55-27.71-2.55-9.17-.99-18.42-.1-27.68-.33s-18.38-.74-27.62-.28c-9.22.45-18.28,1.97-27.46,3.05-9.18,1.08-18.98-1.74-28.06-.1-9.12,1.64-17.28,7.87-26.24,10.01-14.46,3.45-8.12,25.43,6.36,21.97,1.17-.5-1.26-4.03-1.26-4.03Z"/>
  <path class="herocls-5" d="M390.95,25.03c4.22-1.38,9.47-.83,12.55,1.45,2.28,1.68,3.63,4.54,3.5,7.37-.19,3.93-3.63,8.25-7.19,9.79-1.96.85-4.14,1.14-6.24.72-5.44-1.1-10.11-7.03-9.1-12.67.61-3.42,3.25-5.61,6.49-6.66Z"/>
</svg>