<?xml version="1.0" encoding="UTF-8"?>
<svg id="Isolation_Mode" data-name="Isolation Mode" xmlns="http://www.w3.org/2000/svg" viewBox="0 0 855.77 688.98">
                <defs>
                    <style>
                        .cls-1 {
                            fill: none;
                            stroke: #072334;
                            stroke-miterlimit: 10;
                            stroke-width: 55.1px;
                        }
                    </style>
                </defs>
                <path id="svgPathLeft" stroke="black" stroke-width="4px" stroke-dasharray="0,688.98" class="cls-1"
                    d="M427.33 6.3 423.99 20.51 425.74 35.06 426.12 49.54 423.55 64.07 425.25 78.56 426.06 93.05 425.02 107.59 427.73 122.02 425.6 136.57 425.69 147.44 423.26 153.45 405.27 154.26 390.47 155.9 375.95 155.47 361.42 155.26 346.88 154.63 332.35 152.52 317.8 152.35 303.25 155.07 288.71 155.18 274.14 152.61 259.6 154.22 245.06 155.02 230.51 155.15 215.94 153.95 201.4 154.15 186.81 154.43 177.44 160.37 173.73 172.54 175.29 185.11 172.74 198.84 173.41 212.73 171.42 226.49 171.82 240.36 173.13 254.22 171.56 268.03 172.23 281.86 172.75 295.67 173.22 309.47 174.6 323.18 174.52 337.17 180.97 349.55 195 352.29 209.12 351.43 223.11 352.5 237.19 352.01 251.12 354.5 265.16 354.61 279.25 353.79 293.18 356.56 307.26 356.06 321.29 356.47 335.24 358.39 349.29 358.55 363.36 358.65 371.66 362.3 375.09 370.88 372.82 385.53 374.61 400 374.28 414.53 375.89 429.04 375.33 443.58 376.3 458.1 374.76 472.63 374.83 487.16 373.26 501.67 373.78 516.21 373.09 530.73 375.59 545.33 375.02 559.87 371.58 574.28 373.73 588.93 372.45 603.43 370.18 617.83 366.91 636.4 355.82 646.62 341.53 651.13 328.09 652.68 314.72 655.62 301.12 653.27 287.57 654.27 274.16 651.91 260.61 651.49 246.24 650.53 231.85 651.2 217.49 651.26 203.11 652.6 188.78 649.91 174.41 651.73 160.06 649.97 145.69 650.48 131.33 649.91 116.96 651.13 102.61 649.47 88.22 651.47 73.87 649.76 59.5 649.91 45.12 651.07 30.75 650.81 16.48 647.76 2.04 648.83" />
                <path id="svgPathRight" stroke="black" stroke-width="4px" stroke-dasharray="0,688.98" class="cls-1"
                    d="M427.58 11.07 426.7 25.75 429.09 40.2 429.49 54.72 426.58 69.19 427.71 83.72 427.81 98.24 425.95 112.7 427.82 127.26 425.05 141.71 426.06 152.95 430.96 156.21 448 162.26 462.18 158.42 476.74 157.94 491.3 157.61 505.86 157.91 520.42 159.82 534.96 159.9 549.51 157.18 564.06 157.14 578.6 159.86 593.16 158.47 607.72 157.96 622.28 158.21 636.8 159.9 651.33 160.37 665.8 161.33 673.73 166.33 676 178.06 679.3 190.2 678.08 204.1 680.06 217.85 679.22 231.73 680.58 245.52 682.6 259.32 681.45 273.18 682.18 287.03 682.27 300.89 681.64 314.75 680.85 328.63 676.56 341.96 671.38 353.98 657.55 354.25 643.65 356.76 629.62 357.11 615.65 358.9 601.55 357.66 587.55 358.78 573.59 360.82 559.47 359.28 545.49 361.05 531.48 361.97 517.4 361.49 503.42 362.94 489.5 364.9 481.64 367.86 480.86 376.21 477.31 390.59 478.25 405.16 477.35 419.67 478.61 434.22 477.84 448.74 478.76 463.26 477.29 477.79 477.56 492.32 476.3 506.87 477.26 521.4 477.14 535.94 480.36 550.4 480.67 564.93 478.31 579.56 481.8 593.94 482.22 608.46 482.24 623.02 487.17 640.87 497.1 651.48 511.2 656.44 524.53 659.04 538.16 658.23 551.65 661.06 565.18 659.28 578.81 660 592.28 658.29 606.59 657.96 620.91 656.66 635.27 656.18 649.61 654.53 663.99 656.98 678.34 654.95 692.71 656.53 707.07 655.86 721.43 656.26 735.79 654.87 750.16 656.35 764.51 654.13 778.89 655.59 793.26 655.12 807.59 653.56 821.94 653.26 836.37 655.49 850.59 652.77" />
            </svg>