<?xml version="1.0" encoding="UTF-8"?>
<svg id="Isolation_Mode" data-name="Isolation Mode" xmlns="http://www.w3.org/2000/svg" viewBox="0 0 11.12 10.93">
  <defs>
    <style>
      .team-iconcls {
        fill: #002235;
        stroke-width: 0px;
      }
    </style>
  </defs>
  <path class="team-iconcls" d="M1.15,2.58c-.43.51-.87,1.05-1.05,1.69-.26.91.03,1.87.4,2.74.36.85.82,1.69,1.51,2.31.76.68,1.75,1.04,2.73,1.31.63.18,1.27.32,1.93.3,1.34-.06,2.58-.89,3.33-2.01s1.07-2.48,1.12-3.82c.02-.52,0-1.06-.22-1.53C10.18,1.98,7.41.54,5.79.1,3.84-.42,2.29,1.21,1.15,2.58Z"/>
</svg>