<?xml version="1.0" encoding="UTF-8" standalone="no"?>
<svg
   id="svg"
   version="1.1"
   width="400"
   height="319.2784667418264"
   viewBox="0, 0, 400,319.2784667418264"
   sodipodi:docname="topLinesPath.svg"
   inkscape:version="1.3.2 (091e20e, 2023-11-25)"
   xmlns:inkscape="http://www.inkscape.org/namespaces/inkscape"
   xmlns:sodipodi="http://sodipodi.sourceforge.net/DTD/sodipodi-0.dtd"
   xmlns="http://www.w3.org/2000/svg"
   xmlns:svg="http://www.w3.org/2000/svg">
  <defs
     id="defs1" />
  <sodipodi:namedview
     id="namedview1"
     pagecolor="#505050"
     bordercolor="#eeeeee"
     borderopacity="1"
     inkscape:showpageshadow="0"
     inkscape:pageopacity="0"
     inkscape:pagecheckerboard="0"
     inkscape:deskcolor="#505050"
     inkscape:zoom="1.4341031"
     inkscape:cx="80.886791"
     inkscape:cy="128.30319"
     inkscape:window-width="1800"
     inkscape:window-height="1103"
     inkscape:window-x="0"
     inkscape:window-y="38"
     inkscape:window-maximized="1"
     inkscape:current-layer="svgg" />
  <g
     id="svgg">
    <path
       id="path4"
       d="m 213.506,58.466 c -0.044,0.586 0.131,0.634 2.089,0.578 l 2.137,-0.062 -1.981,-0.113 c -1.574,-0.089 -1.945,-0.208 -1.803,-0.577 0.098,-0.256 0.049,-0.465 -0.108,-0.465 -0.157,0 -0.307,0.288 -0.334,0.639 m 16.132,0.551 c 0.575,0.072 1.437,0.07 1.917,-0.003 0.48,-0.073 0.01,-0.131 -1.044,-0.129 -1.054,0.002 -1.447,0.061 -0.873,0.132 m 15.809,0.002 c 0.659,0.069 1.738,0.069 2.396,0 0.659,-0.069 0.12,-0.126 -1.198,-0.126 -1.318,0 -1.857,0.057 -1.198,0.126 m 45.851,-0.007 c 0.397,0.076 0.972,0.073 1.278,-0.007 0.305,-0.08 -0.02,-0.142 -0.723,-0.138 -0.703,0.003 -0.953,0.068 -0.555,0.145 M 86.505,59.651 c 0.398,0.076 0.973,0.073 1.278,-0.007 0.306,-0.08 -0.019,-0.142 -0.722,-0.139 -0.703,0.004 -0.953,0.069 -0.556,0.146 m 35.939,-0.006 c 0.308,0.081 0.811,0.081 1.118,0 0.308,-0.08 0.056,-0.146 -0.559,-0.146 -0.615,0 -0.866,0.066 -0.559,0.146 m 135.783,0 c 0.307,0.081 0.811,0.081 1.118,0 0.308,-0.08 0.056,-0.146 -0.559,-0.146 -0.615,0 -0.867,0.066 -0.559,0.146 m -117.253,0.328 c 0.484,0.073 1.274,0.073 1.758,0 0.483,-0.073 0.087,-0.133 -0.879,-0.133 -0.966,0 -1.362,0.06 -0.879,0.133 m 29.234,-0.003 c 0.395,0.076 1.042,0.076 1.437,0 0.396,-0.076 0.072,-0.139 -0.718,-0.139 -0.791,0 -1.115,0.063 -0.719,0.139 m 3.844,0.01 c 0.929,0.065 2.366,0.064 3.195,-10e-4 0.829,-0.066 0.069,-0.119 -1.688,-0.118 -1.757,0.001 -2.435,0.055 -1.507,0.119 M 70.889,71.496 c -0.106,0.635 -0.059,0.933 0.118,0.755 0.161,-0.161 0.24,-0.632 0.174,-1.048 -0.1,-0.64 -0.145,-0.595 -0.292,0.293 m 162.498,12.849 -2.556,0.202 2.635,0.059 c 1.584,0.035 2.636,-0.069 2.636,-0.261 0,-0.176 -0.036,-0.293 -0.08,-0.261 -0.044,0.032 -1.23,0.15 -2.635,0.261 m -128.195,0.54 c 0.307,0.08 0.81,0.08 1.118,0 0.307,-0.081 0.056,-0.146 -0.559,-0.146 -0.615,0 -0.867,0.065 -0.559,0.146 m 60.271,0.514 c 0.149,0.149 0.756,0.221 1.349,0.159 1.053,-0.108 1.046,-0.115 -0.27,-0.27 -0.742,-0.088 -1.228,-0.038 -1.079,0.111 m 37.892,-0.095 -1.278,0.228 1.358,0.046 c 0.746,0.025 1.357,-0.099 1.357,-0.274 0,-0.176 -0.036,-0.3 -0.08,-0.275 -0.043,0.025 -0.654,0.149 -1.357,0.275 m -87.46,0.236 c 1.098,0.062 2.895,0.062 3.993,0 1.098,-0.062 0.2,-0.113 -1.997,-0.113 -2.196,0 -3.095,0.051 -1.996,0.113 m 74.44,-0.011 c 0.396,0.076 1.043,0.076 1.438,0 0.396,-0.076 0.072,-0.138 -0.719,-0.138 -0.79,0 -1.114,0.062 -0.719,0.138 M 68.787,112.105 c 0.014,0.878 0.122,1.535 0.241,1.462 0.261,-0.161 0.199,-2.594 -0.073,-2.866 -0.105,-0.105 -0.181,0.527 -0.168,1.404 m 262.323,4.029 c 10e-4,1.933 0.053,2.683 0.117,1.666 0.063,-1.017 0.063,-2.598 -10e-4,-3.515 -0.065,-0.916 -0.117,-0.084 -0.116,1.849 m -25.58,-1.278 c 0.002,1.055 0.062,1.447 0.133,0.873 0.071,-0.574 0.069,-1.437 -0.003,-1.917 -0.073,-0.48 -0.131,-0.01 -0.13,1.044 m 25.52,17.626 c -0.033,0.908 -0.142,1.914 -0.243,2.236 -0.173,0.548 -0.161,0.55 0.176,0.025 0.198,-0.308 0.307,-1.315 0.243,-2.236 l -0.117,-1.676 -0.059,1.651 m -262.243,4.099 c 0.001,1.758 0.054,2.436 0.119,1.507 0.065,-0.928 0.064,-2.366 -0.002,-3.195 -0.065,-0.828 -0.118,-0.069 -0.117,1.688 m -0.043,5.911 c 0,0.615 0.066,0.867 0.146,0.559 0.081,-0.307 0.081,-0.811 0,-1.118 -0.08,-0.308 -0.146,-0.056 -0.146,0.559 m 45.693,10.458 c 0.835,0.066 2.2,0.066 3.035,0 0.835,-0.065 0.152,-0.119 -1.518,-0.119 -1.669,0 -2.352,0.054 -1.517,0.119 m 39.776,1.92 c 1.274,0.06 3.359,0.06 4.633,0 1.274,-0.061 0.231,-0.11 -2.316,-0.11 -2.548,0 -3.591,0.049 -2.317,0.11 m 33.707,14.299 c 0.004,0.703 0.069,0.953 0.145,0.556 0.077,-0.398 0.074,-0.973 -0.006,-1.278 -0.08,-0.306 -0.143,0.019 -0.139,0.722 m 116.103,8.227 c 0.081,0.132 0.427,0.24 0.768,0.24 0.341,0 0.62,-0.108 0.62,-0.24 0,-0.132 -0.345,-0.239 -0.768,-0.239 -0.422,0 -0.701,0.107 -0.62,0.239 m -182.405,1.109 c 0.567,0.071 1.574,0.072 2.237,0.003 0.663,-0.069 0.198,-0.127 -1.032,-0.128 -1.23,-0.002 -1.772,0.055 -1.205,0.125 m 8.957,1.274 c 0.397,0.076 0.972,0.073 1.278,-0.007 0.305,-0.08 -0.02,-0.142 -0.723,-0.139 -0.703,0.004 -0.953,0.069 -0.555,0.146 m 120.284,-0.006 c 0.307,0.08 0.81,0.08 1.118,0 0.307,-0.08 0.056,-0.146 -0.559,-0.146 -0.615,0 -0.867,0.066 -0.559,0.146 m -87.822,3.933 c 0,1.845 0.053,2.6 0.118,1.677 0.064,-0.922 0.064,-2.432 0,-3.354 -0.065,-0.923 -0.118,-0.168 -0.118,1.677 m 73.162,3.035 c 0.001,1.757 0.054,2.435 0.119,1.507 0.065,-0.928 0.064,-2.366 -0.001,-3.195 -0.066,-0.829 -0.119,-0.069 -0.118,1.688 m -72.549,7.987 c 0.002,0.879 0.064,1.201 0.138,0.715 0.073,-0.486 0.071,-1.205 -0.005,-1.598 -0.076,-0.393 -0.136,0.005 -0.133,0.883 m 72.193,27.476 c 0.004,0.703 0.069,0.953 0.146,0.556 0.076,-0.398 0.073,-0.973 -0.007,-1.278 -0.08,-0.306 -0.142,0.02 -0.139,0.722 m -72.837,9.425 c 0,0.791 0.063,1.115 0.139,0.719 0.076,-0.395 0.076,-1.042 0,-1.437 -0.076,-0.396 -0.139,-0.072 -0.139,0.718 m 72.862,6.23 c 0.001,1.23 0.059,1.695 0.128,1.032 0.069,-0.663 0.068,-1.67 -0.003,-2.237 -0.07,-0.567 -0.127,-0.025 -0.125,1.205 m -0.018,9.425 c 0,0.791 0.062,1.115 0.138,0.719 0.076,-0.395 0.076,-1.042 0,-1.438 -0.076,-0.395 -0.138,-0.071 -0.138,0.719 m 0,9.266 c 0,0.79 0.062,1.114 0.138,0.718 0.076,-0.395 0.076,-1.042 0,-1.437 -0.076,-0.396 -0.138,-0.072 -0.138,0.719 m -72.844,8.306 c 0,0.791 0.063,1.114 0.139,0.719 0.076,-0.395 0.076,-1.042 0,-1.438 -0.076,-0.395 -0.139,-0.072 -0.139,0.719 m 73.814,5.911 c 0.002,1.054 0.062,1.447 0.133,0.873 0.071,-0.575 0.069,-1.437 -0.004,-1.917 -0.072,-0.48 -0.131,-0.011 -0.129,1.044 m -49.201,8.306 c 0.002,1.055 0.061,1.448 0.132,0.873 0.072,-0.574 0.07,-1.436 -0.003,-1.917 -0.073,-0.48 -0.131,-0.01 -0.129,1.044 m 132.728,12.526 c 0.396,0.076 1.043,0.076 1.438,0 0.395,-0.076 0.072,-0.138 -0.719,-0.138 -0.79,0 -1.114,0.062 -0.719,0.138 m -309.824,0.22 c 0,0.07 0.563,0.18 1.251,0.246 0.688,0.066 1.183,0.009 1.1,-0.126 -0.152,-0.246 -2.351,-0.357 -2.351,-0.12 m 5.307,0.136 c -0.089,0.144 0.262,0.199 0.78,0.123 0.518,-0.076 0.942,-0.193 0.942,-0.261 0,-0.244 -1.563,-0.118 -1.722,0.138 m 65.863,-0.036 c 0.397,0.077 0.972,0.074 1.278,-0.006 0.305,-0.08 -0.02,-0.143 -0.723,-0.139 -0.703,0.003 -0.952,0.069 -0.555,0.145 m 4.633,0.004 c 0.486,0.073 1.205,0.071 1.598,-0.005 0.393,-0.076 -0.005,-0.136 -0.883,-0.133 -0.879,0.002 -1.2,0.064 -0.715,0.138 m 223.323,0 c 0.486,0.073 1.204,0.071 1.597,-0.005 0.393,-0.076 -0.004,-0.136 -0.883,-0.133 -0.878,0.002 -1.2,0.064 -0.714,0.138 m 35.783,0 c 0.485,0.073 1.204,0.071 1.597,-0.005 0.393,-0.076 -0.004,-0.136 -0.883,-0.133 -0.878,0.002 -1.2,0.064 -0.714,0.138 m 3.997,0.005 c 0.752,0.067 1.902,0.066 2.556,-0.002 0.655,-0.069 0.04,-0.124 -1.366,-0.123 -1.406,10e-4 -1.941,0.057 -1.19,0.125 m 23.638,-0.009 c 0.397,0.077 0.972,0.074 1.278,-0.006 0.305,-0.08 -0.02,-0.143 -0.723,-0.139 -0.703,0.003 -0.953,0.069 -0.555,0.145 m 2.875,0 c 0.398,0.077 0.973,0.074 1.278,-0.006 0.306,-0.08 -0.02,-0.143 -0.722,-0.139 -0.703,0.003 -0.953,0.069 -0.556,0.145 m -239.285,1.29 c 1.458,0.06 3.758,0.059 5.111,-10e-4 1.354,-0.059 0.161,-0.108 -2.651,-0.107 -2.811,0 -3.919,0.049 -2.46,0.108 m 109.253,-0.012 c 0.398,0.077 0.973,0.074 1.278,-0.006 0.306,-0.08 -0.02,-0.143 -0.722,-0.139 -0.703,0.003 -0.953,0.069 -0.556,0.145 m 14.533,0.633 c 0.308,0.081 0.811,0.081 1.118,0 0.308,-0.08 0.056,-0.146 -0.559,-0.146 -0.615,0 -0.866,0.066 -0.559,0.146 m 62.188,23.518 c 0.149,0.149 0.756,0.22 1.35,0.159 1.052,-0.108 1.046,-0.115 -0.271,-0.27 -0.742,-0.088 -1.227,-0.038 -1.079,0.111 m -274.488,0.14 c 0.922,0.064 2.432,0.064 3.355,0 0.922,-0.065 0.167,-0.117 -1.678,-0.117 -1.845,0 -2.6,0.052 -1.677,0.117 m 281.949,-0.015 c 0.307,0.08 0.811,0.08 1.118,0 0.308,-0.081 0.056,-0.146 -0.559,-0.146 -0.615,0 -0.867,0.065 -0.559,0.146 m 26.031,0.01 c 0.567,0.071 1.574,0.072 2.236,0.003 0.663,-0.07 0.199,-0.127 -1.031,-0.129 -1.23,-0.001 -1.772,0.055 -1.205,0.126 M 213.506,58.466 c -0.044,0.586 0.131,0.634 2.089,0.578 l 2.137,-0.062 -1.981,-0.113 c -1.574,-0.089 -1.945,-0.208 -1.803,-0.577 0.098,-0.256 0.049,-0.465 -0.108,-0.465 -0.157,0 -0.307,0.288 -0.334,0.639 m 16.132,0.551 c 0.575,0.072 1.437,0.07 1.917,-0.003 0.48,-0.073 0.01,-0.131 -1.044,-0.129 -1.054,0.002 -1.447,0.061 -0.873,0.132 m 15.809,0.002 c 0.659,0.069 1.738,0.069 2.396,0 0.659,-0.069 0.12,-0.126 -1.198,-0.126 -1.318,0 -1.857,0.057 -1.198,0.126 m 45.851,-0.007 c 0.397,0.076 0.972,0.073 1.278,-0.007 0.305,-0.08 -0.02,-0.142 -0.723,-0.138 -0.703,0.003 -0.953,0.068 -0.555,0.145 M 86.505,59.651 c 0.398,0.076 0.973,0.073 1.278,-0.007 0.306,-0.08 -0.019,-0.142 -0.722,-0.139 -0.703,0.004 -0.953,0.069 -0.556,0.146 m 35.939,-0.006 c 0.308,0.081 0.811,0.081 1.118,0 0.308,-0.08 0.056,-0.146 -0.559,-0.146 -0.615,0 -0.866,0.066 -0.559,0.146 m 135.783,0 c 0.307,0.081 0.811,0.081 1.118,0 0.308,-0.08 0.056,-0.146 -0.559,-0.146 -0.615,0 -0.867,0.066 -0.559,0.146 m -117.253,0.328 c 0.484,0.073 1.274,0.073 1.758,0 0.483,-0.073 0.087,-0.133 -0.879,-0.133 -0.966,0 -1.362,0.06 -0.879,0.133 m 29.234,-0.003 c 0.395,0.076 1.042,0.076 1.437,0 0.396,-0.076 0.072,-0.139 -0.718,-0.139 -0.791,0 -1.115,0.063 -0.719,0.139 m 3.844,0.01 c 0.929,0.065 2.366,0.064 3.195,-10e-4 0.829,-0.066 0.069,-0.119 -1.688,-0.118 -1.757,0.001 -2.435,0.055 -1.507,0.119 M 70.889,71.496 c -0.106,0.635 -0.059,0.933 0.118,0.755 0.161,-0.161 0.24,-0.632 0.174,-1.048 -0.1,-0.64 -0.145,-0.595 -0.292,0.293 m 162.498,12.849 -2.556,0.202 2.635,0.059 c 1.584,0.035 2.636,-0.069 2.636,-0.261 0,-0.176 -0.036,-0.293 -0.08,-0.261 -0.044,0.032 -1.23,0.15 -2.635,0.261 m -128.195,0.54 c 0.307,0.08 0.81,0.08 1.118,0 0.307,-0.081 0.056,-0.146 -0.559,-0.146 -0.615,0 -0.867,0.065 -0.559,0.146 m 60.271,0.514 c 0.149,0.149 0.756,0.221 1.349,0.159 1.053,-0.108 1.046,-0.115 -0.27,-0.27 -0.742,-0.088 -1.228,-0.038 -1.079,0.111 m 37.892,-0.095 -1.278,0.228 1.358,0.046 c 0.746,0.025 1.357,-0.099 1.357,-0.274 0,-0.176 -0.036,-0.3 -0.08,-0.275 -0.043,0.025 -0.654,0.149 -1.357,0.275 m -87.46,0.236 c 1.098,0.062 2.895,0.062 3.993,0 1.098,-0.062 0.2,-0.113 -1.997,-0.113 -2.196,0 -3.095,0.051 -1.996,0.113 m 74.44,-0.011 c 0.396,0.076 1.043,0.076 1.438,0 0.396,-0.076 0.072,-0.138 -0.719,-0.138 -0.79,0 -1.114,0.062 -0.719,0.138 M 68.787,112.105 c 0.014,0.878 0.122,1.535 0.241,1.462 0.261,-0.161 0.199,-2.594 -0.073,-2.866 -0.105,-0.105 -0.181,0.527 -0.168,1.404 m 262.323,4.029 c 10e-4,1.933 0.053,2.683 0.117,1.666 0.063,-1.017 0.063,-2.598 -10e-4,-3.515 -0.065,-0.916 -0.117,-0.084 -0.116,1.849 m -25.58,-1.278 c 0.002,1.055 0.062,1.447 0.133,0.873 0.071,-0.574 0.069,-1.437 -0.003,-1.917 -0.073,-0.48 -0.131,-0.01 -0.13,1.044 m 25.52,17.626 c -0.033,0.908 -0.142,1.914 -0.243,2.236 -0.173,0.548 -0.161,0.55 0.176,0.025 0.198,-0.308 0.307,-1.315 0.243,-2.236 l -0.117,-1.676 -0.059,1.651 m -262.243,4.099 c 0.001,1.758 0.054,2.436 0.119,1.507 0.065,-0.928 0.064,-2.366 -0.002,-3.195 -0.065,-0.828 -0.118,-0.069 -0.117,1.688 m -0.043,5.911 c 0,0.615 0.066,0.867 0.146,0.559 0.081,-0.307 0.081,-0.811 0,-1.118 -0.08,-0.308 -0.146,-0.056 -0.146,0.559 m 45.693,10.458 c 0.835,0.066 2.2,0.066 3.035,0 0.835,-0.065 0.152,-0.119 -1.518,-0.119 -1.669,0 -2.352,0.054 -1.517,0.119 m 39.776,1.92 c 1.274,0.06 3.359,0.06 4.633,0 1.274,-0.061 0.231,-0.11 -2.316,-0.11 -2.548,0 -3.591,0.049 -2.317,0.11 m 33.707,14.299 c 0.004,0.703 0.069,0.953 0.145,0.556 0.077,-0.398 0.074,-0.973 -0.006,-1.278 -0.08,-0.306 -0.143,0.019 -0.139,0.722 m 116.103,8.227 c 0.081,0.132 0.427,0.24 0.768,0.24 0.341,0 0.62,-0.108 0.62,-0.24 0,-0.132 -0.345,-0.239 -0.768,-0.239 -0.422,0 -0.701,0.107 -0.62,0.239 m -182.405,1.109 c 0.567,0.071 1.574,0.072 2.237,0.003 0.663,-0.069 0.198,-0.127 -1.032,-0.128 -1.23,-0.002 -1.772,0.055 -1.205,0.125 m 8.957,1.274 c 0.397,0.076 0.972,0.073 1.278,-0.007 0.305,-0.08 -0.02,-0.142 -0.723,-0.139 -0.703,0.004 -0.953,0.069 -0.555,0.146 m 120.284,-0.006 c 0.307,0.08 0.81,0.08 1.118,0 0.307,-0.08 0.056,-0.146 -0.559,-0.146 -0.615,0 -0.867,0.066 -0.559,0.146 m -87.822,3.933 c 0,1.845 0.053,2.6 0.118,1.677 0.064,-0.922 0.064,-2.432 0,-3.354 -0.065,-0.923 -0.118,-0.168 -0.118,1.677 m 73.162,3.035 c 0.001,1.757 0.054,2.435 0.119,1.507 0.065,-0.928 0.064,-2.366 -0.001,-3.195 -0.066,-0.829 -0.119,-0.069 -0.118,1.688 m -72.549,7.987 c 0.002,0.879 0.064,1.201 0.138,0.715 0.073,-0.486 0.071,-1.205 -0.005,-1.598 -0.076,-0.393 -0.136,0.005 -0.133,0.883 m 72.193,27.476 c 0.004,0.703 0.069,0.953 0.146,0.556 0.076,-0.398 0.073,-0.973 -0.007,-1.278 -0.08,-0.306 -0.142,0.02 -0.139,0.722 m -72.837,9.425 c 0,0.791 0.063,1.115 0.139,0.719 0.076,-0.395 0.076,-1.042 0,-1.437 -0.076,-0.396 -0.139,-0.072 -0.139,0.718 m 72.862,6.23 c 0.001,1.23 0.059,1.695 0.128,1.032 0.069,-0.663 0.068,-1.67 -0.003,-2.237 -0.07,-0.567 -0.127,-0.025 -0.125,1.205 m -0.018,9.425 c 0,0.791 0.062,1.115 0.138,0.719 0.076,-0.395 0.076,-1.042 0,-1.438 -0.076,-0.395 -0.138,-0.071 -0.138,0.719 m 0,9.266 c 0,0.79 0.062,1.114 0.138,0.718 0.076,-0.395 0.076,-1.042 0,-1.437 -0.076,-0.396 -0.138,-0.072 -0.138,0.719 m -72.844,8.306 c 0,0.791 0.063,1.114 0.139,0.719 0.076,-0.395 0.076,-1.042 0,-1.438 -0.076,-0.395 -0.139,-0.072 -0.139,0.719 m 73.814,5.911 c 0.002,1.054 0.062,1.447 0.133,0.873 0.071,-0.575 0.069,-1.437 -0.004,-1.917 -0.072,-0.48 -0.131,-0.011 -0.129,1.044 m -49.201,8.306 c 0.002,1.055 0.061,1.448 0.132,0.873 0.072,-0.574 0.07,-1.436 -0.003,-1.917 -0.073,-0.48 -0.131,-0.01 -0.129,1.044 m 132.728,12.526 c 0.396,0.076 1.043,0.076 1.438,0 0.395,-0.076 0.072,-0.138 -0.719,-0.138 -0.79,0 -1.114,0.062 -0.719,0.138 m -309.824,0.22 c 0,0.07 0.563,0.18 1.251,0.246 0.688,0.066 1.183,0.009 1.1,-0.126 -0.152,-0.246 -2.351,-0.357 -2.351,-0.12 m 5.307,0.136 c -0.089,0.144 0.262,0.199 0.78,0.123 0.518,-0.076 0.942,-0.193 0.942,-0.261 0,-0.244 -1.563,-0.118 -1.722,0.138 m 65.863,-0.036 c 0.397,0.077 0.972,0.074 1.278,-0.006 0.305,-0.08 -0.02,-0.143 -0.723,-0.139 -0.703,0.003 -0.952,0.069 -0.555,0.145 m 4.633,0.004 c 0.486,0.073 1.205,0.071 1.598,-0.005 0.393,-0.076 -0.005,-0.136 -0.883,-0.133 -0.879,0.002 -1.2,0.064 -0.715,0.138 m 223.323,0 c 0.486,0.073 1.204,0.071 1.597,-0.005 0.393,-0.076 -0.004,-0.136 -0.883,-0.133 -0.878,0.002 -1.2,0.064 -0.714,0.138 m 35.783,0 c 0.485,0.073 1.204,0.071 1.597,-0.005 0.393,-0.076 -0.004,-0.136 -0.883,-0.133 -0.878,0.002 -1.2,0.064 -0.714,0.138 m 3.997,0.005 c 0.752,0.067 1.902,0.066 2.556,-0.002 0.655,-0.069 0.04,-0.124 -1.366,-0.123 -1.406,10e-4 -1.941,0.057 -1.19,0.125 m 23.638,-0.009 c 0.397,0.077 0.972,0.074 1.278,-0.006 0.305,-0.08 -0.02,-0.143 -0.723,-0.139 -0.703,0.003 -0.953,0.069 -0.555,0.145 m 2.875,0 c 0.398,0.077 0.973,0.074 1.278,-0.006 0.306,-0.08 -0.02,-0.143 -0.722,-0.139 -0.703,0.003 -0.953,0.069 -0.556,0.145 m -239.285,1.29 c 1.458,0.06 3.758,0.059 5.111,-10e-4 1.354,-0.059 0.161,-0.108 -2.651,-0.107 -2.811,0 -3.919,0.049 -2.46,0.108 m 109.253,-0.012 c 0.398,0.077 0.973,0.074 1.278,-0.006 0.306,-0.08 -0.02,-0.143 -0.722,-0.139 -0.703,0.003 -0.953,0.069 -0.556,0.145 m 14.533,0.633 c 0.308,0.081 0.811,0.081 1.118,0 0.308,-0.08 0.056,-0.146 -0.559,-0.146 -0.615,0 -0.866,0.066 -0.559,0.146 m 62.188,23.518 c 0.149,0.149 0.756,0.22 1.35,0.159 1.052,-0.108 1.046,-0.115 -0.271,-0.27 -0.742,-0.088 -1.227,-0.038 -1.079,0.111 m -274.488,0.14 c 0.922,0.064 2.432,0.064 3.355,0 0.922,-0.065 0.167,-0.117 -1.678,-0.117 -1.845,0 -2.6,0.052 -1.677,0.117 m 281.949,-0.015 c 0.307,0.08 0.811,0.08 1.118,0 0.308,-0.081 0.056,-0.146 -0.559,-0.146 -0.615,0 -0.867,0.065 -0.559,0.146 m 26.031,0.01 c 0.567,0.071 1.574,0.072 2.236,0.003 0.663,-0.07 0.199,-0.127 -1.031,-0.129 -1.23,-0.001 -1.772,0.055 -1.205,0.126 M 213.506,58.466 c -0.044,0.586 0.131,0.634 2.089,0.578 l 2.137,-0.062 -1.981,-0.113 c -1.574,-0.089 -1.945,-0.208 -1.803,-0.577 0.098,-0.256 0.049,-0.465 -0.108,-0.465 -0.157,0 -0.307,0.288 -0.334,0.639 m 16.132,0.551 c 0.575,0.072 1.437,0.07 1.917,-0.003 0.48,-0.073 0.01,-0.131 -1.044,-0.129 -1.054,0.002 -1.447,0.061 -0.873,0.132 m 15.809,0.002 c 0.659,0.069 1.738,0.069 2.396,0 0.659,-0.069 0.12,-0.126 -1.198,-0.126 -1.318,0 -1.857,0.057 -1.198,0.126 m 45.851,-0.007 c 0.397,0.076 0.972,0.073 1.278,-0.007 0.305,-0.08 -0.02,-0.142 -0.723,-0.138 -0.703,0.003 -0.953,0.068 -0.555,0.145 M 86.505,59.651 c 0.398,0.076 0.973,0.073 1.278,-0.007 0.306,-0.08 -0.019,-0.142 -0.722,-0.139 -0.703,0.004 -0.953,0.069 -0.556,0.146 m 35.939,-0.006 c 0.308,0.081 0.811,0.081 1.118,0 0.308,-0.08 0.056,-0.146 -0.559,-0.146 -0.615,0 -0.866,0.066 -0.559,0.146 m 135.783,0 c 0.307,0.081 0.811,0.081 1.118,0 0.308,-0.08 0.056,-0.146 -0.559,-0.146 -0.615,0 -0.867,0.066 -0.559,0.146 m -117.253,0.328 c 0.484,0.073 1.274,0.073 1.758,0 0.483,-0.073 0.087,-0.133 -0.879,-0.133 -0.966,0 -1.362,0.06 -0.879,0.133 m 29.234,-0.003 c 0.395,0.076 1.042,0.076 1.437,0 0.396,-0.076 0.072,-0.139 -0.718,-0.139 -0.791,0 -1.115,0.063 -0.719,0.139 m 3.844,0.01 c 0.929,0.065 2.366,0.064 3.195,-10e-4 0.829,-0.066 0.069,-0.119 -1.688,-0.118 -1.757,0.001 -2.435,0.055 -1.507,0.119 M 70.889,71.496 c -0.106,0.635 -0.059,0.933 0.118,0.755 0.161,-0.161 0.24,-0.632 0.174,-1.048 -0.1,-0.64 -0.145,-0.595 -0.292,0.293 m 162.498,12.849 -2.556,0.202 2.635,0.059 c 1.584,0.035 2.636,-0.069 2.636,-0.261 0,-0.176 -0.036,-0.293 -0.08,-0.261 -0.044,0.032 -1.23,0.15 -2.635,0.261 m -128.195,0.54 c 0.307,0.08 0.81,0.08 1.118,0 0.307,-0.081 0.056,-0.146 -0.559,-0.146 -0.615,0 -0.867,0.065 -0.559,0.146 m 60.271,0.514 c 0.149,0.149 0.756,0.221 1.349,0.159 1.053,-0.108 1.046,-0.115 -0.27,-0.27 -0.742,-0.088 -1.228,-0.038 -1.079,0.111 m 37.892,-0.095 -1.278,0.228 1.358,0.046 c 0.746,0.025 1.357,-0.099 1.357,-0.274 0,-0.176 -0.036,-0.3 -0.08,-0.275 -0.043,0.025 -0.654,0.149 -1.357,0.275 m -87.46,0.236 c 1.098,0.062 2.895,0.062 3.993,0 1.098,-0.062 0.2,-0.113 -1.997,-0.113 -2.196,0 -3.095,0.051 -1.996,0.113 m 74.44,-0.011 c 0.396,0.076 1.043,0.076 1.438,0 0.396,-0.076 0.072,-0.138 -0.719,-0.138 -0.79,0 -1.114,0.062 -0.719,0.138 M 68.787,112.105 c 0.014,0.878 0.122,1.535 0.241,1.462 0.261,-0.161 0.199,-2.594 -0.073,-2.866 -0.105,-0.105 -0.181,0.527 -0.168,1.404 m 262.323,4.029 c 10e-4,1.933 0.053,2.683 0.117,1.666 0.063,-1.017 0.063,-2.598 -10e-4,-3.515 -0.065,-0.916 -0.117,-0.084 -0.116,1.849 m -25.58,-1.278 c 0.002,1.055 0.062,1.447 0.133,0.873 0.071,-0.574 0.069,-1.437 -0.003,-1.917 -0.073,-0.48 -0.131,-0.01 -0.13,1.044 m 25.52,17.626 c -0.033,0.908 -0.142,1.914 -0.243,2.236 -0.173,0.548 -0.161,0.55 0.176,0.025 0.198,-0.308 0.307,-1.315 0.243,-2.236 l -0.117,-1.676 -0.059,1.651 m -262.243,4.099 c 0.001,1.758 0.054,2.436 0.119,1.507 0.065,-0.928 0.064,-2.366 -0.002,-3.195 -0.065,-0.828 -0.118,-0.069 -0.117,1.688 m -0.043,5.911 c 0,0.615 0.066,0.867 0.146,0.559 0.081,-0.307 0.081,-0.811 0,-1.118 -0.08,-0.308 -0.146,-0.056 -0.146,0.559 m 45.693,10.458 c 0.835,0.066 2.2,0.066 3.035,0 0.835,-0.065 0.152,-0.119 -1.518,-0.119 -1.669,0 -2.352,0.054 -1.517,0.119 m 39.776,1.92 c 1.274,0.06 3.359,0.06 4.633,0 1.274,-0.061 0.231,-0.11 -2.316,-0.11 -2.548,0 -3.591,0.049 -2.317,0.11 m 33.707,14.299 c 0.004,0.703 0.069,0.953 0.145,0.556 0.077,-0.398 0.074,-0.973 -0.006,-1.278 -0.08,-0.306 -0.143,0.019 -0.139,0.722 m 116.103,8.227 c 0.081,0.132 0.427,0.24 0.768,0.24 0.341,0 0.62,-0.108 0.62,-0.24 0,-0.132 -0.345,-0.239 -0.768,-0.239 -0.422,0 -0.701,0.107 -0.62,0.239 m -182.405,1.109 c 0.567,0.071 1.574,0.072 2.237,0.003 0.663,-0.069 0.198,-0.127 -1.032,-0.128 -1.23,-0.002 -1.772,0.055 -1.205,0.125 m 8.957,1.274 c 0.397,0.076 0.972,0.073 1.278,-0.007 0.305,-0.08 -0.02,-0.142 -0.723,-0.139 -0.703,0.004 -0.953,0.069 -0.555,0.146 m 120.284,-0.006 c 0.307,0.08 0.81,0.08 1.118,0 0.307,-0.08 0.056,-0.146 -0.559,-0.146 -0.615,0 -0.867,0.066 -0.559,0.146 m -87.822,3.933 c 0,1.845 0.053,2.6 0.118,1.677 0.064,-0.922 0.064,-2.432 0,-3.354 -0.065,-0.923 -0.118,-0.168 -0.118,1.677 m 73.162,3.035 c 0.001,1.757 0.054,2.435 0.119,1.507 0.065,-0.928 0.064,-2.366 -0.001,-3.195 -0.066,-0.829 -0.119,-0.069 -0.118,1.688 m -72.549,7.987 c 0.002,0.879 0.064,1.201 0.138,0.715 0.073,-0.486 0.071,-1.205 -0.005,-1.598 -0.076,-0.393 -0.136,0.005 -0.133,0.883 m 72.193,27.476 c 0.004,0.703 0.069,0.953 0.146,0.556 0.076,-0.398 0.073,-0.973 -0.007,-1.278 -0.08,-0.306 -0.142,0.02 -0.139,0.722 m -72.837,9.425 c 0,0.791 0.063,1.115 0.139,0.719 0.076,-0.395 0.076,-1.042 0,-1.437 -0.076,-0.396 -0.139,-0.072 -0.139,0.718 m 72.862,6.23 c 0.001,1.23 0.059,1.695 0.128,1.032 0.069,-0.663 0.068,-1.67 -0.003,-2.237 -0.07,-0.567 -0.127,-0.025 -0.125,1.205 m -0.018,9.425 c 0,0.791 0.062,1.115 0.138,0.719 0.076,-0.395 0.076,-1.042 0,-1.438 -0.076,-0.395 -0.138,-0.071 -0.138,0.719 m 0,9.266 c 0,0.79 0.062,1.114 0.138,0.718 0.076,-0.395 0.076,-1.042 0,-1.437 -0.076,-0.396 -0.138,-0.072 -0.138,0.719 m -72.844,8.306 c 0,0.791 0.063,1.114 0.139,0.719 0.076,-0.395 0.076,-1.042 0,-1.438 -0.076,-0.395 -0.139,-0.072 -0.139,0.719 m 73.814,5.911 c 0.002,1.054 0.062,1.447 0.133,0.873 0.071,-0.575 0.069,-1.437 -0.004,-1.917 -0.072,-0.48 -0.131,-0.011 -0.129,1.044 m -49.201,8.306 c 0.002,1.055 0.061,1.448 0.132,0.873 0.072,-0.574 0.07,-1.436 -0.003,-1.917 -0.073,-0.48 -0.131,-0.01 -0.129,1.044 m 132.728,12.526 c 0.396,0.076 1.043,0.076 1.438,0 0.395,-0.076 0.072,-0.138 -0.719,-0.138 -0.79,0 -1.114,0.062 -0.719,0.138 m -309.824,0.22 c 0,0.07 0.563,0.18 1.251,0.246 0.688,0.066 1.183,0.009 1.1,-0.126 -0.152,-0.246 -2.351,-0.357 -2.351,-0.12 m 5.307,0.136 c -0.089,0.144 0.262,0.199 0.78,0.123 0.518,-0.076 0.942,-0.193 0.942,-0.261 0,-0.244 -1.563,-0.118 -1.722,0.138 m 65.863,-0.036 c 0.397,0.077 0.972,0.074 1.278,-0.006 0.305,-0.08 -0.02,-0.143 -0.723,-0.139 -0.703,0.003 -0.952,0.069 -0.555,0.145 m 4.633,0.004 c 0.486,0.073 1.205,0.071 1.598,-0.005 0.393,-0.076 -0.005,-0.136 -0.883,-0.133 -0.879,0.002 -1.2,0.064 -0.715,0.138 m 223.323,0 c 0.486,0.073 1.204,0.071 1.597,-0.005 0.393,-0.076 -0.004,-0.136 -0.883,-0.133 -0.878,0.002 -1.2,0.064 -0.714,0.138 m 35.783,0 c 0.485,0.073 1.204,0.071 1.597,-0.005 0.393,-0.076 -0.004,-0.136 -0.883,-0.133 -0.878,0.002 -1.2,0.064 -0.714,0.138 m 3.997,0.005 c 0.752,0.067 1.902,0.066 2.556,-0.002 0.655,-0.069 0.04,-0.124 -1.366,-0.123 -1.406,10e-4 -1.941,0.057 -1.19,0.125 m 23.638,-0.009 c 0.397,0.077 0.972,0.074 1.278,-0.006 0.305,-0.08 -0.02,-0.143 -0.723,-0.139 -0.703,0.003 -0.953,0.069 -0.555,0.145 m 2.875,0 c 0.398,0.077 0.973,0.074 1.278,-0.006 0.306,-0.08 -0.02,-0.143 -0.722,-0.139 -0.703,0.003 -0.953,0.069 -0.556,0.145 m -239.285,1.29 c 1.458,0.06 3.758,0.059 5.111,-10e-4 1.354,-0.059 0.161,-0.108 -2.651,-0.107 -2.811,0 -3.919,0.049 -2.46,0.108 m 109.253,-0.012 c 0.398,0.077 0.973,0.074 1.278,-0.006 0.306,-0.08 -0.02,-0.143 -0.722,-0.139 -0.703,0.003 -0.953,0.069 -0.556,0.145 m 14.533,0.633 c 0.308,0.081 0.811,0.081 1.118,0 0.308,-0.08 0.056,-0.146 -0.559,-0.146 -0.615,0 -0.866,0.066 -0.559,0.146 m 62.188,23.518 c 0.149,0.149 0.756,0.22 1.35,0.159 1.052,-0.108 1.046,-0.115 -0.271,-0.27 -0.742,-0.088 -1.227,-0.038 -1.079,0.111 m -274.488,0.14 c 0.922,0.064 2.432,0.064 3.355,0 0.922,-0.065 0.167,-0.117 -1.678,-0.117 -1.845,0 -2.6,0.052 -1.677,0.117 m 281.949,-0.015 c 0.307,0.08 0.811,0.08 1.118,0 0.308,-0.081 0.056,-0.146 -0.559,-0.146 -0.615,0 -0.867,0.065 -0.559,0.146 m 26.031,0.01 c 0.567,0.071 1.574,0.072 2.236,0.003 0.663,-0.07 0.199,-0.127 -1.031,-0.129 -1.23,-0.001 -1.772,0.055 -1.205,0.126 M 213.506,58.466 c -0.044,0.586 0.131,0.634 2.089,0.578 l 2.137,-0.062 -1.981,-0.113 c -1.574,-0.089 -1.945,-0.208 -1.803,-0.577 0.098,-0.256 0.049,-0.465 -0.108,-0.465 -0.157,0 -0.307,0.288 -0.334,0.639 m 16.132,0.551 c 0.575,0.072 1.437,0.07 1.917,-0.003 0.48,-0.073 0.01,-0.131 -1.044,-0.129 -1.054,0.002 -1.447,0.061 -0.873,0.132 m 15.809,0.002 c 0.659,0.069 1.738,0.069 2.396,0 0.659,-0.069 0.12,-0.126 -1.198,-0.126 -1.318,0 -1.857,0.057 -1.198,0.126 m 45.851,-0.007 c 0.397,0.076 0.972,0.073 1.278,-0.007 0.305,-0.08 -0.02,-0.142 -0.723,-0.138 -0.703,0.003 -0.953,0.068 -0.555,0.145 M 86.505,59.651 c 0.398,0.076 0.973,0.073 1.278,-0.007 0.306,-0.08 -0.019,-0.142 -0.722,-0.139 -0.703,0.004 -0.953,0.069 -0.556,0.146 m 35.939,-0.006 c 0.308,0.081 0.811,0.081 1.118,0 0.308,-0.08 0.056,-0.146 -0.559,-0.146 -0.615,0 -0.866,0.066 -0.559,0.146 m 135.783,0 c 0.307,0.081 0.811,0.081 1.118,0 0.308,-0.08 0.056,-0.146 -0.559,-0.146 -0.615,0 -0.867,0.066 -0.559,0.146 m -117.253,0.328 c 0.484,0.073 1.274,0.073 1.758,0 0.483,-0.073 0.087,-0.133 -0.879,-0.133 -0.966,0 -1.362,0.06 -0.879,0.133 m 29.234,-0.003 c 0.395,0.076 1.042,0.076 1.437,0 0.396,-0.076 0.072,-0.139 -0.718,-0.139 -0.791,0 -1.115,0.063 -0.719,0.139 m 3.844,0.01 c 0.929,0.065 2.366,0.064 3.195,-10e-4 0.829,-0.066 0.069,-0.119 -1.688,-0.118 -1.757,0.001 -2.435,0.055 -1.507,0.119 M 70.889,71.496 c -0.106,0.635 -0.059,0.933 0.118,0.755 0.161,-0.161 0.24,-0.632 0.174,-1.048 -0.1,-0.64 -0.145,-0.595 -0.292,0.293 m 162.498,12.849 -2.556,0.202 2.635,0.059 c 1.584,0.035 2.636,-0.069 2.636,-0.261 0,-0.176 -0.036,-0.293 -0.08,-0.261 -0.044,0.032 -1.23,0.15 -2.635,0.261 m -128.195,0.54 c 0.307,0.08 0.81,0.08 1.118,0 0.307,-0.081 0.056,-0.146 -0.559,-0.146 -0.615,0 -0.867,0.065 -0.559,0.146 m 60.271,0.514 c 0.149,0.149 0.756,0.221 1.349,0.159 1.053,-0.108 1.046,-0.115 -0.27,-0.27 -0.742,-0.088 -1.228,-0.038 -1.079,0.111 m 37.892,-0.095 -1.278,0.228 1.358,0.046 c 0.746,0.025 1.357,-0.099 1.357,-0.274 0,-0.176 -0.036,-0.3 -0.08,-0.275 -0.043,0.025 -0.654,0.149 -1.357,0.275 m -87.46,0.236 c 1.098,0.062 2.895,0.062 3.993,0 1.098,-0.062 0.2,-0.113 -1.997,-0.113 -2.196,0 -3.095,0.051 -1.996,0.113 m 74.44,-0.011 c 0.396,0.076 1.043,0.076 1.438,0 0.396,-0.076 0.072,-0.138 -0.719,-0.138 -0.79,0 -1.114,0.062 -0.719,0.138 M 68.787,112.105 c 0.014,0.878 0.122,1.535 0.241,1.462 0.261,-0.161 0.199,-2.594 -0.073,-2.866 -0.105,-0.105 -0.181,0.527 -0.168,1.404 m 262.323,4.029 c 10e-4,1.933 0.053,2.683 0.117,1.666 0.063,-1.017 0.063,-2.598 -10e-4,-3.515 -0.065,-0.916 -0.117,-0.084 -0.116,1.849 m -25.58,-1.278 c 0.002,1.055 0.062,1.447 0.133,0.873 0.071,-0.574 0.069,-1.437 -0.003,-1.917 -0.073,-0.48 -0.131,-0.01 -0.13,1.044 m 25.52,17.626 c -0.033,0.908 -0.142,1.914 -0.243,2.236 -0.173,0.548 -0.161,0.55 0.176,0.025 0.198,-0.308 0.307,-1.315 0.243,-2.236 l -0.117,-1.676 -0.059,1.651 m -262.243,4.099 c 0.001,1.758 0.054,2.436 0.119,1.507 0.065,-0.928 0.064,-2.366 -0.002,-3.195 -0.065,-0.828 -0.118,-0.069 -0.117,1.688 m -0.043,5.911 c 0,0.615 0.066,0.867 0.146,0.559 0.081,-0.307 0.081,-0.811 0,-1.118 -0.08,-0.308 -0.146,-0.056 -0.146,0.559 m 45.693,10.458 c 0.835,0.066 2.2,0.066 3.035,0 0.835,-0.065 0.152,-0.119 -1.518,-0.119 -1.669,0 -2.352,0.054 -1.517,0.119 m 39.776,1.92 c 1.274,0.06 3.359,0.06 4.633,0 1.274,-0.061 0.231,-0.11 -2.316,-0.11 -2.548,0 -3.591,0.049 -2.317,0.11 m 33.707,14.299 c 0.004,0.703 0.069,0.953 0.145,0.556 0.077,-0.398 0.074,-0.973 -0.006,-1.278 -0.08,-0.306 -0.143,0.019 -0.139,0.722 m 116.103,8.227 c 0.081,0.132 0.427,0.24 0.768,0.24 0.341,0 0.62,-0.108 0.62,-0.24 0,-0.132 -0.345,-0.239 -0.768,-0.239 -0.422,0 -0.701,0.107 -0.62,0.239 m -182.405,1.109 c 0.567,0.071 1.574,0.072 2.237,0.003 0.663,-0.069 0.198,-0.127 -1.032,-0.128 -1.23,-0.002 -1.772,0.055 -1.205,0.125 m 8.957,1.274 c 0.397,0.076 0.972,0.073 1.278,-0.007 0.305,-0.08 -0.02,-0.142 -0.723,-0.139 -0.703,0.004 -0.953,0.069 -0.555,0.146 m 120.284,-0.006 c 0.307,0.08 0.81,0.08 1.118,0 0.307,-0.08 0.056,-0.146 -0.559,-0.146 -0.615,0 -0.867,0.066 -0.559,0.146 m -87.822,3.933 c 0,1.845 0.053,2.6 0.118,1.677 0.064,-0.922 0.064,-2.432 0,-3.354 -0.065,-0.923 -0.118,-0.168 -0.118,1.677 m 73.162,3.035 c 0.001,1.757 0.054,2.435 0.119,1.507 0.065,-0.928 0.064,-2.366 -0.001,-3.195 -0.066,-0.829 -0.119,-0.069 -0.118,1.688 m -72.549,7.987 c 0.002,0.879 0.064,1.201 0.138,0.715 0.073,-0.486 0.071,-1.205 -0.005,-1.598 -0.076,-0.393 -0.136,0.005 -0.133,0.883 m 72.193,27.476 c 0.004,0.703 0.069,0.953 0.146,0.556 0.076,-0.398 0.073,-0.973 -0.007,-1.278 -0.08,-0.306 -0.142,0.02 -0.139,0.722 m -72.837,9.425 c 0,0.791 0.063,1.115 0.139,0.719 0.076,-0.395 0.076,-1.042 0,-1.437 -0.076,-0.396 -0.139,-0.072 -0.139,0.718 m 72.862,6.23 c 0.001,1.23 0.059,1.695 0.128,1.032 0.069,-0.663 0.068,-1.67 -0.003,-2.237 -0.07,-0.567 -0.127,-0.025 -0.125,1.205 m -0.018,9.425 c 0,0.791 0.062,1.115 0.138,0.719 0.076,-0.395 0.076,-1.042 0,-1.438 -0.076,-0.395 -0.138,-0.071 -0.138,0.719 m 0,9.266 c 0,0.79 0.062,1.114 0.138,0.718 0.076,-0.395 0.076,-1.042 0,-1.437 -0.076,-0.396 -0.138,-0.072 -0.138,0.719 m -72.844,8.306 c 0,0.791 0.063,1.114 0.139,0.719 0.076,-0.395 0.076,-1.042 0,-1.438 -0.076,-0.395 -0.139,-0.072 -0.139,0.719 m 73.814,5.911 c 0.002,1.054 0.062,1.447 0.133,0.873 0.071,-0.575 0.069,-1.437 -0.004,-1.917 -0.072,-0.48 -0.131,-0.011 -0.129,1.044 m -49.201,8.306 c 0.002,1.055 0.061,1.448 0.132,0.873 0.072,-0.574 0.07,-1.436 -0.003,-1.917 -0.073,-0.48 -0.131,-0.01 -0.129,1.044 m 132.728,12.526 c 0.396,0.076 1.043,0.076 1.438,0 0.395,-0.076 0.072,-0.138 -0.719,-0.138 -0.79,0 -1.114,0.062 -0.719,0.138 m -309.824,0.22 c 0,0.07 0.563,0.18 1.251,0.246 0.688,0.066 1.183,0.009 1.1,-0.126 -0.152,-0.246 -2.351,-0.357 -2.351,-0.12 m 5.307,0.136 c -0.089,0.144 0.262,0.199 0.78,0.123 0.518,-0.076 0.942,-0.193 0.942,-0.261 0,-0.244 -1.563,-0.118 -1.722,0.138 m 65.863,-0.036 c 0.397,0.077 0.972,0.074 1.278,-0.006 0.305,-0.08 -0.02,-0.143 -0.723,-0.139 -0.703,0.003 -0.952,0.069 -0.555,0.145 m 4.633,0.004 c 0.486,0.073 1.205,0.071 1.598,-0.005 0.393,-0.076 -0.005,-0.136 -0.883,-0.133 -0.879,0.002 -1.2,0.064 -0.715,0.138 m 223.323,0 c 0.486,0.073 1.204,0.071 1.597,-0.005 0.393,-0.076 -0.004,-0.136 -0.883,-0.133 -0.878,0.002 -1.2,0.064 -0.714,0.138 m 35.783,0 c 0.485,0.073 1.204,0.071 1.597,-0.005 0.393,-0.076 -0.004,-0.136 -0.883,-0.133 -0.878,0.002 -1.2,0.064 -0.714,0.138 m 3.997,0.005 c 0.752,0.067 1.902,0.066 2.556,-0.002 0.655,-0.069 0.04,-0.124 -1.366,-0.123 -1.406,10e-4 -1.941,0.057 -1.19,0.125 m 23.638,-0.009 c 0.397,0.077 0.972,0.074 1.278,-0.006 0.305,-0.08 -0.02,-0.143 -0.723,-0.139 -0.703,0.003 -0.953,0.069 -0.555,0.145 m 2.875,0 c 0.398,0.077 0.973,0.074 1.278,-0.006 0.306,-0.08 -0.02,-0.143 -0.722,-0.139 -0.703,0.003 -0.953,0.069 -0.556,0.145 m -239.285,1.29 c 1.458,0.06 3.758,0.059 5.111,-10e-4 1.354,-0.059 0.161,-0.108 -2.651,-0.107 -2.811,0 -3.919,0.049 -2.46,0.108 m 109.253,-0.012 c 0.398,0.077 0.973,0.074 1.278,-0.006 0.306,-0.08 -0.02,-0.143 -0.722,-0.139 -0.703,0.003 -0.953,0.069 -0.556,0.145 m 14.533,0.633 c 0.308,0.081 0.811,0.081 1.118,0 0.308,-0.08 0.056,-0.146 -0.559,-0.146 -0.615,0 -0.866,0.066 -0.559,0.146 m 62.188,23.518 c 0.149,0.149 0.756,0.22 1.35,0.159 1.052,-0.108 1.046,-0.115 -0.271,-0.27 -0.742,-0.088 -1.227,-0.038 -1.079,0.111 m -274.488,0.14 c 0.922,0.064 2.432,0.064 3.355,0 0.922,-0.065 0.167,-0.117 -1.678,-0.117 -1.845,0 -2.6,0.052 -1.677,0.117 m 281.949,-0.015 c 0.307,0.08 0.811,0.08 1.118,0 0.308,-0.081 0.056,-0.146 -0.559,-0.146 -0.615,0 -0.867,0.065 -0.559,0.146 m 26.031,0.01 c 0.567,0.071 1.574,0.072 2.236,0.003 0.663,-0.07 0.199,-0.127 -1.031,-0.129 -1.23,-0.001 -1.772,0.055 -1.205,0.126 M 188.005,0.343 c -0.17,0.274 -0.108,0.317 0.204,0.139 0.363,-0.207 0.373,-0.174 0.05,0.174 -0.22,0.237 -0.4,0.749 -0.4,1.138 0,0.39 -0.136,0.757 -0.303,0.815 -0.167,0.059 -0.387,0.826 -0.489,1.704 -0.101,0.879 -0.234,1.885 -0.294,2.237 -0.061,0.351 -0.128,0.97 -0.151,1.376 -0.022,0.406 -0.184,0.649 -0.359,0.541 -0.212,-0.131 -0.212,0.084 -0.001,0.638 0.211,0.555 0.211,0.77 -0.001,0.639 -0.175,-0.108 -0.319,-0.057 -0.319,0.115 0,0.171 0.129,0.359 0.287,0.418 0.236,0.088 0.766,4.276 0.76,6.017 0,0.264 0.159,0.686 0.355,0.94 0.196,0.253 0.212,0.375 0.036,0.27 -0.204,-0.123 -0.306,0.807 -0.282,2.574 0.041,2.946 -0.517,8.148 -0.916,8.544 -0.395,0.394 -0.275,2.368 0.144,2.368 0.298,0 0.298,0.086 0,0.384 -0.211,0.211 -0.381,0.534 -0.379,0.719 0.003,0.184 0.145,0.119 0.315,-0.144 0.225,-0.348 0.322,-0.041 0.355,1.118 0.025,0.879 0.091,1.957 0.146,2.396 0.055,0.44 0.124,1.805 0.152,3.035 0.029,1.23 0.198,2.417 0.377,2.636 0.18,0.22 0.195,0.4 0.036,0.4 -0.163,0 -0.209,0.852 -0.105,1.938 0.102,1.067 0.085,2.001 -0.038,2.077 -0.364,0.225 -0.338,7.415 0.028,7.641 0.18,0.111 0.327,0.346 0.327,0.522 0,0.176 -0.118,0.247 -0.262,0.158 -0.36,-0.223 -0.048,1.734 0.401,2.52 0.201,0.351 0.341,0.854 0.31,1.118 -0.031,0.264 -0.072,0.789 -0.093,1.167 -0.04,0.756 -1.182,1.281 -2.672,1.23 -0.484,-0.017 -0.879,0.084 -0.879,0.224 0,0.14 -1.15,0.254 -2.556,0.254 -1.406,0 -2.556,-0.107 -2.556,-0.239 0,-0.132 -2.192,-0.24 -4.872,-0.24 -5.496,0 -11.146,-0.369 -11.407,-0.744 -0.096,-0.138 -0.797,-0.239 -1.557,-0.224 -0.761,0.015 -1.452,-0.084 -1.537,-0.221 -0.27,-0.437 -9.519,-0.298 -10.003,0.151 -0.347,0.322 -0.382,0.316 -0.185,-0.032 0.194,-0.342 0.115,-0.362 -0.381,-0.096 -0.344,0.184 -0.972,0.258 -1.396,0.164 -0.503,-0.112 -0.632,-0.072 -0.371,0.115 0.522,0.374 -5.99,1.217 -7.007,0.907 -0.407,-0.124 -1.244,-0.294 -1.859,-0.378 -0.615,-0.085 -1.255,-0.29 -1.422,-0.457 -0.167,-0.167 -0.454,-0.301 -0.639,-0.298 -0.184,0.003 -0.119,0.16 0.144,0.349 0.384,0.276 0.352,0.298 -0.16,0.11 -1.552,-0.572 -5.412,-0.95 -5.136,-0.504 0.147,0.237 -0.084,0.29 -0.719,0.163 -0.515,-0.103 -1.241,-0.024 -1.613,0.176 -0.447,0.239 -0.678,0.25 -0.678,0.032 0,-0.47 -0.879,-0.412 -1.039,0.068 -0.105,0.315 -4.536,0.384 -20.989,0.326 -22.209,-0.078 -23.962,0.041 -23.984,1.631 -0.003,0.202 -0.129,0.164 -0.289,-0.089 -0.228,-0.361 -0.443,-0.277 -1.097,0.428 -0.485,0.524 -0.968,0.781 -1.198,0.639 -0.244,-0.151 -0.302,-0.103 -0.157,0.131 0.125,0.203 0.076,0.387 -0.11,0.409 -1.083,0.127 -2.256,0.616 -2.256,0.94 0,0.164 -0.215,0.298 -0.479,0.298 -0.264,0 -0.479,0.152 -0.479,0.338 0,0.186 -0.145,0.249 -0.322,0.14 -0.177,-0.11 -0.408,0.025 -0.513,0.298 -0.105,0.274 -0.315,0.421 -0.468,0.327 -0.153,-0.095 -0.523,0.114 -0.822,0.464 -0.3,0.35 -0.663,0.563 -0.808,0.474 -0.144,-0.089 -0.262,-0.044 -0.262,0.099 0,0.144 -0.303,0.451 -0.672,0.682 -0.37,0.231 -0.577,0.265 -0.461,0.077 0.292,-0.473 -0.102,-0.432 -0.595,0.061 -0.269,0.269 -0.382,1.229 -0.338,2.868 0.036,1.356 -0.043,2.397 -0.176,2.315 -0.133,-0.082 -0.265,1.532 -0.294,3.588 -0.028,2.055 -0.175,3.886 -0.325,4.07 -0.26,0.316 -0.352,0.747 -0.838,3.927 -0.114,0.747 -0.335,1.358 -0.491,1.358 -0.155,0 -0.283,0.296 -0.283,0.658 0,0.362 0.144,0.569 0.32,0.46 0.207,-0.128 0.317,1.407 0.314,4.374 -0.003,2.977 -0.109,4.406 -0.305,4.097 -0.206,-0.326 -0.261,-0.052 -0.177,0.874 0.068,0.741 0.004,1.421 -0.142,1.512 -0.146,0.09 -0.209,2.645 -0.139,5.676 0.07,3.032 0.131,6.045 0.137,6.696 0.005,0.652 0.143,1.268 0.308,1.37 0.181,0.112 0.159,0.491 -0.055,0.962 -0.265,0.582 -0.258,0.894 0.027,1.238 0.281,0.339 0.287,0.519 0.021,0.684 -0.198,0.122 -0.277,0.558 -0.174,0.967 0.103,0.409 0.027,0.843 -0.168,0.964 -0.248,0.153 -0.224,0.301 0.079,0.493 0.349,0.222 0.351,0.276 0.012,0.28 -0.344,0.004 -0.374,1.566 -0.167,8.551 0.139,4.701 0.255,10.942 0.258,13.87 0.002,2.927 0.113,5.255 0.247,5.173 0.134,-0.083 0.243,0.289 0.243,0.827 0,0.537 -0.108,0.977 -0.24,0.977 -0.131,10e-4 -0.286,1.258 -0.344,2.796 -0.153,4.104 -0.067,5.605 0.344,6.017 0.132,0.131 0.238,0.395 0.235,0.585 -0.003,0.191 -0.144,0.131 -0.314,-0.133 -0.187,-0.288 -0.312,-0.327 -0.315,-0.099 -0.003,0.21 0.12,0.458 0.272,0.552 0.153,0.094 0.361,0.786 0.463,1.537 0.169,1.233 0.392,2.375 0.547,2.802 0.033,0.088 0.036,0.526 0.008,0.974 -0.028,0.447 0.277,1.231 0.679,1.742 0.401,0.51 0.517,0.802 0.257,0.649 -0.268,-0.158 -0.196,0.046 0.165,0.469 0.352,0.412 0.46,0.644 0.24,0.516 -0.22,-0.129 -0.399,-0.097 -0.399,0.07 0,0.168 0.224,0.391 0.499,0.496 0.275,0.105 0.417,0.325 0.317,0.488 -0.101,0.162 0.01,0.49 0.247,0.726 0.386,0.386 0.809,1.646 0.92,2.736 0.022,0.22 0.155,0.4 0.296,0.4 0.141,0 0.165,0.239 0.052,0.531 -0.137,0.358 -0.081,0.456 0.17,0.301 0.243,-0.15 0.374,0.019 0.374,0.481 0,0.392 0.206,0.941 0.459,1.22 0.252,0.279 0.531,0.903 0.618,1.386 0.268,1.479 0.574,2.285 1.087,2.87 0.27,0.307 0.361,0.561 0.202,0.564 -0.159,0.002 -0.074,0.144 0.19,0.314 0.279,0.18 4.153,0.314 9.265,0.32 4.832,0.005 8.603,0.126 8.38,0.268 -0.224,0.141 2.22,0.282 5.431,0.312 3.211,0.03 6.125,0.116 6.477,0.192 0.351,0.076 1.042,0.148 1.536,0.162 0.494,0.013 0.824,0.143 0.735,0.287 -0.297,0.481 9.293,0.644 13.435,0.228 1.434,-0.144 2.871,-0.142 3.195,0.005 0.323,0.147 0.731,0.287 0.907,0.311 0.176,0.025 1.146,0.157 2.156,0.295 1.011,0.137 1.838,0.341 1.838,0.453 0.001,0.111 0.72,0.204 1.598,0.205 0.878,0.001 1.596,-0.107 1.596,-0.24 0,-0.133 2.444,-0.242 5.432,-0.242 2.987,0 5.431,0.11 5.431,0.243 0,0.348 1.392,0.426 10.543,0.592 4.481,0.082 8.342,0.216 8.58,0.299 0.345,0.119 0.408,1.036 0.311,4.46 -0.067,2.371 -0.01,4.31 0.129,4.31 0.138,0 0.07,0.292 -0.151,0.649 -0.333,0.537 -0.32,0.7 0.077,0.947 0.534,0.332 0.632,28.014 0.101,28.404 -0.411,0.302 -0.644,6.585 -0.423,11.374 0.065,1.406 0.025,4.174 -0.09,6.15 -0.138,2.401 -0.097,3.595 0.124,3.595 0.182,0 0.243,0.275 0.137,0.612 -0.107,0.336 -0.057,0.697 0.111,0.801 0.168,0.103 0.406,1.266 0.529,2.582 0.265,2.822 -0.078,7.281 -0.538,6.997 -0.172,-0.107 -0.277,0 -0.233,0.238 0.123,0.653 -0.377,3.121 -0.669,3.301 -0.35,0.217 -0.349,4.387 0.001,4.809 0.155,0.186 0.318,0.871 0.362,1.522 0.044,0.65 0.177,1.182 0.295,1.182 0.496,0 -0.134,9.565 -0.706,10.727 -0.194,0.393 -0.285,2.62 -0.223,5.481 0.057,2.65 0.006,4.758 -0.114,4.684 -0.12,-0.075 -0.203,0.262 -0.186,0.748 0.06,1.641 -0.474,5.506 -0.739,5.342 -0.144,-0.089 -0.206,0.127 -0.138,0.479 0.068,0.353 -0.014,0.726 -0.182,0.829 -0.168,0.104 -0.222,0.323 -0.121,0.486 0.101,0.164 -0.041,0.298 -0.315,0.298 -0.273,0 -0.498,0.168 -0.498,0.373 0,0.205 -0.089,0.283 -0.197,0.174 -0.109,-0.108 -0.407,0.012 -0.662,0.267 -0.393,0.393 -6.057,0.76 -7.561,0.49 -0.15,-0.027 -0.453,0.101 -0.673,0.283 -0.22,0.183 -0.852,0.242 -1.404,0.131 -0.65,-0.13 -1.004,-0.074 -1.004,0.159 0,0.387 -1.986,0.504 -2.352,0.138 -0.122,-0.122 -2.841,-0.24 -6.043,-0.263 -3.203,-0.022 -7.476,-0.14 -9.497,-0.262 -2.02,-0.123 -8.1,-0.256 -13.51,-0.297 -6.802,-0.052 -9.906,-0.185 -10.064,-0.431 -0.261,-0.408 -6.458,-0.462 -6.458,-0.056 0,0.139 -1.293,0.252 -2.875,0.252 -1.704,0 -2.875,-0.13 -2.875,-0.319 0,-0.176 -0.153,-0.32 -0.339,-0.32 -0.186,0 -0.249,0.144 -0.141,0.32 0.109,0.175 0.046,0.319 -0.14,0.319 -0.187,0 -0.339,-0.14 -0.339,-0.311 0,-0.19 -1.668,-0.283 -4.281,-0.239 -2.452,0.041 -4.206,0.195 -4.104,0.36 0.1,0.163 -0.006,0.176 -0.244,0.029 -0.614,-0.38 -9.791,-0.504 -10.734,-0.145 -0.528,0.2 -0.734,0.196 -0.604,-0.014 0.108,-0.175 0.044,-0.319 -0.142,-0.319 -0.186,0 -0.338,0.144 -0.338,0.32 0,0.175 -0.503,0.319 -1.118,0.319 -0.615,0 -1.119,-0.108 -1.119,-0.239 -0.001,-0.28 -2.416,-0.492 -5.591,-0.491 -2.981,0 -4.632,0.171 -4.632,0.478 0,0.414 -3.351,0.285 -3.817,-0.147 -0.344,-0.32 -0.385,-0.32 -0.205,0 0.263,0.465 -0.32,0.551 -0.605,0.089 -0.235,-0.381 -13.584,-0.337 -13.584,0.045 0,0.33 -8.111,0.355 -8.44,0.026 -0.132,-0.132 -0.479,-0.249 -0.772,-0.259 -1.319,-0.048 -3.887,-0.542 -3.887,-0.748 0,-0.125 -1.006,-0.23 -2.236,-0.234 -1.23,-0.003 -2.237,0.087 -2.237,0.199 0,0.27 -5.811,0.908 -7.717,0.849 -0.818,-0.026 -1.421,0.061 -1.339,0.193 0.081,0.131 -0.435,0.239 -1.149,0.239 -0.713,0 -1.296,-0.144 -1.296,-0.319 0,-0.176 -0.153,-0.32 -0.339,-0.32 -0.186,0 -0.25,0.142 -0.143,0.316 0.107,0.174 0.008,0.249 -0.221,0.167 -0.229,-0.082 -1.35,-0.213 -2.492,-0.293 -1.143,-0.079 -2.978,-0.241 -4.08,-0.359 -3.122,-0.337 -3.459,-0.164 -3.55,1.828 -0.042,0.922 -0.194,1.824 -0.337,2.006 -0.144,0.181 -0.238,1.12 -0.21,2.086 0.029,0.967 -0.042,1.901 -0.158,2.077 -0.219,0.331 -0.587,4.201 -0.602,6.329 -0.005,0.669 -0.117,1.15 -0.249,1.068 -0.131,-0.081 -0.246,0.306 -0.253,0.86 -0.008,0.554 -0.207,2.624 -0.442,4.598 -0.431,3.619 -0.142,5.44 0.662,4.173 0.145,-0.228 0.265,-0.263 0.268,-0.078 0.003,0.185 0.606,0.372 1.34,0.416 0.734,0.043 1.489,0.179 1.677,0.302 0.188,0.123 0.918,0.237 1.621,0.253 0.702,0.016 3.382,0.146 5.954,0.288 2.572,0.141 4.944,0.151 5.272,0.021 0.327,-0.129 1.996,-0.254 3.71,-0.277 1.713,-0.023 3.115,-0.154 3.115,-0.291 0,-0.138 0.934,-0.25 2.076,-0.25 1.143,0 2.077,0.14 2.077,0.31 0,0.171 0.572,0.262 1.27,0.203 0.702,-0.059 1.191,0.022 1.092,0.181 -0.105,0.171 3.123,0.206 7.915,0.087 14.775,-0.369 15.759,-0.375 16.115,-0.097 0.491,0.384 6.018,0.469 7.953,0.122 1.769,-0.317 2.69,-0.317 8.375,0.008 2.145,0.122 4.158,0.116 4.472,-0.014 0.548,-0.226 16.215,-0.28 16.653,-0.057 0.948,0.482 9.805,0.42 10.399,-0.074 0.229,-0.189 0.492,-0.267 0.586,-0.173 0.176,0.176 0.597,0.256 3.205,0.613 0.835,0.115 1.518,0.318 1.518,0.453 0,0.315 3.799,0.203 4.605,-0.136 0.479,-0.201 0.552,-0.158 0.338,0.197 -0.229,0.38 -0.19,0.386 0.242,0.036 0.531,-0.43 15.685,-0.401 20.853,0.04 1.776,0.152 9.673,0.493 14.537,0.628 0.439,0.012 1.589,-0.085 2.556,-0.216 0.966,-0.131 2.08,-0.257 2.476,-0.28 0.395,-0.023 0.719,-0.157 0.719,-0.298 0,-0.14 1.941,-0.255 4.313,-0.255 2.662,0 4.313,0.122 4.313,0.319 0,0.176 0.287,0.32 0.639,0.32 0.351,0 0.639,-0.127 0.639,-0.282 0,-0.274 1.194,-0.781 1.677,-0.711 0.132,0.019 0.24,-0.109 0.24,-0.285 0,-0.176 0.108,-0.301 0.239,-0.278 0.413,0.072 2.317,-0.808 2.317,-1.07 0,-0.137 0.198,-0.25 0.44,-0.25 0.242,0 0.622,-0.218 0.844,-0.486 0.222,-0.268 0.65,-0.408 0.952,-0.312 0.302,0.096 0.737,-0.053 0.967,-0.33 0.591,-0.712 1.754,-1.322 1.413,-0.74 -0.139,0.237 0.059,0.157 0.441,-0.178 0.381,-0.335 0.693,-0.509 0.693,-0.387 0,0.122 0.201,0.037 0.446,-0.19 0.245,-0.226 0.381,-0.52 0.301,-0.651 -0.08,-0.132 0.126,-0.24 0.457,-0.24 0.601,0 2.366,-1.579 1.807,-1.618 -0.162,-0.011 0.038,-0.153 0.444,-0.316 0.407,-0.164 0.651,-0.44 0.543,-0.615 -0.108,-0.176 -0.01,-0.249 0.219,-0.162 0.234,0.087 0.662,-0.278 0.978,-0.833 0.309,-0.545 0.848,-1.065 1.198,-1.156 0.35,-0.092 0.636,-0.366 0.636,-0.609 0,-0.243 0.216,-0.442 0.479,-0.442 0.518,0 1.758,-1.099 1.758,-1.558 0,-0.154 0.228,-0.47 0.506,-0.701 0.341,-0.283 0.448,-0.715 0.328,-1.317 -0.099,-0.493 -0.07,-0.897 0.064,-0.897 0.133,0 0.267,-0.251 0.296,-0.559 0.228,-2.375 0.528,-3.913 0.763,-3.913 0.154,0 0.262,-0.108 0.241,-0.24 -0.021,-0.132 -0.011,-0.312 0.022,-0.399 0.033,-0.088 0.115,-0.578 0.181,-1.09 0.067,-0.511 0.26,-1.015 0.429,-1.119 0.169,-0.104 0.317,-0.549 0.329,-0.987 0.056,-2.065 0.859,-8.02 1.054,-7.823 0.121,0.123 0.205,-1.841 0.186,-4.363 -0.036,-4.773 0.306,-9.263 0.725,-9.539 0.241,-0.158 0.357,-2.787 0.351,-7.987 -0.005,-4.811 -0.063,-5.596 -0.381,-5.095 -0.199,0.315 -0.294,-0.066 -0.297,-1.196 -0.003,-0.912 0.148,-1.753 0.336,-1.869 0.188,-0.116 0.261,-0.42 0.164,-0.675 -0.1,-0.258 -0.039,-0.377 0.138,-0.268 0.181,0.112 0.315,-0.213 0.315,-0.763 0,-0.527 0.144,-1.048 0.32,-1.156 0.435,-0.269 0.427,-11.426 -0.009,-11.862 -0.18,-0.18 -0.36,-0.784 -0.399,-1.341 -0.039,-0.557 -0.143,-1.013 -0.231,-1.014 -0.241,-0.001 -0.107,-17.015 0.138,-17.604 0.117,-0.282 0.189,-0.641 0.159,-0.799 -0.229,-1.227 0.079,-10.993 0.342,-10.831 0.207,0.129 0.318,-1.459 0.314,-4.533 -0.003,-3.173 -0.106,-4.574 -0.314,-4.253 -0.212,0.329 -0.311,-0.45 -0.315,-2.476 -0.003,-1.76 0.125,-2.955 0.315,-2.955 0.178,0 0.319,-0.858 0.319,-1.936 0,-1.064 -0.12,-1.861 -0.268,-1.77 -0.234,0.145 -0.357,-0.792 -0.469,-3.562 -0.016,-0.396 -0.108,-0.719 -0.205,-0.719 -0.097,0 -0.143,-2.372 -0.103,-5.271 0.041,-2.9 -0.047,-5.272 -0.193,-5.272 -0.147,0 -0.364,-1.043 -0.483,-2.316 -0.281,-3.018 0.129,-13.836 0.503,-13.278 0.182,0.271 0.249,0.035 0.19,-0.672 -0.055,-0.662 -0.278,-1.125 -0.569,-1.181 -1.844,-0.353 -2.423,-0.521 -2.767,-0.806 -0.214,-0.178 -0.65,-0.281 -0.968,-0.228 -0.562,0.094 -2.205,-0.416 -3.407,-1.058 -0.46,-0.246 -0.536,-0.222 -0.338,0.106 0.173,0.287 0.065,0.269 -0.335,-0.056 -0.325,-0.264 -0.638,-0.447 -0.697,-0.408 -0.148,0.097 -1.114,-0.214 -1.795,-0.579 -0.31,-0.166 -0.943,-0.206 -1.406,-0.09 -0.592,0.149 -0.775,0.103 -0.616,-0.154 0.124,-0.202 0.11,-0.37 -0.032,-0.374 -1.155,-0.035 -3.805,-0.434 -3.933,-0.593 -0.264,-0.327 -2.995,-0.432 -10.064,-0.386 -7.758,0.05 -12.928,-0.22 -12.265,-0.639 0.354,-0.225 0.331,-0.283 -0.115,-0.286 -0.308,-0.003 -0.559,0.124 -0.559,0.283 0,0.158 -0.655,0.091 -1.456,-0.15 -1.047,-0.315 -3.453,-0.436 -8.592,-0.432 -7.277,0.005 -10.408,-0.208 -10.752,-0.734 -0.229,-0.352 -1.791,-0.375 -9.392,-0.142 -5.429,0.167 -9.744,-0.165 -9.744,-0.749 0,-0.129 -2.912,-0.266 -6.47,-0.305 -3.558,-0.039 -6.778,-0.093 -7.156,-0.122 -0.703,-0.052 -1.353,-3.324 -0.739,-3.725 0.289,-0.189 0.315,-6.39 0.026,-6.389 -0.109,0 -0.159,-3.882 -0.112,-8.627 0.056,-5.699 -0.025,-8.626 -0.24,-8.626 -0.198,0 -0.325,-1.194 -0.325,-3.054 0,-1.991 0.113,-2.984 0.325,-2.853 0.212,0.131 0.279,-0.472 0.193,-1.738 -0.074,-1.079 -10e-4,-1.94 0.164,-1.94 0.164,0 0.272,-0.934 0.241,-2.076 -0.035,-1.265 -0.195,-2.079 -0.411,-2.082 -0.194,-0.002 -0.137,-0.144 0.127,-0.314 0.263,-0.171 0.324,-0.312 0.135,-0.315 -0.23,-0.003 -0.303,-0.964 -0.221,-2.88 0.082,-1.892 0.008,-2.876 -0.214,-2.876 -0.209,0 -0.337,-0.893 -0.334,-2.316 0.003,-1.62 0.098,-2.172 0.316,-1.837 0.216,0.333 0.268,-0.003 0.169,-1.103 -0.078,-0.87 0.004,-1.758 0.182,-1.973 0.191,-0.23 0.316,-2.437 0.305,-5.367 -0.013,-3.126 0.099,-4.976 0.3,-4.976 0.176,0 0.32,-0.359 0.32,-0.798 v -0.799 l 4.713,-0.066 c 5.631,-0.08 9.764,0.062 9.984,0.342 0.203,0.259 13.843,0.269 14.057,0.01 0.135,-0.164 1.526,-0.284 7.828,-0.676 1.228,-0.077 4.304,0.465 4.141,0.729 -0.091,0.146 2.642,0.259 6.072,0.249 3.43,-0.009 6.168,-0.127 6.085,-0.262 -0.145,-0.234 1.899,-0.625 3.75,-0.718 0.483,-0.024 0.878,-0.161 0.878,-0.305 0,-0.315 4.593,-0.354 4.905,-0.042 0.243,0.242 0.859,0.358 3.242,0.607 0.879,0.092 1.645,0.303 1.704,0.469 0.059,0.166 0.678,0.302 1.377,0.302 0.698,0 1.195,-0.121 1.103,-0.27 -0.092,-0.148 0.583,-0.146 1.499,0.005 0.916,0.151 3.319,0.259 5.339,0.241 2.021,-0.018 3.905,0.059 4.188,0.172 0.282,0.112 3.085,0.12 6.23,0.016 7.076,-0.234 8.724,-0.256 14.343,-0.193 2.46,0.028 5.227,-0.077 6.15,-0.232 0.923,-0.155 1.677,-0.16 1.677,-0.011 0,0.15 0.252,0.27 0.559,0.267 0.446,-0.004 0.469,-0.062 0.116,-0.286 -0.713,-0.451 2.22,-0.589 11.945,-0.562 8.365,0.023 17.906,-0.306 18.451,-0.637 0.131,-0.08 0.239,-0.009 0.239,0.158 0,0.167 1.114,0.317 2.476,0.334 1.362,0.017 5.352,0.094 8.866,0.172 3.514,0.077 7.369,0.151 8.565,0.164 1.364,0.014 2.102,0.142 1.978,0.343 -0.124,0.201 0.636,0.319 2.058,0.319 1.291,0 2.255,-0.137 2.255,-0.319 0,-0.199 1.751,-0.32 4.614,-0.32 2.731,0 4.694,0.13 4.811,0.32 0.281,0.454 2.637,0.397 2.792,-0.068 0.175,-0.527 9.585,-0.501 9.761,0.027 0.066,0.198 0.719,0.358 1.451,0.355 0.978,-0.003 1.204,-0.087 0.852,-0.314 -0.338,-0.219 0.179,-0.329 1.758,-0.373 4.607,-0.13 10.179,0.042 10.358,0.319 0.101,0.159 1.011,0.309 2.022,0.334 1.01,0.026 2.017,0.069 2.236,0.096 0.271,0.033 0.387,0.611 0.359,1.788 -0.022,0.957 0.064,1.57 0.192,1.364 0.128,-0.207 0.328,0.658 0.446,1.922 0.117,1.264 0.292,2.425 0.389,2.581 0.096,0.156 0.165,3.768 0.152,8.027 -0.015,5.206 0.081,7.586 0.293,7.264 0.293,-0.444 0.521,2.162 0.343,3.914 -0.032,0.307 0.095,0.559 0.282,0.559 0.199,0 0.34,0.729 0.34,1.757 0,0.967 -0.126,1.757 -0.28,1.757 -0.154,0 -0.306,1.474 -0.336,3.275 -0.031,1.801 -0.193,3.412 -0.359,3.578 -0.167,0.167 -0.301,1.246 -0.298,2.397 0.003,1.469 0.097,1.949 0.314,1.613 0.214,-0.331 0.312,0.337 0.315,2.157 0.003,1.89 0.118,2.637 0.404,2.64 0.307,0.004 0.311,0.062 0.015,0.25 -0.263,0.167 -0.386,1.397 -0.389,3.883 -0.002,2.259 -0.134,3.719 -0.348,3.852 -0.232,0.143 -0.314,2.038 -0.251,5.776 l 0.095,5.563 -4.314,0.045 c -2.372,0.025 -6.604,0.059 -9.404,0.077 -2.8,0.018 -5.174,0.167 -5.275,0.33 -0.158,0.256 -2.357,0.681 -3.851,0.743 -0.263,0.011 -0.552,0.13 -0.641,0.264 -0.089,0.134 -5.696,0.332 -12.46,0.439 -6.764,0.108 -14.383,0.291 -16.931,0.408 -2.548,0.117 -5.348,0.193 -6.222,0.169 -0.874,-0.023 -1.665,0.077 -1.757,0.224 -0.092,0.147 -3.331,0.348 -7.197,0.447 -8.689,0.223 -10.063,0.306 -10.063,0.608 0,0.132 -0.342,0.24 -0.759,0.24 -1.243,0 -2.757,0.379 -2.59,0.648 0.085,0.138 -0.133,0.176 -0.485,0.084 -0.457,-0.12 -0.639,-0.01 -0.639,0.383 0,0.344 -0.17,0.486 -0.453,0.377 -0.249,-0.095 -0.522,0.006 -0.606,0.225 -0.084,0.219 -0.74,0.574 -1.459,0.79 -0.718,0.215 -1.454,0.668 -1.635,1.007 -0.207,0.387 -0.521,0.542 -0.844,0.418 -0.308,-0.118 -0.634,0.018 -0.813,0.339 -0.165,0.294 -0.42,0.461 -0.566,0.37 -0.147,-0.09 -0.349,0.05 -0.45,0.313 -0.101,0.263 -0.388,0.477 -0.638,0.477 -0.429,0 -0.934,0.731 -0.993,1.438 -0.015,0.176 -0.153,0.521 -0.307,0.768 -0.208,0.332 -0.164,0.382 0.168,0.193 0.363,-0.207 0.372,-0.174 0.049,0.174 -0.219,0.237 -0.4,0.653 -0.401,0.926 -0.001,0.272 -0.197,0.869 -0.436,1.327 -0.239,0.457 -0.532,1.488 -0.653,2.29 -0.12,0.802 -0.41,1.618 -0.645,1.812 -0.297,0.247 -0.441,1.339 -0.477,3.619 -0.028,1.795 -0.189,3.402 -0.357,3.57 -0.419,0.419 -0.405,9.222 0.014,8.963 0.176,-0.108 0.32,0.107 0.32,0.479 0,0.396 -0.141,0.59 -0.339,0.468 -0.234,-0.145 -0.308,0.982 -0.24,3.625 0.055,2.11 0.023,3.788 -0.071,3.729 -0.191,-0.119 -0.375,2.279 -0.381,4.958 -0.008,3.36 0.158,5.431 0.434,5.431 0.152,0 0.277,0.153 0.277,0.339 0,0.186 -0.143,0.249 -0.318,0.141 -0.212,-0.131 -0.212,0.084 -0.001,0.639 0.174,0.459 0.188,0.755 0.031,0.658 -0.166,-0.103 -0.298,2.726 -0.313,6.691 -0.017,4.303 0.09,6.868 0.287,6.868 0.173,0 0.314,0.152 0.314,0.338 0,0.186 -0.108,0.271 -0.239,0.189 -0.132,-0.082 -0.168,1.793 -0.08,4.166 0.088,2.374 0.088,4.359 0,4.413 -0.124,0.076 -0.125,22.793 -10e-4,23.482 0.015,0.088 0.016,2.58 10e-4,5.538 -0.016,3.16 0.093,5.304 0.264,5.199 0.164,-0.101 0.314,0.907 0.344,2.307 0.029,1.368 0.12,3.342 0.202,4.386 0.081,1.044 0.17,3.799 0.197,6.121 0.027,2.322 0.171,4.146 0.319,4.054 0.149,-0.092 0.284,0.596 0.299,1.529 0.015,0.933 0.079,2.2 0.143,2.815 0.063,0.615 0.193,2.196 0.288,3.514 0.095,1.318 0.409,3.834 0.698,5.591 0.288,1.757 0.505,3.662 0.483,4.233 -0.023,0.571 0.086,1.039 0.244,1.039 0.266,0 0.586,1.574 0.727,3.577 0.034,0.474 0.179,0.789 0.323,0.7 0.143,-0.089 0.261,0.216 0.261,0.677 0,1.088 0.537,2.074 1.129,2.074 0.258,0 0.468,0.144 0.468,0.32 0,0.175 0.216,0.319 0.48,0.319 0.263,0 0.479,0.199 0.479,0.442 0,0.243 0.287,0.517 0.639,0.609 0.351,0.092 0.639,0.381 0.639,0.642 0,0.262 0.236,0.566 0.524,0.677 0.448,0.171 0.466,0.118 0.121,-0.366 -0.222,-0.311 0.312,0.189 1.186,1.111 0.874,0.923 1.75,1.678 1.946,1.678 0.197,0 0.676,0.431 1.066,0.958 0.389,0.527 0.839,0.959 0.998,0.959 0.16,0 0.707,0.296 1.216,0.659 0.509,0.362 1.059,0.577 1.222,0.476 0.162,-0.101 0.52,0.041 0.793,0.315 0.274,0.274 0.681,0.468 0.905,0.431 0.223,-0.037 0.811,0.1 1.306,0.304 0.494,0.204 1.033,0.37 1.198,0.37 0.164,0 0.298,0.153 0.298,0.339 0,0.186 0.118,0.266 0.261,0.177 0.347,-0.214 2.392,0.502 3.118,1.092 0.466,0.378 0.525,0.382 0.307,0.02 -0.201,-0.334 -0.156,-0.377 0.179,-0.168 0.542,0.338 0.759,0.375 3.803,0.64 1.318,0.114 2.468,0.3 2.556,0.412 0.088,0.112 0.663,0.219 1.278,0.238 0.615,0.018 3.634,0.127 6.709,0.242 13.021,0.485 15.073,0.505 19.329,0.188 2.46,-0.184 4.869,-0.344 5.352,-0.356 0.483,-0.013 0.878,-0.134 0.878,-0.271 0,-0.137 3.846,-0.32 8.547,-0.408 7.334,-0.138 9.824,-0.279 9.824,-0.558 0,-0.032 1.101,-0.08 2.447,-0.106 1.346,-0.027 2.389,0.047 2.317,0.162 -0.196,0.317 7.768,0.32 9.703,0.004 1.007,-0.165 1.76,-0.158 1.868,0.018 0.107,0.172 1.982,0.206 4.543,0.081 2.399,-0.116 5.201,-0.191 6.226,-0.166 1.026,0.025 1.786,-0.082 1.689,-0.238 -0.101,-0.164 0.523,-0.174 1.483,-0.022 0.913,0.144 3.89,0.266 6.618,0.27 2.727,0.004 7.157,0.093 9.843,0.197 2.687,0.104 5.119,0.1 5.405,-0.01 0.286,-0.11 3.94,-0.236 8.119,-0.28 4.179,-0.044 7.702,-0.184 7.828,-0.309 0.125,-0.126 1.678,-0.227 3.45,-0.224 1.812,0.003 3.04,0.12 2.807,0.268 -0.229,0.145 1.662,0.25 4.202,0.235 2.586,-0.016 4.541,0.095 4.444,0.252 -0.099,0.16 0.711,0.186 1.868,0.062 1.122,-0.121 2.472,-0.229 2.999,-0.241 0.528,-0.011 1.053,-0.17 1.169,-0.352 0.279,-0.439 6.773,-0.365 6.922,0.08 0.132,0.396 2.932,0.449 2.932,0.055 0,-0.151 0.683,-0.362 1.517,-0.468 1.984,-0.253 2.875,-0.448 3.326,-0.726 0.227,-0.141 0.28,-0.087 0.139,0.142 -0.125,0.202 -0.087,0.368 0.084,0.368 0.172,0 0.362,-0.15 0.423,-0.333 0.061,-0.184 0.424,-0.357 0.806,-0.386 0.92,-0.07 1.013,-0.61 0.56,-3.274 -0.21,-1.23 -0.319,-2.344 -0.245,-2.476 0.075,-0.132 0.002,-0.24 -0.163,-0.24 -0.301,0 -1.049,-4.695 -1.057,-6.634 -0.002,-0.574 -0.118,-0.973 -0.257,-0.887 -0.14,0.086 -0.353,-0.804 -0.473,-1.978 -0.12,-1.174 -0.336,-2.284 -0.48,-2.468 -0.144,-0.183 -0.348,-1.196 -0.453,-2.25 -0.231,-2.308 -0.318,-2.759 -0.631,-3.26 -0.132,-0.212 -0.158,-0.715 -0.057,-1.118 0.154,-0.614 0.052,-0.741 -0.627,-0.78 -0.492,-0.028 -0.729,0.086 -0.604,0.289 0.12,0.193 0.054,0.24 -0.155,0.111 -0.199,-0.123 -0.641,-0.074 -0.982,0.108 -0.453,0.242 -0.67,0.225 -0.805,-0.065 -0.148,-0.315 -0.224,-0.315 -0.372,0.002 -0.126,0.271 -1.008,0.4 -2.735,0.4 -1.401,0 -2.472,-0.123 -2.379,-0.273 0.186,-0.301 -4.287,-0.28 -4.778,0.022 -0.644,0.397 -3.951,0.696 -7.014,0.634 -2.789,-0.057 -9.887,-0.039 -26.438,0.068 -2.416,0.015 -4.393,0.136 -4.393,0.268 0,0.131 -1.15,0.239 -2.556,0.239 -1.406,0 -2.556,-0.108 -2.557,-0.239 -0.002,-0.416 -5.267,-0.621 -10.382,-0.405 -1.406,0.059 -4.497,0.097 -6.869,0.083 -5.772,-0.033 -7.029,0.023 -7.029,0.315 0,0.135 -0.647,0.246 -1.438,0.246 -0.79,0 -1.438,-0.108 -1.438,-0.239 -10e-4,-0.132 -1.51,-0.244 -3.355,-0.25 -1.844,-0.006 -3.354,0.102 -3.354,0.24 0,0.137 -1.078,0.249 -2.396,0.249 -1.318,0 -2.396,-0.109 -2.396,-0.242 0,-0.133 -0.899,-0.286 -1.997,-0.341 -4.456,-0.22 -6.23,-0.118 -6.93,0.402 -0.346,0.256 -0.401,0.242 -0.221,-0.058 0.132,-0.22 0.1,-0.4 -0.072,-0.4 -0.171,0 -0.371,0.18 -0.445,0.4 -0.101,0.305 -2.164,0.408 -8.732,0.436 -4.73,0.021 -8.959,0.142 -9.399,0.269 -0.439,0.128 -1.301,0.255 -1.916,0.283 -0.615,0.027 -1.334,0.194 -1.598,0.37 -0.618,0.412 -18.808,0.272 -19.315,-0.148 -0.2,-0.167 -1.545,-0.249 -2.989,-0.182 -1.443,0.066 -2.552,0.005 -2.464,-0.137 0.087,-0.141 -0.426,-0.265 -1.141,-0.275 -1.887,-0.026 -3.206,-0.37 -2.958,-0.772 0.12,-0.194 0.063,-0.25 -0.133,-0.129 -0.615,0.38 -1.907,-0.453 -1.962,-1.266 -0.029,-0.421 -0.076,-1.125 -0.104,-1.564 -0.029,-0.44 -0.131,-0.799 -0.228,-0.798 -0.097,0 -0.129,-1.309 -0.072,-2.909 0.071,-2.015 -0.002,-2.844 -0.24,-2.698 -0.349,0.216 -0.455,-0.862 -0.35,-3.547 0.028,-0.729 -0.066,-1.398 -0.21,-1.488 -0.144,-0.089 -0.262,-2.175 -0.262,-4.634 0,-2.459 -0.108,-4.405 -0.24,-4.324 -0.131,0.081 -0.262,-1.119 -0.289,-2.667 -0.028,-1.547 -0.092,-3.173 -0.143,-3.613 -0.051,-0.439 -0.136,-7.65 -0.188,-16.024 -0.053,-8.374 -0.204,-15.159 -0.337,-15.077 -0.132,0.082 -0.241,0.005 -0.241,-0.171 0,-0.176 0.124,-0.396 0.275,-0.489 0.335,-0.207 0.302,-11.219 -0.035,-11.556 -0.132,-0.132 -0.24,-0.368 -0.24,-0.525 0,-0.157 0.108,-0.218 0.24,-0.137 0.132,0.081 0.258,-5.122 0.28,-11.563 0.022,-6.44 0.065,-15.053 0.096,-19.138 l 0.056,-7.428 4.377,-0.041 c 2.407,-0.023 4.736,-0.086 5.175,-0.141 0.439,-0.054 2.164,-0.144 3.834,-0.198 1.669,-0.055 3.107,-0.186 3.195,-0.291 0.088,-0.105 6.828,-0.284 14.979,-0.396 11.182,-0.155 14.942,-0.304 15.317,-0.608 0.406,-0.328 0.45,-0.323 0.238,0.029 -0.211,0.35 -0.131,0.363 0.422,0.066 0.393,-0.21 1.154,-0.276 1.796,-0.156 0.679,0.128 1.113,0.083 1.113,-0.116 0,-0.445 2.233,-0.68 7.428,-0.78 2.416,-0.046 4.393,-0.192 4.393,-0.324 0,-0.131 1.303,-0.239 2.895,-0.239 1.842,0 2.823,0.116 2.697,0.318 -0.13,0.211 0.08,0.214 0.62,0.008 0.47,-0.178 0.817,-0.188 0.817,-0.022 0,0.159 0.935,0.263 2.077,0.232 1.142,-0.031 2.077,-0.148 2.077,-0.26 0,-0.111 0.826,-0.32 1.837,-0.465 1.01,-0.144 1.981,-0.287 2.156,-0.319 0.176,-0.032 0.867,-0.074 1.537,-0.094 0.722,-0.022 1.136,-0.167 1.019,-0.357 -0.178,-0.288 0.94,-0.48 1.997,-0.343 0.22,0.029 0.399,-0.097 0.399,-0.28 0,-0.193 0.469,-0.271 1.129,-0.187 0.674,0.087 1.053,0.021 0.94,-0.161 -0.104,-0.169 0.11,-0.307 0.475,-0.307 0.399,0 0.81,-0.319 1.029,-0.798 0.2,-0.44 0.493,-0.799 0.651,-0.799 0.158,0 0.205,-0.133 0.104,-0.295 -0.1,-0.163 0.251,-0.77 0.78,-1.35 0.53,-0.579 0.963,-1.165 0.963,-1.302 0,-0.136 -0.005,-0.325 -0.012,-0.419 -0.006,-0.094 0.21,-0.392 0.479,-0.662 0.27,-0.27 0.491,-0.688 0.491,-0.929 0,-0.241 0.303,-0.65 0.674,-0.91 0.37,-0.259 0.577,-0.627 0.46,-0.817 -0.117,-0.19 -0.096,-0.345 0.047,-0.345 0.143,0 0.452,-0.432 0.686,-0.96 0.233,-0.528 0.56,-0.877 0.725,-0.775 0.164,0.102 0.279,0.067 0.254,-0.078 -0.119,-0.682 0.063,-1.079 0.399,-0.871 0.254,0.156 0.313,0.011 0.19,-0.461 -0.099,-0.379 -0.05,-0.609 0.109,-0.511 0.252,0.156 0.462,-1.832 0.314,-2.973 -0.029,-0.22 0.085,-0.4 0.252,-0.4 0.167,0 0.353,-0.777 0.413,-1.727 0.06,-0.95 0.002,-1.66 -0.13,-1.579 -0.132,0.082 -0.24,0.005 -0.24,-0.17 0,-0.176 0.133,-0.402 0.295,-0.502 0.162,-0.1 0.319,-2.804 0.348,-6.009 0.03,-3.205 0.101,-6.187 0.158,-6.626 0.058,-0.439 0.119,-2.452 0.136,-4.473 0.018,-2.021 0.137,-3.508 0.266,-3.304 0.13,0.203 0.235,-0.659 0.235,-1.917 0,-1.258 -0.121,-2.376 -0.269,-2.484 -0.349,-0.255 -0.344,-9.896 0.005,-10.152 0.331,-0.243 0.353,-8.342 0.022,-8.341 -0.133,0 -0.062,-0.292 0.16,-0.649 0.331,-0.534 0.319,-0.7 -0.065,-0.939 -0.388,-0.241 -0.486,-1.851 -0.579,-9.495 -0.061,-5.062 -0.195,-9.42 -0.296,-9.684 -0.102,-0.263 -0.154,-0.946 -0.116,-1.517 0.038,-0.571 -0.086,-1.039 -0.275,-1.039 -0.189,0 -0.344,-0.503 -0.344,-1.118 0,-0.615 -0.12,-1.118 -0.266,-1.118 -0.147,0 -0.267,-0.209 -0.267,-0.465 0,-0.256 0.1,-0.404 0.221,-0.329 0.122,0.075 0.243,-1.522 0.27,-3.549 0.027,-2.027 -0.077,-3.609 -0.229,-3.514 -0.153,0.094 -0.236,-0.216 -0.184,-0.69 0.052,-0.474 -0.022,-1.009 -0.165,-1.189 -0.143,-0.18 -0.36,-1.157 -0.482,-2.169 -0.123,-1.013 -0.34,-1.77 -0.482,-1.682 -0.237,0.147 -0.971,-3.813 -1.019,-5.5 -0.012,-0.395 -0.149,-0.638 -0.306,-0.541 -0.157,0.097 -0.286,0.025 -0.286,-0.161 0,-0.187 -0.194,-0.339 -0.43,-0.339 -0.237,0 -0.762,-0.287 -1.167,-0.639 -0.406,-0.351 -1.011,-0.639 -1.346,-0.639 -0.335,0 -0.548,-0.108 -0.474,-0.239 0.074,-0.132 -0.5,-0.562 -1.276,-0.955 -0.775,-0.393 -1.334,-0.592 -1.241,-0.441 0.093,0.15 -0.323,0.05 -0.925,-0.223 -0.601,-0.272 -1.007,-0.635 -0.902,-0.806 0.11,-0.178 0.025,-0.206 -0.2,-0.067 -0.232,0.143 -0.711,-0.056 -1.168,-0.486 -0.426,-0.4 -0.777,-0.595 -0.78,-0.433 -0.003,0.163 -0.141,0.08 -0.307,-0.184 -0.245,-0.387 -1.321,-0.5 -5.588,-0.586 -2.907,-0.059 -5.225,-0.206 -5.151,-0.326 0.074,-0.12 -0.392,-0.231 -1.036,-0.246 -0.645,-0.016 -1.747,-0.111 -2.45,-0.211 -0.703,-0.1 -2.544,-0.193 -4.092,-0.205 -1.564,-0.013 -2.736,-0.15 -2.638,-0.308 0.099,-0.161 -1.067,-0.266 -2.666,-0.24 -1.563,0.025 -2.676,0.151 -2.474,0.28 0.203,0.13 -1.225,0.237 -3.172,0.24 -1.948,0.003 -3.649,-0.103 -3.781,-0.235 -0.329,-0.328 -7.01,-0.326 -7.242,0.002 -0.262,0.37 -23.954,0.396 -24.209,0.027 -0.117,-0.168 -3.43,-0.29 -7.664,-0.282 -4.102,0.007 -7.525,-0.094 -7.606,-0.226 -0.082,-0.132 -1.083,-0.24 -2.225,-0.24 -1.359,0 -2.006,0.116 -1.871,0.333 0.14,0.228 -1.119,0.283 -3.975,0.173 -2.567,-0.098 -4.18,-0.042 -4.18,0.146 0,0.169 -1.007,0.307 -2.237,0.307 -1.237,0 -2.236,-0.139 -2.236,-0.311 0,-0.194 -1.144,-0.236 -3.035,-0.112 -2.272,0.15 -3.035,0.103 -3.035,-0.187 0,-0.224 0.167,-0.285 0.399,-0.146 0.271,0.163 0.259,0.066 -0.039,-0.301 -0.296,-0.364 -0.319,-0.541 -0.072,-0.541 0.229,0 0.333,-0.479 0.278,-1.277 -0.048,-0.703 -0.177,-1.278 -0.286,-1.278 -0.11,0 -0.281,-0.683 -0.38,-1.518 -0.223,-1.866 -0.368,-2.571 -0.57,-2.773 -0.085,-0.085 -0.058,-1.06 0.061,-2.166 0.298,-2.78 0.039,-14.64 -0.33,-15.085 -0.463,-0.557 -0.49,-4.417 -0.037,-5.263 0.219,-0.409 0.341,-1.231 0.272,-1.826 -0.07,-0.595 -0.027,-1.082 0.094,-1.082 0.122,0 0.224,-2.445 0.228,-5.433 0.003,-2.988 -0.089,-5.373 -0.206,-5.301 -0.116,0.072 -0.161,-0.663 -0.1,-1.634 0.078,-1.227 0.005,-1.7 -0.239,-1.549 -0.22,0.135 -0.351,-0.083 -0.351,-0.582 0,-0.439 0.127,-0.877 0.282,-0.973 0.156,-0.096 0.345,-0.601 0.422,-1.121 0.076,-0.52 0.021,-0.872 -0.123,-0.783 -0.144,0.089 -0.262,0.009 -0.262,-0.177 0,-0.186 0.168,-0.338 0.373,-0.338 0.205,0 0.282,-0.091 0.171,-0.202 -0.111,-0.111 -0.064,-0.459 0.104,-0.773 0.213,-0.398 0.185,-0.62 -0.091,-0.732 -0.297,-0.121 -0.277,-0.25 0.082,-0.512 0.38,-0.278 0.298,-0.321 -0.399,-0.205 -0.484,0.08 -0.879,0.011 -0.879,-0.153 0,-0.164 -0.495,-0.299 -1.099,-0.299 -0.605,0 -1.197,-0.157 -1.316,-0.349 -0.119,-0.193 -0.558,-0.284 -0.977,-0.204 -0.419,0.08 -0.761,0.013 -0.761,-0.149 0,-0.162 -0.113,-0.224 -0.25,-0.139 -0.387,0.239 -3.265,-0.451 -3.265,-0.782 0,-0.161 -0.152,-0.294 -0.338,-0.294 -0.186,0 -0.253,0.139 -0.148,0.309 0.105,0.169 -0.313,0.097 -0.929,-0.16 -0.616,-0.258 -1.564,-0.468 -2.108,-0.468 -0.577,0 -0.905,-0.133 -0.79,-0.32 0.109,-0.175 -0.035,-0.319 -0.319,-0.319 -0.29,0 -0.423,0.152 -0.303,0.346 0.117,0.19 -0.25,0.106 -0.815,-0.186 -0.734,-0.38 -0.956,-0.41 -0.773,-0.107 0.207,0.345 0.155,0.344 -0.279,-0.008 -0.294,-0.238 -1.076,-0.506 -1.738,-0.594 -0.662,-0.089 -1.276,-0.253 -1.364,-0.365 -0.088,-0.112 -0.519,-0.247 -0.958,-0.3 -0.44,-0.053 -1.158,-0.16 -1.598,-0.237 -2.648,-0.469 -3.458,-0.495 -3.688,-0.123" />
  </g>
</svg>
